<svg xmlns="http://www.w3.org/2000/svg" width="32" height="32" version="1.1">
 <defs>
  <style id="current-color-scheme" type="text/css">
   .ColorScheme-Text { color: #ececec; } .ColorScheme-Highlight { color: #1AD6AB; }
  </style>
  <linearGradient id="arrongin" x1="0%" x2="0%" y1="0%" y2="100%">
   <stop offset="0%"   stop-color="#dd9b44"/>
   <stop offset="100%" stop-color="#ad6c16"/>
  </linearGradient>
  <linearGradient id="aurora" x1="0%" x2="0%" y1="0%" y2="100%">
   <stop offset="0%"    stop-color="#09D4DF"/>
   <stop offset="100%" stop-color="#9269F4"/>
  </linearGradient>
  <linearGradient id="cyberblue" x1="0%" x2="0%" y1="0%" y2="100%">
   <stop offset="0%"   stop-color="#07B3FF"/>
   <stop offset="100%" stop-color="#007DE8"/>
  </linearGradient>
  <linearGradient id="cyberneon" x1="0%" x2="0%" y1="0%" y2="100%">
   <stop offset="0%"   stop-color="#0abdc6"/>
   <stop offset="100%" stop-color="#ea00d9"/>
  </linearGradient>
  <linearGradient id="fitdance" x1="0%" x2="0%" y1="0%" y2="100%">
   <stop offset="0%"   stop-color="#1AD6AB"/>
   <stop offset="100%" stop-color="#329DB6"/>
  </linearGradient>
  <linearGradient id="oomox" x1="0%" x2="0%" y1="0%" y2="100%">
   <stop offset="0%"   stop-color="#efefe7"/>
   <stop offset="100%" stop-color="#8f8f8b"/>
  </linearGradient>
  <linearGradient id="rainblue" x1="0%" x2="0%" y1="0%" y2="100%">
   <stop offset="0%"   stop-color="#00F260"/>
   <stop offset="100%" stop-color="#0575E6"/>
  </linearGradient>
  <linearGradient id="redcarbon" x1="0%" x2="100%" y1="0%" y2="100%">
   <stop offset="0%"   stop-color="#FF6D57"/>
   <stop offset="50%"  stop-color="#FF5160"/>
   <stop offset="100%" stop-color="#F50F22"/>
  </linearGradient>
  <linearGradient id="sunrise" x1="0%" x2="0%" y1="0%" y2="100%">
   <stop offset="0%"   stop-color="#FF8501"/>
   <stop offset="100%" stop-color="#FFCB01"/>
  </linearGradient>
  <linearGradient id="telinkrin" x1="0%" x2="0%" y1="0%" y2="100%">
   <stop offset="0%"   stop-color="#b2ced6"/>
   <stop offset="100%" stop-color="#6da5b7"/>
  </linearGradient>
  <linearGradient id="60spsycho" x1="0%" x2="0%" y1="0%" y2="100%">
   <stop offset="0%"   stop-color="#df5940"/>
   <stop offset="25%"  stop-color="#d8d15f"/>
   <stop offset="50%"  stop-color="#e9882a"/>
   <stop offset="100%" stop-color="#279362"/>
  </linearGradient>
  <linearGradient id="90ssummer" x1="0%" x2="0%" y1="0%" y2="100%">
   <stop offset="0%"   stop-color="#f618c7"/>
   <stop offset="20%"  stop-color="#94ffab"/>
   <stop offset="50%"  stop-color="#fbfd54"/>
   <stop offset="100%" stop-color="#0f83ae"/>
  </linearGradient>
  <linearGradient id="pause" x1="0" x2="0" y1="0" y2="1" gradientTransform="matrix(4,0,0,12,14,5.734)" gradientUnits="userSpaceOnUse">
   <stop offset="0%"   stop-color="#f06"/>
   <stop offset="100%" stop-color="#dc1499"/>
  </linearGradient>
  <linearGradient id="squircle" x1="0" x2="0" y1="0" y2="1" gradientTransform="matrix(24,0,0,22.401,0,0.533)" gradientUnits="userSpaceOnUse">
   <stop offset="0%"   stop-color="#4c5561"/>
   <stop offset="100%" stop-color="#2e3842"/>
  </linearGradient>
 </defs>
 <path fill="url(#squircle)" d="M 9,28 7,26 H 3 C 1.892,26 1,25.108 1,24 V 6 C 1,4.892 1.892,4 3,4 h 24 c 1.108,0 2,0.892 2,2 v 18 c 0,1.108 -0.892,2 -2,2 h -4 l -2,2 z"/>
 <path fill="#8f8f8b" d="M 9,27 7,25 H 3 C 1.892,25 1,24.108 1,23 V 5 C 1,3.892 1.892,3 3,3 h 24 c 1.108,0 2,0.892 2,2 v 18 c 0,1.108 -0.892,2 -2,2 h -4 l -2,2 z"/>
 <path opacity="0.6" d="M 11,23 9,21 H 5 V 7 h 20 v 14 h -4 l -2,2 z"/>
 <g fill="url(#sunrise)" transform="matrix(1,0,0,-1,-1,-1)">
  <rect width="2" height="2" x="9" y="-10"/>
  <rect width="2" height="2" x="12" y="-10"/>
  <rect width="2" height="2" x="15" y="-10"/>
  <rect width="2" height="2" x="18" y="-10"/>
  <rect width="2" height="2" x="21" y="-10"/>
 </g>
 <path fill="#efefef" opacity="0.2" d="M 3,3 C 1.892,3 1,3.892 1,5 V 6 C 1,4.892 1.892,4 3,4 h 24 c 1.108,0 2,0.892 2,2 V 5 C 29,3.892 28.108,3 27,3 Z"/>
 <path fill="#efefef" opacity="0.2" d="m 5,21 v 1 h 4 l 2,2 h 8 l 2,-2 h 4 v -1 h -4 l -2,2 H 11 L 9,21 Z"/>
 <circle opacity="0.2" cx="24" cy="24" r="8"/>
 <circle fill="url(#redcarbon)" cx="24" cy="23" r="8"/>
 <g fill="#efefef" transform="matrix(0.57142857,-0.57142857,0.57142857,0.57142857,-16,21.857143)">
  <rect width="12" height="2" x="28" y="35"/>
  <rect width="12" height="2" x="-42" y="33" transform="rotate(-90)"/>
 </g>
</svg>
