<svg xmlns="http://www.w3.org/2000/svg" style="isolation:isolate" width="256" height="256">
 <switch>
  <g>
   <defs>
    <filter id="a" width="270.648" height="254.338" x="-7.32" y="2.95" filterUnits="userSpaceOnUse">
     <feGaussianBlur xmlns="http://www.w3.org/2000/svg" in="SourceGraphic" stdDeviation="4.294"/>
     <feOffset xmlns="http://www.w3.org/2000/svg" dy="4" result="pf_100_offsetBlur"/>
     <feFlood xmlns="http://www.w3.org/2000/svg" flood-opacity=".4"/>
     <feComposite xmlns="http://www.w3.org/2000/svg" in2="pf_100_offsetBlur" operator="in" result="pf_100_dropShadow"/>
     <feBlend xmlns="http://www.w3.org/2000/svg" in="SourceGraphic" in2="pf_100_dropShadow"/>
    </filter>
   </defs>
   <path fill="#F7F7F7" d="M165.689 11.95c74.056 0 84.639 10.557 84.639 84.544v59.251c0 73.986-10.583 84.543-84.639 84.543h-75.37c-74.055 0-84.639-10.557-84.639-84.543V96.494c0-73.987 10.584-84.544 84.639-84.544h75.37z" filter="url(#a)"/>
   <g opacity=".4">
    <linearGradient id="b" x1=".517" x2=".517" y2="1">
     <stop offset="0%" stop-color="#fff"/>
     <stop offset="12.5%" stop-color="#fff" stop-opacity=".098"/>
     <stop offset="92.5%" stop-opacity=".098"/>
     <stop offset="100%" stop-opacity=".498"/>
    </linearGradient>
    <path fill="none" stroke="url(#b)" stroke-linecap="round" stroke-linejoin="round" stroke-width="4.077" d="M165.685 11.947c74.055 0 84.639 10.557 84.639 84.544v59.251c0 73.986-10.584 84.543-84.639 84.543h-75.37c-74.055 0-84.639-10.557-84.639-84.543V96.491c0-73.987 10.584-84.544 84.639-84.544h75.37z" vector-effect="non-scaling-stroke"/>
   </g>
   <circle fill="#FFCC4D" cx="128.8" cy="128" r="71.6" vector-effect="non-scaling-stroke"/>
   <path fill="#664500" d="M99.026 150.359c.179.712 4.646 17.419 29.774 17.419 25.132 0 29.595-16.707 29.774-17.419a1.985 1.985 0 0 0-.943-2.204 2.01 2.01 0 0 0-2.387.307c-.075.075-7.772 7.382-26.444 7.382-18.672 0-26.373-7.307-26.444-7.378a1.995 1.995 0 0 0-2.379-.323 1.993 1.993 0 0 0-.951 2.216z"/>
   <ellipse fill="#664500" cx="104.933" cy="110.1" rx="9.944" ry="13.922" vector-effect="non-scaling-stroke"/>
   <ellipse fill="#664500" cx="152.667" cy="110.1" rx="9.944" ry="13.922" vector-effect="non-scaling-stroke"/>
  </g>
 </switch>
</svg>
