<svg xmlns="http://www.w3.org/2000/svg" width="22" height="22" version="1.1">
 <defs>
  <style id="current-color-scheme" type="text/css">
   .ColorScheme-Text { color: #ececec; } .ColorScheme-Highlight { color: #1AD6AB; }
  </style>
  <linearGradient id="arrongin" x1="0%" x2="0%" y1="0%" y2="100%">
   <stop offset="0%" style="stop-color:#dd9b44"/>
   <stop offset="100%" style="stop-color:#ad6c16"/>
  </linearGradient>
  <linearGradient id="aurora" x1="0%" x2="0%" y1="0%" y2="100%">
   <stop offset="0%" style="stop-color:#09D4DF"/>
   <stop offset="100%" style="stop-color:#9269F4"/>
  </linearGradient>
  <linearGradient id="cyberneon" x1="0%" x2="0%" y1="0%" y2="100%">
   <stop offset="0" style="stop-color:#0abdc6"/>
   <stop offset="1" style="stop-color:#ea00d9"/>
  </linearGradient>
  <linearGradient id="fitdance" x1="0%" x2="0%" y1="0%" y2="100%">
   <stop offset="0%" style="stop-color:#1AD6AB"/>
   <stop offset="100%" style="stop-color:#329DB6"/>
  </linearGradient>
  <linearGradient id="oomox" x1="0%" x2="0%" y1="0%" y2="100%">
   <stop offset="0%" style="stop-color:#efefe7"/>
   <stop offset="100%" style="stop-color:#8f8f8b"/>
  </linearGradient>
  <linearGradient id="rainblue" x1="0%" x2="0%" y1="0%" y2="100%">
   <stop offset="0%" style="stop-color:#00F260"/>
   <stop offset="100%" style="stop-color:#0575E6"/>
  </linearGradient>
  <linearGradient id="sunrise" x1="0%" x2="0%" y1="0%" y2="100%">
   <stop offset="0%" style="stop-color:#FF8501"/>
   <stop offset="100%" style="stop-color:#FFCB01"/>
  </linearGradient>
  <linearGradient id="telinkrin" x1="0%" x2="0%" y1="0%" y2="100%">
   <stop offset="0%" style="stop-color:#b2ced6"/>
   <stop offset="100%" style="stop-color:#6da5b7"/>
  </linearGradient>
  <linearGradient id="60spsycho" x1="0%" x2="0%" y1="0%" y2="100%">
   <stop offset="0%" style="stop-color:#df5940"/>
   <stop offset="25%" style="stop-color:#d8d15f"/>
   <stop offset="50%" style="stop-color:#e9882a"/>
   <stop offset="100%" style="stop-color:#279362"/>
  </linearGradient>
  <linearGradient id="90ssummer" x1="0%" x2="0%" y1="0%" y2="100%">
   <stop offset="0%" style="stop-color:#f618c7"/>
   <stop offset="20%" style="stop-color:#94ffab"/>
   <stop offset="50%" style="stop-color:#fbfd54"/>
   <stop offset="100%" style="stop-color:#0f83ae"/>
  </linearGradient>
 </defs>
 <path fill="currentColor" class="ColorScheme-Text" d="m 6.9999689,3 a 2,2 0 0 0 -2,2 2,2 0 0 0 2,2 2,2 0 0 0 2,-2 2,2 0 0 0 -2,-2 z m 2.212891,0 c 0.483,0.53335 0.787109,1.2314 0.787109,2 0,1.645 -1.355,3 -3,3 -0.7686,0 -1.4667,-0.3041094 -2,-0.7871094 V 17 c 0,1.116 0.8843,2 2,2 1.1157,0 2,-0.884 2,-2 v -3 h 0.408203 l -0.769531,-1.158203 -0.0078,-0.01172 c -0.2881,-0.448 -0.63006,-1.048125 -0.63086,-1.828125 v -0.002 c 0,-1.6450001 1.355,-3.0000001 3.0000001,-3.0000001 h 0.002 c 0.963,0.0012 1.868841,0.4663469 2.431641,1.2480469 l 0.01953,0.029297 2.009766,3.0156252 c 0.947004,-0.9872 1.537113,-2.3207691 1.537113,-3.7929691 0,-3.0376 -2.5,-5.5 -5.5,-5.5 z m 1.7871091,6 c -1.1046001,0 -2.0000001,0.8954 -2.0000001,2 5e-4,0.472 0.218956,0.894563 0.472656,1.289063 l 3.8457031,5.794921 c 0.374,0.569 1.001641,0.916016 1.681641,0.916016 1.1046,0 2,-0.89543 2,-2 -9.42e-4,-0.41214 -0.129187,-0.813911 -0.367188,-1.150391 L 12.621063,9.8320312 C 12.245763,9.3103312 11.642669,9.0008 10.999969,9 Z"/>
</svg>
