<svg xmlns="http://www.w3.org/2000/svg" width="22" height="22" version="1.1">
 <defs>
  <style id="current-color-scheme" type="text/css">
   .ColorScheme-Text { color: #ececec; } .ColorScheme-Highlight { color: #1AD6AB; }
  </style>
  <linearGradient id="arrongin" x1="0%" x2="0%" y1="0%" y2="100%">
   <stop offset="0%" style="stop-color:#dd9b44"/>
   <stop offset="100%" style="stop-color:#ad6c16"/>
  </linearGradient>
  <linearGradient id="aurora" x1="0%" x2="0%" y1="0%" y2="100%">
   <stop offset="0%" style="stop-color:#09D4DF"/>
   <stop offset="100%" style="stop-color:#9269F4"/>
  </linearGradient>
  <linearGradient id="cyberneon" x1="0%" x2="0%" y1="0%" y2="100%">
   <stop offset="0" style="stop-color:#0abdc6"/>
   <stop offset="1" style="stop-color:#ea00d9"/>
  </linearGradient>
  <linearGradient id="fitdance" x1="0%" x2="0%" y1="0%" y2="100%">
   <stop offset="0%" style="stop-color:#1AD6AB"/>
   <stop offset="100%" style="stop-color:#329DB6"/>
  </linearGradient>
  <linearGradient id="oomox" x1="0%" x2="0%" y1="0%" y2="100%">
   <stop offset="0%" style="stop-color:#efefe7"/>
   <stop offset="100%" style="stop-color:#8f8f8b"/>
  </linearGradient>
  <linearGradient id="rainblue" x1="0%" x2="0%" y1="0%" y2="100%">
   <stop offset="0%" style="stop-color:#00F260"/>
   <stop offset="100%" style="stop-color:#0575E6"/>
  </linearGradient>
  <linearGradient id="sunrise" x1="0%" x2="0%" y1="0%" y2="100%">
   <stop offset="0%" style="stop-color:#FF8501"/>
   <stop offset="100%" style="stop-color:#FFCB01"/>
  </linearGradient>
  <linearGradient id="telinkrin" x1="0%" x2="0%" y1="0%" y2="100%">
   <stop offset="0%" style="stop-color:#b2ced6"/>
   <stop offset="100%" style="stop-color:#6da5b7"/>
  </linearGradient>
  <linearGradient id="60spsycho" x1="0%" x2="0%" y1="0%" y2="100%">
   <stop offset="0%" style="stop-color:#df5940"/>
   <stop offset="25%" style="stop-color:#d8d15f"/>
   <stop offset="50%" style="stop-color:#e9882a"/>
   <stop offset="100%" style="stop-color:#279362"/>
  </linearGradient>
  <linearGradient id="90ssummer" x1="0%" x2="0%" y1="0%" y2="100%">
   <stop offset="0%" style="stop-color:#f618c7"/>
   <stop offset="20%" style="stop-color:#94ffab"/>
   <stop offset="50%" style="stop-color:#fbfd54"/>
   <stop offset="100%" style="stop-color:#0f83ae"/>
  </linearGradient>
 </defs>
 <path fill="currentColor" class="ColorScheme-Text" d="m 11.042968,3.0005168 a 1.7755,1.8191263 0 0 0 -0.93164,0.2441301 L 4.888672,6.3343657 A 1.7755,1.8191263 0 0 0 4,7.9104738 v 6.1794382 a 1.7755,1.8191263 0 0 0 0.888672,1.576108 l 5.222656,3.089718 a 1.7755,1.8191263 0 0 0 1.777344,0 L 17.111328,15.66602 A 1.7755,1.8191263 0 0 0 18,14.089912 V 7.9104738 A 1.7755,1.8191263 0 0 0 17.111328,6.3343657 L 11.888672,3.2446469 A 1.7755,1.8191263 0 0 0 11.042968,3.0024697 Z M 8.884765,7.0003547 c 0.835627,0 1.58821,0.4262017 2.115235,1.0722215 0.526889,-0.6460198 1.27963,-1.0722215 2.115233,-1.0722215 1.593357,0 2.884767,1.4699324 2.884767,3.2830703 0,0.487156 -0.08251,0.954497 -0.208984,1.40424 -0.06961,0.247482 0.989492,-2.2180174 -0.226563,0.624975 C 14.348398,15.155632 11,16.99995 11,16.99995 c 0,0 -3.348376,-1.844269 -4.564453,-4.68731 C 6.329145,12.09028 6.208984,11.687665 6.208984,11.687665 6.076525,11.23999 6,10.770581 6,10.283425 6,8.4702871 7.291409,7.0003547 8.884765,7.0003547 Z"/>
</svg>
