<svg xmlns="http://www.w3.org/2000/svg" width="16" height="16" version="1.1">
 <path fill="#ececec" d="M 2.1332462,0 C 0.9698368,0 -8e-5,0.9699168 -8e-5,2.1333262 V 13.86662 c 0,1.16341 0.9699168,2.133316 2.1333262,2.133327 L 10.133433,16 11.733214,14.933284 H 1.0665831 v -4.266653 h 4.2666525 v 4.266653 H 6.3998987 V 10.666631 H 14.933204 V 9.599968 H 6.3998987 V 6.3999787 H 9.599888 v 8.5333053 h 1.066663 V 6.3999253 l 4.266653,5.34e-5 V 5.3333156 l -4.266653,-5.34e-5 V 1.0666631 h 4.266653 V 5.3333156 13.86662 L 16.00008,10.166633 15.999867,2.1333262 C 15.999835,0.9699168 15.02995,0 13.86654,0 Z M 1.0665831,1.0666631 H 5.3332356 V 5.3333156 H 1.0665831 Z m 5.3333156,0 H 9.599888 V 5.3333156 H 6.3998987 Z M 1.0665831,6.3999787 H 5.3332356 V 9.599968 H 1.0665831 Z M 16.00008,10.166633 14.933204,13.86662 v 1.066664 h -3.19999 L 10.133433,16 h 3.733321 c 1.163409,0 2.133326,-0.969917 2.133326,-2.133326 z"/>
</svg>
