<svg xmlns="http://www.w3.org/2000/svg" width="16" height="16" version="1.1">
 <path fill="#ececec" d="m 13.76151,12.674253 c 0,0 3.835685,7.801342 1.465568,-0.492753 0,0 -1.805594,-6.018502 -4.162582,-9.7137134 0,0 -2.1141132,-4.3441923 -4.7577382,-1.50495395 0,0 -5.58045101,5.89640835 -6.26619181,12.76081835 0,0 -0.7251261,3.931085 3.94158761,1.435811 l 6.3165174,-3.126313 c 0,0 4.683781,-2.484333 -0.6699862,-0.89317 l -5.295565,1.914123 c 0,0 -2.309288,1.102787 -1.3080276,-1.020953 0,0 2.2011974,-5.391402 3.5411706,-6.8272128 0,0 1.563157,-3.0037812 2.839239,-0.1781088 4.37e-4,-4.377e-4 2.5547892,3.6304446 4.3560082,7.6464256 z"/>
</svg>
