<svg xmlns="http://www.w3.org/2000/svg" width="16" height="16" version="1.1">
 <path fill="#ececec" d="M 15 9.528 L 13.616 10.205 L 13.616 5.795 L 15 6.472 L 15 9.528 Z M 13.108 4.983 L 13.108 11.361 L 12.409 11.361 L 12.409 4.639 L 13.108 4.639 L 13.108 4.983 Z M 10.767 11.361 L 10.767 4.639 L 11.901 4.639 L 11.901 11.361 L 10.767 11.361 Z M 1 6.472 L 2.381 5.795 L 2.381 10.205 L 1 9.528 L 1 6.472 Z M 2.888 11.017 L 2.888 4.639 L 3.7 4.639 L 3.7 11.361 L 2.888 11.361 L 2.888 11.017 Z M 5.342 11.361 L 4.207 11.361 L 4.207 4.639 L 5.342 4.639 L 5.342 11.361 Z M 5.849 7.574 L 10.26 7.574 L 10.26 8.426 L 5.849 8.426 L 5.849 7.574 Z"/>
</svg>
