<svg xmlns="http://www.w3.org/2000/svg" width="16" height="16" version="1.1">
 <path fill="#ececec" fill-rule="evenodd" opacity=".6" d="M8.35581 0.647625C8.13909 0.470632 7.5472 0 7.5472 0L4.53083 7.43751C4.31264 7.43816 4.17187 7.48801 4.17187 7.58984C4.17187 7.69224 3.79195 8.59101 3.79195 8.59101L4.19064 8.2763L1.43796 15.0636L6.83283 9.68177L15.6302 14.9988C15.7147 15.0547 15.7277 15.0318 15.6953 14.9591C13.9049 10.5077 9.62908 0 9.62908 0C9.62908 0 9.18306 0.422179 9.00342 0.647625H8.35581Z" clip-rule="evenodd"/>
 <path fill="#ececec" fill-rule="evenodd" d="m4.57252 7.77744h9.37168c0.0618-2.2e-4 0.0583 0.01964-6e-4 0.05638l-12.86694 7.68468c-0.078106 0.0462-0.095938 0.0263-0.05619-0.0568l3.15597-7.88222s-0.02943 0.17975 0.39608 0.19796z" clip-rule="evenodd"/>
 <path fill="#ececec" fill-rule="evenodd" d="M9.62908 0H7.5472L8.57484 1.37143L9.62908 0Z" clip-rule="evenodd"/>
</svg>
