<svg xmlns="http://www.w3.org/2000/svg" width="16" height="16" version="1.1">
 <path style="fill:#ececec" d="M 10.285156 1 L 10.285156 2.1660156 L 0 2.1660156 L 0 4.5 L 10.285156 4.5 L 10.285156 5.6660156 L 12.572266 5.6660156 L 12.572266 4.5 L 12.572266 2.1660156 L 12.572266 1 L 10.285156 1 z M 13.714844 2.1660156 L 13.714844 4.5 L 16 4.5 L 16 2.1660156 L 13.714844 2.1660156 z M 3.4277344 5.6660156 L 3.4277344 6.8339844 L 0 6.8339844 L 0 9.1660156 L 3.4277344 9.1660156 L 3.4277344 10.333984 L 5.7148438 10.333984 L 5.7148438 9.1660156 L 5.7148438 6.8339844 L 5.7148438 5.6660156 L 3.4277344 5.6660156 z M 6.8574219 6.8339844 L 6.8574219 9.1660156 L 16 9.1660156 L 16 6.8339844 L 6.8574219 6.8339844 z M 8 10.333984 L 8 11.5 L 0 11.5 L 0 13.833984 L 8 13.833984 L 8 15 L 10.285156 15 L 10.285156 13.833984 L 10.285156 11.5 L 10.285156 10.333984 L 8 10.333984 z M 11.427734 11.5 L 11.427734 13.833984 L 16 13.833984 L 16 11.5 L 11.427734 11.5 z"/>
</svg>
