<svg xmlns="http://www.w3.org/2000/svg" fill="none" width="16" height="16" version="1.1">
 <path fill="#ececec" fill-rule="evenodd" opacity=".6" d="M13.2602 6.63409C13.4831 6.63409 13.6157 6.89645 13.4857 7.08375L7.40433 15.8803C7.24507 16.105 6.90279 15.9927 6.90279 15.7144V6.91781C6.90279 6.76261 7.02747 6.63409 7.17871 6.63409H13.2602Z" clip-rule="evenodd"/>
 <path fill="#ececec" d="M9.23043 0.0323511C9.26887 0.0113377 9.31182 0.000226072 9.35556 0C9.49618 0 9.63454 0.109973 9.63454 0.286581V6.6732H8.46382V3.15091L4.97522 8.19512H6.9219V9.36583H3.27552C3.05262 9.36583 2.92028 9.10347 3.05297 8.91617L9.13526 0.120429C9.15933 0.0836127 9.192 0.0533532 9.23043 0.0323511Z"/>
 <path fill="#ececec" fill-rule="evenodd" opacity=".8" d="M8.46382 6.63409V8.19512H6.90279V9.36583H9.35782C9.50907 9.36583 9.63454 9.23675 9.63454 9.08155V6.63409H8.46382Z" clip-rule="evenodd"/>
</svg>
