<svg xmlns="http://www.w3.org/2000/svg" width="16" height="16" version="1.1">
 <path fill="#ececec" d="M 11.07174,0 C 9.8521038,0 8.8633799,0.9895131 8.8633799,2.2101393 c 0,0.3943498 0.1010724,0.7610272 0.2819176,1.0815575 L 6.7254946,5.7134462 C 6.2888467,5.5358182 5.8162895,5.4313006 5.3159013,5.4313006 c -0.6487451,0 -1.2646235,0.1689207 -1.7972347,0.4584864 L 2.8843507,3.5268182 C 3.0788292,3.307626 3.2015058,3.0200898 3.2015058,2.7038944 c 0,-0.6856288 -0.560064,-1.2343866 -1.2451362,-1.2343866 -0.6850778,0 -1.23339975,0.5487578 -1.23339975,1.2343866 0,0.6120578 0.43961165,1.1205271 1.02195735,1.2226303 l 0.751782,2.7861867 C 1.9127207,7.3756745 1.556986,8.2399525 1.556986,9.1932401 c 0,2.0776619 1.6829187,3.7619399 3.7589153,3.7619399 1.1500873,0 2.1766682,-0.514077 2.8661719,-1.328435 l 1.9029528,1.10507 c -0.05013,0.203008 -0.07048,0.416323 -0.07048,0.634827 0,1.454364 1.178048,2.633358 2.631246,2.633358 1.453191,0 2.631239,-1.178994 2.631239,-2.633358 0,-1.454363 -1.178048,-2.633358 -2.631239,-2.633358 -0.802149,0 -1.526049,0.362243 -2.008672,0.928729 L 8.8046469,10.603968 c 0.1748612,-0.43422 0.2701698,-0.9138544 0.2701698,-1.4107279 0,-1.1354176 -0.5091835,-2.1434454 -1.3038749,-2.833211 L 9.9910557,4.1381336 c 0.3182893,0.178 0.6901693,0.2821456 1.0806843,0.2821456 1.219648,0 2.208367,-0.9895131 2.208367,-2.2101399 C 13.280107,0.9895131 12.291388,0 11.07174,0 Z"/>
</svg>
