<svg xmlns="http://www.w3.org/2000/svg" width="16" height="16" version="1.1">
 <path fill="#ececec" d="m 2.5563322,6.854101 c -0.3545097,-0.10356 -1.5563321,0.76188 -1.5563321,0.76188 0.6379484,-2.31213 4.6689967,-4.5696 4.6689967,-4.5696 -0.3895189,-0.14098 -2.3344987,0 -2.3344987,0 C 6.2050403,0.31389105 10.338071,1.523191 10.338071,1.523191 10.443788,0.92666105 11.894403,1.0453544e-6 11.894403,1.0453544e-6 11.716711,0.17424105 11.894403,1.142401 11.894403,1.142401 12.071683,0.82643105 12.672569,0.76188105 12.672569,0.76188105 12.353806,1.497181 12.374417,2.978231 12.374417,2.978231 c 0.920966,0.91192 1.94841,4.06757 1.94841,4.06757 l 0.390723,0.56073 c 0.496051,0.70197 0.294329,1.80261 -0.197249,2.06404 -1.377599,0.80674 -2.000365,-0.801 -2.000365,-0.801 -1.523899,-0.17537 -2.9560209,-2.01517 -2.9560209,-2.01517 -1.9358872,1.07063 0.2541405,4.46782 1.1413889,5.60701 1.139677,1.46018 -0.363183,3.53219 -0.363183,3.53219 0,0 -3.8908313,0.26797 -6.8058627,-2.66457 -1.4353873,-1.50625 -2.53244227,-3.18776 -0.9761099,-6.47538 z"/>
</svg>
