<svg xmlns="http://www.w3.org/2000/svg" width="16" height="16" version="1.1">
 <path style="fill:#ececec;fill-rule:evenodd" d="M 2.0625 0 A 2.0618556 2.0618556 0 0 0 0 2.0625 A 2.0618556 2.0618556 0 0 0 2.0625 4.1230469 A 2.0618556 2.0618556 0 0 0 4.1230469 2.0625 A 2.0618556 2.0618556 0 0 0 2.0625 0 z M 13.9375 0 A 2.0618556 2.0618556 0 0 0 11.876953 2.0625 A 2.0618556 2.0618556 0 0 0 13.9375 4.1230469 A 2.0618556 2.0618556 0 0 0 16 2.0625 A 2.0618556 2.0618556 0 0 0 13.9375 0 z M 8 5.9375 A 2.0618556 2.0618556 0 0 0 5.9375 8 A 2.0618556 2.0618556 0 0 0 8 10.0625 A 2.0618556 2.0618556 0 0 0 10.0625 8 A 2.0618556 2.0618556 0 0 0 8 5.9375 z M 2.0625 11.876953 A 2.0618556 2.0618556 0 0 0 0 13.9375 A 2.0618556 2.0618556 0 0 0 2.0625 16 A 2.0618556 2.0618556 0 0 0 4.1230469 13.9375 A 2.0618556 2.0618556 0 0 0 2.0625 11.876953 z M 13.9375 11.876953 A 2.0618556 2.0618556 0 0 0 11.876953 13.9375 A 2.0618556 2.0618556 0 0 0 13.9375 16 A 2.0618556 2.0618556 0 0 0 16 13.9375 A 2.0618556 2.0618556 0 0 0 13.9375 11.876953 z"/>
</svg>
