<svg xmlns="http://www.w3.org/2000/svg" width="16" height="16" version="1.1">
 <path style="fill:#ececec" d="M 4.4648438 2.234375 C 3.4373569 2.234375 2.6035156 3.0349235 2.6035156 4.0214844 C 2.6121056 4.3876898 2.6424197 4.8218578 2.8535156 5.8105469 C 2.8919304 5.9305034 3.0357514 6.1256271 3.203125 6.3339844 C 3.3197726 6.8923468 3.3856109 7.3436297 3.2832031 7.9199219 C 2.4410289 8.6048586 0.28675934 8.9142913 0.29101562 9.6230469 L 0 11.748047 C 0 12.452383 2.0092441 13.023438 4.4863281 13.023438 C 6.9631666 13.023438 8.9707031 12.452383 8.9707031 11.748047 L 8.6835938 9.6230469 C 8.6792555 9.0156239 6.5111391 8.6286775 5.6796875 7.9199219 C 5.6124706 7.3778503 5.6642588 6.8509515 5.7734375 6.3105469 C 5.9177854 6.1113203 6.0404418 5.9260627 6.078125 5.8105469 C 6.3128762 4.78306 6.3129119 4.4068432 6.3261719 4.0214844 C 6.3261719 3.035169 5.4923306 2.234375 4.4648438 2.234375 z"/>
 <path style="fill:#ececec" d="M 10.230469 0.74609375 C 9.0615083 0.74609375 8.0632467 1.418368 7.6484375 2.3710938 C 7.1932882 1.5962768 6.7987139 0.77691332 6.9003906 1.4882812 L 7.2714844 4.0917969 L 7.4882812 3.9492188 C 7.5268683 4.4060363 7.5979012 4.9622947 7.8144531 5.953125 C 7.8974911 6.2032296 8.2833081 6.6416089 8.6777344 7.0644531 C 8.7471446 7.5475281 8.779183 8.0149747 8.6855469 8.5566406 C 7.6042014 9.4548834 4.833798 9.860944 4.8378906 10.789062 L 4.4648438 13.580078 C 4.4648438 14.504104 7.0486284 15.253906 10.232422 15.253906 C 13.41818 15.253906 16 14.504104 16 13.580078 L 15.626953 10.789062 C 15.622614 9.9941989 12.835745 9.4868875 11.767578 8.5566406 C 11.709572 8.0860297 11.730719 7.6237768 11.783203 7.1601562 C 12.165811 6.7085773 12.56084 6.2222495 12.650391 5.953125 C 12.893175 4.9243282 12.95433 4.3873643 12.984375 3.9433594 L 13.207031 4.0917969 L 13.580078 1.4882812 C 13.682684 0.77041207 13.282769 1.6116635 12.822266 2.3925781 C 12.412988 1.4287914 11.409894 0.74609375 10.230469 0.74609375 z"/>
</svg>
