<svg xmlns="http://www.w3.org/2000/svg" width="16" height="16" version="1.1">
 <path fill="#ececec" d="M 1.7142857,0 C 0.8,0 0,0.7771429 0,1.7142857 V 14.285714 C 0,15.222857 0.8,16 1.7142857,16 H 14.285714 C 15.2,16 16,15.222857 16,14.285714 V 1.7142857 C 16,0.7771429 15.2,0 14.285714,0 Z m 0,1.1428571 H 14.285714 c 0.342857,0 0.571429,0.24 0.571429,0.5714286 V 14.285714 c 0,0.331429 -0.228572,0.571429 -0.571429,0.571429 H 1.7142857 A 0.55771429,0.55771429 0 0 1 1.1428571,14.285714 V 1.7142857 c 0,-0.3314286 0.2285715,-0.5714286 0.5714286,-0.5714286 z m 5.3714286,2.2857143 v 1.36 L 6.8571429,4.8571429 C 6.7428571,4.8914286 6.7428571,4.9485714 6.5142857,5.0057143 L 6.4,5.0971429 5.3714286,4.1485714 c 0,-0.011429 0,-0.011429 0,-0.011429 0,0 0,0 0,0.011429 L 4.1142857,5.4057143 c 0,-0.022857 0,0.022857 0,0.022857 L 5.1428571,6.3771429 5.0285714,6.5714286 A 3.5085714,3.5085714 0 0 0 4.9142857,6.88 L 4.8,7.0857143 H 3.4285714 V 8.9142857 H 4.8 L 4.9142857,9.12 c 0,0.09143 0,0.194286 0.1142857,0.308571 l 0.1142857,0.194286 -1.0285714,0.96 c 0,-0.01143 0,0.03429 0,0.02286 l 1.2571429,1.257143 c 0,-0.01143 0.1142857,-0.01143 0,0 L 6.4,10.902857 6.5142857,11.005714 c 0.1142857,0.04572 0.2285714,0.102857 0.3428572,0.137143 l 0.2285714,0.06857 v 1.36 h 1.8285714 v -1.36 l 0.2285713,-0.06857 c 0.114286,-0.03429 0.228572,-0.09143 0.342857,-0.137143 L 9.6,10.902857 l 1.028571,0.96 c -0.114285,-0.01143 0,-0.01143 0,0 l 1.257143,-1.257143 c 0,0.01143 0,-0.03429 0,-0.02286 l -1.028571,-0.96 0.114286,-0.194286 C 11.085714,9.314286 11.085714,9.211429 11.085714,9.12 L 11.2,8.9142857 h 1.371429 V 7.0857143 H 11.2 L 11.085714,6.88 A 3.1428571,3.1428571 0 0 0 10.971429,6.5714286 l -0.114286,-0.1942857 1.028571,-0.96 c 0,0.011429 0,-0.034286 0,-0.022857 L 10.628571,4.1485714 c 0,0 -0.114285,0 0,0 L 9.6,5.0971429 9.485714,5.0057143 C 9.371429,4.9485714 9.257143,4.8914286 9.142857,4.8571429 L 8.9142857,4.7885714 v -1.36 z M 8,6.48 C 8.8,6.48 9.485714,7.1657143 9.485714,8 9.485714,8.8342857 8.8,9.52 8,9.52 7.2,9.52 6.5142857,8.8342857 6.5142857,8 6.5142857,7.1657143 7.2,6.48 8,6.48 Z"/>
</svg>
