<svg xmlns="http://www.w3.org/2000/svg" width="16" height="16" version="1.1">
 <path fill="#ececec" d="M 3.9941406 1 C 2.7361406 1.015 1.8155 0.96976562 1.0625 1.3847656 A 1.88 1.88 0 0 0 0.22460938 2.3828125 C 0.059609375 2.8208125 1.8503717e-17 3.343 0 4 L 0 12 C 0 12.658 0.059609375 13.179188 0.22460938 13.617188 C 0.38860938 14.056188 0.6865 14.407234 1.0625 14.615234 C 1.8155 15.031234 2.7361406 14.985 3.9941406 15 L 12.005859 15 C 13.263859 14.985 14.1845 15.030234 14.9375 14.615234 A 1.88 1.88 0 0 0 15.775391 13.617188 C 15.939391 13.179187 16 12.657 16 12 L 16 4 C 16 3.342 15.940391 2.8208125 15.775391 2.3828125 A 1.88 1.88 0 0 0 14.9375 1.3847656 C 14.1845 0.96876562 13.263859 1.015 12.005859 1 L 3.9980469 1 L 3.9941406 1 z M 4 2 L 8 2 L 8 14 L 4 14 C 2.741 13.985 1.9099219 13.940281 1.5449219 13.738281 C 1.3619219 13.638281 1.2581562 13.525625 1.1601562 13.265625 C 1.0631563 13.005625 1 12.592 1 12 L 1 4 C 1 3.408 1.0631563 2.994375 1.1601562 2.734375 C 1.2581563 2.474375 1.3619219 2.3627188 1.5449219 2.2617188 C 1.9109219 2.0597188 2.741 2.015 4 2 z M 4 4 L 4 5 L 3 5 L 3 6 L 4 6 L 4 7 L 5 7 L 5 6 L 6 6 L 6 5 L 5 5 L 5 4 L 4 4 z M 10 6 L 14 6 L 14 7 L 10 7 L 10 6 z M 10 8 L 14 8 L 14 9 L 10 9 L 10 8 z M 3 10 L 3 11 L 6 11 L 6 10 L 3 10 z"/>
</svg>
