<svg xmlns="http://www.w3.org/2000/svg" width="16" height="16" version="1.1">
 <path style="fill:#ececec" d="M 15.294752,1.0003375 A 0.68459467,0.73827112 0 0 0 14.823717,1.2237587 L 8.7745295,7.7472392 6.1476774,4.9144257 a 0.68459467,0.73827112 0 0 0 -0.967479,0 L 0.20012467,10.28286 a 0.68480257,0.73849532 0 1 0 0.96943353,1.043336 l 4.4934025,-4.8457133 2.626852,2.8328135 a 0.68459467,0.73827112 0 0 0 0.9694336,0 L 15.79315,2.267094 A 0.68459467,0.73827112 0 0 0 15.294752,1.0003375 Z m -0.795483,4.9384539 c -0.275839,0 -0.498399,0.240009 -0.498399,0.5374757 v 7.9841499 c 0,0.297467 0.22256,0.537476 0.498399,0.537476 h 0.248222 c 0.275839,0 0.498398,-0.240009 0.498398,-0.537476 V 6.4762671 c 0,-0.2974667 -0.222559,-0.5374757 -0.498398,-0.5374757 z m -2.23986,2.3480314 c -0.27584,0 -0.496444,0.240009 -0.496444,0.5374758 v 5.6382264 c 0,0.297467 0.220604,0.535368 0.496444,0.535368 h 0.250176 c 0.275839,0 0.496443,-0.237901 0.496443,-0.535368 V 8.8242986 c 0,-0.2974668 -0.220604,-0.5374758 -0.496443,-0.5374758 z M 5.6004166,9.1257066 c -0.2758393,0 -0.4983983,0.240009 -0.4983983,0.5374762 v 4.7972342 c 0,0.297467 0.222559,0.537476 0.4983983,0.537476 h 0.2482219 c 0.2758392,0 0.4983982,-0.240009 0.4983982,-0.537476 V 9.6631828 c 0,-0.2974672 -0.2225591,-0.5374762 -0.4983982,-0.5374762 z m 4.4816754,1.3089104 c -0.2758397,0 -0.4983983,0.24001 -0.4983983,0.537477 v 3.488323 c 0,0.297467 0.2225586,0.537476 0.4983983,0.537476 h 0.248221 c 0.27584,0 0.498399,-0.240009 0.498399,-0.537476 v -3.488323 c 0,-0.297467 -0.222559,-0.537477 -0.498399,-0.537477 z m -2.2398605,0.402581 c -0.2758393,0 -0.4983982,0.237901 -0.4983982,0.535368 v 3.087851 c 0,0.297467 0.2225589,0.537476 0.4983982,0.537476 h 0.2482219 c 0.2758392,0 0.4983983,-0.240009 0.4983983,-0.537476 v -3.087851 c 0,-0.297467 -0.2225591,-0.535368 -0.4983983,-0.535368 z M 3.360556,10.974201 c -0.2758392,0 -0.4964437,0.24001 -0.4964437,0.537476 v 2.952956 C 2.8641123,14.762099 3.0847168,15 3.360556,15 h 0.2501764 c 0.2758393,0 0.4964439,-0.237901 0.4964439,-0.535367 v -2.952956 c 0,-0.297466 -0.2206046,-0.537476 -0.4964439,-0.537476 z m -2.2379059,1.342637 c -0.27583923,0 -0.49839827,0.237901 -0.49839828,0.535367 v 1.61032 C 0.62425182,14.759992 0.84681087,15 1.1226501,15 H 1.370872 c 0.2758392,0 0.4983982,-0.240008 0.4983982,-0.537475 v -1.61032 c 0,-0.297466 -0.222559,-0.535367 -0.4983982,-0.535367 z"/>
</svg>
