<svg xmlns="http://www.w3.org/2000/svg" width="16" height="16" version="1.1">
 <path fill="#ececec" d="M 12.601634,2.372245 10.410613,7.237551 H 9.7738787 L 12.111838,2.084898 H 8.5004087 v 12.037551 c 0.74449,0.02939 4.5387763,1.258775 4.5387763,1.258775 V 16 H 2.8383687 v -0.657959 c 0,0 3.799183,-1.221225 4.38204,-1.221225 V 2.084898 h -3.412245 l 2.33796,5.152653 H 5.5077557 L 3.3167357,2.372245 1.1240827,7.237551 H 0.48734771 L 2.8383687,2.029388 V 1.428571 h 0.03918 3.884082 C 6.7616337,0.643265 7.2889807,0 7.9028577,0 c 0.649796,0 1.141225,0.677551 1.141225,1.428571 h 3.9951023 v 0.514286 l 2.391837,5.294694 h -0.64 z M 6.1869397,7.910204 c 0,1.564082 -1.085714,2.987755 -2.868571,2.987755 -1.743674,0 -2.86857199,-1.423673 -2.86857199,-2.987755 -0.0033,0.0033 5.73714299,0.0033 5.73714299,0 z m 3.62449,0 c 0,0.0016 5.7387753,0.0016 5.7387753,0 0,1.564082 -1.085714,2.987755 -2.868571,2.987755 -1.743674,0 -2.8702043,-1.423673 -2.8702043,-2.987755 z"/>
</svg>
