<svg xmlns="http://www.w3.org/2000/svg" width="16" height="16" version="1.1">
 <path fill="#ececec" fill-rule="evenodd" d="m 0.5,5.5315101 1.6287499,-0.02497 C 2.61,7.2390012 3.2149999,8.872771 3.9412499,10.404281 4.3837499,9.115339 5.19875,7.4423306 6.3837498,5.3816885 l 1.7075,0.1248513 C 7.1137499,6.9286564 6.6874999,8.0903686 6.1999999,9.179548 5.0325,11.787158 4.5975,12.802616 7.0924998,16 L 5.20125,15.97503 C 3.245,13.029727 1.67875,9.549346 0.5,5.5315101 Z m 15,4.9369799 -1.62875,0.02497 C 13.389999,8.760999 12.785,7.1272295 12.05875,5.5957194 c -0.442501,1.2877527 -1.2575,2.96195 -2.4425001,5.0225926 l -1.7075,-0.124852 C 8.8862498,9.071344 9.3124998,7.9096314 9.7999998,6.8204518 10.9675,4.2116528 11.4025,3.1973841 8.9074999,0 L 10.79875,0.023781 C 12.755,2.9702735 14.321251,6.450654 15.5,10.46849 Z"/>
</svg>
