<svg xmlns="http://www.w3.org/2000/svg" width="16" height="16" version="1.1">
 <path fill="#ececec" d="M 8 0 A 8.0000003 8.0000003 0 0 0 0 8 A 8.0000003 8.0000003 0 0 0 8 16 A 8.0000003 8.0000003 0 0 0 16 8 A 8.0000003 8.0000003 0 0 0 8 0 z M 7.9570312 2.65625 A 5.3333333 5.3333333 0 0 1 7.9824219 2.65625 A 5.3333333 5.3333333 0 0 1 13.316406 7.9902344 A 5.3333333 5.3333333 0 0 1 7.9824219 13.322266 A 5.3333333 5.3333333 0 0 1 2.6503906 7.9902344 A 5.3333333 5.3333333 0 0 1 7.9570312 2.65625 z M 5.0234375 4.3300781 C 3.9376093 5.2099114 3.1972656 6.4962891 3.1972656 7.9980469 C 3.1972656 10.642709 5.3573037 12.802734 8.0019531 12.802734 C 10.646603 12.802734 12.798828 10.642709 12.798828 7.9980469 C 12.798828 6.4961206 12.060404 5.2099063 10.976562 4.3300781 L 10.167969 5.0351562 C 11.094705 5.7128916 11.736328 6.7565655 11.736328 7.9980469 C 11.736328 10.066245 10.070134 11.730469 8.0019531 11.730469 C 5.933773 11.730469 4.2714845 10.066245 4.2714844 7.9980469 C 4.2714844 6.7576118 4.9085804 5.7149776 5.8339844 5.0371094 L 5.0234375 4.3300781 z"/>
</svg>
