<svg xmlns="http://www.w3.org/2000/svg" width="16" height="16" version="1.1">
 <path style="fill:#ececec" id="polygon2" d="M 4.6582031 3.3027344 L 4.015625 3.9882812 L 7.9746094 8.203125 L 8.0253906 8.203125 L 11.984375 3.9882812 L 11.341797 3.3027344 L 8.8496094 5.9550781 L 7.1503906 5.9550781 L 4.6582031 3.3027344 z M 3.9589844 4.1054688 L 0 8.3203125 L 0 8.3730469 L 3.9589844 12.587891 L 4.6035156 11.902344 L 2.1113281 9.25 L 2.1113281 7.4414062 L 4.6035156 4.7910156 L 3.9589844 4.1054688 z M 12.041016 4.1054688 L 11.396484 4.7910156 L 13.888672 7.4414062 L 13.888672 9.25 L 11.396484 11.902344 L 12.041016 12.587891 L 16 8.3730469 L 16 8.3203125 L 12.041016 4.1054688 z M 7.9746094 8.4023438 L 4.015625 12.617188 L 4.6582031 13.302734 L 7.1503906 10.650391 L 8.8496094 10.650391 L 11.341797 13.302734 L 11.984375 12.617188 L 8.0253906 8.4023438 L 7.9746094 8.4023438 z"/>
</svg>
