<svg xmlns="http://www.w3.org/2000/svg" width="16" height="16" version="1.1">
 <path fill="#ececec" d="M 7.9944469,0.50072 C 7.8438704,0.50009 7.6171792,0.50872 7.4095691,0.58262 7.1895702,0.65912 6.978493,0.77921 6.80072,0.94171 6.5644338,1.15784 6.3706195,1.43926 6.2480418,1.70979 L -1.65e-7,15.50002 H 0.32921206 4.440761 l 1.9078425,-4.36471 3.7217505,0.0208 -3.7217505,-0.0208 -1.9078425,4.36471 H 16 L 9.6697969,1.61463 9.6696437,1.614 C 9.5316455,1.31434 9.3090261,1.08031 9.1015853,0.91443 8.8944066,0.74859 8.6866675,0.64053 8.5097048,0.57528 8.3147415,0.50338 8.1327999,0.50088 7.9944268,0.49998 Z m -0.00203,0.43208 c 0.1323944,6.2e-4 0.2571693,0.004 0.3757357,0.0499 0.1365469,0.0507 0.3072406,0.1384 0.4765797,0.27389 0.1690408,0.13508 0.3484425,0.33083 0.4462587,0.54342 l 6.048845,13.26832 H 5.0894171 L 6.6187905,11.56957 10.720233,11.59447 8.0464412,5.4659 3.5248769,15.06854 H 0.65846058 L 6.6278171,1.8933 C 6.7244921,1.68009 6.8950248,1.43384 7.0789136,1.26554 7.2093326,1.14626 7.3730921,1.05191 7.5435802,0.99248 7.6653315,0.95008 7.872228,0.93268 7.9924352,0.93308 Z"/>
</svg>
