<svg xmlns="http://www.w3.org/2000/svg" width="16" height="16" version="1.1">
 <path fill="#ececec" d="M 3.9941406 1 C 2.7361406 1.014 1.8145 0.96876562 1.0625 1.3847656 C 0.6855 1.5917656 0.38860938 1.9438125 0.22460938 2.3828125 C 0.059609375 2.8208125 1.8503717e-17 3.342 0 4 L 0 12 C 0 12.658 0.059609375 13.179188 0.22460938 13.617188 C 0.38860938 14.056188 0.6855 14.408234 1.0625 14.615234 C 1.8145 15.031234 2.7361406 14.985 3.9941406 15 L 3.9980469 15 L 12.001953 15 L 12.005859 15 C 13.263859 14.986 14.1845 15.031234 14.9375 14.615234 C 15.3135 14.408234 15.610391 14.056188 15.775391 13.617188 C 15.939391 13.179187 16 12.658 16 12 L 16 4 C 16 3.342 15.940391 2.8208125 15.775391 2.3828125 C 15.611391 1.9438125 15.3135 1.5917656 14.9375 1.3847656 C 14.1845 0.96876562 13.263859 1.015 12.005859 1 L 12.001953 1 L 3.9980469 1 L 3.9941406 1 z M 1 4.2695312 L 15 4.2695312 L 15 12 C 15 12.592 14.936844 13.005625 14.839844 13.265625 C 14.741844 13.525625 14.637125 13.637281 14.453125 13.738281 C 14.087125 13.940281 13.259 13.985 12 14 L 4.0058594 14 L 4 14 C 2.741 13.985 1.9109219 13.940281 1.5449219 13.738281 C 1.3619219 13.637281 1.2581562 13.525625 1.1601562 13.265625 C 1.0631563 13.005625 1 12.592 1 12 L 1 4.2695312 z"/>
</svg>
