<?xml version="1.0" encoding="UTF-8" standalone="no"?>
<svg xmlns:dc="http://purl.org/dc/elements/1.1/" xmlns:cc="http://creativecommons.org/ns#" xmlns:rdf="http://www.w3.org/1999/02/22-rdf-syntax-ns#" xmlns:svg="http://www.w3.org/2000/svg" xmlns="http://www.w3.org/2000/svg" xmlns:sodipodi="http://sodipodi.sourceforge.net/DTD/sodipodi-0.dtd" xmlns:inkscape="http://www.inkscape.org/namespaces/inkscape" inkscape:version="1.0alpha (d63f16a48b, 2019-05-07)" sodipodi:docname="betaflight-symbolic.svg" id="svg8" version="1.1" height="16" width="16">
  <metadata id="metadata14">
    <rdf:RDF>
      <cc:Work rdf:about="">
        <dc:format>image/svg+xml</dc:format>
        <dc:type rdf:resource="http://purl.org/dc/dcmitype/StillImage" />
      </cc:Work>
    </rdf:RDF>
  </metadata>
  <defs id="defs12" />
  <sodipodi:namedview inkscape:current-layer="svg8" inkscape:window-maximized="1" inkscape:window-y="34" inkscape:window-x="0" inkscape:cy="8" inkscape:cx="8" inkscape:zoom="40.179191" showgrid="false" id="namedview10" inkscape:window-height="836" inkscape:window-width="1600" inkscape:pageshadow="2" inkscape:pageopacity="0" guidetolerance="10" gridtolerance="10" objecttolerance="10" borderopacity="1" inkscape:document-rotation="0" bordercolor="#666666" pagecolor="#ffffff" />
  <path d="M 10.285156 2 L 10.285156 3 L 0 3 L 0 5 L 10.285156 5 L 10.285156 6 L 12.572266 6 L 12.572266 5 L 12.572266 3 L 12.572266 2 L 10.285156 2 z M 13.714844 3 L 13.714844 5 L 16 5 L 16 3 L 13.714844 3 z M 3.4277344 6 L 3.4277344 7 L 0 7 L 0 9 L 3.4277344 9 L 3.4277344 10 L 5.7148438 10 L 5.7148438 9 L 5.7148438 7 L 5.7148438 6 L 3.4277344 6 z M 6.8574219 7 L 6.8574219 9 L 16 9 L 16 7 L 6.8574219 7 z M 8 10 L 8 11 L 0 11 L 0 13 L 8 13 L 8 14 L 10.285156 14 L 10.285156 13 L 10.285156 11 L 10.285156 10 L 8 10 z M 11.427734 11 L 11.427734 13 L 16 13 L 16 11 L 11.427734 11 z " style="opacity:1;stroke-width:1.06904;stop-opacity:1;fill:#ececec;fill-opacity:1" id="path2" />
</svg>
