<svg xmlns="http://www.w3.org/2000/svg" width="16" height="16" version="1.1">
 <path fill="#ececec" d="M 10.285156 2 L 10.285156 3 L 0 3 L 0 5 L 10.285156 5 L 10.285156 6 L 12.572266 6 L 12.572266 5 L 12.572266 3 L 12.572266 2 L 10.285156 2 z M 13.714844 3 L 13.714844 5 L 16 5 L 16 3 L 13.714844 3 z M 3.4277344 6 L 3.4277344 7 L 0 7 L 0 9 L 3.4277344 9 L 3.4277344 10 L 5.7148438 10 L 5.7148438 9 L 5.7148438 7 L 5.7148438 6 L 3.4277344 6 z M 6.8574219 7 L 6.8574219 9 L 16 9 L 16 7 L 6.8574219 7 z M 8 10 L 8 11 L 0 11 L 0 13 L 8 13 L 8 14 L 10.285156 14 L 10.285156 13 L 10.285156 11 L 10.285156 10 L 8 10 z M 11.427734 11 L 11.427734 13 L 16 13 L 16 11 L 11.427734 11 z"/>
</svg>
