<svg xmlns="http://www.w3.org/2000/svg" width="16" height="16" version="1.1">
 <path fill="#ececec" d="M 8,-1.6649943e-7 C 6.9,-1.6649943e-7 5.855,0.31998083 5.855,0.31998083 L 5.5,0.42797483 V 2.1108768 A 13.88,13.87919 0 0 0 2.502,2.9998248 L 2.5,3.9997658 h -1 v 0.999942 h 1 l 0.004,8.9994752 c 0,0.438974 0.04,0.787954 0.15,1.081936 0.111,0.293983 0.311,0.52797 0.563,0.667961 0.503,0.279984 1.12,0.249986 1.953,0.249986 h 5.664 c 0.833,0 1.45,0.03 1.953,-0.249986 0.252,-0.139991 0.45,-0.373978 0.56,-0.667961 0.11,-0.293982 0.153,-0.642962 0.153,-1.081936 L 13.498,5.9996498 h -1 L 12.5,13.999183 c 0,0.375978 -0.04,0.602964 -0.088,0.728957 -0.034,0.09 -0.078,0.128992 -0.11,0.145991 -0.173,0.09699 -0.611,0.124993 -1.468,0.124993 H 5.17 c -0.857,0 -1.295,-0.028 -1.469,-0.124993 A 0.267,0.26698441 0 0 1 3.588,14.72814 v -0.002 C 3.542,14.604147 3.504,14.37816 3.504,13.999183 v -0.002 L 3.5,4.9997078 h 11 V 3.9997658 H 13.498 L 13.5,2.9998248 a 13.855,13.854191 0 0 0 -3,-0.888948 V 0.44997383 l -0.33,-0.118993 c 0,0 -0.913,-0.3299809965 -2.17,-0.3299809965 z M 8,0.99994183 c 0.89,0 1.29,0.15499097 1.5,0.21998697 v 0.738957 a 14.05,14.04918 0 0 0 -1.498,-0.084 c -0.502,0 -1.003,0.032 -1.502,0.086 V 1.2269278 C 6.766,1.1569278 7.272,0.99994183 8,0.99994183 Z M 5.5,5.9996498 v 5.9996492 h 1 V 5.9996498 Z m 2,0 v 5.9996492 h 1 V 5.9996498 Z m 2,0 v 5.9996492 h 1 V 5.9996498 Z"/>
</svg>
