<svg xmlns="http://www.w3.org/2000/svg" width="16" height="16" version="1.1">
 <path fill="#ececec" d="M 0 11.2 L 0 13.6 L 1.6 13.6 L 1.6 15.2 C 1.6 15.641828 1.958172 16 2.4 16 C 2.841828 16 3.2 15.641828 3.2 15.2 L 3.2 13.6 L 12.8 13.6 L 12.8 15.2 C 12.8 15.641828 13.158172 16 13.6 16 C 14.041828 16 14.4 15.641828 14.4 15.2 L 14.4 13.6 L 16 13.6 L 16 11.2 L 0 11.2 Z"/>
 <path fill="#ececec" d="M 0.80078125 0 L 0.80078125 1.5996094 L 4 1.5996094 L 4 0 L 0.80078125 0 z M 0.80078125 2.4003906 L 0.80078125 8 L 4 8 L 4 2.4003906 L 0.80078125 2.4003906 z M 0.80078125 8.8007812 L 0.80078125 10.400391 L 4 10.400391 L 4 8.8007812 L 0.80078125 8.8007812 z"/>
 <path fill="#ececec" d="M 4.859375 0 L 4.859375 1.5996094 L 8.0605469 1.5996094 L 8.0605469 0 L 4.859375 0 z M 4.859375 2.4003906 L 4.859375 8 L 8.0605469 8 L 8.0605469 2.4003906 L 4.859375 2.4003906 z M 4.8007812 8.8007812 L 4.8007812 10.400391 L 8 10.400391 L 8 8.8007812 L 4.8007812 8.8007812 z"/>
 <path fill="#ececec" d="M 8.8007812 3.1992188 L 8.8007812 4 L 11.199219 4 L 11.199219 3.1992188 L 8.8007812 3.1992188 z M 8.8007812 4.8007812 L 8.8007812 8.8007812 L 11.199219 8.8007812 L 11.199219 4.8007812 L 8.8007812 4.8007812 z M 8.8007812 9.5996094 L 8.8007812 10.400391 L 11.199219 10.400391 L 11.199219 9.5996094 L 8.8007812 9.5996094 z"/>
 <path fill="#ececec" d="M 14.345703 2.8515625 L 12.001953 3.3671875 L 12.173828 4.1484375 L 14.517578 3.6328125 L 14.345703 2.8515625 z M 14.683594 4.4199219 L 12.339844 4.9355469 L 13.197266 8.8417969 L 15.542969 8.3261719 L 14.683594 4.4199219 z M 15.716797 9.1015625 L 13.371094 9.6171875 L 13.542969 10.398438 L 15.886719 9.8828125 L 15.716797 9.1015625 z"/>
</svg>