<svg xmlns="http://www.w3.org/2000/svg" width="16" height="16" version="1.1">
 <path fill="#ececec" d="M 3.276 0 C 1.467 0 0 1.467 0 3.276 C 0 5.085 1.467 6.552 3.276 6.552 C 5.085 6.552 6.552 5.085 6.552 3.276 C 6.552 1.467 5.085 0 3.276 0 Z M 3.276 1.638 C 4.181 1.638 4.914 2.371 4.914 3.276 C 4.914 4.181 4.181 4.914 3.276 4.914 C 2.371 4.914 1.638 4.181 1.638 3.276 C 1.638 2.371 2.371 1.638 3.276 1.638 Z"/>
 <path fill="#ececec" d="M 14.842 10.208 L 13.104 11.946 L 11.366 10.208 L 10.208 11.366 L 11.946 13.104 L 10.208 14.842 L 11.366 16 L 13.104 14.262 L 14.842 16 L 16 14.842 L 14.262 13.104 L 16 11.366 L 14.842 10.208 Z"/>
 <path fill="#ececec" d="M 7.25 0 L 7.25 7.25 L 0 7.25 L 0 8.75 L 7.25 8.75 L 7.25 16 L 8.75 16 L 8.75 8.75 L 16 8.75 L 16 7.25 L 8.75 7.25 L 8.75 0 L 7.25 0 z"/>
</svg>
