<?xml version="1.0" encoding="UTF-8" standalone="no"?>
<svg xmlns:dc="http://purl.org/dc/elements/1.1/" xmlns:cc="http://creativecommons.org/ns#" xmlns:rdf="http://www.w3.org/1999/02/22-rdf-syntax-ns#" xmlns:svg="http://www.w3.org/2000/svg" xmlns="http://www.w3.org/2000/svg" xmlns:sodipodi="http://sodipodi.sourceforge.net/DTD/sodipodi-0.dtd" xmlns:inkscape="http://www.inkscape.org/namespaces/inkscape" inkscape:version="1.0alpha (d63f16a48b, 2019-05-07)" sodipodi:docname="browser-symbolic.svg" id="svg4" version="1.1" height="16" width="16">
  <metadata id="metadata10">
    <rdf:RDF>
      <cc:Work rdf:about="">
        <dc:format>image/svg+xml</dc:format>
        <dc:type rdf:resource="http://purl.org/dc/dcmitype/StillImage" />
      </cc:Work>
    </rdf:RDF>
  </metadata>
  <defs id="defs8" />
  <sodipodi:namedview inkscape:current-layer="svg4" inkscape:window-maximized="1" inkscape:window-y="34" inkscape:window-x="0" inkscape:cy="8" inkscape:cx="8" inkscape:zoom="40.179191" showgrid="false" id="namedview6" inkscape:window-height="836" inkscape:window-width="1600" inkscape:pageshadow="2" inkscape:pageopacity="0" guidetolerance="10" gridtolerance="10" objecttolerance="10" borderopacity="1" inkscape:document-rotation="0" bordercolor="#666666" pagecolor="#ffffff" />
  <path inkscape:connector-curvature="0" id="path2" d="M 8,0 C 3.586,0 0,3.586 0,8 c 0,4.414 3.586,8 8,8 4.414,0 8,-3.586 8,-8 C 16,3.586 12.414,0 8,0 Z M 7.96,1.002 7.94,1.619 8.855,1.756 9.473,1.158 a 6.932,6.932 0 0 1 1.732,0.625 l -0.215,0.346 0.61,0.54 -0.61,0.51 0.238,0.61 1.356,-0.644 0.848,0.644 0.044,-0.139 c 0.184,0.232 0.35,0.477 0.504,0.73 l -0.855,0.155 -0.508,-0.543 -1.558,0.102 -0.95,1.492 0.645,1.592 2.101,0.644 0.407,2.475 0.507,1.287 0.358,-0.203 A 7.002,7.002 0 0 1 8,15 C 4.138,15 1,11.862 1,8 1,7.188 1.145,6.411 1.4,5.686 l 0.034,0.136 1.084,0.305 1.423,1.05 0.034,1.526 0.916,1.254 0.54,3.39 0.983,0.61 -0.27,-1.254 1.66,-2.305 L 8.516,8.84 6.856,7.28 5.059,6.434 4.314,6.873 3.432,5.551 2.924,5.789 2.484,5.043 3.264,4.637 4.008,5.077 5.297,3.484 7.16,2.332 6.652,1.382 5.127,1.926 4.937,1.715 A 6.947,6.947 0 0 1 7.961,1.002 Z" fill="#ececec" />
</svg>
