<svg xmlns="http://www.w3.org/2000/svg" width="16" height="16" version="1.1">
 <path style="fill:#ececec;fill-opacity:0.85000002" d="M 6.5175781 0 C 2.9278181 0 1.7763568e-15 3.0459518 0 6.7695312 C 0 10.493099 2.9278181 13.539062 6.5175781 13.539062 C 8.0302052 13.539062 9.4230149 12.994241 10.53125 12.089844 L 13.962891 15.654297 C 14.185907 15.885865 14.500023 16 14.814453 16 L 16 16 L 16 14.769531 C 15.999964 14.442997 15.888997 14.116371 15.666016 13.884766 L 12.123047 10.203125 C 12.699953 9.1938545 13.037109 8.0225731 13.037109 6.7695312 C 13.037109 6.0965615 12.918841 5.4607038 12.740234 4.8457031 L 7.7773438 10 L 6.5175781 11.308594 L 5.2597656 10 L 1.703125 6.3085938 L 4.2226562 3.6914062 L 6.5175781 6.0761719 L 10.777344 1.6542969 C 9.6309492 0.6253039 8.1418507 -1.4802974e-16 6.5175781 0 z"/>
</svg>
