<svg xmlns="http://www.w3.org/2000/svg" width="16" height="16" version="1.1">
 <path fill="#ececec" d="M 3.939625,0 C 2.768215,1.4765 2.417065,2.20395 2.839575,3.14375 3.222615,3.99567 4.212265,4.42983 3.714565,6.4 4.532055,5.44009 5.181545,4.22092 4.539625,3.2375 3.886615,2.23729 3.528965,1.62987 3.939625,0 Z m 3.2,0 C 5.968215,1.4765 5.617065,2.20395 6.039575,3.14375 6.422615,3.99567 7.412265,4.42983 6.914565,6.4 7.732055,5.44009 8.381545,4.22092 7.739625,3.2375 7.086615,2.23729 6.728965,1.62987 7.139625,0 Z m 3.2,0 c -1.17141,1.4765 -1.52256,2.20395 -1.10005,3.14375 0.38304,0.85192 1.37269,1.28608 0.87499,3.25625 0.81749,-0.95991 1.46698,-2.17908 0.82506,-3.1625 -0.65301,-1.00021 -1.01066,-1.60763 -0.6,-3.2375 z m -9.80629,7.46667 v 3.2 c 0,3.2 2.13333,5.33333 5.33333,5.33333 h 2.13334 c 3.2,0 5.07712,-1.67007 5.2896,-4.26667 h 0.57706 c 1.6,0 1.6,-1.6 1.6,-1.6 V 9.06667 c 0,-1.6 -1.6,-1.6 -1.6,-1.6 h -0.53333 z m 13.33333,1.06666 C 14.400005,8.49893 14.416645,9.1 14.416645,9.1 v 1.06667 c 0,0.5 -0.54998,0.5 -0.54998,0.5 h -0.53333 l 0.0107,-2.11668 0.52266,-0.0166 z"/>
</svg>
