<svg xmlns="http://www.w3.org/2000/svg" width="16" height="16" version="1.1">
 <path fill="#ececec" d="m 4.7809977,-1.425e-5 c -2.618,0 -4.7809999823471,2.36934725 -4.7809999823471,5.28623805 0,1.5135342 0.5750000023471,2.9024234 1.5039999823471,3.8717535 v 0.0022 l 6.39,6.8398367 6.6000003,-6.8398367 a 4.761,5.2984805 0 0 0 1.506,-3.8739244 c 0,-2.9168908 -2.163,-5.28623815 -4.781,-5.28623815 -1.2900003,0 -2.3600003,0.6922194 -3.2190003,1.62370945 -0.86,-0.93149005 -1.93,-1.62370945 -3.219,-1.62370945 z m 0,1.11289275 c 1.372,0 2.56,0.8023947 3.219,2.017673 a 3.741,4.1633303 0 0 1 3.2190003,-2.017673 c 2.082,0 3.781,1.8640943 3.781,4.1733454 0,1.201924 -0.456,2.2981231 -1.188,3.0604548 l -5.9060003,6.1209073 -5.719,-6.1209073 A 3.766,4.1911525 0 0 1 0.99999772,5.2862238 c 0,-2.3092511 1.69999998,-4.1733453 3.78099998,-4.1733453 z" color="#000" font-family="sans-serif" font-weight="400" overflow="visible"/>
</svg>
