<svg xmlns="http://www.w3.org/2000/svg" width="16" height="16" version="1.1">
 <path style="fill:#ececec" d="M 3.996092,0 C 2.7374774,0.0171429 1.8163871,-0.03455358 1.0630191,0.4397321 A 1.8809184,2.1485714 0 0 0 0.22471921,1.5803571 C 0.05963861,2.0809286 1.25e-7,2.6777143 1.25e-7,3.4285714 v 6.8571426 c 0,0.752 0.059638485,1.347644 0.224719085,1.848215 0.16508062,0.501714 0.46111578,0.90291 0.83829989,1.140624 0.7533679,0.475429 1.6744583,0.42259 2.9330729,0.439733 H 4.2012702 L 7.0034196,16 9.8055691,13.714286 h 2.1983389 c 1.258615,-0.01714 2.180706,0.03455 2.933073,-0.439733 a 1.8809184,2.1485714 0 0 0 0.8383,-1.140624 C 15.939361,11.633357 16,11.036571 16,10.285714 V 3.4285714 c 0,-0.752 -0.06064,-1.3476428 -0.224719,-1.8482143 a 1.8809184,2.1485714 0 0 0 -0.8383,-1.140625 C 14.183613,-0.03569643 13.262523,0.0171429 12.003908,0 Z m 0.00586,1.1428571 h 0.00391 8.003908 c 1.259616,0.017143 2.090099,0.06825 2.456278,0.2991072 0.18309,0.1142858 0.287906,0.2430357 0.384953,0.5401786 0.09705,0.2971428 0.160234,0.7698571 0.160234,1.4464285 v 6.8571426 c 0,0.676572 -0.06319,1.149286 -0.160234,1.446429 -0.09805,0.297143 -0.202818,0.42475 -0.386907,0.540178 -0.366178,0.230857 -1.194708,0.281965 -2.454324,0.299108 H 10.004885 4.0019541 C 2.7433397,12.554286 1.9118555,12.503178 1.5456767,12.272321 1.3625873,12.158035 1.258771,12.029286 1.1607231,11.732143 1.0626753,11.435 1.0004887,10.962286 1.0004886,10.285714 V 3.4285714 C 1.0004886,2.752 1.0636756,2.2792857 1.1607231,1.9821429 1.2587711,1.685 1.3625873,1.5573929 1.5456767,1.4419643 1.9118555,1.2111072 2.7433397,1.16 4.0019541,1.1428571 Z"/>
</svg>
