<svg xmlns="http://www.w3.org/2000/svg" width="16" height="16" version="1.1">
 <path fill="#ececec" d="m 7.9999935,-1.65e-4 a 0.80000032,0.80000032 0 0 0 -0.07656,0.005 c -4.373291,0.0419 -7.9234420000293,3.6124 -7.9234420000293,7.99532 0,4.40881 3.5911980000293,8.00001 8.0000020000293,8.00001 4.3818735,0 7.9518115,-3.54848 7.9953145,-7.92032 a 0.80000032,0.80000032 0 0 0 0.0047,-0.0797 0.80000032,0.80000032 0 0 0 -0.800001,-0.80001 0.80000032,0.80000032 0 0 0 -0.799999,0.80001 c 0,3.54409 -2.855903,6.39999 -6.4000015,6.39999 -3.544099,0 -6.400002,-2.8559 -6.400002,-6.39999 0,-3.5441 2.855903,-6.4 6.400002,-6.4 a 0.80000032,0.80000032 0 0 0 0.800001,-0.8 0.80000032,0.80000032 0 0 0 -0.800001,-0.80001 z m 0,3.20001 a 0.80000032,0.80000032 0 0 0 -0.07656,0.003 c -2.60615,0.0416 -4.723442,2.18123 -4.723442,4.79689 0,2.6415 2.15851,4.8 4.800002,4.8 2.6145825,0 4.7519545,-2.11564 4.7953145,-4.72031 a 0.80000032,0.80000032 0 0 0 0.0047,-0.0797 0.80000032,0.80000032 0 0 0 -0.800001,-0.80001 0.80000032,0.80000032 0 0 0 -0.799999,0.80001 c 0,1.77678 -1.4232135,3.2 -3.2000015,3.2 -1.776788,0 -3.200002,-1.42322 -3.200002,-3.2 0,-1.77679 1.423214,-3.20001 3.200002,-3.20001 a 0.80000032,0.80000032 0 0 0 0.800001,-0.79999 0.80000032,0.80000032 0 0 0 -0.800001,-0.80001 z m 0,3.20001 a 1.6000006,1.6000006 0 0 0 -1.6,1.59999 1.6000006,1.6000006 0 0 0 1.6,1.6 1.6000006,1.6000006 0 0 0 1.600001,-1.6 1.6000006,1.6000006 0 0 0 -1.600001,-1.59999 z"/>
</svg>
