<svg xmlns="http://www.w3.org/2000/svg" width="16" height="16" version="1.1">
 <path fill="#ececec" d="m 2.7449373,3.1057971e-7 a 9.3734268,9.3734268 0 0 0 0,13.25506968942029 9.3734268,9.3734268 0 0 0 13.2550597,0 l -1.47277,-1.47278 a 7.2904431,7.2904431 0 0 1 -10.3090997,0 7.2904431,7.2904431 0 0 1 0,-10.3090997 L 2.7453473,4.2031058e-4 Z M 4.9357073,2.2640003 a 6.2489512,6.2489512 0 0 0 -1.45236,3.51097 h 4.96334 z m -1.46048,4.55246 a 6.2489512,6.2489512 0 0 0 1.46048,3.5109697 l 3.51098,-3.5109697 z m 5.7079,0.73637 -3.51098,3.5109697 a 6.2489512,6.2489512 0 0 0 3.51098,1.45236 z m 1.0414897,0 V 12.52428 a 6.2489512,6.2489512 0 0 0 3.51097,-1.46048 z"/>
</svg>
