<svg xmlns="http://www.w3.org/2000/svg" width="16" height="16" version="1.1">
 <path fill="#ececec" d="M 12.843429,0 12.44,0.411429 2.189714,10.805714 l -0.03429,0.05143 c -0.06971,0.113143 -0.308572,0.514286 -0.666286,1.243428 -0.358857,0.729143 -0.8,1.725715 -1.156572,2.848 L 0,16 1.051429,15.667429 a 20.757714,20.757714 0 0 0 2.848,-1.156572 C 4.628571,14.152 5.027429,13.916571 5.142857,13.843429 L 5.194287,13.810289 16,3.156571 Z m -0.272,9.142857 v 1.142857 H 16 V 9.142857 Z m -9.268572,2.16 1.394286,1.394286 -0.203429,0.2 c 0.008,-0.0057 -0.433143,0.259428 -1.098285,0.587428 -0.244572,0.12 -0.612572,0.253715 -0.953143,0.386286 L 2.129143,13.557714 c 0.132571,-0.340571 0.266286,-0.708571 0.386286,-0.953143 0.328,-0.665142 0.592,-1.104 0.587428,-1.097142 z m 6.982857,0.125714 v 1.142858 H 16 V 11.428571 Z M 8,13.714286 v 1.142857 h 8 v -1.142857 z" font-family="Ubuntu" font-size="15" font-weight="400" letter-spacing="0" text-anchor="middle" word-spacing="0"/>
</svg>
