<svg xmlns="http://www.w3.org/2000/svg" width="16" height="16" version="1.1">
 <path fill="#ececec" fill-rule="evenodd" d="m0.930648 8c0-4.41827 3.581722-8 8.000002-8 1.38055 0.00346483 2.73685 0.364116 3.93675 1.04687l-1.6964 1.69643c-0.7083-0.30191-1.47037-0.45755-2.24035-0.45758-1.51548 0-2.96894 0.60204-4.04061 1.67367-1.07163 1.07167-1.67368 2.52513-1.67368 4.04061s0.60205 2.9689 1.67368 4.0406c1.07167 1.0717 2.52513 1.6737 4.04061 1.6737 0.59156-0.0023 1.17915-0.0964 1.74175-0.279 0.1487-0.0365 0.2959-0.0806 0.4405-0.1414l1.7493 1.6689c-1.1992 0.6786-2.5537 1.0358-3.93155 1.0372-4.41828 0-8.000002-3.5817-8.000002-8zm9.523852 0c0 0.8416-0.68225 1.52386-1.52385 1.52386s-1.52386-0.68226-1.52386-1.52386 0.68226-1.52386 1.52386-1.52386 1.52385 0.68226 1.52385 1.52386zm4.6149-5.06125-3.7333 3.73336-1.0776-1.07752 3.7334-3.73334 1.0775 1.0775zm-4.7906 7.75285 3.7334 3.4667 1.0368-1.1166-3.7332-3.46664-1.037 1.11654z" clip-rule="evenodd"/>
</svg>
