<svg xmlns="http://www.w3.org/2000/svg" width="16" height="16" version="1.1">
 <path fill="#ececec" d="M 14.128988,8.7597607 A 3.5801391,3.5801391 0 0 1 15.565696,13.614723 3.5801391,3.5801391 0 0 1 10.710733,15.051431 3.5801391,3.5801391 0 0 1 9.2740256,10.196468 3.5801391,3.5801391 0 0 1 14.128988,8.7597607 Z"/>
 <path fill="#888888" d="M 5.2892663,8.7627617 A 3.5801391,3.5801391 0 0 1 6.7259738,13.617724 3.5801391,3.5801391 0 0 1 1.871011,15.054432 3.5801391,3.5801391 0 0 1 0.43430356,10.199469 3.5801391,3.5801391 0 0 1 5.2892663,8.7627617 Z"/>
 <path fill="#9c9c9c" d="M 9.7776071,0.94556051 A 3.5801391,3.5801391 0 0 1 11.214315,5.8005233 3.5801391,3.5801391 0 0 1 6.3593518,7.2372307 3.5801391,3.5801391 0 0 1 4.9226444,2.382268 3.5801391,3.5801391 0 0 1 9.7776071,0.94556051 Z"/>
</svg>
