<svg xmlns="http://www.w3.org/2000/svg" width="16" height="16" version="1.1">
 <g transform="matrix(1.142547,0,0,1.142547,-10.280752,199.95007)">
  <path fill="#ececec" opacity="1.0" d="M 9.7382812,-175.00195 C 9.4921876,-174.98657 9,-174.86328 9,-174.125 V -168 c 0,3.878 3.122,7 7,7 3.878,0 7,-3.122 7,-7 0,-3.878 -3.122,-7 -7,-7 H 9.875 c 0,0 -0.054687,-0.007 -0.1367188,-0.002 z M 10.5,-174 a 0.5,0.5 0 0 1 0.5,0.5 0.5,0.5 0 0 1 -0.5,0.5 0.5,0.5 0 0 1 -0.5,-0.5 0.5,0.5 0 0 1 0.5,-0.5 z m 5.5,1 a 5,5 0 0 1 5,5 5,5 0 0 1 -5,5 5,5 0 0 1 -5,-5 5,5 0 0 1 5,-5 z"/>
  <rect fill="#ececec" opacity="0.7" width="2" height="2" x="-15" y="171" rx="0" ry="0" transform="scale(-1)"/>
  <rect fill="#ececec" opacity="0.8" width="2" height="2" x="-13" y="171" rx="0" ry="0" transform="scale(-1)"/>
  <rect fill="#ececec" opacity="0.7" width="2" height="2" x="-13" y="169" rx="0" ry="0" transform="scale(-1)"/>
  <rect fill="#ececec" opacity="0.6" width="2" height="2" x="-17" y="171" rx="0" ry="0" transform="scale(-1)"/>
  <rect fill="#ececec" opacity="0.6" width="2" height="2" x="-15" y="169" rx="0" ry="0" transform="scale(-1)"/>
  <rect fill="#ececec" opacity="0.6" width="2" height="2" x="-13" y="167" rx="0" ry="0" transform="scale(-1)"/>
  <rect fill="#ececec" opacity="0.5" width="2" height="2" x="-19" y="171" rx="0" ry="0" transform="scale(-1)"/>
  <rect fill="#ececec" opacity="0.5" width="2" height="2" x="-17" y="169" rx="0" ry="0" transform="scale(-1)"/>
  <rect fill="#ececec" opacity="0.5" width="2" height="2" x="-15" y="167" rx="0" ry="0" transform="scale(-1)"/>
  <rect fill="#ececec" opacity="0.5" width="2" height="2" x="-13" y="165" rx="0" ry="0" transform="scale(-1)"/>
  <rect fill="#ececec" opacity="0.4" width="2" height="2" x="-21" y="171" rx="0" ry="0" transform="scale(-1)"/>
  <rect fill="#ececec" opacity="0.4" width="2" height="2" x="-19" y="169" rx="0" ry="0" transform="scale(-1)"/>
  <rect fill="#ececec" opacity="0.4" width="2" height="2" x="-17" y="167" rx="0" ry="0" transform="scale(-1)"/>
  <rect fill="#ececec" opacity="0.4" width="2" height="2" x="-15" y="165" rx="0" ry="0" transform="scale(-1)"/>
  <rect fill="#ececec" opacity="0.4" width="2" height="2" x="-13" y="163" rx="0" ry="0" transform="scale(-1)"/>
  <rect fill="#ececec" opacity="0.3" width="2" height="2" x="-21" y="169" rx="0" ry="0" transform="scale(-1)"/>
  <rect fill="#ececec" opacity="0.3" width="2" height="2" x="-19" y="167" rx="0" ry="0" transform="scale(-1)"/>
  <rect fill="#ececec" opacity="0.3" width="2" height="2" x="-17" y="165" rx="0" ry="0" transform="scale(-1)"/>
  <rect fill="#ececec" opacity="0.3" width="2" height="2" x="-15" y="163" rx="0" ry="0" transform="scale(-1)"/>
  <rect fill="#ececec" opacity="0.2" width="2" height="2" x="-21" y="167" rx="0" ry="0" transform="scale(-1)"/>
  <rect fill="#ececec" opacity="0.2" width="2" height="2" x="-19" y="165" rx="0" ry="0" transform="scale(-1)"/>
  <rect fill="#ececec" opacity="0.2" width="2" height="2" x="-17" y="163" rx="0" ry="0" transform="scale(-1)"/>
  <rect fill="#ececec" opacity="0.1" width="2" height="2" x="-21" y="165" rx="0" ry="0" transform="scale(-1)"/>
  <rect fill="#ececec" opacity="0.1" width="2" height="2" x="-19" y="163" rx="0" ry="0" transform="scale(-1)"/>
  <rect fill="#ececec" opacity="0.0" width="2" height="2" x="-21" y="163" rx="0" ry="0" transform="scale(-1)"/>
 </g>
</svg>
