<svg xmlns="http://www.w3.org/2000/svg" width="16" height="16" version="1.1">
 <rect fill="#ececec" fill-opacity="0" width="16" height="16"/>
 <path fill="#ececec" d="M 1.61 0 C 1.532 0.913 1.928 3.2 1.895 3.505 C 1.919 3.922 2.3 4.033 2.3 4.033 L 2.767 4.044 C 2.905 3.397 3.103 3.023 3.474 2.8 L 5.6 2.8 L 5.6 14.414 L 4.46 14.386 L 4.423 13.209 L 3.638 13.191 L 3.314 16 L 10.5 16 L 11.303 15.223 C 10.763 15.043 9.829 14.882 9.6 13.822 L 9.6 1.6 L 13.366 1.6 C 13.488 1.728 12.811 2.335 12.931 2.449 C 13.468 2.96 13.937 3.313 14.4 3.301 L 14.4 0 L 1.61 0 Z"/>
</svg>
