<svg xmlns="http://www.w3.org/2000/svg" width="16" height="16" version="1.1">
 <path fill="#ececec" d="M 7.7666668,0.00339626 A 8.0000349,8.0122557 0 0 0 1.325e-7,8.0114448 8.0000349,8.0122557 0 0 0 16,8.0114448 8.0000349,8.0122557 0 0 0 7.7666668,0.00339626 Z M 3.5395835,7.2310868 a 0.97562788,0.97711813 0 0 1 0.9479166,0.97649 0.97562788,0.97711813 0 0 1 -1.95,0 0.97562788,0.97711813 0 0 1 1.0020834,-0.97649 z m 8.9770835,0 a 0.97562788,0.97711813 0 0 1 0.945834,0.97649 0.97562788,0.97711813 0 0 1 -1.95,0 0.97562788,0.97711813 0 0 1 1.004166,-0.97649 z M 4.0312502,11.222591 C 4.1120492,12.000875 4.416469,12.674766 4.8604168,13.28407 4.1374047,12.967257 3.5696134,12.23189 3.0437501,11.376994 Z m 7.8229168,0.02504 1.0125,0.127279 c -0.512149,0.89 -1.070494,1.660196 -1.8,2.005146 0.43677,-0.636717 0.727491,-1.333575 0.7875,-2.132425 z"/>
</svg>
