<svg xmlns="http://www.w3.org/2000/svg" width="16" height="16" version="1.1">
 <path fill="#ececec" d="m 6.8568849,1 v 0.0051 h -5.71425 c 0,0 -1.14285002747,0 -1.14285002747,1.1662414 V 13.833758 c 0,1.166241 1.14285002747,1.166241 1.14285002747,1.166241 h 5.71872 v -0.0051 h 3.4240801 0.005 l 4.56693,0.0051 c 1.14669,10e-4 1.14285,-1.166241 1.14285,-1.166241 V 2.1713437 c 0,0 0.003,-1.1650984 -1.14285,-1.1662414 l -4.56693,-0.0051 h -0.005 z m -5.70978,1.1662414 h 2.2232 3.48658 3.4330201 1.13838 3.43302 V 13.828655 h -3.43302 -1.13838 -0.5602701 l -3.529,-5.5054836 h 3.39953 l -6.17406,-4.988413 v 8.0293046 l 2.06472,-2.6377151 2.1049,5.1023071 h -0.73884 -3.48658 -2.2232 z"/>
</svg>
