<svg xmlns="http://www.w3.org/2000/svg" width="16" height="16" version="1.1">
 <path style="fill:#ececec" d="M 4.4453125 1.3398438 A 4.4444438 4.4401154 0 0 0 0 5.7792969 A 4.4444438 4.4401154 0 0 0 3.6386719 10.144531 C 3.6660722 10.21049 3.6968168 10.275257 3.7402344 10.335938 C 3.7444644 10.345937 3.7490422 10.346526 3.7539062 10.353516 C 3.7719892 10.376496 3.7898949 10.403754 3.8105469 10.427734 L 7.3730469 14.380859 C 7.553995 14.581364 7.7759327 14.659757 7.9941406 14.660156 L 7.9980469 14.660156 L 8.0019531 14.660156 C 8.2202667 14.659857 8.443962 14.581166 8.625 14.380859 L 12.189453 10.427734 C 12.210123 10.405754 12.226081 10.378496 12.244141 10.353516 C 12.248941 10.343516 12.255316 10.342928 12.259766 10.335938 C 12.303218 10.274926 12.331968 10.210303 12.359375 10.144531 A 4.4444438 4.4401154 0 0 0 16 5.7792969 A 4.4444438 4.4401154 0 0 0 11.554688 1.3398438 A 4.4444438 4.4401154 0 0 0 8 3.1152344 A 4.4444438 4.4401154 0 0 0 4.4453125 1.3398438 z M 4.4453125 4.890625 A 1.3333331 1.3320346 0 0 1 5.7773438 6.2226562 A 1.3333331 1.3320346 0 0 1 4.4453125 7.5546875 A 1.3333331 1.3320346 0 0 1 3.1113281 6.2226562 A 1.3333331 1.3320346 0 0 1 4.4453125 4.890625 z M 11.554688 4.890625 A 1.3333331 1.3320346 0 0 1 12.888672 6.2226562 A 1.3333331 1.3320346 0 0 1 11.554688 7.5546875 A 1.3333331 1.3320346 0 0 1 10.222656 6.2226562 A 1.3333331 1.3320346 0 0 1 11.554688 4.890625 z"/>
</svg>
