<svg xmlns="http://www.w3.org/2000/svg" width="16" height="16" version="1.1">
 <path fill="#ececec" d="M 8.7439339,1.062e-7 C 18.083118,10.666343 15.501807,14.866531 0.99999997,12.600564 10.73619,12.280457 13.317501,8.0802692 8.7439339,1.062e-7 m 0,0"/>
 <path fill="#ececec" d="M 8.0996386,2.7999637 C 1.2065049,2.908121 -0.03975222,6.0737822 4.3242127,12.288217 4.7356737,12.219831 5.1290655,12.148049 5.4976768,12.060748 3.8316985,6.5515172 6.9958699,3.6545516 15,3.3989512 12.279298,2.9745674 9.9783169,2.7795933 8.0949922,2.8077239 M 4.8843572,13.075389 C 5.5658234,13.988663 6.348477,14.964503 7.254001,16 6.6835312,14.990209 6.2163138,14.040559 5.8683531,13.150565 5.5498193,13.13359 5.2209602,13.103034 4.8843572,13.074904 m 0,0"/>
</svg>
