<svg xmlns="http://www.w3.org/2000/svg" width="16" height="16" version="1.1">
 <path fill="#ececec" d="M 6.42349,0.05568 3.4493,1.27011 4.14893,2.9352 C 3.67,3.2936 3.25179,3.71326 2.89937,4.17713 L 1.22362,3.48207 2e-5,6.43334 1.6498,7.12841 C 1.5708,7.69822 1.5906,8.28314 1.6728,8.86677 L 10e-5,9.56184 1.22369,12.51771 2.89945,11.82264 c 0.36086,0.47555 0.78243,0.89047 1.24956,1.2404 l -0.69964,1.66202 2.9742,1.21746 0.70269,-1.63754 c 0.57387,0.0786 1.15821,0.0557 1.74603,-0.0242 l 0.70116,1.66354 2.97573,-1.21746 -0.69963,-1.66202 c 0.47892,-0.35839 0.89712,-0.77658 1.24956,-1.24039 l 1.67727,0.69502 1.2236,-2.95587 -1.64979,-0.69503 c 0.0792,-0.56985 0.0577,-1.15473 -0.0246,-1.7384 L 15.99982,6.43514 14.77622,3.48382 13.09894,4.17889 C 12.73808,3.70334 12.31651,3.28693 11.84937,2.93696 L 12.54902,1.27193 9.57328,0.05748 8.87213,1.6966 C 8.29825,1.618 7.7139,1.6377 7.1261,1.7208 Z m 1.57647,3.97171 c 2.20917,0 3.9992,1.77813 3.9992,3.97173 0,2.19361 -1.79003,3.97172 -3.9992,3.97172 -2.20917,0 -4.00074,-1.77811 -4.00074,-3.97172 0,-2.1936 1.79157,-3.97173 4.00074,-3.97173 z"/>
</svg>
