<svg xmlns="http://www.w3.org/2000/svg" width="16" height="16" version="1.1">
 <path fill="#ececec" opacity="1.0" d="M 1 0 C 0.448 0 0 0.448 0 1 L 0 15 C 0 15.552 0.448 16 1 16 L 15 16 C 15.552 16 16 15.552 16 15 L 16 1 C 16 0.448 15.552 0 15 0 L 1 0 z M 1.6523438 1.28125 L 2.5976562 1.28125 C 2.7517303 1.28125 2.875 1.4045198 2.875 1.5585938 L 2.875 2.5019531 C 2.875 2.6560269 2.7517302 2.78125 2.5976562 2.78125 L 1.6523438 2.78125 C 1.4982699 2.78125 1.375 2.6560269 1.375 2.5019531 L 1.375 1.5585938 C 1.375 1.4045198 1.4982698 1.28125 1.6523438 1.28125 z M 1.078125 3.5996094 L 14.921875 3.5996094 C 15.075949 3.5996094 15.199219 3.7248323 15.199219 3.8789062 L 15.199219 14.921875 C 15.199219 15.075949 15.075949 15.199219 14.921875 15.199219 L 1.078125 15.199219 C 0.92405096 15.199219 0.80078125 15.075949 0.80078125 14.921875 L 0.80078125 3.8789062 C 0.80078125 3.7248322 0.92405096 3.5996094 1.078125 3.5996094 z"/>
 <path fill="#ececec" opacity="0.6" d="M 4.391 11.172 C 5.404 11.172 5.549 11.316 5.549 12.329 L 5.549 13.14 C 5.549 14.152 5.404 14.297 4.391 14.297 L 3.359 14.297 C 2.346 14.297 2.201 14.152 2.201 13.14 L 2.201 12.329 C 2.201 11.316 2.346 11.172 3.359 11.172 L 4.391 11.172 Z"/>
 <path fill="#ececec" opacity="0.6" d="M 8.563 11.172 C 9.576 11.172 9.721 11.316 9.721 12.329 L 9.721 13.14 C 9.721 14.152 9.576 14.297 8.563 14.297 L 7.531 14.297 C 6.518 14.297 6.373 14.152 6.373 13.14 L 6.373 12.329 C 6.373 11.316 6.518 11.172 7.531 11.172 L 8.563 11.172 Z"/>
 <path fill="#ececec" opacity="0.6" d="M 12.734 11.172 C 13.748 11.172 13.893 11.316 13.893 12.329 L 13.893 13.14 C 13.893 14.152 13.748 14.297 12.734 14.297 L 11.703 14.297 C 10.689 14.297 10.545 14.152 10.545 13.14 L 10.545 12.329 C 10.545 11.316 10.689 11.172 11.703 11.172 L 12.734 11.172 Z"/>
</svg>
