<svg xmlns="http://www.w3.org/2000/svg" width="16" height="16" version="1.1">
 <path fill="#ececec" d="M 1.6 2.667 L 1.6 5.867 L 0 5.867 L 0 13.333 L 16 13.333 L 16 5.867 L 14.4 5.867 L 14.4 2.667 L 13.333 2.667 L 13.333 5.867 L 12.267 5.867 L 12.267 2.667 L 10.133 2.667 L 10.133 5.867 L 9.067 5.867 L 9.067 2.667 L 8 2.667 L 8 5.867 L 6.933 5.867 L 6.933 2.667 L 3.733 2.667 L 3.733 5.867 L 2.667 5.867 L 2.667 2.667 L 1.6 2.667 Z M 1.067 6.933 L 14.933 6.933 L 14.933 12.267 L 1.067 12.267 L 1.067 6.933 Z M 1.6 7.467 L 1.6 11.2 L 2.667 11.2 L 2.667 7.467 L 1.6 7.467 Z M 3.733 7.467 L 3.733 11.2 L 6.933 11.2 L 6.933 7.467 L 3.733 7.467 Z M 8 7.467 L 8 11.2 L 9.067 11.2 L 9.067 7.467 L 8 7.467 Z M 10.133 7.467 L 10.133 11.2 L 12.267 11.2 L 12.267 7.467 L 10.133 7.467 Z M 13.333 7.467 L 13.333 11.2 L 14.4 11.2 L 14.4 7.467 L 13.333 7.467 Z"/>
</svg>
