<svg xmlns="http://www.w3.org/2000/svg" width="16" height="16" version="1.1">
  <rect fill="#ececec" width="4.625" height="3.594" x="17.09" y="-.09" transform="matrix(1,0,0,1,0,0)"/>
    <path fill="none" stroke="#ececec" stroke-linecap="square" stroke-miterlimit="3" d="M 1.125 1.531 L 7.125 1.531 L 7.125 7.094 L 1.125 7.094 L 1.125 1.531 Z" vector-effect="non-scaling-stroke"/>
    <rect fill="#ececec" width="6.063" height="1.063" x="1.03" y="1.63" transform="matrix(1,0,0,1,0,0)"/>
    <path fill="none" stroke="#ececec" stroke-linecap="square" stroke-miterlimit="3" d="M 8.969 3.25 L 14.969 3.25 L 14.969 7.75 L 8.969 7.75 L 8.969 3.25 Z" vector-effect="non-scaling-stroke"/>
    <rect fill="#ececec" width="6.063" height=".987" x="8.88" y="3.33" transform="matrix(1,0,0,1,0,0)"/>
    <path fill="none" stroke="#ececec" stroke-linecap="square" stroke-miterlimit="3" d="M 2.888 9.344 L 11.687 9.344 L 11.687 14.906 L 2.888 14.906 L 2.888 9.344 Z" vector-effect="non-scaling-stroke"/>
    <rect fill="#ececec" width="8.892" height="1.375" x="2.75" y="9.44" transform="matrix(1,0,0,1,0,0)"/>
</svg>
