<svg xmlns="http://www.w3.org/2000/svg" width="16" height="16" version="1.1">
 <path fill="#ececec" d="M 4.1132812 0 L 4.1132812 1.3710938 L 4.5722656 1.3710938 L 4.5722656 2.2851562 L 3.6582031 2.2851562 L 3.6582031 3.6640625 L 4.5722656 3.6640625 L 4.5722656 7.7695312 L 1.3691406 7.7695312 L 1.3691406 8.2265625 L 4.5722656 8.2265625 L 4.5722656 11.878906 L 3.6582031 11.878906 L 3.6582031 13.257812 L 4.5722656 13.257812 L 4.5722656 14.167969 L 5.0292969 14.167969 L 5.0292969 13.257812 L 9.1445312 13.257812 C 12.183629 13.257812 14.630859 10.810558 14.630859 7.7714844 C 14.630859 4.7323704 12.183629 2.2851562 9.1445312 2.2851562 L 5.0292969 2.2851562 L 5.0292969 1.3710938 L 5.484375 1.3710938 L 5.484375 0 L 4.1132812 0 z M 5.0292969 3.6640625 L 9.1445312 3.6640625 C 11.443939 3.6640625 13.251953 5.4720724 13.251953 7.7714844 C 13.251953 10.070897 11.443939 11.878906 9.1445312 11.878906 L 5.0292969 11.878906 L 5.0292969 8.2265625 L 6.4023438 8.2265625 L 5.4863281 10.056641 L 10.058594 10.056641 L 9.1445312 8.2265625 L 10.513672 8.2265625 L 10.513672 7.7695312 L 8.9140625 7.7695312 L 7.7734375 5.4863281 L 6.6308594 7.7695312 L 5.0292969 7.7695312 L 5.0292969 3.6640625 z M 10.515625 7.0859375 L 10.515625 8.9140625 L 12.34375 8 L 10.515625 7.0859375 z M 3.8867188 14.171875 L 4.8007812 16 L 5.7148438 14.171875 L 3.8867188 14.171875 z"/>
</svg>
