<svg xmlns="http://www.w3.org/2000/svg" width="16" height="16" version="1.1">
 <path fill="#ececec" opacity=".6" d="M0.699349 0C0.312103 0 0.0214857 0.308171 0 0.689657V6.89657V13.1034C0 13.4855 0.312103 13.7931 0.699349 13.7931H6.25109C7.81714 13.7931 9.26286 13.285 10.4282 12.4269C10.5849 12.3115 10.2819 11.8186 10.4021 11.6824C11.1374 10.8477 11.6989 10.0201 12.0953 8.88114C12.3398 8.17852 13.2414 7.68103 13.2414 6.89657C13.2414 3.08769 10.1117 0 6.25109 0H0.699349ZM4.41379 4.41379H6.27154C7.7248 4.41379 8.82754 5.47314 8.82754 6.89657C8.82754 8.32 7.7248 9.37931 6.27154 9.37931H4.41379V6.89657V4.41379Z"/>
 <path fill="#ececec" d="M12.8781 7.0824L8.27589 12.5862V14.7931H8.97566H12.6896V16.4482H14.8966V14.7931H16V12.5862H14.8966V7.86286V7.0824H12.8781ZM12.6896 10.5946V12.5862H11.1184L12.6896 10.5946Z"/>
</svg>
