<svg width="16" height="16" fill="none" version="1.1" xmlns="http://www.w3.org/2000/svg">
 <path d="M8 0C6.31127 0.00269041 4.66667 0.539716 3.30177 1.53419L5.09865 3.33106C5.96937 2.78892 6.9743 2.50107 8 2.5C9.45872 2.5 10.8577 3.07947 11.8891 4.11093C12.9206 5.14238 13.5 6.54128 13.5 8C13.4976 9.02498 13.2087 10.0289 12.666 10.8985L14.4639 12.6963C15.4587 11.3322 15.9964 9.68832 16 8C16 6.94945 15.7931 5.90913 15.3911 4.93855C14.989 3.96794 14.3997 3.08603 13.6569 2.34316C12.914 1.60029 12.0321 1.011 11.0615 0.608964C10.0909 0.206929 9.05065 0 8 0ZM1.53614 3.30372C0.541372 4.66784 0.00367044 6.31168 0 8C0 9.05065 0.206927 10.0909 0.608963 11.0615C1.011 12.0321 1.60028 12.914 2.34316 13.6569C3.08603 14.3997 3.96794 14.989 4.93855 15.3911C5.90913 15.7931 6.94945 16 8 16C9.68873 15.9973 11.3334 15.4603 12.6983 14.4659L10.9014 12.669C10.0307 13.2111 9.0257 13.499 8 13.5C6.54128 13.5 5.14239 12.9206 4.11093 11.8891C3.07947 10.8577 2.5 9.45872 2.5 8C2.5025 6.97502 2.79135 5.97111 3.334 5.10157L1.53614 3.30372ZM10.9092 8C10.9092 9.60671 9.60671 10.9092 8 10.9092C6.3934 10.9092 5.09093 9.60671 5.09093 8C5.09093 6.39339 6.3934 5.09093 8 5.09093C9.60671 5.09093 10.9092 6.39339 10.9092 8Z" clip-rule="evenodd" fill="#ececec" fill-rule="evenodd"/>
</svg>
