<svg xmlns="http://www.w3.org/2000/svg" width="16" height="16" version="1.1">
 <path fill="#ececec" opacity=".5" d="M0 8C0 3.58172 3.58172 0 8 0V0C12.4183 0 16 3.58172 16 8V8C16 12.4183 12.4183 16 8 16V16C3.58172 16 0 12.4183 0 8V8Z"/>
 <path fill="#ececec" fill-rule="evenodd" d="M8 16C3.58172 16 0 12.4183 0 8C3.13388 5.91075 5.72213 6.82241 8.33473 7.74266C10.7241 8.58427 13.1339 9.43306 16 8C16 12.4183 12.4183 16 8 16ZM4 11C4.55228 11 5 10.5523 5 10C5 9.44771 4.55228 9 4 9C3.44772 9 3 9.44771 3 10C3 10.5523 3.44772 11 4 11ZM8 14C8 14.5523 7.55228 15 7 15C6.44772 15 6 14.5523 6 14C6 13.4477 6.44772 13 7 13C7.55228 13 8 13.4477 8 14ZM11.5 13C12.3284 13 13 12.3284 13 11.5C13 10.6716 12.3284 10 11.5 10C10.6716 10 10 10.6716 10 11.5C10 12.3284 10.6716 13 11.5 13Z" clip-rule="evenodd"/>
</svg>
