<svg xmlns="http://www.w3.org/2000/svg" width="16" height="16" version="1.1">
 <path fill="#ececec" d="M 15.066835,15.896856 C 16.249967,8.2941856 13.071055,5.8076356 13.663534,4.7888256 14.094366,4.0498856 16,4.3812756 16,4.3812756 c -1.487588,-1.24312 -2.813979,-1.29834 -4.090692,-0.97376 -1.554954,-2.35143 -7.9154003,-5.45408 -10.5274733,-1.16912 0,0 -1.49682898,0.49417 -1.37475402,1.04478 0.12034016,0.53843 2.36654362,-0.25474 5.55589792,1.25178 -0.1887118,2.20047 0.7864214,3.60646 2.5821846,4.45179 -0.4909153,-0.87682 -1.1885934,-1.68484 -0.4799396,-3.1101 2.263287,1.48214 3.4193154,3.39107 4.3964974,5.3061904 C 11.842887,9.2019156 9.8801213,4.2835756 3.6555305,2.8504556 8.6030832,-1.1904244 15.77242,7.7880256 15.066835,15.896856 Z"/>
</svg>
