<svg xmlns="http://www.w3.org/2000/svg" width="16" height="16" version="1.1">
 <path fill="#ececec" d="M 0,1.3333335 V 3.5565966 A 4.4444747,4.4444747 0 0 1 4.4444444,8.0010411 4.4444747,4.4444747 0 0 1 0,12.445484 v 2.221182 A 6.6667121,6.6667121 0 0 0 6.6677076,8.0010411 6.6667121,6.6667121 0 0 0 0,1.3333335 Z m 16,0 A 6.6667109,6.6667109 0 0 0 9.3343739,8.0010411 6.6667109,6.6667109 0 0 0 16,14.666666 V 12.445484 A 4.4444739,4.4444739 0 0 1 11.555556,8.0010411 4.4444739,4.4444739 0 0 1 16,3.5565966 Z"/>
</svg>
