<svg xmlns="http://www.w3.org/2000/svg" width="16" height="16" version="1.1">
   <path d="M -32.556092,-14.262155 V 7.9600657 A 44.444442,44.444442 0 0 1 11.88835,52.404508 44.444442,44.444442 0 0 1 -32.556092,96.84895 v 22.22222 A 66.666663,66.666663 0 0 0 34.110571,52.404508 66.666663,66.666663 0 0 0 -32.556092,-14.262155 Z" transform="matrix(0.26458333,0,0,0.26458333,21.33969,248.60338)" fill="#ececec"/>
    <path fill="#ececec" d="M 15,18 V 28 A 20,20 0 0 1 35,48 20,20 0 0 1 15,68 V 78 A 30,30 0 0 0 45,48 30,30 0 0 0 15,18 Z"/>
</svg>
