<svg xmlns="http://www.w3.org/2000/svg" width="16" height="16" version="1.1">
  <rect style="fill:#000000" fill-opacity="0" width="16" height="16"/>
   <path fill="#ececec" d="M 8 0 C 8 0 7.2 0 7.2 0.8 C 7.2 1.6 6.4 1.6 6.4 1.6 C 6.4 1.6 5.6 1.601 5.6 0.8 L 5.6 12 L 10.4 12 L 10.4 0.8 C 10.4 1.6 9.6 1.6 9.6 1.6 C 9.6 1.6 8.8 1.6 8.8 0.8 C 8.8 0 8 0 8 0 Z"/>
  <path fill="#ececec" d="M 2.4 9.6 L 8 16 L 13.6 9.6 L 10.4 9.601 L 10.4 7.2 C 10.4 8 9.6 8 9.6 8 C 9.6 8 8.8 8 8.8 7.2 C 8.8 6.4 8 6.4 8 6.4 C 8 6.4 7.2 6.4 7.2 7.2 C 7.2 8 6.4 8 6.4 8 C 6.4 8 5.6 8 5.6 7.199 L 5.6 9.6 L 2.4 9.6 Z"/>
</svg>
