<svg xmlns="http://www.w3.org/2000/svg" width="16" height="16" version="1.1">
 <path fill="#ececec" fill-rule="evenodd" d="m7.0741 0.301001c0.1027-0.10093 0.2414-0.15856 0.3866-0.16065 0.0747-0.00102 0.1488 0.01266 0.2179 0.04026 0.0692 0.02759 0.132 0.06853 0.1848 0.12039l3.0603 3.006659 0.1367-0.13423c0.1046-0.1028 0.2466-0.16055 0.3946-0.16055s0.2899 0.05775 0.3946 0.16055l3.987 3.91697c0.1046 0.1029 0.1634 0.2423 0.1634 0.3877s-0.0588 0.2849-0.1634 0.3877l-3.0604 3.0067 0.1367 0.1342c0.1046 0.1029 0.1634 0.2423 0.1634 0.3877s-0.0588 0.2849-0.1634 0.3877l-3.987 3.917c-0.1047 0.1028-0.2466 0.1606-0.3946 0.1606s-0.29-0.0578-0.3947-0.1606l-3.06033-3.0066-0.13663 0.1342c-0.10468 0.1028-0.24662 0.1606-0.39463 0.1606-0.148 0-0.28995-0.0578-0.39463-0.1606l-3.98697-3.917c-0.1046298-0.1028-0.16341-0.2423-0.16341-0.3877s0.0587802-0.2849 0.16341-0.3877l3.06036-3.00665-0.13663-0.13423c-0.10463-0.10284-0.16341-0.2423-0.16341-0.38771 0-0.1454 0.05878-0.28486 0.16341-0.3877l3.98696-3.917009zm-0.7884 10.786699 5.4286-3.0877-5.4286-3.08771v6.17541z" clip-rule="evenodd"/>
</svg>
