<svg xmlns="http://www.w3.org/2000/svg" width="16" height="16" version="1.1">
 <path fill="#ececec" d="M 6.235,10.511 H 5.619 V 9.921 C 5.619,9.884 5.588,9.853 5.551,9.853 H 1.668 c -0.037,0 -0.067,0.031 -0.067,0.068 v 0.59 H 1.564 c -0.303,0 -0.549,0.245 -0.549,0.548 v 4.393 C 1.015,15.754 1.261,16 1.564,16 h 12.872 c 0.303,0 0.549,-0.246 0.549,-0.548 v -4.393 c 0,-0.303 -0.246,-0.548 -0.549,-0.548 h -0.037 v -0.59 c 0,-0.037 -0.03,-0.068 -0.067,-0.068 h -3.883 c -0.037,0 -0.068,0.031 -0.068,0.068 v 0.59 H 9.36 V 8.982 C 9.36,8.916 9.306,8.862 9.24,8.862 H 8.589 V 5.45 C 9.367,5.252 10.053,4.717 10.417,3.932 11.059,2.545 10.456,0.9 9.069,0.257 7.682,-0.385 6.037,0.218 5.394,1.604 4.752,2.991 5.354,4.636 6.741,5.279 L 6.742,5.28 C 6.829,5.32 6.918,5.356 7.007,5.386 V 8.862 H 6.356 c -0.067,0 -0.121,0.054 -0.121,0.12 z"/>
</svg>
