<svg width="16" height="16" version="1.1" fill="none" xmlns="http://www.w3.org/2000/svg">
<path d="M5.66667 16C7.13867 16 8.33333 14.8053 8.33333 13.3333V10.6667H5.66667C4.19467 10.6667 3 11.8613 3 13.3333C3 14.8053 4.19467 16 5.66667 16Z" fill="#ececec"/>
<path d="M3 8C3 6.528 4.19467 5.33333 5.66667 5.33333H8.33333V10.6667H5.66667C4.19467 10.6667 3 9.472 3 8Z" fill="#ececec"/>
<path d="M3 2.66667C3 1.19467 4.19467 0 5.66667 0H8.33333V5.33333H5.66667C4.19467 5.33333 3 4.13867 3 2.66667Z" fill="#ececec"/>
<path d="M8.33333 0H11C12.472 0 13.6667 1.19467 13.6667 2.66667C13.6667 4.13867 12.472 5.33333 11 5.33333H8.33333V0Z" fill="#ececec"/>
<path d="M13.6667 8C13.6667 9.472 12.472 10.6667 11 10.6667C9.528 10.6667 8.33333 9.472 8.33333 8C8.33333 6.528 9.528 5.33333 11 5.33333C12.472 5.33333 13.6667 6.528 13.6667 8Z" fill="#ececec"/>
</svg>
