<svg xmlns="http://www.w3.org/2000/svg" width="16" height="16" version="1.1">
 <path fill="#ececec" d="m 1.14375,0 c -0.60147,0 -1.08996,0.4591 -1.1375,1.04792 0.47036,0.003 0.85,0.38512 0.85,0.85625 C 0.85625,2.37731 0.47314,2.7625 0,2.7625 v 1.33333 c 0.47314,0 0.85625,0.38311 0.85625,0.85625 C 0.85625,5.42522 0.47314,5.81042 0,5.81042 V 7.14375 C 0.47314,7.14375 0.85625,7.52686 0.85625,8 0.85625,8.47314 0.47314,8.85625 0,8.85625 v 1.33333 c 0.47314,0 0.85625,0.3852 0.85625,0.85834 0,0.47315 -0.38311,0.85625 -0.85625,0.85625 v 1.33333 c 0.47314,0 0.85625,0.38518 0.85625,0.85833 0,0.47113 -0.37964,0.853 -0.85,0.85625 C 0.05385,15.54089 0.54228,16 1.14375,16 c 0,-0.47314 0.3831,-0.85625 0.85625,-0.85625 0.47313,0 0.85625,0.38311 0.85625,0.85625 h 1.33333 c 0,-0.47314 0.38521,-0.85625 0.85834,-0.85625 0.47314,0 0.85625,0.38311 0.85625,0.85625 H 7.2375 c 0,-0.47314 0.3852,-0.85625 0.85833,-0.85625 0.47316,0 0.85625,0.38311 0.85625,0.85625 h 1.33334 c 0,-0.47314 0.38519,-0.85625 0.85833,-0.85625 C 11.61689,15.14375 12,15.52686 12,16 h 1.33333 c -10e-6,-0.47314 0.38312,-0.85625 0.85625,-0.85625 0.4671,0 0.84868,0.37271 0.85834,0.8375 0.5121,-0.0848 0.9034,-0.50359 0.94583,-1.02917 -0.47036,-0.003 -0.85,-0.38512 -0.85,-0.85625 0,-0.47315 0.38311,-0.85833 0.85625,-0.85833 v -1.33333 c -0.47314,0 -0.85625,-0.3831 -0.85625,-0.85625 0,-0.47314 0.38311,-0.85834 0.85625,-0.85834 V 8.85625 C 15.52686,8.85625 15.14375,8.47314 15.14375,8 15.14375,7.52686 15.52686,7.14375 16,7.14375 V 5.81042 c -0.47314,0 -0.85625,-0.3852 -0.85625,-0.85834 0,-0.47314 0.38311,-0.85625 0.85625,-0.85625 V 2.7625 c -0.47314,0 -0.85625,-0.38519 -0.85625,-0.85833 0,-0.47113 0.37964,-0.853 0.85,-0.85625 -0.0425,-0.52558 -0.43373,-0.94439 -0.94583,-1.02917 -0.01,0.46479 -0.39124,0.8375 -0.85834,0.8375 C 13.71644,0.85625 13.33333,0.47314 13.33333,0 H 12 C 12,0.47314 11.61689,0.85625 11.14375,0.85625 10.67061,0.85625 10.28542,0.47314 10.28542,0 H 8.95208 c 0,0.47314 -0.38309,0.85625 -0.85625,0.85625 C 7.6227,0.85625 7.2375,0.47314 7.2375,0 H 5.90417 c 0,0.47314 -0.38311,0.85625 -0.85625,0.85625 C 4.57479,0.85625 4.18958,0.47314 4.18958,0 H 2.85625 C 2.85625,0.47314 2.47313,0.85625 2,0.85625 1.52685,0.85625 1.14375,0.47314 1.14375,0 Z m 3.77708,2.86875 h 6.51875 L 11.10833,4.44583 H 6.26667 L 5.78958,6.34167 h 7.3875 l -0.38333,1.57916 -3.525,2.95834 c 1.23172,0.0432 1.77896,1.13145 3.50833,-0.0875 l 0.31459,1.59791 c -1.58462,0.90551 -2.35004,0.66518 -3.1625,0.44167 -0.83512,-0.2298 -1.2951,-0.55689 -2.39584,0.004 L 6.95,13.13316 5.81458,11.83525 10.17292,7.9665 H 5.51875 L 4.52708,12.09566 H 2.82292 Z"/>
</svg>
