<svg xmlns="http://www.w3.org/2000/svg" width="16" height="16" version="1.1">
 <path fill="#ececec" opacity="1.0" d="M 2.789 15.909 C 2.586 15.691 2.88 15.464 2.975 15.101 C 3.309 13.811 4.176 12.607 5.499 11.599 C 5.833 11.344 6.756 10.821 7.548 10.437 C 9.164 9.653 9.663 9.242 10.112 8.323 L 10.716 6.333 C 10.801 6.564 12.93 5.653 13.837 4.971 C 14.591 4.404 15.156 4.012 15.643 2.794 C 15.643 2.794 15.677 3.471 15.627 3.803 C 15.346 5.672 14.759 7.82 14.043 9.245 C 12.992 11.334 11.807 12.237 9.758 12.509 C 7.803 12.769 6.558 13.107 5.361 13.702 C 4.186 14.287 3.236 15.076 2.95 15.705 C 2.838 15.949 2.885 16.064 2.789 15.909 L 2.789 15.909 Z"/>
 <path fill="#ececec" opacity="0.6" d="M 2.829,15.68 C 1.797,15.748 3.563,8.705 5.565,5.907 6.552,5.43 7.744,4.5 8.542,3.506 9.714,2.046 9.712,0 9.712,0 c 0,0 1.248,4.21 1.004,6.333 -0.113,0.989 -0.474,2.012 -1.123,2.766 -0.85,0.986 -2.533,1.603 -3.544,2.134 -2.405,1.263 -3.269,4.435 -3.22,4.447 z"/>
 <path fill="#ececec" opacity="1.0" d="M 2.184 15.073 C 1.037 13.348 0.345 11.611 0.345 10.455 C 0.345 9.758 0.567 9.114 1.007 8.529 C 2.493 6.554 3.437 4.13 3.455 2.249 C 3.459 1.788 3.474 1.411 3.488 1.411 C 3.502 1.411 3.734 1.756 4.004 2.177 C 5.51 4.525 6.096 6.836 5.595 8.452 C 5.406 9.059 5.244 9.32 4.209 10.683 C 2.961 12.327 2.437 14.129 2.779 15.603 C 2.826 15.808 2.854 15.986 2.84 16 C 2.827 16.013 2.532 15.596 2.184 15.073 L 2.184 15.073 Z"/>
</svg>
