<svg xmlns="http://www.w3.org/2000/svg" width="16" height="16" version="1.1">
 <path fill="#ececec" opacity="1.0" d="m 10.50002,2.9996335 a 1.5,1.4998181 0 0 0 -1.5,1.4998181 1.5,1.4998181 0 0 0 1.5,1.4998182 1.5,1.4998181 0 0 0 1.5,-1.4998182 1.5,1.4998181 0 0 0 -1.5,-1.4998181 z m -4.2754,6.036368 c -0.68002,-0.017398 -1.4115,0.1207654 -2.2559,0.4647837 -0.91093,0.371115 -1.9626,1.0257758 -3.1641,1.9802598 1.3341,2.760665 4.1289,4.515952 7.1953,4.518952 2.3257,-0.001 4.5358,-1.014077 6.0547,-2.775063 -2.4044,-1.345637 -4.1506,-2.97414 -5.8867,-3.7241488 C 7.53315,9.2265484 6.90452,9.0534394 6.22452,9.0360015 Z"/>
 <path fill="#ececec" opacity="0.4" d="m 8.00002,-2.8064001e-6 c -4.4183,0 -8,3.5812657064001 -8,7.9990301064001 0.003,0.849067 0.14173,1.6921948 0.41016,2.4976967 1.1664,-0.9051098 2.2118,-1.5293141 3.1797,-1.9235663 0.95209,-0.387893 1.8339,-0.5419143 2.6582,-0.5214168 0.82427,0.020497 1.5924,0.2164037 2.3164,0.5292258 2.0163,0.8711044 3.7728,2.5181943 6.1074,3.8237363 0.86472,-1.306841 1.3265,-2.8387557 1.3281,-4.4056657 0,-4.4177644 -3.5817,-7.9990301076124 -8,-7.9990301076124 z M 10.50002,1.997755 a 2.5,2.4996969 0 0 1 2.5,2.4996969 2.5,2.4996969 0 0 1 -2.5,2.4996969 2.5,2.4996969 0 0 1 -2.5,-2.4996969 2.5,2.4996969 0 0 1 2.5,-2.4996969 z"/>
</svg>
