<svg xmlns="http://www.w3.org/2000/svg" width="16" height="16" version="1.1">
 <path fill="#ececec" d="M 3.696 0 C 2.896 0 2.235 0.662 2.235 1.461 L 2.235 15.135 C 2.235 15.506 2.498 15.845 2.805 15.956 C 3.147 16.065 3.52 15.967 3.764 15.705 L 8.375 10.227 L 10.886 10.227 C 11.585 10.219 12.185 9.725 12.324 9.04 L 13.74 1.735 C 13.911 0.847 13.206 0 12.301 0 L 3.696 0 Z M 3.696 1.461 L 12.301 1.461 L 11.731 4.383 L 6.96 4.383 C 6.773 4.387 6.622 4.538 6.618 4.725 L 6.618 5.501 C 6.618 5.684 6.777 5.844 6.96 5.844 L 11.457 5.844 L 10.886 8.766 L 8.01 8.766 C 7.792 8.76 7.582 8.852 7.439 9.017 L 3.696 13.514 L 3.696 1.461 Z"/>
</svg>
