<svg xmlns="http://www.w3.org/2000/svg" width="16" height="16" version="1.1">
 <path fill="#ececec" fill-rule="evenodd" d="M 5.3652344 0 C 4.7165842 0 4.136042 0.010662085 3.6191406 0.041015625 C 3.504484 0.047748805 3.4054844 0.059698105 3.296875 0.068359375 C 2.155091 1.4247624 1.564611 2.6755049 1.3984375 3.8046875 C 1.2263659 4.9739584 1.510583 6.0103159 2.0761719 6.8867188 C 3.2073482 8.6395322 5.4487772 9.7619559 7.4980469 10.203125 C 7.5541839 10.211725 7.6076479 10.17888 7.6289062 10.125 C 7.6501642 10.07109 7.6322105 10.010276 7.5859375 9.9765625 C 6.5349401 9.2950988 5.9772143 8.4787152 5.765625 7.6015625 C 5.5540346 6.7244211 5.6943124 5.7779869 6.0800781 4.8417969 C 6.8516126 2.9694143 8.6065339 1.1542913 10.382812 0.109375 C 10.422026 0.08694327 10.446954 0.044357625 10.447266 0 L 5.3652344 0 z M 8.4804688 6.2539062 C 8.4335397 6.2628863 8.3960828 6.3016894 8.3867188 6.3496094 C 8.3773487 6.3975764 8.397558 6.4458736 8.4375 6.4726562 C 9.4881989 7.1539301 10.032085 7.9858821 10.1875 8.8828125 C 10.342916 9.7797485 10.108958 10.753042 9.5703125 11.707031 C 8.6207528 13.388779 6.7202354 14.997061 4.4277344 15.978516 C 4.7370341 15.986316 5.0169948 16 5.3652344 16 L 10.646484 16 C 11.295134 16 11.873723 15.989334 12.390625 15.958984 C 12.649075 15.943804 12.892866 15.923917 13.121094 15.898438 C 13.349322 15.872958 13.561905 15.840324 13.761719 15.802734 C 13.771219 15.800934 13.779593 15.798675 13.789062 15.796875 C 15.050745 13.178837 14.825966 11.049188 13.779297 9.4746094 C 12.638923 7.759119 10.574708 6.6946698 8.5273438 6.2539062 C 8.5118977 6.2509663 8.4959138 6.2509663 8.4804688 6.2539062 z M 7.2167969 6.5585938 A 1.9978923 1.2048906 46.463895 0 0 6.6074219 6.7988281 A 1.9978923 1.2048906 46.463895 1 0 9.3984375 9.6582031 A 1.9978923 1.2048906 46.463895 0 0 7.2167969 6.5585938 z"/>
</svg>
