<svg xmlns="http://www.w3.org/2000/svg" width="16" height="16" version="1.1">
 <path fill="#ececec" d="m 7.4666545,1.6005667 v 0.53333 h 1.06667 v -0.53333 z m 0,1.06667 v 0.53333 h 1.06667 v -0.53333 z m 0,1.06667 v 3.2 h -3.73333 c -0.0356,-7.8e-4 -0.0713,0.002 -0.10624,0.009 -1.64213,0.0472 -3.07267,1.16352 -3.50001,2.75834 -0.43667,1.6296703 0.27847,3.3564303 1.73959,4.2000003 1.44901,0.83659 3.28113,0.60085 4.475,-0.56666 h 3.31667 c 1.1938695,1.16751 3.0259895,1.40325 4.4750095,0.56666 1.46112,-0.84358 2.17625,-2.57033 1.73958,-4.2000003 -0.42788,-1.59684 -1.86148,-2.71373 -3.50625,-2.75834 -0.033,-0.007 -0.0665,-0.009 -0.10001,-0.009 H 8.5333245 v -3.2 z m -3.73333,4.26667 h 8.5333395 c 1.20952,0 2.26403,0.80878 2.57709,1.97709 0.31304,1.1683103 -0.19628,2.3952303 -1.24376,3.0000003 -0.99001,0.57157 -2.2147,0.43953 -3.06875,-0.29792 -0.13933,-0.13827 -0.27624,-0.41606 -0.52708,-0.4125 H 5.9958145 c -0.24944,-0.003 -0.42036,0.28553 -0.52499,0.41042 -0.85414,0.73915 -2.07998,0.87206 -3.07084,0.3 -1.04749,-0.60477 -1.55472,-1.83169 -1.24166,-3.0000003 0.31304,-1.16833 1.36547,-1.97709 2.575,-1.97709 z m -0.53334,1.06666 v 1.0666703 h -1.06667 v 1.06667 h 1.06667 v 1.06667 h 1.06667 v -1.06667 h 1.06667 v -1.06667 h -1.06667 V 9.0672367 Z m 9.0666795,0 c -0.29455,0 -0.53334,0.23879 -0.53334,0.53334 0,0.29455 0.23879,0.5333303 0.53334,0.5333303 0.29455,0 0.53333,-0.2387803 0.53333,-0.5333303 0,-0.29455 -0.23878,-0.53334 -0.53333,-0.53334 z m -1.06667,1.0666703 c -0.29455,0 -0.53334,0.23879 -0.53334,0.53333 0,0.29455 0.23879,0.53334 0.53334,0.53334 0.29455,0 0.53333,-0.23879 0.53333,-0.53334 0,-0.29454 -0.23878,-0.53333 -0.53333,-0.53333 z m 2.13333,0 c -0.29455,0 -0.53333,0.23879 -0.53333,0.53333 0,0.29455 0.23878,0.53334 0.53333,0.53334 0.29455,0 0.53334,-0.23879 0.53334,-0.53334 0,-0.29454 -0.23879,-0.53333 -0.53334,-0.53333 z m -1.06666,1.06667 c -0.29455,0 -0.53334,0.23878 -0.53334,0.53333 0,0.29455 0.23879,0.53334 0.53334,0.53334 0.29455,0 0.53333,-0.23879 0.53333,-0.53334 0,-0.29455 -0.23878,-0.53333 -0.53333,-0.53333 z"/>
</svg>
