<svg xmlns="http://www.w3.org/2000/svg" width="16" height="16" version="1.1">
 <path fill="#ececec" d="M 7.9999999,5.9999998e-8 A 7.9992335,7.9992335 0 0 0 5.9999998e-8,7.9999999 7.9992335,7.9992335 0 0 0 7.9999999,16 7.9992335,7.9992335 0 0 0 16,7.9999999 7.9992335,7.9992335 0 0 0 7.9999999,5.9999998e-8 Z M 5.6162628,6.1331104 C 6.3928176,6.0629604 7.1763725,6.6101595 7.4631022,7.4786967 7.790795,8.4713094 7.3476102,9.5116379 6.4739627,9.8000559 5.600314,10.088474 4.6228744,9.5161449 4.2951823,8.523531 3.9674903,7.5309178 4.4129007,6.4905899 5.2865497,6.202172 5.3957556,6.1661201 5.5053263,6.1431367 5.6162628,6.1331104 Z m 4.7674742,0 c 0.110937,0.010022 0.220509,0.03301 0.329713,0.069062 0.873648,0.2884181 1.319059,1.3287457 0.991368,2.321359 C 11.377125,9.5161449 10.399685,10.088474 9.5260369,9.8000559 8.6523879,9.5116379 8.2092049,8.4713094 8.5368977,7.4786967 8.8236283,6.6101594 9.6071829,6.0629603 10.383737,6.1331104 Z"/>
</svg>
