<svg xmlns="http://www.w3.org/2000/svg" width="16" height="16" version="1.1">
 <path fill="#ececec" d="M 15.6982,7.2871867 8.7121981,0.30179976 c -0.4017843,-0.40239963 -1.0546069,-0.40239963 -1.4570066,0 L 5.8049531,1.7526535 7.6446701,3.5929858 c 0.4276265,-0.1445932 0.9180126,-0.047377 1.2588832,0.2934933 0.3427165,0.3433318 0.4387018,0.8374096 0.2910322,1.266882 l 1.7732655,1.7732656 c 0.429473,-0.1482848 0.924166,-0.0523 1.266882,0.2910322 0.478696,0.4786956 0.478696,1.2545762 0,1.7338871 -0.479311,0.4793109 -1.255191,0.4793109 -1.734502,0 C 10.139671,8.5909861 10.051069,8.0618367 10.233195,7.6182127 L 8.5792955,5.9643133 v 4.3525607 c 0.1169051,0.05784 0.227042,0.134749 0.3242578,0.231965 0.4786956,0.478695 0.4786956,1.254576 0,1.734502 -0.4786956,0.478696 -1.2551915,0.478696 -1.7338871,0 -0.4786956,-0.479311 -0.4786956,-1.255191 0,-1.734502 0.1181357,-0.118136 0.2553454,-0.207968 0.4017844,-0.267651 V 5.8880173 C 7.4256269,5.8283342 7.2884172,5.7397324 7.1696662,5.6203662 6.8072604,5.2579604 6.7198893,4.7251193 6.9057068,4.2796494 L 5.091832,2.4651593 0.30179974,7.2551916 c -0.40239963,0.4030149 -0.40239963,1.0552223 0,1.4576219 L 7.2878019,15.6982 c 0.4023996,0.4024 1.054607,0.4024 1.4576219,0 L 15.6982,8.7448086 c 0.4024,-0.4023997 0.4024,-1.0552223 0,-1.4576219" clip-path="url(#a)"/>
</svg>
