<svg xmlns="http://www.w3.org/2000/svg" version="1.1">
   <path fill="#ececec" d="m 303.43,153.731 c 0,26.195 -47.43,70.618 -47.43,70.618 0,0 -47.43,-44.423 -47.43,-70.618 0,-26.195 21.235,-47.431 47.43,-47.431 26.195,0 47.43,21.236 47.43,47.431 z"/>
   <path fill="#ececec" d="m 303.43,358.269 c 0,-26.195 -47.43,-70.618 -47.43,-70.618 0,0 -47.43,44.423 -47.43,70.618 0,26.195 21.235,47.431 47.43,47.431 26.195,0 47.43,-21.236 47.43,-47.431 z"/>
   <path fill="#ececec" d="m 153.731,208.57 c 26.195,0 70.618,47.43 70.618,47.43 0,0 -44.423,47.43 -70.618,47.43 -26.195,0 -47.431,-21.235 -47.431,-47.43 0,-26.195 21.236,-47.43 47.431,-47.43 z"/>
   <path fill="#ececec" d="m 358.269,208.57 c -26.195,0 -70.618,47.43 -70.618,47.43 0,0 44.423,47.43 70.618,47.43 26.195,0 47.431,-21.235 47.431,-47.43 0,-26.195 -21.236,-47.43 -47.431,-47.43 z"/>
</svg>
