<svg xmlns="http://www.w3.org/2000/svg" width="16" height="16" version="1.1">
   <path fill="#ececec" d="m 7.558811,35.529414 a 3.5294115,3.5294115 0 1 0 -7.05882197,0 3.5294115,3.5294115 0 1 0 7.05882197,0 z"/>
   <path fill="#ececec" d="m 15.499988,35.529414 a 3.5294118,3.5294118 0 1 1 -7.058823,0 3.5294118,3.5294118 0 1 1 7.058823,0 z"/>
    <path fill="#ececec" d="m 48,32 a 16,16 0 1 1 -32,0 16,16 0 1 1 32,0 z" transform="translate(34,-2)"/>
    <path fill="#ececec" d="m 48,32 a 16,16 0 1 1 -32,0 16,16 0 1 1 32,0 z" transform="translate(34,-2)"/>
</svg>
