<svg xmlns="http://www.w3.org/2000/svg" width="16" height="16" version="1.1">
 <path fill="#ececec" d="m 7.5294114,3.7659632 a 3.7647054,3.7639292 0 1 0 -7.5294096546668,0 3.7647054,3.7639292 0 1 0 7.5294096546668,0 z"/>
 <path fill="#ececec" d="m 15.999999,3.7659632 a 3.7647057,3.7639296 0 1 1 -7.5294101,0 3.7647057,3.7639296 0 1 1 7.5294101,0 z"/>
 <path fill="#ececec" d="m 15.999998,12.234803 a 3.7647054,3.7639292 0 1 1 -7.5294101,0 3.7647054,3.7639292 0 1 1 7.5294101,0 z"/>
 <path fill="#ececec" d="m 7.5294111,12.234803 a 3.7647054,3.7639293 0 1 1 -7.52941085866667,0 3.7647054,3.7639293 0 1 1 7.52941085866667,0 z"/>
</svg>
