<svg xmlns="http://www.w3.org/2000/svg" width="16" height="16" version="1.1">
 <path fill="#ececec" opacity="1.0" d="m 7.6211867,3.8204884 a 3.8096267,3.8096267 0 0 1 -7.61925336,0 3.8096267,3.8096267 0 1 1 7.61925336,0 z"/>
 <path fill="#ececec" opacity="1.0" d="m 15.999999,12.192156 a 3.8096267,3.8096267 0 0 1 -7.619252,0 3.8096267,3.8096267 0 1 1 7.619252,0 z"/>
 <path fill="#ececec" opacity="0.6" d="m 15.999999,3.8114029 a 3.8096267,3.8096267 0 0 1 -7.619252,0 3.8096267,3.8096267 0 1 1 7.619252,0 z"/>
 <path fill="#ececec" opacity="0.6" d="m 7.6192522,12.192543 a 3.8096264,3.8096264 0 0 1 -7.61925192591324,0 3.8096264,3.8096264 0 1 1 7.61925192591324,0 z"/>
</svg>
