<svg xmlns="http://www.w3.org/2000/svg" width="16" height="16" version="1.1">
 <path fill="#ececec" opacity="0.9" fill-rule="evenodd" d="M 1.6542969 4.9648438 L 1.6542969 5.5175781 L 1.6542969 6.6210938 L 0 6.6210938 L 0 7.171875 L 1.6542969 7.171875 L 2.2070312 7.171875 L 2.2070312 5.5175781 L 2.7578125 5.5175781 L 2.7578125 8.2753906 L 2.7578125 8.828125 L 4.4140625 8.828125 L 4.4140625 8.2753906 L 4.4140625 7.171875 L 5.5175781 7.171875 L 7.171875 7.171875 L 7.7246094 7.171875 L 7.7246094 5.5175781 L 8.2753906 5.5175781 L 8.2753906 8.2753906 L 8.2753906 8.828125 L 9.9316406 8.828125 L 9.9316406 8.2753906 L 9.9316406 7.171875 L 11.035156 7.171875 L 12.138672 7.171875 L 12.689453 7.171875 L 12.689453 5.5175781 L 13.242188 5.5175781 L 13.242188 8.2753906 L 13.242188 8.828125 L 14.896484 8.828125 L 14.896484 8.2753906 L 14.896484 7.171875 L 16 7.171875 L 16 6.6210938 L 14.345703 6.6210938 L 14.345703 7.171875 L 14.345703 8.2753906 L 13.792969 8.2753906 L 13.792969 5.5175781 L 13.792969 4.9648438 L 12.138672 4.9648438 L 12.138672 5.5175781 L 12.138672 6.6210938 L 11.035156 6.6210938 L 9.3789062 6.6210938 L 9.3789062 7.171875 L 9.3789062 8.2753906 L 8.828125 8.2753906 L 8.828125 5.5175781 L 8.828125 4.9648438 L 7.171875 4.9648438 L 7.171875 5.5175781 L 7.171875 6.6210938 L 5.5175781 6.6210938 L 3.8613281 6.6210938 L 3.8613281 7.171875 L 3.8613281 8.2753906 L 3.3105469 8.2753906 L 3.3105469 5.5175781 L 3.3105469 4.9648438 L 1.6542969 4.9648438 z M 12.138672 9.3789062 L 12.138672 11.035156 L 12.689453 11.035156 L 12.689453 9.3789062 L 12.138672 9.3789062 z M 11.035156 9.9316406 L 11.035156 11.035156 L 11.585938 11.035156 L 11.585938 9.9316406 L 11.035156 9.9316406 z M 13.242188 9.9316406 L 13.242188 11.035156 L 13.792969 11.035156 L 13.792969 9.9316406 L 13.242188 9.9316406 z M 9.9316406 10.482422 L 9.9316406 11.035156 L 10.482422 11.035156 L 10.482422 10.482422 L 9.9316406 10.482422 z M 14.345703 10.482422 L 14.345703 11.035156 L 14.896484 11.035156 L 14.896484 10.482422 L 14.345703 10.482422 z"/>
</svg>
