<svg xmlns="http://www.w3.org/2000/svg" width="16" height="16" version="1.1">
 <path fill="#ececec" d="M 1.99611,0 C 0.90753,0 0,0.90885 0,1.99901 v 10.99453 c 0,1.09016 0.90753,1.99901 1.99611,1.99901 h 1.9961 V 13.43083 L 4.42886,12.99354 H 1.99611 V 9.99503 h 2.99416 v 2.43629 l 0.99805,-0.9995 V 9.99503 h 1.4347 L 8.42107,8.99553 H 5.98832 V 5.99702 H 8.98248 V 8.43331 L 9.98053,7.46504 V 5.99697 h 1.46594 l 0.99806,-0.9995 h -2.464 V 1.99896 h 2.99416 V 4.46653 L 14.84604,2.59246 14.9708,2.7174 V 1.99901 C 14.9708,0.90885 14.06327,0 12.97469,0 Z m 0,1.99901 H 4.99027 V 4.99752 H 1.99611 Z m 3.99221,0 H 8.98248 V 4.99752 H 5.98832 Z m 8.85772,1.999 -1.5907,1.59301 c 0,0 0.88128,0.20572 1.30017,0.69298 0.41887,0.48725 0.82071,1.43099 0.82071,1.43099 L 16,7.0903 V 5.15376 Z M 1.99611,5.99702 H 4.99027 V 8.99553 H 1.99611 Z m 10.57337,0.28111 -7.57901,7.6524 V 15.992 L 7.0723,16 14.69024,8.40218 c 0,0 -0.17147,-0.82227 -0.71372,-1.39771 C 13.43426,6.42899 12.56936,6.27808 12.56936,6.27808 Z m 2.40152,3.24839 -1.99611,1.96782 v 1.49925 H 11.47781 L 9.4817,14.9926 h 3.49319 c 1.08858,0 1.99611,-0.90885 1.99611,-1.99901 z"/>
</svg>
