<svg xmlns="http://www.w3.org/2000/svg" width="16" height="16" version="1.1">
 <path fill="#ececec" d="M 1.969,0.0312 C 0.8795,0.0312 2e-4,0.91046 2e-4,2 v 12 c 0,1.0895 0.87926,1.9688 1.9688,1.9688 h 12.062 c 1.0895,0 1.9688,-0.87926 1.9688,-1.9688 V 2 c 0,-1.0895 -0.87926,-1.9688 -1.9688,-1.9688 z m 0,1 h 12.062 c 0.55278,0 0.96875,0.41597 0.96875,0.96875 v 11.031 c 0,0.55278 -0.41597,0.96875 -0.96875,0.96875 H 1.969 c -0.55278,0 -0.96875,-0.41597 -0.96875,-0.96875 V 1.99995 C 1.00025,1.39788 1.35464,1.0312 1.969,1.0312 Z m 0.0312,0.96875 v 1 h 1 v -1 z m 2,0 v 1 h 1 v -1 z m 3,0 v 1 h 1 v -1 z m 2,0 v 1 h 1 v -1 z m 2,0 v 1 h 1 v -1 z m 2,0 v 1 h 1 v -1 z m -11,2 v 1 h 1 v -1 z m 2,0 v 1 h 1 v -1 z m 3,0 v 1 h 1 v -1 z m 2,0 v 1 h 1 v -1 z m 2,0 v 1 h 1 v -1 z m 2,0 v 1 h 1 v -1 z m -2,2 v 1 h -1 c -0.54535,0 -1,0.45465 -1,1 v 1 c 0,0.54535 0.45465,1 1,1 h 0.1875 0.8125 1 0.65625 0.34375 c 0.54535,0 1,-0.45465 1,-1 v -1 c 0,-0.54535 -0.45465,-1 -1,-1 h -1 v -1 z m -6,1 c -1.6509,0 -3,1.3491 -3,3 0,1.6509 1.3491,3 3,3 1.6509,0 3,-1.3491 3,-3 0,-1.6509 -1.3491,-3 -3,-3 z m 0,1 c 1.1105,0 2,0.88951 2,2 0,1.11049 -0.88951,2 -2,2 -1.11049,0 -2,-0.88951 -2,-2 0,-1.11049 0.88951,-2 2,-2 z m 5,0 h 3 v 1 h -3 z m 1,3 v 2 h 1 v -2 z"/>
</svg>
