<svg xmlns="http://www.w3.org/2000/svg" width="16" height="16" version="1.1">
 <path fill="#ececec" d="M 12.864527,0 C 9.7392694,0 9.1530015,4.7477679 10.911402,4.7477679 12.669002,4.7477679 15.990127,0 12.864527,0 Z M 8.0520266,0.7299107 C 8.0027923,0.7296822 7.9489501,0.7296429 7.8935444,0.7410714 6.122573,0.9647286 6.7453415,3.9619714 7.6881873,4.0178571 8.6011015,4.0727143 9.5989945,0.7374 8.0497945,0.7321429 Z M 4.980598,1.8370536 C 4.8722437,1.825625 4.7525223,1.8513928 4.6189908,1.9062501 3.1954479,2.4907072 4.4024337,4.9032429 5.1993481,4.7410714 5.9226737,4.5941 6.0266894,1.9050536 4.980598,1.8370536 Z M 2.6569373,3.8102679 c -0.1237257,0 -0.2567764,0.038461 -0.3995536,0.1450892 -1.13944,0.8504 0.3831143,2.9055679 1.0535714,2.5870536 C 3.8974123,6.2634393 3.5232687,3.8415822 2.6569373,3.8102679 Z M 9.3868479,5.7700893 C 6.9179338,5.7278035 3.6612551,6.9808536 3.105598,9.497768 2.5043637,12.220854 5.5820123,16 8.793098,16 10.372756,16 12.19526,14.555907 12.536402,12.727679 12.796711,11.333622 9.4706587,11.892561 9.589973,12.814733 9.7333558,13.920447 8.7900009,14.46715 7.8645266,13.754464 4.9185837,11.485321 12.742248,10.352232 12.226134,7.2522321 12.065517,6.2872035 10.86822,5.7954607 9.3868479,5.7700893 Z"/>
</svg>
