<svg xmlns="http://www.w3.org/2000/svg" width="16" height="16" version="1.1">
 <path fill="#ececec" d="M 12.238281 0 L 11.884766 0.39648438 L 2.9160156 10.433594 L 2.8867188 10.482422 C 2.8257188 10.591664 2.6157344 10.979594 2.3027344 11.683594 C 1.9887344 12.387594 1.6030156 13.350008 1.2910156 14.433594 L 1 15.449219 L 1.9199219 15.126953 C 2.7744579 14.823195 3.6075954 14.449444 4.4121094 14.009766 C 5.0501094 13.663284 5.399 13.435854 5.5 13.365234 L 5.5449219 13.333984 L 15 3.046875 L 12.238281 0 z M 14 8.2753906 L 14 16 L 15 16 L 15 8.2753906 L 14 8.2753906 z M 12 10.482422 L 12 16 L 13 16 L 13 10.482422 L 12 10.482422 z M 3.890625 10.914062 L 5.109375 12.259766 L 4.9316406 12.453125 C 4.9386406 12.447625 4.5527031 12.702841 3.9707031 13.019531 C 3.7567031 13.135393 3.4347187 13.264578 3.1367188 13.392578 L 2.8632812 13.089844 C 2.9792813 12.761017 3.0961719 12.40606 3.2011719 12.169922 C 3.4881719 11.527715 3.7188438 11.104708 3.7148438 11.111328 L 3.890625 10.914062 z M 10 12.689453 L 10 16 L 11 16 L 11 12.689453 L 10 12.689453 z"/>
</svg>
