<svg xmlns="http://www.w3.org/2000/svg" width="16" height="16" version="1.1">
 <path fill="#ececec" d="M 7.9863281 0 C 3.5979094 0 -1.1842379e-15 3.5979208 0 7.9863281 C 0 12.374735 3.5979094 16 7.9863281 16 C 12.374735 16 16 12.374735 16 7.9863281 C 16 3.5979208 12.374735 0 7.9863281 0 z M 7.9863281 4.578125 C 9.9057237 4.578125 11.421875 6.0669324 11.421875 7.9863281 C 11.421875 9.9057237 9.9057237 11.421875 7.9863281 11.421875 C 6.066921 11.421875 4.578125 9.9057237 4.578125 7.9863281 C 4.578125 6.0669324 6.066921 4.578125 7.9863281 4.578125 z M 8.0058594 5.7226562 C 6.751058 5.7226562 5.7070312 6.7471516 5.7070312 8.0019531 C 5.7070312 9.2567431 6.751058 10.283203 8.0058594 10.283203 C 9.2606609 10.283203 10.285156 9.2567431 10.285156 8.0019531 C 10.285156 6.7471516 9.2606609 5.7226562 8.0058594 5.7226562 z M 8.0058594 6.8632812 C 8.643408 6.8632812 9.1464844 7.3644045 9.1464844 8.0019531 C 9.1464844 8.6394902 8.643408 9.1425781 8.0058594 9.1425781 C 7.3683109 9.1425781 6.8652344 8.6394902 6.8652344 8.0019531 C 6.8652344 7.3644045 7.3683109 6.8632812 8.0058594 6.8632812 z"/>
</svg>
