<svg xmlns="http://www.w3.org/2000/svg" width="16" height="16" version="1.1">
 <path   fill="#ececec" d="M1 1H15V12H10H8C8 14 7 15 5.1 15.5L5 16H11L10.25 13H15C15.5523 13 16 12.5523 16 12V1C16 0.447715 15.5523 0 15 0H1C0.447715 0 0 0.447715 0 1V12C0 12.5523 0.447715 13 1 13H2C2.70077 12.7058 2.90419 12.482 3 12H1V1Z"/>
 <path   fill="#ececec" d="M8.50694 10.8713L6.85637 12.0312C7.16581 14.8623 3.99611 15.6611 1.97526 13.5542C4.82837 12.6432 3.58797 10.6357 5.87653 10.9147L6.91078 9.24045L7.47725 9.50048L13.4396 2.97321C14.2789 2.05808 15.2976 3.24753 14.5 4L8.23503 10.3608L8.50694 10.8713Z"/>
 <circle fill="#ececec" cx="4.5" cy="4.5" r="2.5"/>
</svg>
