<svg xmlns="http://www.w3.org/2000/svg" width="16" height="16" version="1.1">
 <path fill="#ececec" d="m 8.00004,0 c -2.8404,0 -5.14286,2.30914 -5.14286,5.15571 0,1.68789 0.79443,3.16131 2.04106,4.10143 0.57344,0.43406 1.04787,0.99321 1.04787,1.76464 L 6.00001,12 h 4 l 0.0571,-0.97822 c 0.045,-0.77013 0.4722,-1.33058 1.04461,-1.76464 1.2477,-0.94012 2.0411,-2.41354 2.0411,-4.10143 C 13.14282,2.30914 10.84041,0 7.99988,0 Z m 0,2.06035 c 1.70331,0 3.0857,1.38947 3.0857,3.09536 0,0.97457 -0.4438,1.87149 -1.22142,2.45571 C 8.7041,8.48931 8.26438,9.47005 8.10289,10.28571 H 7.89719 C 7.73672,9.47005 7.2965,8.48931 6.13576,7.61142 5.36022,7.02668 4.91432,6.12977 4.91432,5.15571 c 0,-1.70589 1.38292,-3.09536 3.08572,-3.09536 z M 6.00004,13 v 1 h 4 v -1 z m 1,2 v 1 h 2 v -1 z"/>
</svg>
