<svg xmlns="http://www.w3.org/2000/svg" width="16" height="16" version="1.1">
 <path fill="#ececec" opacity="1.0" d="M 12.031 6.844 L 16 9.1 L 16 13.7 L 12 16 L 12 11.45 L 15.984 9.141 L 12.016 6.859 L 8 9.2 L 8 13.7 L 4 16 L 4 11.563 L 8 9.1 L 8 4.55 L 12 2.3 L 12.031 6.844 Z"/>
 <path fill="#ececec" opacity="0.4" d="m 12,6.8 4,2.3 v 4.6 L 12,16 8,13.7 4,16 0,13.7 V 9.1 L 4,6.8 V 2.3 L 8,0 12,2.3 Z"/>
 <path fill="#ececec" opacity="0.5" fill-rule="evenodd" d="m 12,6.8 -4,2.3 4,2.35 3.984,-2.309 z M 4,6.8 0,9.1 4,11.563 8,9.1 Z M 8,0 4,2.3 8,4.6 12,2.3 Z"/>
</svg>
