<svg xmlns="http://www.w3.org/2000/svg" width="16" height="16" version="1.1">
 <path fill="#ececec" d="m 7.71093,1.1563049 -4.27306,3.2 a 0.53333333,0.53333333 0 0 0 0.29546,0.97707 h 0.53334 v 2.13333 H 0.53333 C 0.23787,7.4667049 0,7.7045749 0,8.0000449 v 6.4000001 c 0,0.29546 0.23787,0.53333 0.53333,0.53333 h 5.33334 c 0.29546,0 0.53333,-0.23787 0.53333,-0.53333 v -2.66667 c 0,0 0,-1.06667 1.06667,-1.06667 h 1.06666 c 1.06667,0 1.06667,1.06667 1.06667,1.06667 v 2.66667 c 0,0.29546 0.23787,0.53333 0.53333,0.53333 h 5.33334 c 0.29546,0 0.53333,-0.23787 0.53333,-0.53333 V 8.0000449 c 0,-0.29547 -0.23787,-0.53334 -0.53333,-0.53334 h -3.73334 v -2.13333 h 0.53334 a 0.53333333,0.53333333 0 0 0 0.29546,-0.97707 l -4.26026,-3.2 a 0.53333333,0.53333333 0 0 0 -0.592,0 z M 5.6,5.3333749 H 6.13333 A 0.26666667,0.26666667 0 0 1 6.4,5.6000449 v 1.6 a 0.26666667,0.26666667 0 0 1 -0.26667,0.26666 H 5.6 a 0.26666667,0.26666667 0 0 1 -0.26667,-0.26666 v -1.6 A 0.26666667,0.26666667 0 0 1 5.6,5.3333749 Z m 2.13333,0 h 0.53334 a 0.26666667,0.26666667 0 0 1 0.26666,0.26667 v 1.6 a 0.26666667,0.26666667 0 0 1 -0.26666,0.26666 H 7.73333 a 0.26666667,0.26666667 0 0 1 -0.26666,-0.26666 v -1.6 a 0.26666667,0.26666667 0 0 1 0.26666,-0.26667 z m 2.13334,0 H 10.4 a 0.26666667,0.26666667 0 0 1 0.26667,0.26667 v 1.6 A 0.26666667,0.26666667 0 0 1 10.4,7.4667049 H 9.86667 A 0.26666667,0.26666667 0 0 1 9.6,7.2000449 v -1.6 a 0.26666667,0.26666667 0 0 1 0.26667,-0.26667 z m -8.53334,3.2 h 0.53334 a 0.26666667,0.26666667 0 0 1 0.26666,0.26667 v 1.6000001 a 0.26666667,0.26666667 0 0 1 -0.26666,0.26666 H 1.33333 A 0.26666667,0.26666667 0 0 1 1.06667,10.400045 V 8.8000449 a 0.26666667,0.26666667 0 0 1 0.26666,-0.26667 z m 2.13334,0 H 4 a 0.26666667,0.26666667 0 0 1 0.26667,0.26667 V 10.400045 A 0.26666667,0.26666667 0 0 1 4,10.666705 H 3.46667 A 0.26666667,0.26666667 0 0 1 3.2,10.400045 V 8.8000449 a 0.26666667,0.26666667 0 0 1 0.26667,-0.26667 z m 8.53333,0 h 0.53333 A 0.26666667,0.26666667 0 0 1 12.8,8.8000449 v 1.6000001 a 0.26666667,0.26666667 0 0 1 -0.26667,0.26666 H 12 a 0.26666667,0.26666667 0 0 1 -0.26667,-0.26666 V 8.8000449 A 0.26666667,0.26666667 0 0 1 12,8.5333749 Z m 2.13333,0 h 0.53334 a 0.26666667,0.26666667 0 0 1 0.26666,0.26667 v 1.6000001 a 0.26666667,0.26666667 0 0 1 -0.26666,0.26666 h -0.53334 a 0.26666667,0.26666667 0 0 1 -0.26666,-0.26666 V 8.8000449 a 0.26666667,0.26666667 0 0 1 0.26666,-0.26667 z m -12.8,3.2000001 h 0.53334 a 0.26666667,0.26666667 0 0 1 0.26666,0.26667 v 1.6 a 0.26666667,0.26666667 0 0 1 -0.26666,0.26666 H 1.33333 a 0.26666667,0.26666667 0 0 1 -0.26666,-0.26666 v -1.6 a 0.26666667,0.26666667 0 0 1 0.26666,-0.26667 z m 2.13334,0 H 4 a 0.26666667,0.26666667 0 0 1 0.26667,0.26667 v 1.6 A 0.26666667,0.26666667 0 0 1 4,13.866705 H 3.46667 A 0.26666667,0.26666667 0 0 1 3.2,13.600045 v -1.6 a 0.26666667,0.26666667 0 0 1 0.26667,-0.26667 z m 8.53333,0 h 0.53333 A 0.26666667,0.26666667 0 0 1 12.8,12.000045 v 1.6 a 0.26666667,0.26666667 0 0 1 -0.26667,0.26666 H 12 a 0.26666667,0.26666667 0 0 1 -0.26667,-0.26666 v -1.6 A 0.26666667,0.26666667 0 0 1 12,11.733375 Z m 2.13333,0 h 0.53334 a 0.26666667,0.26666667 0 0 1 0.26666,0.26667 v 1.6 a 0.26666667,0.26666667 0 0 1 -0.26666,0.26666 h -0.53334 a 0.26666667,0.26666667 0 0 1 -0.26666,-0.26666 v -1.6 a 0.26666667,0.26666667 0 0 1 0.26666,-0.26667 z"/>
</svg>
