<svg xmlns="http://www.w3.org/2000/svg" width="16" height="16" version="1.1">
 <path fill="#ececec" opacity="1.0" d="m 7.9972831,0.49985395 c -2.2040482,0 -3.995068,1.79102985 -3.995068,3.99506805 0,2.2040382 1.7910198,3.9950681 3.995068,3.9950681 2.2040379,0 3.9950579,-1.7910299 3.9950579,-3.9950681 0,-2.2040382 -1.79102,-3.99506805 -3.9950579,-3.99506805 z m 0,1.05296195 c 1.6272494,0 2.9420959,1.3148567 2.9420959,2.9421061 0,1.6272494 -1.3148465,2.9421061 -2.9420959,2.9421061 -1.6272594,0 -2.9421061,-1.3148567 -2.9421061,-2.9421061 0,-1.6272494 1.3148467,-2.9421061 2.9421061,-2.9421061 z" />
 <path fill="#ececec" opacity="0.6" d="M 7.4636518,11.498792 A 3.4685842,3.4685842 0 0 1 3.9950676,14.967376 3.4685842,3.4685842 0 0 1 0.52648342,11.498792 3.4685842,3.4685842 0 0 1 3.9950676,8.0302074 3.4685842,3.4685842 0 0 1 7.4636518,11.498792 Z"/>
 <path fill="#ececec" opacity="1.0" d="m 3.9950711,7.5037249 c -2.2040482,0 -3.99506804098,1.7910299 -3.99506804098,3.9950681 0,2.204038 1.79101984098,3.995068 3.99506804098,3.995068 2.2040382,0 3.9950581,-1.79103 3.9950581,-3.995068 0,-2.2040382 -1.7910199,-3.9950681 -3.9950581,-3.9950681 z m 0,1.052962 c 1.6272494,0 2.9420961,1.3148567 2.9420961,2.9421061 0,1.627249 -1.3148467,2.942106 -2.9420961,2.942106 -1.6272594,0 -2.9421061,-1.314857 -2.9421061,-2.942106 0,-1.6272494 1.3148467,-2.9421061 2.9421061,-2.9421061 z" />
 <path fill="#ececec" opacity="1.0" d="M 16.000003,11.498788 A 4.0013581,4.0013581 0 0 1 11.998645,15.500146 4.0013581,4.0013581 0 0 1 7.9972867,11.498788 4.0013581,4.0013581 0 0 1 11.998645,7.4974301 4.0013581,4.0013581 0 0 1 16.000003,11.498788 Z" />
</svg>