<svg xmlns="http://www.w3.org/2000/svg" width="16" height="16" version="1.1">
 <path fill="#ececec" d="M 8 0 C 4.1771494 3.2020225e-16 1.0664062 3.1107433 1.0664062 6.9335938 C 1.0664062 8.9122357 2.0337606 10.572013 3.3671875 11.835938 C 2.3731028 11.975087 1.6791288 12.514789 1.3886719 13.095703 C 1.0584013 13.756244 1.0664062 14.400391 1.0664062 14.400391 L 1.0664062 16 L 14.933594 16 L 14.933594 14.400391 C 14.933594 14.400391 14.941599 13.756244 14.611328 13.095703 C 14.320871 12.514789 13.626897 11.975087 12.632812 11.835938 C 13.96624 10.572013 14.933594 8.9122358 14.933594 6.9335938 C 14.933594 3.1107432 11.82285 -5.9211895e-16 8 0 z M 8 1.0664062 C 11.246376 1.0664063 13.867187 3.6872179 13.867188 6.9335938 C 13.867188 8.9772978 12.819739 10.770797 11.238281 11.822266 L 9.7675781 12.800781 L 12.267578 12.800781 C 13.156467 12.800781 13.453187 13.16614 13.65625 13.572266 C 13.859313 13.978391 13.867188 14.400391 13.867188 14.400391 L 13.867188 14.933594 L 2.1328125 14.933594 L 2.1328125 14.400391 C 2.1328125 14.400391 2.1406872 13.978391 2.34375 13.572266 C 2.5468128 13.16614 2.8435336 12.800781 3.7324219 12.800781 L 6.2324219 12.800781 L 4.7617188 11.822266 C 3.1802613 10.770797 2.1328125 8.9772977 2.1328125 6.9335938 C 2.1328125 3.6872178 4.753624 1.0664062 8 1.0664062 z M 8 4.2714844 C 6.5335571 4.2714844 5.3339846 5.4710571 5.3339844 6.9375 C 5.3339843 8.4039431 6.5335569 9.6035156 8 9.6035156 C 9.4664429 9.6035154 10.666016 8.4039429 10.666016 6.9375 C 10.666015 5.4710573 9.4664427 4.2714846 8 4.2714844 z M 8 5.3378906 C 8.8899716 5.3378908 9.5996092 6.0475284 9.5996094 6.9375 C 9.5996094 7.8274717 8.8899717 8.5371092 8 8.5371094 C 7.1100281 8.5371094 6.4003906 7.8274719 6.4003906 6.9375 C 6.4003908 6.0475283 7.1100283 5.3378906 8 5.3378906 z"/>
</svg>
