<svg xmlns="http://www.w3.org/2000/svg" width="16" height="16" version="1.1">
 <g transform="matrix(1.0666667,0,0,1.0666667,-345.06691,111.46666)">
  <path fill="#ececec" opacity="1.0" d="M 0,0 V 0.53320312 16 H 16 V 0 Z M 1.0683594,1.0683594 H 7.4667969 V 7.4648438 H 1.0683594 Z m 7.4667968,0 H 14.931641 V 7.4648438 H 8.5351562 Z M 1.0683594,8.5332031 H 7.4667969 V 14.931641 H 1.0683594 Z m 7.4667968,0 H 14.931641 V 14.931641 H 8.5351562 Z" transform="matrix(0.93749997,0,0,0.93749997,323.50022,-104.49999)"/>
  <path fill="#ececec" opacity="0.4" d="m 328.43007,-103.52371 a 3.9655879,3.9655879 0 0 1 -3.96559,3.965586 v -3.965586 z"/>
  <path fill="#ececec" opacity="0.4" d="m -333.52694,-96.534645 a 3.9968665,3.9968665 0 0 1 -3.99686,3.996866 v -3.996866 z" transform="scale(-1,1)"/>
 </g>
</svg>
