<svg xmlns="http://www.w3.org/2000/svg" width="16" height="16" version="1.1">
 <path fill="#ececec" d="M 8 0.50976562 L 0 8.5078125 L 0.72070312 9.2304688 L 1.8886719 8.0625 L 1.8886719 15.490234 L 11.056641 15.490234 L 11.056641 14.470703 L 11.056641 10.914062 C 11.056641 10.65636 11.032245 10.420935 10.984375 10.207031 C 10.935483 9.9941458 10.849728 9.811842 10.728516 9.6621094 C 10.611378 9.5062653 10.454484 9.3881276 10.255859 9.3066406 C 10.057234 9.2190415 9.8063432 9.1757812 9.5058594 9.1757812 C 9.1707435 9.1757813 8.8758251 9.1964354 8.6191406 9.2402344 A 8.6274514 8.6274514 0 0 0 8 9.3652344 L 8 14.470703 L 2.90625 14.470703 L 2.90625 7.0449219 L 8 1.9492188 L 13.095703 7.046875 L 13.09375 15.490234 L 14.111328 15.490234 L 14.111328 8.0625 L 15.279297 9.2304688 L 16 8.5078125 L 8 0.50976562 z M 12.072266 3.2675781 L 14.111328 5.3046875 L 14.111328 3.2675781 L 12.072266 3.2675781 z"/>
</svg>
