<svg xmlns="http://www.w3.org/2000/svg" width="16" height="16" version="1.1">
 <path id="Hornet Logotype" fill="#ececec" d="M 3.1793485,8.75e-8 4.9512177,2.5427832 6.4075681,2.0804412 10.571308,5.3644843 9.3540048,2.7491077 Z M 6.2458194,2.4722346 1.4383543,3.9101787 l 8.4366811,1.4267 z M 9.0707935,5.5669272 C 8.8632974,5.5710872 8.7947745,5.6418752 8.566937,5.8636201 L 7.8062504,6.7173474 C 7.5351448,7.0615868 7.4238491,7.2858376 7.5115984,7.6655478 L 8.1164665,9.5613363 9.9034688,10.299531 13.149887,6.3130778 9.3358177,5.5818374 C 9.2247374,5.5716327 9.1399626,5.5655855 9.0707972,5.5667193 Z M 13.507725,6.6257544 12.192884,8.17126 12.711458,10.327764 C 14.130905,9.9805766 14.365357,8.784186 14.561646,7.8945872 Z M 7.1788866,9.7793357 C 7.1163354,9.7773477 7.0565432,9.7798119 6.9999637,9.7872727 6.2869255,9.7645955 4.7166716,11.520084 4.7166716,11.520084 l 4.7440746,0.613255 0.1948725,-1.283354 c 0,0 -1.5383207,-1.0406663 -2.4767359,-1.0706871 z m -2.4106812,2.3998453 2.4313363,3.223722 2.3732638,-2.81393 z M 8.9254026,13.94001 7.522423,15.539703 9.1726253,16 12.173253,15.54911 Z"/>
</svg>
