<svg xmlns="http://www.w3.org/2000/svg" width="16" height="16" version="1.1">
 <path fill="#ececec" d="M 5.6597322,0.2233985 4.1414761,4.3964776 H 4.1410273 L 1.5607246,11.485324 H 3.2784318 L 5.4728486,5.4613694 H 6.7641231 L 4.569706,11.485484 6.2868144,11.485924 8.3316048,5.8659736 C 8.6259192,5.0579754 8.1629776,4.3966376 7.3036742,4.3966376 H 5.8597812 L 7.4556952,0.01109429 C 6.7268109,0.01521971 5.7442753,2.4585e-5 5.7442753,2.4585e-5 Z M 10.159289,4.3964776 7.5058192,11.688066 h -0.00119 l -1.5785389,4.307509 1.7290626,0.0044 1.6427461,-4.51466 h 2.279702 c 0.400098,0 0.839403,-0.307664 0.976161,-0.683352 L 14.35077,5.8658046 C 14.644786,5.0575263 14.181994,4.3964686 13.32209,4.3964686 Z M 11.4956,5.4573385 h 1.290824 L 10.97894,10.416561 H 9.688116 Z"/>
</svg>
