<svg xmlns="http://www.w3.org/2000/svg" width="16" height="16" version="1.1">
 <path fill="#ececec" opacity="0.6" d="m 7.6211869,3.8208121 a 3.8096267,3.8094177 0 0 1 -7.61925333,0 3.8096267,3.8094177 0 1 1 7.61925333,0 z"/>
 <path fill="#ececec" opacity="0.6" d="m 15.999999,12.19202 a 3.8096267,3.8094177 0 0 1 -7.6192518,0 3.8096267,3.8094177 0 1 1 7.6192518,0 z"/>
 <path fill="#ececec" opacity="1.0" d="m 15.999999,3.8117271 a 3.8096267,3.8094177 0 0 1 -7.6192518,0 3.8096267,3.8094177 0 1 1 7.6192518,0 z"/>
 <path fill="#ececec" opacity="1.0" d="m 7.6192524,12.192407 a 3.8096264,3.8094174 0 0 1 -7.61925189443493,0 3.8096264,3.8094174 0 1 1 7.61925189443493,0 z"/>
</svg>
