<svg xmlns="http://www.w3.org/2000/svg" width="16" height="16" version="1.1">
 <path fill="#ececec" fill-rule="evenodd" d="m 5.7447463,0.265115 -3.4204191,4.61566 0.9663861,1.91859 H 5.537479 c -0.056481,0.27172 -0.1270325,0.58291 -0.2156448,0.91761 -0.2650306,1.00098 -0.7465405,2.15572 -1.1004979,2.55718 l -0.013707,0.0161 -0.012901,0.0161 C 3.343147,11.336405 1.9578763,12.396045 -1.075e-7,13.512325 L 1.266793,15.734885 c 2.0958987,-1.19493 3.7238335,-2.38814 4.8814899,-3.78178 0.9257446,-1.05722 1.3406502,-2.42314 1.6469512,-3.57993 0.1657752,-0.62614 0.277367,-1.18002 0.3485633,-1.57261 h 5.3989596 c -0.09696,2.45772 -0.11651,3.05225 -0.640592,4.32265 -0.309175,0.74946 -0.699481,1.21973 -1.484853,1.5866 -0.785339,0.36686 -2.0420011,0.58968 -3.9512818,0.46668 l -0.1550917,2.39931 c 2.1529726,0.13868 3.8112925,-0.0726 5.1245325,-0.686 1.313244,-0.61351 2.204826,-1.67106 2.690685,-2.84878 C 16.097876,9.685425 15.836808,8.510565 16,5.666705 L 15.94783,4.394085 H 5.6781782 l 1.998526,-2.6953 z"/>
</svg>
