<svg xmlns="http://www.w3.org/2000/svg" width="16" height="16" version="1.1">
   <path fill="#ececec" fill-rule="evenodd" d="M 9.377 16 L 9.377 16 L 8.58 14.5 L 8.58 14.5 Q 13.506 13.857 13.506 10.643 L 13.506 10.643 L 13.506 10.643 Q 13.506 8 10.391 7.357 L 10.391 7.357 L 10.391 7.357 Q 9.449 10.429 7.348 12.643 L 7.348 12.643 L 7.348 12.643 Q 7.565 13.429 8.072 14.214 L 8.072 14.214 L 6.551 14.857 L 6.116 13.786 L 6.116 13.786 Q 4.45 14.929 3.436 14.929 L 3.436 14.929 L 3.436 14.929 Q 0.828 14.929 0.828 12.571 L 0.828 12.571 L 0.828 12.571 Q 0.828 9 5.102 6.929 L 5.102 6.929 L 5.247 3.929 L 2.204 3.929 L 2.204 2.429 L 5.392 2.429 L 5.682 0 L 7.276 0.214 L 7.276 0.214 Q 7.058 1.286 6.913 2.429 L 6.913 2.429 L 11.767 2.429 L 11.767 3.929 L 6.768 3.929 L 6.768 3.929 Q 6.623 5.214 6.623 6.357 L 6.623 6.357 L 6.623 6.357 Q 7.928 6 9.159 6 L 9.159 6 L 9.159 6 Q 9.232 5.429 9.377 4.786 L 9.377 4.786 L 10.97 5.143 L 10.97 5.143 Q 10.97 5.286 10.753 6.143 L 10.753 6.143 L 10.753 6.143 Q 15.172 6.929 15.172 10.5 L 15.172 10.5 L 15.172 10.5 Q 15.172 14.929 9.377 16 Z M 6.623 7.786 L 6.623 7.786 L 6.623 7.786 Q 6.623 9.357 6.913 10.929 L 6.913 10.929 L 6.913 10.929 Q 8.145 9.714 8.869 7.357 L 8.869 7.357 L 8.869 7.357 Q 7.71 7.429 6.623 7.786 Z M 5.609 12.214 L 5.609 12.214 L 5.609 12.214 Q 5.247 10.357 5.102 8.429 L 5.102 8.429 L 5.102 8.429 Q 2.277 10.143 2.277 12.357 L 2.277 12.357 L 2.277 12.357 Q 2.277 13.429 3.146 13.429 L 3.146 13.429 L 3.146 13.429 Q 4.233 13.429 5.609 12.214 Z"/>
</svg>
