<svg xmlns="http://www.w3.org/2000/svg" width="16" height="16" version="1.1">
 <path fill="#ececec" d="M 15.9752,-4.5e-5 C 7.5665,2.834095 0.00315,6.856675 0.00315,6.856675 l 6.0918,3.0427 3.04482,6.08967 0.007,0.007 0.004,0.004 c 0,0 4.2191,-7.9661 6.84608,-15.99548 -7.2e-4,-7.3e-4 -0.002,-0.002 -0.004,-0.002 -7.2e-4,-7.2e-4 -0.004,2.8e-4 -0.007,0 -7.3e-4,-7.3e-4 -0.003,7.1e-4 -0.004,0 -5.1e-4,-5.1e-4 -0.003,-0.002 -0.004,-0.002 z m -1.93472,1.95601 c -1.99575,5.45863 -3.91023,9.62953 -4.90283,11.58911 l -1.87718,-3.7565 c 1.56225,-1.68301 4.68412,-5.73245 6.01294,-7.06127 -1.32831,1.32831 -5.3749,4.44792 -7.05915,6.01082 L 2.46416,6.865195 C 4.3887,5.889585 8.45254,4.026705 14.04048,1.955965 Z"/>
</svg>
