<svg xmlns="http://www.w3.org/2000/svg" width="16" height="16" version="1.1">
 <path fill="#ececec" opacity="0.6" d="M 6.353,15.243 C 6.172,15.227 6.004,15.139 5.887,14.998 5.771,14.858 5.716,14.676 5.733,14.495 L 6.941,2.083 C 6.975,1.73 7.272,1.461 7.626,1.463 l 7.751,0.769 c 0.181,0.017 0.349,0.105 0.466,0.245 0.116,0.141 0.172,0.322 0.154,0.504 l -1.24,12.401 c -0.034,0.353 -0.33,0.622 -0.685,0.62 z"/>
 <path fill="#ececec" opacity="1.0" d="M 3.659 15.297 C 3.344 15.296 3.07 15.079 2.997 14.773 L 0.014 2.649 C -0.06 2.287 0.168 1.932 0.527 1.847 L 8.011 -0.002 L 8.171 -0.002 C 8.487 -0.007 8.765 0.205 8.844 0.511 L 11.827 12.613 C 11.872 12.79 11.845 12.978 11.75 13.135 C 11.656 13.292 11.503 13.404 11.325 13.447 L 3.841 15.297 L 3.659 15.297 Z"/>
</svg>
