<svg xmlns="http://www.w3.org/2000/svg" width="16" height="16" version="1.1">
 <g transform="translate(0.5,-6.1035157e-6)">
  <rect fill="#ececec" width="6" height="16" x="0" y="0" rx="2.934" ry="2.986"/>
  <path fill="#ececec" d="M 5.41,0 C 6.29,0.71 6.88,1.79 6.88,3 V 4 H 9 c -0.07,-1.1 1.25,-2 2,-2 0.68,0 1,0.01 1,1 v 1 h 1.22 C 14.45,3.4 15,2.03 15,1.31 15,0.57 12.62,0 11.31,0 Z M 7,5 v 4.31 c 2.77,2.66 6.13,2.41 6.13,2.41 0,0 0.35,-1.52 -1.91,-4.03 L 8.85,5 H 7.06 C 7.04,5 7.02,5 7,5 Z m 2.98,2.53 1.68,1.74 C 9.86,9.43 9.51,8.41 9.98,7.53 Z"/>
 </g>
</svg>
