<svg xmlns="http://www.w3.org/2000/svg" width="16" height="16" version="1.1">
 <path fill="#ececec" d="m 7.9999995,16 c -3.79661,0 -6.878274,-1.035439 -6.878274,-2.292758 v -2.292758 c 0,-0.197227 0.09861,-0.394453 0.246533,-0.567026 0.764253,0.986132 3.426811,1.725732 6.631741,1.725732 3.2049315,0 5.8674885,-0.7396 6.6317405,-1.725732 0.14792,0.172573 0.246534,0.369799 0.246534,0.567026 v 2.292758 C 14.878274,14.964561 11.796609,16 7.9999995,16 Z m 0,-4.585516 c -3.79661,0 -6.878274,-1.035439 -6.878274,-2.292758 V 6.828968 c 0,-0.123267 0.04931,-0.246533 0.09861,-0.345147 l 0.14792,-0.22188 c 0.764253,0.986133 3.426811,1.725732 6.631741,1.725732 3.2049315,0 5.8674885,-0.739599 6.6317405,-1.725732 l 0.14792,0.22188 c 0.04931,0.123267 0.09861,0.246533 0.09861,0.345147 v 2.292758 c 0,1.281972 -3.081665,2.292758 -6.8782745,2.292758 z m 0,-4.560863 c -3.79661,0 -6.878274,-1.035439 -6.878274,-2.292758 V 3.42681 2.292758 C 1.1217255,1.035439 4.2033895,0 7.9999995,0 11.796609,0 14.878275,1.035439 14.878275,2.292758 V 3.42681 4.560863 c 0,1.257319 -3.081666,2.292758 -6.8782755,2.292758 z m 0,-5.744222 c -2.539291,0 -4.585516,0.51772 -4.585516,1.134052 0,0.616333 2.046225,1.134053 4.585516,1.134053 2.5392905,0 4.5855155,-0.51772 4.5855155,-1.134053 0,-0.616332 -2.046225,-1.134052 -4.5855155,-1.134052 z"/>
</svg>
