<svg xmlns="http://www.w3.org/2000/svg" width="16" height="16" version="1.1">
 <path fill="#ececec" d="M 15.999 1.482 L 7.977 1.486 L 3.524 9.198 L 1.964 6.495 L 0.001 6.593 L 0.001 7.596 L 1.433 7.596 L 3.572 11.299 L 4.104 10.201 L 8.559 2.485 L 16 2.488 L 15.999 1.482 Z M 10.985 4.49 C 9.319 4.49 7.977 5.832 7.977 7.499 C 7.977 9.165 9.319 10.507 10.985 10.507 C 11.76 10.507 12.458 10.208 12.991 9.73 L 12.991 10.507 L 13.993 10.507 L 13.993 4.49 L 12.991 4.49 L 12.991 5.267 C 12.458 4.789 11.76 4.49 10.985 4.49 M 10.985 5.493 C 12.096 5.493 12.991 6.388 12.991 7.499 C 12.991 8.61 12.096 9.504 10.985 9.504 C 9.874 9.504 8.98 8.61 8.98 7.499 C 8.98 6.388 9.874 5.493 10.985 5.493 M 0.01 11.597 C 0.004 11.597 0 11.821 0 12.098 C 0 12.376 0.004 12.6 0.01 12.6 L 15.989 12.502 C 15.995 12.502 15.999 12.279 15.999 12.001 C 15.999 11.723 15.995 11.499 15.989 11.499 L 0.01 11.597 Z M 5.971 13.515 L 5.971 14.518 L 9.982 14.518 L 9.982 13.515 L 5.971 13.515 Z"/>
</svg>
