<svg xmlns="http://www.w3.org/2000/svg" width="16" height="16" version="1.1">
   <path fill="#ececec" fill-rule="evenodd" d="M 1.455 7.809 L 1.455 1.455 L 1.455 1.455 L 8.037 1.455 L 8.037 1.455 L 8.05 7.721 C 7.963 7.745 7.876 7.77 7.79 7.796 L 1.455 7.809 Z M 1.455 8.081 L 1.455 12.551 C 1.589 12.243 1.751 11.946 1.936 11.664 C 2.518 10.809 3.255 10.082 4.109 9.518 C 5.008 8.932 5.971 8.444 6.975 8.071 L 1.455 8.081 Z M 14.545 8.056 L 14.545 14.545 L 8.336 14.545 L 8.336 14.545 L 8.323 8.108 C 8.363 8.093 8.403 8.08 8.442 8.068 L 14.545 8.056 Z M 14.545 7.783 L 14.545 3.511 L 14.545 3.511 C 14.445 3.741 14.33 3.965 14.2 4.182 C 13.709 4.982 13.055 5.682 12.291 6.227 C 11.618 6.718 10.891 7.127 10.127 7.455 C 9.838 7.575 9.548 7.688 9.258 7.793 L 14.545 7.783 Z M 8.31 1.455 L 14.545 1.455 L 14.545 1.82 L 14.545 1.82 C 14.449 2.568 14.2 3.294 13.818 3.945 C 13.345 4.691 12.745 5.345 12.027 5.855 C 11.382 6.327 10.682 6.718 9.945 7.036 C 9.418 7.255 8.891 7.455 8.345 7.627 C 8.338 7.63 8.33 7.632 8.322 7.635 L 8.31 1.455 L 8.31 1.455 Z M 8.063 14.545 L 1.455 14.545 L 1.455 14.228 C 1.562 13.406 1.857 12.616 2.318 11.918 C 2.864 11.118 3.555 10.436 4.364 9.9 C 5.503 9.152 6.743 8.578 8.051 8.196 L 8.063 14.545 L 8.063 14.545 Z M 0 0 L 16 0 L 16 16 L 0 16 L 0 0 L 0 0 L 0 0 L 0 0 Z"/>
</svg>
