<svg xmlns="http://www.w3.org/2000/svg" width="16" height="16" version="1.1">
 <path fill="#ececec" fill-rule="evenodd" d="M 1.6542251,4.9655671 V 5.5179394 6.6212381 H 0 V 7.1721645 H 1.6542251 2.2065974 V 5.5179394 h 0.5509264 v 2.7575238 0.5523724 h 1.655671 V 8.2754632 7.1721645 H 5.5164935 7.1721646 7.723091 V 5.5179394 h 0.5523723 v 2.7575238 0.5523724 h 1.655671 V 8.2754632 7.1721645 h 1.1032987 1.103299 0.550926 V 5.5179394 h 0.552373 v 2.7575238 0.5523724 h 1.655671 V 8.2754632 7.1721645 H 16 V 6.6212381 H 14.344329 V 7.1721645 8.2754632 H 13.793402 V 5.5179394 4.9655671 h -1.65567 V 5.5179394 6.6212381 H 11.034433 9.378762 V 7.1721645 8.2754632 H 8.8278356 V 5.5179394 4.9655671 H 7.1721646 V 5.5179394 6.6212381 H 5.5164935 3.8622685 V 7.1721645 8.2754632 H 3.3098961 V 5.5179394 4.9655671 Z M 12.137732,9.3802079 v 1.6542251 h 0.550926 V 9.3802079 Z m -1.103299,0.5509263 v 1.1032988 h 0.550926 V 9.9311342 Z m 2.206598,0 v 1.1032988 h 0.552371 V 9.9311342 Z M 9.9311343,10.483507 v 0.550926 h 0.5509267 v -0.550926 z m 4.4131947,0 v 0.550926 h 0.552373 v -0.550926 z"/>
</svg>
