<svg xmlns="http://www.w3.org/2000/svg" width="16" height="16" version="1.1">
 <path fill="#ececec" opacity=".6" d="M 15.5555,4.745 H 0.44448 C 0.199,4.745 0,4.94973 0,5.20228 v 5.48542 c 0,0.2526 0.199,0.4573 0.44448,0.4573 H 15.5555 C 15.801,11.145 16,10.9403 16,10.6877 V 5.20228 C 16,4.94973 15.801,4.745 15.5555,4.745 Z"/>
 <path fill="#ececec" d="M 6.4,9.431 V 3.159 C 6.4,3.03529 6.2966,2.935 6.169,2.935 H 2.47104 C 2.34344,2.935 2.24,3.03529 2.24,3.159 v 6.272 c 0,0.1237 0.10344,0.224 0.23104,0.224 H 6.169 C 6.2966,9.655 6.4,9.5547 6.4,9.431 Z"/>
 <path fill="#ececec" d="M 13.76,9.431 V 3.159 c 0,-0.12371 -0.1003,-0.224 -0.224,-0.224 H 9.504 C 9.3803,2.935 9.28,3.03529 9.28,3.159 v 6.272 c 0,0.1237 0.1003,0.224 0.224,0.224 h 4.032 c 0.1237,0 0.224,-0.1003 0.224,-0.224 z"/>
 <path fill="#ececec" d="m 4.92,13.065 h 6.16 c 0.243,0 0.44,-0.1984 0.44,-0.4432 V 7.7482 C 11.52,7.5034 11.323,7.305 11.08,7.305 H 4.92 c -0.24301,0 -0.44,0.1984 -0.44,0.4432 v 4.8736 c 0,0.2448 0.19699,0.4432 0.44,0.4432 z"/>
</svg>