<svg xmlns="http://www.w3.org/2000/svg" width="16" height="16" version="1.1">
 <path fill="#ececec" fill-rule="evenodd" d="M13.7143 14.2857V15.1111C13.7143 15.6021 13.3488 16 12.898 16H3.102C2.65118 16 2.28572 15.6021 2.28572 15.1111V9.14292H0.428573C0.191879 9.14292 0 8.97231 0 8.76206V7.23805C0 7.02769 0.191879 6.85719 0.428573 6.85719H2.28572V4H0.428573C0.191879 4 0 3.82949 0 3.61915V2.09514C0 1.8848 0.191879 1.71429 0.428573 1.71429H2.28572V0.888864C2.28572 0.397956 2.65118 0 3.102 0H12.898C13.3488 0 13.7143 0.397956 13.7143 0.888864V1.71429H15.5714C15.8082 1.71429 16 1.8848 16 2.09514V3.61915C16 3.82949 15.8082 4 15.5714 4H13.7143V6.85719H15.5714C15.8082 6.85719 16 7.02769 16 7.23805V8.76206C16 8.97231 15.8082 9.14292 15.5714 9.14292H13.7143V12H15.5714C15.8082 12 16 12.1705 16 12.3809V13.9049C16 14.1152 15.8082 14.2857 15.5714 14.2857H13.7143ZM4.57144 2.85715H8H11.4285V6.28573V9.71427V13.1429H8V9.71427H4.57144V6.28573V2.85715Z" clip-rule="evenodd"/>
</svg>
