<svg xmlns="http://www.w3.org/2000/svg" width="16" height="16" version="1.1">
 <path fill="#ececec" d="M 8 0 A 8 8.0267255 0 0 0 0 8.0273438 A 8 8.0267255 0 0 0 4.0078125 14.970703 L 4.5332031 11.355469 A 4.7999995 4.8181882 0 0 1 3.1992188 8.0273438 A 4.7999995 4.8181882 0 0 1 8 3.2089844 A 4.7999995 4.8181882 0 0 1 12.800781 8.0273438 A 4.7999995 4.8181882 0 0 1 11.541016 11.271484 L 12.068359 14.927734 A 8 8.0267255 0 0 0 16 8.0273438 A 8 8.0267255 0 0 0 8 0 z M 8.0332031 5.9511719 C 6.7196623 5.9511719 5.6542969 7.0192906 5.6542969 8.3378906 C 5.6546559 9.2900906 6.2189348 10.151697 7.0898438 10.529297 L 6.0546875 16 L 10.083984 15.974609 L 8.9726562 10.529297 C 9.8444761 10.152597 10.410926 9.2905906 10.412109 8.3378906 C 10.412109 7.0193906 9.3467438 5.9511719 8.0332031 5.9511719 z"/>
</svg>
