<svg xmlns="http://www.w3.org/2000/svg" width="16" height="16" version="1.1">
 <path fill="#ececec" d="M 8 0 C 3.5882665 0 0 3.5882666 0 8 C 0 12.411734 3.5882665 16 8 16 C 12.411734 16 16 12.411734 16 8 C 16 3.5882666 12.411734 1.1842379e-15 8 0 z M 6.6875 1.1933594 C 5.0686447 3.1616409 4.1721123 5.3613366 4.0507812 7.4667969 L 1.09375 7.4667969 C 1.3321943 4.3225411 3.65275 1.773134 6.6875 1.1933594 z M 9.3125 1.1933594 C 12.34725 1.773134 14.667806 4.3225411 14.90625 7.4667969 L 11.951172 7.4667969 C 11.830271 5.3608551 10.931343 3.1607972 9.3125 1.1933594 z M 8 1.3203125 C 9.7840671 3.2578385 10.750797 5.4502222 10.884766 7.4667969 L 5.1152344 7.4667969 C 5.2495069 5.4496365 6.216838 3.257623 8 1.3203125 z M 1.0878906 8.5332031 L 4.0527344 8.5332031 C 4.1895172 10.659595 5.0588757 12.832909 6.6894531 14.810547 A 6.9248002 6.9248002 0 0 1 1.0878906 8.5332031 z M 5.1210938 8.5332031 L 10.878906 8.5332031 C 10.730728 10.586499 9.8026546 12.726918 8 14.679688 C 6.1967753 12.726304 5.268827 10.586288 5.1210938 8.5332031 z M 11.947266 8.5332031 L 14.90625 8.5332031 C 14.667855 11.676807 12.348279 14.226168 9.3144531 14.806641 C 10.942601 12.829852 11.810699 10.657628 11.947266 8.5332031 z"/>
</svg>
