<svg xmlns="http://www.w3.org/2000/svg" width="16" height="16" version="1.1">
 <path fill="#ececec" d="M -1.55e-7,14.999992 V 13.999996 H 0.99999966 1.9999998 V 14.999992 16 H 0.99999966 -1.55e-7 Z M 14,14.999992 V 13.999996 H 15.000001 16 V 14.999992 16 H 15.000001 14 Z M -1.55e-7,0.99999932 V -4.7945565e-7 H 0.99999966 1.9999998 V 0.99999932 2.0000029 H 0.99999966 -1.55e-7 Z M 14,0.99999932 V -4.7945565e-7 H 15.000001 16 V 0.99999932 2.0000029 H 15.000001 14 Z"/>
 <path fill="#ececec" fill-opacity="0.4" d="M 15,7.9999997 A 6.9999999,6.9999998 0 0 1 8,15 6.9999999,6.9999998 0 0 1 1,7.9999997 6.9999999,6.9999998 0 0 1 8,0.99999991 6.9999999,6.9999998 0 0 1 15,7.9999997"/>
 <path fill="#ececec" d="M -9.043988e-8,7.9999956 V 5.5000001 H 2.2222221 4.4444447 v 0.625001 0.6250095 H 10.222221 16 v 1.249985 1.2500148 H 10.222221 4.4444447 V 9.8750069 10.5 H 2.2222221 -9.043988e-8 Z"/>
</svg>
