<svg xmlns="http://www.w3.org/2000/svg" width="16" height="16" version="1.1">
 <path fill="#ececec" d="M 1.84375 0.005859375 C 1.36245 0.093259375 0.99137 0.53940938 1 1.0058594 L 1 15 C 1.00006 15.52341 1.51276 15.99995 2.0625 16 L 13.9375 16 C 14.48725 15.99995 14.99995 15.52341 15 15 L 15 7.5 C 15.006 7.23603 14.88035 6.8811363 14.6875 6.6914062 L 8.28125 0.28710938 C 8.08198 0.10346938 7.8085 -0.000260625 7.53125 0.005859375 L 2.0625 0.005859375 C 1.9971 -0.000140625 1.90919 -0.000140625 1.84375 0.005859375 z M 11.28125 0.005859375 C 11.00304 0.081059375 10.9066 0.50540937 11.125 0.69335938 L 14.3125 3.8789062 C 14.53232 4.1091162 15.00462 3.9159163 15 3.5976562 L 15 0.38085938 C 14.9878 0.17767937 14.79731 0.001769375 14.59375 0.005859375 L 11.40625 0.005859375 C 11.36495 -0.001140625 11.32255 -0.001140625 11.28125 0.005859375 z M 2.25 1.25 L 7.5 1.25 L 13.75 7.5 L 13.75 14.75 L 2.25 14.75 L 2.25 1.25 z"/>
</svg>
