<svg xmlns="http://www.w3.org/2000/svg" width="16" height="16" version="1.1">
 <path fill="#ececec" d="M 3.9941406,1 C 2.7359406,1.0145 1.81525,0.9694 1.0625,1.38477 0.68613,1.59243 0.38926938,1.94415 0.22460938,2.38281 0.05993937,2.82148 0,3.34239 0,4 v 8 c 0,0.65761 0.05989937,1.17853 0.22460938,1.61719 C 0.38927938,14.05585 0.68613,14.40758 1.0625,14.61523 1.81525,15.03055 2.7359506,14.98543 3.9941406,15 h 0.00391 8.0039064 0.0039 c 1.25819,-0.0145 2.178891,0.0306 2.931641,-0.38477 0.37637,-0.20766 0.673221,-0.55938 0.837891,-0.99804 C 15.939881,13.17852 16,12.65761 16,12 V 4 C 16,3.34239 15.9401,2.82148 15.775391,2.38281 15.610731,1.94415 15.31387,1.59243 14.9375,1.38477 14.18475,0.96943 13.264059,1.01452 12.005859,1 h -0.0039 -8.0039061 z m 0.00586,1 h 8.0000004 c 1.25852,0.0147 2.087175,0.0598 2.453125,0.26172 0.18341,0.1012 0.289159,0.21274 0.386719,0.47265 C 14.937274,2.99428 15,3.40761 15,4 v 8 c 0,0.59239 -0.0626,1.00573 -0.160156,1.26562 -0.0976,0.25991 -0.203309,0.37147 -0.386719,0.47266 C 14.087175,13.94019 13.25852,13.98529 12,14 H 4.0058594 4 C 2.74147,13.9853 1.9108819,13.9402 1.5449219,13.73828 1.3615119,13.63709 1.2577162,13.52553 1.1601562,13.26562 1.0625862,13.00573 1,12.59239 1,12 V 4 C 1,3.40761 1.062596,2.99427 1.1601562,2.73437 1.2577562,2.47447 1.3615119,2.36291 1.5449219,2.26172 1.9108819,2.05981 2.74147,2.01471 4.0000006,2 Z m 0,4.5 a 1.5,1.5 0 0 0 -1.5,1.5 1.5,1.5 0 0 0 1.5,1.5 1.5,1.5 0 0 0 1.5,-1.5 1.5,1.5 0 0 0 -1.5,-1.5 z m 4,0 a 1.5,1.5 0 0 0 -1.5,1.5 1.5,1.5 0 0 0 1.5,1.5 1.5,1.5 0 0 0 1.5,-1.5 1.5,1.5 0 0 0 -1.5,-1.5 z m 4.0000004,0 a 1.5,1.5 0 0 0 -1.5,1.5 1.5,1.5 0 0 0 1.5,1.5 1.5,1.5 0 0 0 1.5,-1.5 1.5,1.5 0 0 0 -1.5,-1.5 z"/>
</svg>
