<svg xmlns="http://www.w3.org/2000/svg" width="16" height="16" version="1.1">
 <path fill="#ececec" opacity="0.3" d="m 2.5012043,12.969031 v 1.99985 c 0,0.571267 0.459894,1.031123 1.0310968,1.031123 h 8.9366059 c 0.571253,0 1.031097,-0.459906 1.031097,-1.031123 v -1.99985 c 0,0.571267 -0.459894,1.031123 -1.031097,1.031123 H 3.5323011 c -0.5712528,0 -1.0310968,-0.459906 -1.0310968,-1.031123 z"/>
 <path fill="#ececec" d="m 3.5311013,3.55e-6 c -0.5712529,0 -1.0310969,0.45990551 -1.0310969,1.03112265 V 12.968231 c 0,0.571267 0.459894,1.031123 1.0310969,1.031123 h 8.9366067 c 0.571252,0 1.031096,-0.459906 1.031096,-1.031123 V 1.0311262 C 13.498804,0.45985906 13.03891,3.55e-6 12.467708,3.55e-6 Z M 6.4996044,1.9998536 h 2.9997 l -0.9999,1.0624203 V 3.9997036 H 11.499104 V 4.4996661 6.1557419 L 9.6554888,7.9994036 H 8.4994044 v 3.9997004 l -0.9999,0.999925 V 7.9994036 H 6.84332 L 4.0623981,5.0934216 7.4995544,4.1247442 V 3.0623239 l -0.9999,-1.0624203 z m 1.9998,2.999775 v 1.99985 h 0.749925 L 10.499204,5.7495724 V 4.9996286 Z m -0.9999,0.1249906 -1.5623437,0.4687149 1.3123687,1.4060945 h 0.249975 V 5.1245692 Z"/>
</svg>
