<svg xmlns="http://www.w3.org/2000/svg" width="16" height="16" version="1.1">
 <path fill="#ececec" d="m 8.0010331,-1.5e-5 c -1.36867,0 -2.73685,0.24358 -4.02259,0.71667 l -0.18173,0.0667 -1.15226,5.81041 c -0.19639,0.98955 -0.39125,2.00858 -0.39442,3.05834 -0.003,1.05052 0.18901,2.11724 0.64841,3.08124 0.45968,0.96463 1.18028,1.80303 2.07945,2.38125 0.89894,0.57806 1.95852,0.88542 3.02314,0.88542 1.0646,0 2.1242099,-0.30736 3.0231399,-0.88542 0.89916,-0.57822 1.6177,-1.41662 2.07739,-2.38125 0.45938,-0.964 0.65156,-2.03071 0.6484,-3.08124 -0.003,-1.04978 -0.19594,-2.06879 -0.39236,-3.05834 l -1.15431,-5.81041 -0.18172,-0.0667 C 10.735833,0.243565 9.3696631,-1.5e-5 8.0010331,-1.5e-5 Z m -0.46462,1.08958 v 3.17709 h 1.05727 v -3.17084 c 0.91903,0.0658 1.8271099,0.2698 2.7051299,0.55834 l 1.02218,5.15 c 0.19526,0.98378 0.36886,1.93039 0.37169,2.85 0.003,0.91729 -0.16595,1.82526 -0.54309,2.61667 -0.37656,0.79021 -0.97112,1.47801 -1.69535,1.94374 -0.7246999,0.46602 -1.5903699,0.71875 -2.4532099,0.71875 -0.86284,0 -1.73069,-0.25281 -2.45526,-0.71875 -0.72424,-0.46573 -1.3188,-1.15353 -1.69537,-1.94374 -0.37715,-0.79143 -0.54591,-1.69947 -0.5431,-2.61667 0.003,-0.91928 0.17847,-1.86594 0.37377,-2.85 l 1.02217,-5.15 c 0.91875,-0.30191 1.87043,-0.51005 2.83317,-0.56459 z"/>
</svg>