<svg xmlns="http://www.w3.org/2000/svg" width="16" height="16" version="1.1">
 <path fill="#ececec" d="m 4.65885,2.5000663 a 0.66673333,0.68766393 0 0 0 -0.63021,0.48884 l -1.85676,6.38712 H 0.66667 0 v 1.3751797 h 0.66667 2 a 0.66673333,0.68766393 0 0 0 0.63802,-0.48884 L 4.65625,5.6157263 6.73437,13.004696 A 0.66673333,0.68766393 0 0 0 8,13.050396 l 1.42708,-4.0073997 0.64323,1.3268597 a 0.66673333,0.68766393 0 0 0 0.59636,0.38138 H 15.33333 16 V 9.3760563 h -0.66667 -4.25521 l -1.14843,-2.36899 a 0.66673333,0.68766393 0 0 0 -1.22136,0.0698 L 7.44792,10.611546 5.30729,2.9969663 a 0.66673333,0.68766393 0 0 0 -0.64844,-0.49693 z"/>
</svg>
