<svg xmlns="http://www.w3.org/2000/svg" width="16" height="16" version="1.1">
 <path fill="#ececec" fill-rule="evenodd" d="m 13.985818,0.00314235 c -0.12187,-0.009 -0.26485,0.002 -0.4336,0.0167 L 5.930998,1.2227424 c -0.85983,0.0885 -0.95332,0.49449 -0.94568,1.00033 V 12.401832 c -0.43702,-0.29036 -0.9047,-0.49703 -1.52795,-0.49703 -0.80252,0 -1.28161,0.31113 -1.57133,0.72049 -0.28969,0.40936 -0.38612,0.92516 -0.38612,1.32403 0,0.48098 0.16398,0.99341 0.51621,1.38459 0.35224,0.39119 0.89386,0.66619 1.6725,0.6662 0.87924,0 1.4963,-0.24806 1.84593,-0.73302 0.27528,-0.38184 0.42885,-0.89319 0.48317,-1.52243 0.007,-0.0764 0.0118,-0.15521 0.0165,-0.23599 0.004,-0.0641 0.003,-0.10885 0.004,-0.18378 h 0.004 V 5.0883324 c 0.0233,-0.66227 0.61737,-0.76017 0.61737,-0.76017 l 6.18824,-0.97736 c 0.59406,-0.18369 0.59466,0.55967 0.59466,0.55967 v 7.4221096 c -0.43702,-0.29037 -0.9047,-0.49703 -1.52795,-0.49704 -0.80252,0 -1.28161,0.31113 -1.57133,0.72049 -0.28969,0.40936 -0.38612,0.92517 -0.38612,1.32403 0,0.48098 0.16398,0.99341 0.51621,1.3846 0.35224,0.39119 0.89386,0.66618 1.6725,0.66619 0.87924,0 1.4963,-0.24805 1.84593,-0.73301 0.27528,-0.38184 0.42885,-0.8932 0.48316,-1.52243 0.007,-0.0763 0.0118,-0.15521 0.0165,-0.236 0.004,-0.0641 0.003,-0.10885 0.004,-0.18377 h 0.004 V 0.95542235 c 0.0126,-0.73312 -0.14852,-0.92617 -0.51414,-0.95229 z"/>
</svg>
