<svg xmlns="http://www.w3.org/2000/svg" width="16" height="16" version="1.1">
 <path fill="#ececec" d="m 1e-5,0 v 16 h 9 0.75 l 4.25,-4.25 V 11 6.2793 l -1,0.98632 V 11 h -4 v 4 h -8 V 1 H 12.25392 L 10.28126,3 H 3.00001 V 4 H 9.29493 L 8.3086,5 H 3.00001 V 6 H 7.32228 L 6.33595,7 H 3.00001 V 8 H 5.35157 L 4.36524,9 H 3.00001 v 1 H 3.61915 C 3.51763,10.18271 3.47244,10.24298 3.30274,10.58789 2.98892,11.22578 2.60266,12.0975 2.29103,13.08008 L 2.00001,14 2.91993,13.70898 c 0.9834,-0.31169 1.85436,-0.69795 2.49219,-1.01171 0.63783,-0.31377 0.98702,-0.52071 1.08789,-0.58399 l 0.0449,-0.0293 9.45508,-9.32226 -2,-2 V 0.24219 0 h -0.76172 z m 4.89062,9.89062 1.21876,1.21876 -0.17774,0.17578 c 0.007,-0.005 -0.37854,0.22717 -0.96094,0.51367 -0.2142,0.10537 -0.53547,0.22256 -0.83398,0.33789 L 3.86329,11.86328 C 3.97861,11.56479 4.09578,11.24355 4.20118,11.0293 4.48777,10.44678 4.71869,10.06341 4.71485,10.06836 Z"/>
</svg>
