<svg xmlns="http://www.w3.org/2000/svg" width="16" height="16" version="1.1">
 <path fill="#ececec" d="m 9.072701,3.4171069 c 0.021368,0.1899573 0.071416,0.3738548 0.071416,0.5695187 0,2.8308494 -2.3021114,5.1256678 -5.1419574,5.1256678 -0.1344793,0 -0.2609143,-0.025514 -0.3927884,-0.035538 v 2.5272956 c 0,1.143708 0.9237013,2.064506 2.0710662,2.064506 L 7.445957,13.6685 9.7312714,15.999995 12.088002,13.6685 h 1.840935 c 1.147342,0 2.071066,-0.920775 2.071066,-2.064506 V 5.481669 c 0,-1.1437074 -0.92369,-2.0645051 -2.071066,-2.0645051 z"/>
 <path fill="#ececec" d="M 3.999303,-5e-6 C 1.7905466,-5e-6 2.7999999e-6,1.7848664 2.7999999e-6,3.9866256 2.7999999e-6,6.1883847 1.7905466,7.9732561 3.999303,7.9732561 c 2.2087564,0 3.9993002,-1.7848714 3.9993002,-3.9866305 C 7.9986032,1.7848664 6.2080594,-5e-6 3.999303,-5e-6 Z M 3.3922664,1.1390323 h 1.1783081 l -0.071416,1.5661763 a 0.22798296,0.22726072 0 0 0 0,0.07119 0.22798296,0.22726072 0 0 0 0,0.035538 0.22798296,0.22726072 0 0 0 0.1428321,0.1423796 0.22798296,0.22726072 0 0 0 0.035651,0 0.22798296,0.22726072 0 0 0 0.071416,0 0.22798296,0.22726072 0 0 0 0.071416,0 0.22798296,0.22726072 0 0 0 0.035651,-0.035538 L 6.1772648,2.0645001 6.7485934,3.0967527 5.3559228,3.808651 a 0.22798296,0.22726072 0 0 0 -0.035651,0 0.22798296,0.22726072 0 0 0 -0.035651,0.035538 0.22798296,0.22726072 0 0 0 -0.035651,0.1067278 0.22798296,0.22726072 0 0 0 0,0.07119 0.22798296,0.22726072 0 0 0 0,0.035538 0.22798296,0.22726072 0 0 0 0.035651,0.07119 0.22798296,0.22726072 0 0 0 0.035651,0.035538 0.22798296,0.22726072 0 0 0 0.035651,0.035538 L 6.7842443,4.9118086 6.1772076,5.9440612 4.8560674,5.054473 a 0.22798296,0.22726072 0 0 0 -0.035651,0 0.22798296,0.22726072 0 0 0 -0.071416,-0.035538 0.22798296,0.22726072 0 0 0 -0.071416,0 0.22798296,0.22726072 0 0 0 -0.1428321,0.1067278 0.22798296,0.22726072 0 0 0 -0.035651,0.035538 0.22798296,0.22726072 0 0 0 0,0.035538 0.22798296,0.22726072 0 0 0 0,0.07119 L 4.5705173,6.834219 H 3.3922092 l 0.107067,-1.5661763 a 0.22798296,0.22726072 0 0 0 -0.035651,-0.1067278 0.22798296,0.22726072 0 0 0 -0.035651,-0.07119 0.22798296,0.22726072 0 0 0 -0.071416,-0.035538 0.22798296,0.22726072 0 0 0 -0.071416,-0.035538 0.22798296,0.22726072 0 0 0 -0.035651,0 0.22798296,0.22726072 0 0 0 -0.1070669,0.035538 L 1.7855189,5.9444598 1.2141903,4.9122073 2.6425118,4.2003089 a 0.22798296,0.22726072 0 0 0 0.035651,-0.035538 0.22798296,0.22726072 0 0 0 0.035651,-0.035538 0.22798296,0.22726072 0 0 0 0.035651,-0.07119 0.22798296,0.22726072 0 0 0 0,-0.035538 0.22798296,0.22726072 0 0 0 0,-0.07119 0.22798296,0.22726072 0 0 0 0,-0.035538 0.22798296,0.22726072 0 0 0 -0.035651,-0.07119 0.22798296,0.22726072 0 0 0 -0.035651,-0.035538 0.22798296,0.22726072 0 0 0 -0.035651,0 L 1.2141903,3.0971513 1.7855189,2.0648988 3.1424244,2.9191767 a 0.22798296,0.22726072 0 0 0 0.035651,0.035538 0.22798296,0.22726072 0 0 0 0.071416,0 0.22798296,0.22726072 0 0 0 0.071416,0 0.22798296,0.22726072 0 0 0 0.035651,0 0.22798296,0.22726072 0 0 0 0.035651,-0.035538 0.22798296,0.22726072 0 0 0 0.035651,-0.035538 0.22798296,0.22726072 0 0 0 0.035651,-0.035538 0.22798296,0.22726072 0 0 0 0,-0.035538 0.22798296,0.22726072 0 0 0 0.035651,-0.07119 0.22798296,0.22726072 0 0 0 0,-0.035538 L 3.3963228,1.1339636 Z"/>
</svg>
