<svg xmlns="http://www.w3.org/2000/svg" fill="none" width="16" height="16" version="1.1">
 <path fill="#ececec" d="M0 16H5.63934V14.6286L4.50273 14.4C3.86885 14.2629 3.80328 14.0571 3.80328 13.3486V3.90857H3.89071L10.8197 16H14.1639V2.74286C14.1639 1.98857 14.1858 1.71429 14.8197 1.6L16 1.37143V0H10.3607V1.37143L11.5191 1.6C12.153 1.71429 12.1967 1.94286 12.1967 2.65143V12.0914H12.1311L5.20219 0H0V1.37143L1.15847 1.6C1.79235 1.71429 1.83607 1.94286 1.83607 2.65143V13.2571C1.83607 14.0571 1.79235 14.2857 1.18033 14.4L0 14.6286V16Z"/>
</svg>
