<svg xmlns="http://www.w3.org/2000/svg" width="16" height="16" version="1.1">
 <path fill="#ececec" d="M 10.097769,-5.8385346e-7 C 11.557469,1.7855534 12.070669,4.1635234 11.477569,6.3922094 c -1.0279,3.8327296 -4.9677004,6.1069796 -8.8006004,5.0801396 -0.9788,-0.26563 -1.89020003,-0.73544 -2.67430003,-1.37854 0.7899,2.74757 2.95950003,4.88165 5.71990003,5.6258 4.3537004,1.16721 8.8291004,-1.41622 9.9959004,-5.7700496 1.1479,-4.29332 -1.35,-8.71597 -5.6195,-9.94955998385346 z M 12.814669,3.0819554 c 1.3354,1.381226 2.0306,3.258944 1.9167,5.176734 -0.03,0.4621 -0.1054,0.92011 -0.2258,1.36725 -1.349,5.0937896 -7.6857004,6.8470296 -11.4611004,3.1710096 4.2648,0.76516 8.5046004,-1.82258 9.6460004,-6.0786096 v -0.003 c 0.3061,-1.18768 0.3489,-2.427912 0.1255,-3.633874 z" overflow="visible"/>
</svg>
