<svg xmlns="http://www.w3.org/2000/svg" width="16" height="16" version="1.1">
 <path fill="#ececec" d="m 8.641,2.333965 c -2.159,0.0016 -3.993,1.33123 -4.8691,3.23242 l -0.061,0.12891 -0.1386,0.0098 C 1.5782,5.850345 0,7.575435 0,9.673845 c 0,2.19289 1.7161,3.99219 3.8379,3.99219 h 4.8047 4.4805 c 1.591,0 2.8769,-1.35038 2.8769,-2.98828 0,-1.24205 -0.7469,-2.28507 -1.8047,-2.73438 l -0.1367,-0.05859 -0.01,-0.14844 C 13.913,4.743245 11.5617,2.336165 8.6443,2.334005 v 0 z m 0,1 v 0 c 2.3676,0.0022 4.2913,1.9522 4.4043,4.44726 v 0.0098 l 0.051,0.77539 0.7031,0.29688 c 0.701,0.29774 1.1953,0.97292 1.1953,1.81445 0.01,1.11411 -0.8459,1.98828 -1.871,1.98828 H 8.6451 3.8385 c -1.5562,0 -2.8379,-1.32108 -2.8379,-2.99219 0,-1.59695 1.1845,-2.8663 2.6445,-2.97265 l 0.7227,-0.05078 0.3105,-0.66211 v -0.0039 c 0.7282,-1.58041 2.2126,-2.64878 3.961,-2.65039 z"/>
</svg>
