<svg xmlns="http://www.w3.org/2000/svg" width="16" height="16" version="1.1">
 <path fill="#ececec" d="M 2.6595829,1.6618452 C 0.1518148,4.3572424 0.75958045,9.3803596 4.0163426,12.880786 7.2731062,16.381224 11.945779,17.033632 14.453551,14.338235 16.961325,11.642838 16.355285,6.6195193 13.098518,3.119092 9.8417563,-0.38134593 5.1673554,-1.0335626 2.6595829,1.6618452 Z M 4.9335796,2.78152 C 6.9040242,0.66365555 10.527002,1.1243396 13.026356,3.8106977 15.525718,6.4970559 15.954335,10.391108 13.983888,12.508983 12.013444,14.626837 8.389517,14.167194 5.8901559,11.480826 3.3907961,8.7944575 2.9631352,4.8993951 4.9335796,2.78152 Z"/>
 <path fill="#ececec" d="m 12.177411,2.6201854 h 1.357668 c 0.205614,0 0.371145,0.1637181 0.371145,0.367081 v 1.3427994 c 0,0.2033629 -0.165531,0.3670811 -0.371145,0.3670811 h -1.357668 c -0.205614,0 -0.371145,-0.1637182 -0.371145,-0.3670811 V 2.9872664 c 0,-0.2033629 0.165531,-0.367081 0.371145,-0.367081 z"/>
 <path fill="#ececec" d="M 0.87453881,5.3521967 H 4.0708694 c 0.4844941,0 0.8745381,0.3857726 0.8745381,0.8649611 v 3.1613275 c 0,0.4791884 -0.390044,0.8649607 -0.8745381,0.8649607 H 0.87453881 C 0.39004466,10.243446 6.2547304e-7,9.8576737 6.2547304e-7,9.3784853 V 6.2171578 C 6.2547304e-7,5.7379693 0.39004466,5.3521967 0.87453881,5.3521967 Z"/>
 <path fill="#ececec" d="m 13.316445,11.755018 h 1.929316 c 0.29306,0 0.528989,0.233346 0.528989,0.523196 v 1.908189 c 0,0.28985 -0.235929,0.523196 -0.528989,0.523196 h -1.929316 c -0.29306,0 -0.528989,-0.233346 -0.528989,-0.523196 v -1.908189 c 0,-0.28985 0.235929,-0.523196 0.528989,-0.523196 z"/>
</svg>