<svg xmlns="http://www.w3.org/2000/svg" width="16" height="16" version="1.1">
 <path fill="#ececec" fill-rule="evenodd" d="m 0.19502568,11.7917 c 2.26996002,1.763835 5.71495002,-0.292612 7.17999002,-1.097918 2.8698803,-1.5774893 3.3029503,0.4023 3.6957603,0.67507 0.60869,0.538063 -1.5006703,2.238985 -1.3825603,3.437403 0.0655,0.665256 0.15572,1.193745 0.15572,1.193745 0.2677903,-6.8e-5 3.3203703,-1.572475 3.2268503,-3.134692 1.23347,0.718196 1.49802,-0.425698 2.92922,-0.197788 -0.20226,-0.317777 -0.46331,-0.79107 -1.02452,-1.039153 -0.5982,-0.231489 -1.6094,-0.19919 -1.87198,-0.986624 -0.048,-0.8906593 -0.0348,-5.6419693 -2.11866,-7.0944393 -0.30444,-0.63267 0.0241,-1.53417 0.6166,-2.15008 0.53574,-0.55690004 1.34054,-1.06976004 1.61601,-1.39685004185 C 11.970436,-0.01332634 10.706866,0.35018366 9.5122257,1.0682837 c -0.94764,0.56964 -1.19255,1.07794 -1.58834,1.26841 -3.57313,-0.73106 -7.51194002,2.311692 -7.90949002,7.65095 -0.0321,0.4308953 -0.0257,1.6704923 0.18085,1.8040683 z"/>
</svg>