<svg xmlns="http://www.w3.org/2000/svg" width="16" height="16" version="1.1">
 <path fill="#ececec" d="M 1.094,2e-4 C 0.49034,2e-4 2e-4,0.49029 2e-4,1.094 v 13.812 c 0,0.60365 0.49009,1.0938 1.0938,1.0938 h 13.812 c 0.60365,0 1.0938,-0.4901 1.0938,-1.0938 V 1.094 C 15.9998,0.49034 15.5097,2e-4 14.906,2e-4 Z m 0,1 h 13.812 c 0.0669,0 0.0937,0.0268 0.0937,0.0937 v 4.9062 h -1.0938 c -0.20035,-0.58018 -0.7551,-1 -1.4062,-1 -0.82251,0 -1.5,0.6775 -1.5,1.5 0,0.2449 0.0807,0.45035 0.1875,0.65625 l -3,3 c -0.20078,-0.10112 -0.44584,-0.1562 -0.68745,-0.1562 -0.26731,0 -0.49947,0.0653 -0.71875,0.1875 l -1,-0.9375 c 0.13561,-0.22779 0.21875,-0.46726 0.21875,-0.75 0,-0.8225 -0.6775,-1.5 -1.5,-1.5 -0.8225,0 -1.5,0.6775 -1.5,1.5 0,0.32346 0.13417,0.59637 0.3125,0.84375 l -2.3125,2.375 V 1.0939 c 0,-0.0669 0.0268,-0.0937 0.0937,-0.0937 z m 11.406,5 c 0.28206,0 0.5,0.21794 0.5,0.5 0,0.28206 -0.21794,0.5 -0.5,0.5 -0.28206,0 -0.5,-0.21794 -0.5,-0.5 0,-0.28206 0.21794,-0.5 0.5,-0.5 z m 1.4062,1 H 15 v 7.9062 c 0,0.0669 -0.0268,0.0937 -0.0937,0.0937 H 1.0943 c -0.067,0 -0.0937,-0.0268 -0.0937,-0.0937 v -1.75 L 4.1568,9.9376 c 0.11821,0.0305 0.21695,0.0625 0.34375,0.0625 0.17136,0 0.34732,-0.0393 0.5,-0.0937 l 1.125,1.0312 c -0.0698,0.17026 -0.125,0.36715 -0.125,0.5625 0,0.8225 0.6775,1.5 1.5,1.5 0.8225,0 1.5,-0.6775 1.5,-1.5 0,-0.21591 -0.0431,-0.44059 -0.125,-0.625 l 3,-3.0312 c 0.1963,0.0949 0.39511,0.15625 0.625,0.15625 0.64087,0 1.1983,-0.42761 1.4062,-1 z m -9.4062,1 c 0.28206,0 0.5,0.21794 0.5,0.5 0,0.28206 -0.21794,0.5 -0.5,0.5 -0.28206,0 -0.5,-0.21794 -0.5,-0.5 0,-0.28206 0.21794,-0.5 0.5,-0.5 z m 3,3 c 0.28206,0 0.5,0.21794 0.5,0.5 0,0.28206 -0.21794,0.5 -0.5,0.5 -0.28206,0 -0.5,-0.21794 -0.5,-0.5 0,-0.28206 0.21794,-0.5 0.5,-0.5 z"/>
</svg>
