<svg xmlns="http://www.w3.org/2000/svg" width="16" height="16" version="1.1">
 <path fill="#ececec" d="m 6.5e-5,13.321096 c 2.72872,-0.834498 5.30898,-2.223316 7.56328,-4.0709001 0.76575,-0.6275862 1.50972,-1.327613 1.97654,-2.2316892 0.2334,-0.4520434 0.39316,-0.9517088 0.43427,-1.4665012 0.0411,-0.5147924 -0.0397,-1.0449049 -0.26108,-1.5038204 C 9.525785,3.6600056 9.241195,3.3290002 8.905355,3.0812527 8.569515,2.8335053 8.183455,2.6679007 7.784175,2.5797434 6.985625,2.4034288 6.149615,2.5363241 5.376365,2.8134359 4.331035,3.188075 3.358845,3.8368884 2.656095,4.7471934 c -0.70275,0.910305 -1.12097,2.090303 -1.06521,3.2704296 0.0608,1.2843223 0.67737,2.497137 1.55522,3.373478 0.87786,0.876352 1.99964,1.436633 3.16033,1.76112 1.69633,0.474225 3.50849,0.463226 5.1997,-0.03152 1.69121,-0.494798 3.25738,-1.472172 4.49388,-2.804438 l -0.0127,-3.4575618 c -1.09169,1.8088921 -2.74843,3.2182838 -4.63964,3.9469458 -1.42459,0.548874 -3.01188,0.710941 -4.45719,0.228375 C 6.167825,10.792729 5.488705,10.391899 4.931055,9.8432508 4.373395,9.2945908 3.939695,8.5966975 3.709075,7.8238334 3.441995,6.9287413 3.460095,5.9171889 3.860185,5.0810076 4.060225,4.662917 4.352875,4.2940993 4.714155,4.0280728 c 0.36129,-0.2660264 0.79136,-0.4272247 1.22933,-0.4450642 0.29305,-0.0119 0.58941,0.040203 0.85938,0.1630101 0.26999,0.1227749 0.51285,0.3170255 0.69095,0.5667992 0.20517,0.2877468 0.32045,0.6436138 0.34945,1.0044659 0.029,0.3608414 -0.026,0.7264 -0.13661,1.0685979 -0.22135,0.6843852 -0.6551,1.26406 -1.10673,1.8028456 C 4.769745,10.372098 2.504165,12.133915 -5e-6,13.321128 h -1e-5"/>
</svg>
