<svg xmlns="http://www.w3.org/2000/svg" width="16" height="16" version="1.1">
 <path fill="#ececec" d="M 12.535309,-1.0824066e-5 C 14.022099,0.33660918 16.563529,0.83726918 15.888089,3.1000092 c -0.85844,2.87583 -3.27824,5.49287 -5.28035,7.4957398 l 5e-5,6e-5 c -0.002,0.002 -0.003,0.003 -0.006,0.006 -0.002,0.002 -0.003,0.003 -0.006,0.006 l -5e-5,-5e-5 c -2.0028496,2.00211 -4.6198896,4.4219 -7.4957196,5.28034 C 0.83727935,16.563539 0.33661935,14.022119 -6.4532256e-7,12.535329 L 4.8024094,10.423519 l 1.88171,1.01469 c 0.69637,-0.44427 1.89871,-1.5589698 2.64232,-2.3021298 0.7431496,-0.74361 1.8578496,-1.94594 2.3021396,-2.64231 l -1.20515,-1.69127 2.11181,-4.802410024066 z"/>
</svg>
