<svg xmlns="http://www.w3.org/2000/svg" width="16" height="16" version="1.1">
 <path fill="#ececec" d="M 8 0 C 3.588 0 0 3.588 0 8 C 0 12.412 3.588 16 8 16 C 12.412 16 16 12.412 16 8 C 16 3.588 12.412 0 8 0 z M 8 1 C 11.872 1 15 4.128 15 8 C 15 11.872 11.872 15 8 15 C 4.128 15 1 11.872 1 8 C 1 4.128 4.128 1 8 1 z M 10.021484 4.4960938 C 3.3401844 12.165427 6.6807844 8.3307607 10.021484 4.4960938 z M 5.3632812 4.8632812 A 1.5 1.5 0 0 0 3.8632812 6.3632812 A 1.5 1.5 0 0 0 5.3632812 7.8632812 A 1.5 1.5 0 0 0 6.8632812 6.3632812 A 1.5 1.5 0 0 0 5.3632812 4.8632812 z M 11.363281 4.8632812 A 1.5 1.5 0 0 0 9.8632812 6.3632812 A 1.5 1.5 0 0 0 11.363281 7.8632812 A 1.5 1.5 0 0 0 12.863281 6.3632812 A 1.5 1.5 0 0 0 11.363281 4.8632812 z M 6.9238281 9.8652344 L 8.0078125 12.558594 L 9.3476562 9.9316406 L 6.9238281 9.8652344 z"/>
</svg>
