<svg xmlns="http://www.w3.org/2000/svg" width="16" height="16" version="1.1">
 <path fill="#ececec" opacity="1.0" d="M 4.5320918,9.9235953 V 6.0762948 L 8,4.1526446 11.467908,6.0762948 V 9.9235953 L 8,11.847355 Z"/>
 <path fill="#ececec" opacity="0.6" d="M 8.578125 0 L 8.578125 3.3320312 L 11.865234 5.2050781 L 14.935547 3.5566406 L 8.578125 0 z M 7.4628906 0.0078125 L 1.078125 3.5195312 L 4.0820312 5.1855469 L 7.4140625 3.3867188 L 7.4628906 0.0078125 z M 0.52734375 4.4511719 L 0.5 11.519531 L 3.5039062 9.8535156 L 3.5488281 6.1816406 L 0.52734375 4.4511719 z M 15.5 4.4804688 L 12.496094 6.1464844 L 12.451172 9.8183594 L 15.472656 11.548828 L 15.5 4.4804688 z M 4.1347656 10.794922 L 1.0644531 12.443359 L 7.421875 16 L 7.421875 12.667969 L 4.1347656 10.794922 z M 11.917969 10.814453 L 8.5859375 12.613281 L 8.5371094 15.992188 L 14.921875 12.480469 L 11.917969 10.814453 z"/>
</svg>
