<svg xmlns="http://www.w3.org/2000/svg" width="16" height="16" version="1.1">
  <rect fill="#ececec" fill-opacity="0" width="16" height="16"/>
  <path fill="#ececec" d="M 3.989 5.159 L 1.169 2.338 C 2.615 0.892 4.615 0 6.831 0 C 11.263 0 14.831 3.568 14.831 8 C 14.831 12.432 11.263 16 6.831 16 C 4.615 16 2.615 15.108 1.169 13.662 L 3.989 10.841 C 4.712 11.558 5.707 12 6.805 12 Q 6.805 12.578 6.789 13.688 Q 9.29 11.18 9.668 10.793 C 10.371 10.072 10.805 9.087 10.805 8 C 10.805 5.791 9.014 4 6.805 4 C 5.707 4 4.712 4.442 3.989 5.159 Z"/>
</svg>
