<svg xmlns="http://www.w3.org/2000/svg" width="16" height="16" version="1.1">
    <path fill="#ececec" fill-rule="evenodd" d="M 0 4.51 C 0 2 0.258 1.73 2.773 1.742 L 7.964 1.742 L 13.156 1.742 C 15.671 1.73 15.929 2 15.929 4.51 L 15.929 11.49 C 15.929 14 15.671 14.258 13.156 14.258 L 7.964 14.258 L 2.773 14.258 C 0.258 14.258 0 14 0 11.49 L 0 4.51 Z M 4.338 6.578 C 3.552 6.578 2.916 7.215 2.916 8 C 2.916 8.785 3.552 9.422 4.338 9.422 C 5.123 9.422 5.76 8.785 5.76 8 C 5.76 7.215 5.123 6.578 4.338 6.578 L 4.338 6.578 L 4.338 6.578 Z M 8.036 6.578 C 7.25 6.578 6.613 7.215 6.613 8 C 6.613 8.785 7.25 9.422 8.036 9.422 C 8.821 9.422 9.458 8.785 9.458 8 C 9.458 7.215 8.821 6.578 8.036 6.578 L 8.036 6.578 L 8.036 6.578 Z M 11.733 6.578 C 10.948 6.578 10.311 7.215 10.311 8 C 10.311 8.785 10.948 9.422 11.733 9.422 C 12.519 9.422 13.156 8.785 13.156 8 C 13.156 7.215 12.519 6.578 11.733 6.578 L 11.733 6.578 Z"/>
</svg>
