<svg xmlns="http://www.w3.org/2000/svg" width="16" height="16" version="1.1">
 <path fill="#ececec" d="m 1.1687125,9.205515 c -1.5583,1.558328 -1.5583,4.06741 0,5.625738 1.5584,1.558329 4.0675,1.558329 5.6257,0 l 0.4019,-0.401845 -0.8037,-0.803669 -0.4018,0.401834 c -1.1131,1.113089 -2.9053,1.113089 -4.0184,0 -1.113,-1.113089 -1.113,-2.905289 0,-4.018378 L 10.009212,1.972427 c 1.113101,-1.113089 2.9053,-1.113089 4.0184,0 1.113,1.113089 1.113,2.905289 0,4.018378 l -0.81,0.809954 -2.806599,2.80659 -0.2354,0.235452 -0.9701005,0.970063 c -0.6679,0.66786 -1.7432,0.66786 -2.4111,0 -0.6678,-0.667849 -0.6678,-1.74317 0,-2.41103 l 1.2056,-1.205514 0.8036,-0.803669 -0.8036,-0.80368 -2.0092,2.009195 c -1.1131,1.113088 -1.1131,2.905289 0,4.018378 1.1131,1.113089 2.9053,1.113089 4.0184005,0 l 0.970099,-0.970063 1.440901,-1.440966 2.411,-2.41103 c 1.558399,-1.558328 1.558399,-4.06741 0,-5.625738 -1.5583,-1.558329 -4.0674,-1.558329 -5.6257005,0 z"/>
</svg>
