<svg xmlns="http://www.w3.org/2000/svg" width="16" height="16" version="1.1">
 <path fill="#ececec" d="M 8,0 C 3.588,0 0,3.588 0,8 c 0,4.412 3.588,8 8,8 4.412,0 8,-3.588 8,-8 C 16,3.588 12.412,0 8,0 Z m 0,1 c 3.872,0 7,3.128 7,7 0,3.872 -3.128,7 -7,7 C 4.128,15 1,11.872 1,8 1,4.128 4.128,1 8,1 Z M 5.978,4.496 C 5.572,4.527 5.249,5.415 5.25,6.498 c 0,2.67 1.5,2.67 1.5,0 C 6.75,5.37 6.401,4.464 5.979,4.496 Z m 4,0 C 9.572,4.527 9.249,5.415 9.25,6.498 c 0,2.67 1.5,2.67 1.5,0 0,-1.128 -0.349,-2.034 -0.771,-2.002 z M 5.174,9.83 4.467,10.537 A 4.999,4.999 0 0 0 8,12.004 4.999,4.999 0 0 0 11.533,10.537 L 10.826,9.83 A 4,4 0 0 1 8,11.004 4,4 0 0 1 5.174,9.83 Z" overflow="visible"/>
</svg>
