<svg xmlns="http://www.w3.org/2000/svg" width="16" height="16" version="1.1">
 <path fill="#ececec" d="m 8.6400016,2.000005 c -2.15799,0.002 -3.99199,1.40946 -4.869,3.42252 l -0.06,0.13767 -0.14001,0.0106 C 1.5780016,5.724335 1.6232423e-6,7.551025 1.6232423e-6,9.772705 c 0,2.32226 1.7159999767577,4.22731 3.8369999767577,4.22731 h 9.2849904 c 1.592,0 2.87799,-1.42958 2.87799,-3.16414 a 2.9579981,3.1323686 0 0 0 -1.805,-2.89516 l -0.13699,-0.0625 -0.01,-0.15674 c -0.135,-3.17049 -2.487,-5.71831 -5.4039904,-5.72149 z m 0,1.05895 c 2.3680004,0.002 4.2920004,2.06707 4.4050004,4.70915 v 0.0106 l 0.05,0.82175 0.704,0.31345 a 1.9439987,2.0585951 0 0 1 1.195,1.92199 c 0.01,1.17967 -0.846,2.10519 -1.87,2.10519 H 3.8370116 c -1.55601,0 -2.83799998,-1.3978 -2.83799998,-3.16836 0,-1.69115 1.18499998,-3.03495 2.64499998,-3.14826 l 0.72199,-0.053 0.31001,-0.70209 v -0.004 c 0.72999,-1.67314 2.214,-2.80409 3.96199,-2.80621 z" font-family="sans-serif" font-weight="400" overflow="visible"/>
</svg>
