<svg xmlns="http://www.w3.org/2000/svg" width="16" height="16" version="1.1">
 <path fill="#ececec" d="M 4.7309515,0 C 4.0722886,0 3.5420258,0.5097143 3.5420258,1.1428571 v 1.1428572 c 0,0.6331428 0.5302628,1.1428571 1.1889257,1.1428571 h 1.1889257 c 0.6586743,0 1.1889371,-0.5097143 1.1889371,-1.1428571 V 1.1428571 C 7.1088143,0.5097143 6.5785515,0 5.9198772,0 Z M 4.1697743,4.5714286 3.5420258,5.0091429 1.2271801,9.459429 c -0.39829716,0.697142 0.7252457,1.234285 1.0629028,0.509714 L 3.5420258,7.5622857 3.9938201,6.2765714 3.5420258,10.285714 V 16 H 4.7309515 V 11.428571 H 5.9198772 V 16 H 7.1088143 V 10.285714 L 6.4810543,6.272 7.1088143,7.5634286 8.3607572,9.969143 a 0.59446462,0.57142857 0 0 0 0.26632,0.256 l 2.0485248,0.985143 V 16 h 2.377852 V 12.236571 L 13.821511,12.976 c 0.561166,0.56 1.424331,-0.269714 0.84176,-0.809143 L 13.053454,10.620571 V 10.285714 H 11.409168 L 9.3356712,9.288 7.1088143,5.0091429 6.2848829,4.5714286 Z M 10.675602,6.8571429 V 9.142857 h 2.377852 V 6.8571429 Z"/>
</svg>
