<svg xmlns="http://www.w3.org/2000/svg" width="16" height="16" version="1.1">
 <path fill="#ececec" d="M 3,0 V 4 4.0254 C 2.2505,4.0433 1.58934,4.0941 1.0625,4.38478 0.68613,4.59244 0.38927,4.94416 0.22461,5.38282 0.05994,5.82148 0,6.34239 0,7 v 3 c 0,0.65761 0.0599,1.17853 0.22461,1.61719 0.16467,0.43866 0.46152,0.79039 0.83789,0.99804 C 1.34478,12.77098 1.66154,12.84867 2,12.90234 V 11.87695 C 1.81279,11.84145 1.65276,11.79775 1.54492,11.73828 1.36151,11.63709 1.25772,11.52554 1.16016,11.26562 1.06261,11.00572 1,10.59239 1,10 V 7 C 1,6.40761 1.0626,5.99428 1.16016,5.73438 1.25776,5.47447 1.36151,5.36291 1.54492,5.26172 1.91088,5.05981 2.74147,5.01471 4,5 h 8 c 1.25852,0.0147 2.08718,0.0598 2.45312,0.26172 0.18341,0.1012 0.28916,0.21274 0.38672,0.47266 C 14.93741,5.99429 15,6.40761 15,7 v 3 c 0,0.59239 -0.0626,1.00572 -0.16016,1.26562 -0.0976,0.25991 -0.2033,0.37147 -0.38672,0.47266 C 14.34556,11.79758 14.1863,11.8415 14,11.87695 v 1.02539 c 0.33846,-0.0537 0.65522,-0.13134 0.9375,-0.28711 0.37637,-0.20766 0.67322,-0.55938 0.83789,-0.99804 C 15.94008,11.17852 16,10.65761 16,10 V 7 C 16,6.34239 15.9401,5.82148 15.77539,5.38281 15.61073,4.94415 15.31387,4.59243 14.9375,4.38477 14.41066,4.09408 13.7495,4.04329 13,4.02539 V 4 0 Z m 1,1 h 8 V 4 H 4 Z m 9.5,5 A 0.5,0.5 0 0 0 13,6.5 0.5,0.5 0 0 0 13.5,7 0.5,0.5 0 0 0 14,6.5 0.5,0.5 0 0 0 13.5,6 Z M 3,10 V 10.5 16 H 13 V 10.5 10 H 12 V 10.5 15 H 4 V 10.5 10 Z m 2,1 v 1 h 6 v -1 z m 0,2 v 1 h 6 v -1 z"/>
</svg>