<svg xmlns="http://www.w3.org/2000/svg" width="16" height="16" version="1.1">
 <path fill="#ececec" d="M 8 0 L 8.78 4.077 L 11.062 0.609 L 10.222 4.674 L 13.657 2.343 L 11.326 5.778 L 15.391 4.938 L 11.923 7.22 L 16 8 L 11.923 8.78 L 15.391 11.061 L 11.326 10.222 L 13.657 13.657 L 10.222 11.326 L 11.062 15.391 L 8.78 11.923 L 8 16 L 7.22 11.923 L 4.938 15.391 L 5.778 11.326 L 2.343 13.657 L 4.674 10.222 L 0.609 11.061 L 4.077 8.78 L 0 8 L 4.077 7.22 L 0.609 4.938 L 4.674 5.778 L 2.343 2.343 L 5.778 4.674 L 4.938 0.609 L 7.22 4.077 L 8 0 Z"/>
</svg>
