<svg xmlns="http://www.w3.org/2000/svg" width="16" height="16" version="1.1">
 <path fill="#ececec" d="m 7.7241376,1.2e-7 c -1.833931,0 -3.3103448,0.73820687 -3.3103448,1.65517238 V 3.3103448 3.862069 H 7.7241376 V 4.4137931 H 4.4137928 3.8620687 3.3103446 1.6551722 C 0.73820675,4.4137931 -1.2e-7,5.8902068 -1.2e-7,7.7241378 v 0.5517241 c 0,1.8339311 0.73820687,3.3103451 1.65517232,3.3103451 H 3.3103446 3.8620687 V 9.9310343 c 0,0 0,-2.2068965 2.2068965,-2.2068965 h 4.4137928 c 0,0 1.103448,0 1.103448,-1.1034482 V 4.4137931 3.3103448 1.6551725 C 11.586206,0.73820699 10.109793,1.2e-7 8.2758617,1.2e-7 Z M 6.0689652,1.1034484 c 0.304709,0 0.5517241,0.2470151 0.5517241,0.5517241 0,0.3047089 -0.2470151,0.5517241 -0.5517241,0.5517241 -0.304709,0 -0.5517241,-0.2470152 -0.5517241,-0.5517241 0,-0.304709 0.2470151,-0.5517241 0.5517241,-0.5517241 z"/>
 <path fill="#ececec" d="m 8.2758617,16 c 1.8339313,0 3.3103443,-0.738207 3.3103443,-1.655173 V 12.689655 12.137931 H 8.2758617 v -0.551724 h 3.3103443 0.551725 0.551724 1.655172 c 0.916965,0 1.655172,-1.476414 1.655172,-3.3103451 V 7.7241378 c 0,-1.833931 -0.738207,-3.3103447 -1.655172,-3.3103447 h -1.655172 -0.551724 v 2.2068965 c 0,1.6551723 -1.655173,1.6551723 -1.655173,1.6551723 H 6.0689652 c -1.6551724,0 -1.6551724,1.6551724 -1.6551724,1.6551724 v 1.6551727 1.103448 1.655172 C 4.4137928,15.261793 5.8902066,16 7.7241376,16 Z M 9.931034,14.344827 c -0.3047089,0 -0.5517241,-0.247015 -0.5517241,-0.551724 0,-0.304709 0.2470152,-0.551724 0.5517241,-0.551724 0.304709,0 0.551724,0.247015 0.551724,0.551724 0,0.304709 -0.247015,0.551724 -0.551724,0.551724 z"/>
</svg>
