<svg xmlns="http://www.w3.org/2000/svg" width="16" height="16" version="1.1">
 <path fill="#ececec" d="M 4.78625,1 C 3.40835,1.000011 2.29497,1.478909 1.44871,2.436571 0.4831,3.527881 0,5.006884 0,6.877678 c 0,1.391971 0.27938,2.601983 0.84355,3.626467 0.85712,1.525596 2.17422,2.286249 3.9427,2.28625 0.38211,1.630267 1.43611,2.487792 3.91518,2.128579 V 13.73643 C 7.54737,13.838046 7.29683,13.232076 7.20688,12.159705 v -0.07007 C 7.55406,11.878057 7.86919,11.61545 8.15129,11.292513 9.07349,10.234621 9.53581,8.759626 9.53582,6.877684 9.53581,5.47459 9.24145,4.266954 8.65559,3.242459 7.78762,1.750282 6.50047,1.000017 4.78625,1.000006 Z m 9.28825,0.473017 -1.74212,0.04379 -0.57765,2.610355 h -1.23782 v 1.953386 h 1.13696 V 9.82089 c 0,1.024488 0.15296,1.742836 0.44928,2.154856 0.37316,0.545652 1.16572,0.81464 2.38396,0.814641 0.40607,-1e-6 0.90926,-0.0527 1.51289,-0.175191 v -1.857031 c -0.41706,0.02227 -0.72672,0.03504 -0.93524,0.03504 -0.34023,2e-6 -0.58168,-0.05507 -0.72436,-0.166432 -0.1756,-0.133626 -0.2659,-0.479217 -0.2659,-1.024871 V 6.08055 h 1.79713 V 4.127164 H 14.0745 Z M 4.78625,3.189895 c 1.34534,9e-6 2.01718,1.233179 2.01719,3.705303 -1e-5,2.472134 -0.67185,3.714064 -2.01719,3.714062 -1.36705,2e-6 -2.05388,-1.248311 -2.05387,-3.731582 -1e-5,-0.100215 -1e-5,-0.197598 0,-0.297825 C 2.79748,4.319308 3.4843,3.189904 4.78625,3.189895 Z"/>
</svg>
