<svg xmlns="http://www.w3.org/2000/svg" width="16" height="16" version="1.1">
 <path fill="#ececec" d="M 1.9999991,3.999889 V 5.9998878 H 2.6430009e-7 V 6.9998887 H 1.9999991 V 8.9998875 H 2.6430009e-7 V 9.9998864 H 1.9999991 V 11.999886 H 2.999999 V 9.9998864 H 4.9999978 V 11.999886 H 5.9999967 V 9.9998864 H 7.9999965 V 8.9998875 H 5.9999967 V 6.9998887 H 7.9999965 V 5.9998878 H 5.9999967 V 3.999889 H 4.9999978 V 5.9998878 H 2.999999 V 3.999889 Z M 2.999999,6.9998887 H 4.9999978 V 8.9998875 H 2.999999 Z"/>
 <path fill="#ececec" d="M 12 10 C 11.446 10 11 10.446 11 11 C 11 11.554 11.446 12 12 12 C 12.554 12 13 11.554 13 11 C 13 10.446 12.554 10 12 10 z M 15 10 C 14.446 10 14 10.446 14 11 C 14 11.554 14.446 12 15 12 C 15.554 12 16 11.554 16 11 C 16 10.446 15.554 10 15 10 z"/>
</svg>
