<svg xmlns="http://www.w3.org/2000/svg" width="16" height="16" version="1.1">
 <path fill="#ececec" d="m 3.75,1.6037125 c -0.1278096,0 -0.2555813,0.049 -0.3535156,0.1465 -0.1958686,0.1959 -0.1958686,0.5112 0,0.707 l 2.9394531,2.9395 H 1 c -0.554,0 -1,0.446 -1,1 v 6.9999995 c 0,0.554001 0.446,1 1,1 h 14 c 0.554,0 1,-0.445999 1,-1 V 6.3967125 c 0,-0.554 -0.446,-1 -1,-1 H 9.40625 l 2.939453,-2.9395 c 0.195869,-0.1958 0.195869,-0.5111 0,-0.707 -0.195868,-0.1959 -0.511163,-0.1959 -0.707031,0 l -3.6464845,3.6465 H 7.7519531 l -3.6484375,-3.6465 c -0.097934,-0.098 -0.225706,-0.1465 -0.3535156,-0.1465 z m 0.75,5.793 c 1.3807119,0 2.5,1.1193 2.5,2.5 0,1.3806995 -1.1192881,2.4999995 -2.5,2.4999995 -1.3807118,0 -2.5,-1.1193 -2.5,-2.4999995 0,-1.3807 1.1192882,-2.5 2.5,-2.5 z m 5,1 h 4 c 0.277,0 0.5,0.223 0.5,0.5 0,0.277 -0.223,0.5 -0.5,0.5 h -4 c -0.277,0 -0.5,-0.223 -0.5,-0.5 0,-0.277 0.223,-0.5 0.5,-0.5 z m 0,1.9999995 h 4 c 0.277,0 0.5,0.223 0.5,0.5 0,0.277 -0.223,0.5 -0.5,0.5 h -4 c -0.277,0 -0.5,-0.223 -0.5,-0.5 0,-0.277 0.223,-0.5 0.5,-0.5 z"/>
</svg>
