<svg xmlns="http://www.w3.org/2000/svg" width="16" height="16" version="1.1">
 <path fill="#ececec" d="M 8.6461268,4.2908943e-4 C 8.6595718,2.0499268 8.6705488,3.5424105 8.6798958,5.0137082 l 0.012091,-0.014515 c 0,0 1.0874218,1.0596222 1.6425832,0.1170154 0.555192,-0.9425761 0.473619,-1.3852935 0.535561,-1.6824473 0.06194,-0.2971475 0.288715,-0.7404285 0.718514,-0.124497 0.429763,0.6159561 0.85876,1.3350391 0.07609,3.5078577 -0.782646,2.1728554 -0.168523,3.301891 0.240344,4.184396 0.408843,0.882578 1.453329,2.503198 0.221095,3.608809 C 10.893941,15.715999 8.8621346,15.97908 7.9801928,15.998268 7.0982921,16.017488 4.3945242,15.893588 3.7466522,14.762364 3.2352358,13.869418 3.1038958,13.161196 3.618855,11.705763 4.1338139,10.250392 4.7899403,9.6357161 4.4223518,8.5686565 4.0548126,7.501597 3.6500875,6.3430412 3.7296369,5.9221936 3.8536443,5.2662016 4.3273651,4.4467738 4.7574677,4.8166625 5.1876321,5.1864527 4.9585657,6.620794 5.901995,6.6222162 6.3254556,6.6228793 6.7292263,6.3394252 7.0450386,6.0256212 L 7.1361476,1.8943243e-7 Z"/>
</svg>
