<svg xmlns="http://www.w3.org/2000/svg" width="16" height="16" version="1.1">
 <path fill="#ececec" opacity="0.6" d="M 8.0000001,2.0000335 A 8.0000002,5.6666721 0 0 0 -3.525443e-7,7.6667004 8.0000002,5.6666721 0 0 0 8.0000001,13.333366 8.0000002,5.6666721 0 0 0 16,7.6667004 8.0000002,5.6666721 0 0 0 8.0000001,2.0000335 Z m 1.3333337,2 A 6.0000005,3.6666703 0 0 1 15.333333,7.6667004 6.0000005,3.6666703 0 0 1 9.3333338,11.333366 6.0000005,3.6666703 0 0 1 3.333333,7.6667004 6.0000005,3.6666703 0 0 1 9.3333338,4.0000335 Z"/>
 <path fill="#ececec" fill-rule="evenodd" d="m 12.73334,10.316832 c 0,0 0.258087,-0.074 0.51549,0.05733 0.08932,0.04533 0.243851,0.136867 0.355321,0.256467 0.109189,0.1172 0.162429,0.235933 0.162429,0.235933 l 1.56664,3.133401 h -3.333276 c 0,0 -0.744854,-2.177334 -1.442041,-3.109334 -0.138716,-0.113467 -0.254564,-0.235 -0.391272,-0.224067 H 9.3331107 l 2.824e-4,3.3316 h -2.66677 V 4.6666335 h 5.0522479 c 0.547656,0 2.866616,0.3333334 2.947616,2.6667003 -0.081,2.3333996 -1.933301,3.0000992 -1.933301,3.0000992 z M 9.3335964,6.6494672 v 2.0006667 h 1.9997666 c 0,0 0.666654,0.024 0.666654,-1.0000339 0,-1.0756334 -0.666654,-0.9994328 -0.666654,-0.9994328 z"/>
</svg>
