<svg xmlns="http://www.w3.org/2000/svg" width="16" height="16" version="1.1">
 <path fill="#ececec" opacity="0.6" d="M 7.2022707,1.8055488 A 7.2022701,5.1016127 0 0 0 4.2622942e-7,6.9071569 7.2022701,5.1016127 0 0 0 7.2022707,12.008764 7.2022701,5.1016127 0 0 0 14.404541,6.9071569 7.2022701,5.1016127 0 0 0 7.2022707,1.8055488 Z M 8.4026494,3.6061163 A 5.4017029,3.3010437 0 0 1 13.804351,6.9071569 5.4017029,3.3010437 0 0 1 8.4026494,10.208196 5.4017029,3.3010437 0 0 1 3.0009463,6.9071569 5.4017029,3.3010437 0 0 1 8.4026494,3.6061163 Z"/>
 <path fill="#ececec" d="m 7.0116258,5.7150715 h 2.620163 V 8.9194212 L 12.379201,5.7150715 h 3.481982 L 12.772514,8.9136373 16,14.194451 H 12.772514 L 10.98525,10.706685 9.6317888,12.12377 v 2.070681 h -2.620163 z"/>
</svg>
