<svg xmlns="http://www.w3.org/2000/svg" width="16" height="16" version="1.1">
 <path fill="#ececec" opacity=".5" d="m14.0953 2.66667 1.5238 2.66666-1.5238 2.66672h-3.0477l-1.52377-2.66672 1.52377-2.66666h3.0477z"/>
 <path fill="#ececec" d="m9.52383 10.6667 1.52377 2.6667-1.52377 2.6666h-3.04766l-1.52379-2.6666 1.52379-2.6667h3.04766z"/>
 <path fill="#ececec" d="m14.0953 8.00005 1.5238 2.66665-1.5238 2.6667h-3.0477l-1.52377-2.6667 1.52377-2.66665h3.0477z"/>
 <path fill="#ececec" d="M4.95238 8.00005L6.47617 10.6667L4.95238 13.3334H1.90476L0.380945 10.6667L1.90476 8.00005H4.95238Z"/>
 <path fill="#ececec" d="M4.95238 2.66667L6.47617 5.33333L4.95238 8.00005H1.90476L0.380945 5.33333L1.90476 2.66667H4.95238Z"/>
 <path fill="#ececec" d="M9.52383 0L11.0476 2.66667L9.52383 5.33333H6.47617L4.95238 2.66667L6.47617 0H9.52383Z"/>
</svg>
