<svg xmlns="http://www.w3.org/2000/svg" width="16" height="16" version="1.1">
 <path fill="#ececec" fill-rule="evenodd" d="M 2.154 5.912 L 2.154 5.103 L 0 5.103 L 0 13.793 L 2.154 13.793 L 2.154 7.276 L 5.385 7.276 L 5.385 5.103 C 4.248 5.098 3.122 5.377 2.154 5.912 Z M 8.616 4.379 L 8.616 7.276 L 8.616 7.276 L 10.665 7.276 C 11.529 7.276 12.206 6.709 12.206 5.828 C 12.206 4.946 11.529 4.379 10.665 4.379 L 8.616 4.379 L 8.616 4.379 L 8.616 4.379 Z M 10.02 9.448 L 13.293 13.793 L 16 13.793 L 12.6 9.281 C 14.037 8.818 15.079 7.447 15.079 5.828 C 15.079 3.828 13.49 2.207 11.531 2.207 L 8.616 2.207 L 8.616 2.207 L 6.462 2.207 L 6.462 2.207 L 6.462 13.793 L 8.616 13.793 L 8.616 9.448 L 10.02 9.448 L 10.02 9.448 Z"/>
</svg>
