<svg xmlns="http://www.w3.org/2000/svg" width="16" height="16" version="1.1">
 <path fill="#ececec" d="M 8,0 C 8,0 6.29231,2.85758 1.7386,2.85758 1.7386,12.57269 8,16 8,16 8,16 14.2614,12.57269 14.2614,2.85758 9.70769,2.85758 8,0 8,0 Z m 0,1.44714 c 0.28354,0.32558 0.26818,0.4372 0.81529,0.82955 0.95108,0.68209 2.46481,1.242 4.33324,1.4512 -0.18111,4.11523 -1.50128,6.93134 -2.84942,8.71543 C 9.27485,13.79881 8.48334,14.40352 8,14.73223 7.51666,14.40352 6.72517,13.79881 5.70089,12.44332 4.35278,10.65923 3.03258,7.84312 2.85147,3.72789 4.7199,3.51869 6.23363,2.95878 7.18472,2.27669 7.73214,1.88411 7.71645,1.7728 8,1.44714 Z"/>
</svg>
