<svg xmlns="http://www.w3.org/2000/svg" width="16" height="16" version="1.1">
 <path fill="#ececec" d="m 7.99742,1.69e-4 0.002,0.0024 0.002,0.0024 c 0.9629,2.172143 1.70648,4.38612 2.12953,5.742568 1.3917,0.0012 3.68435,0.05592 5.86905,0.353928 l -0.002,0.0024 v 0.0024 l -0.002,0.0024 v 0.0024 c -1.66776,1.633847 -3.44121,3.060477 -4.5378,3.902596 0.42912,1.391563 1.08858,3.700742 1.49401,5.976955 h -0.002 -0.002 -0.002 -0.002 C 10.95045,14.828196 9.11028,13.495953 8.00948,12.65993 6.88298,13.518958 4.99539,14.891416 3.06139,15.999989 v -0.0024 -0.0024 -0.0024 l -0.002,-0.0024 c 0.43563,-2.35237 1.0733,-4.604101 1.48955,-5.96289 C 3.42357,9.166778 1.60057,7.706247 0,6.115531 l 0.002,-0.0025 h 0.002 l 0.002,-0.0024 v -0.0024 C 2.26894,5.816828 4.50136,5.758048 5.85943,5.754304 6.29033,4.363677 7.05149,2.090896 7.99565,1.1e-5 Z m -0.002,3.290844 c -8.2e-4,0.0024 -0.001,0.0048 -0.002,0.0072 v 7.889581 l 0.0134,-0.0096 0.66895,0.508617 c 0.54366,0.4129 1.59448,1.06471 2.4328,1.640736 -0.26552,-1.025491 -0.5234,-2.254996 -0.73586,-2.943937 L 10.1185,9.558556 10.78524,9.045234 C 11.32693,8.629251 12.24146,7.780916 13.02181,7.120896 12.01192,7.069416 10.81875,6.948037 10.12965,6.947449 L 9.3046,6.945049 9.04594,6.119995 C 8.837,5.450135 8.35161,4.274646 7.99567,3.290906 Z"/>
</svg>
