<svg xmlns="http://www.w3.org/2000/svg" width="16" height="16" version="1.1">
 <path fill="#ececec" d="M 15.466665,2.66667 C 15.466665,1.20022 14.266445,0 12.800005,0 c -1.46645,0 -2.66667,1.20022 -2.66667,2.66667 0,1.46644 1.20022,2.66666 2.66667,2.66666 1.46644,0 2.66666,-1.20022 2.66666,-2.66666 z m 0,10.66666 c 0,-1.46644 -1.20022,-2.66666 -2.66666,-2.66666 -1.46645,0 -2.66667,1.20022 -2.66667,2.66666 0,1.46645 1.20022,2.66667 2.66667,2.66667 1.46644,0 2.66666,-1.20022 2.66666,-2.66667 z M 14.400005,2.66667 c 0,0.88997 -0.71003,1.6 -1.6,1.6 -0.88997,0 -1.6,-0.71003 -1.6,-1.6 0,-0.88998 0.71003,-1.6 1.6,-1.6 0.88997,0 1.6,0.71002 1.6,1.6 z m 0,10.66666 c 0,0.88998 -0.71003,1.6 -1.6,1.6 -0.88997,0 -1.6,-0.71002 -1.6,-1.6 0,-0.88997 0.71003,-1.6 1.6,-1.6 0.88997,0 1.6,0.71003 1.6,1.6 z m -4.55,-8.41666 C 9.632515,4.6335 9.453145,4.32471 9.322925,3.9875 l -4.11042,2.28542 c -0.49006,-0.56958 -1.2069,-0.93959 -2.0125,-0.93959 -1.46645,0 -2.66667,1.20023 -2.66667,2.66667 0,1.46644 1.20022,2.66667 2.66667,2.66667 0.8056,0 1.52244,-0.37001 2.0125,-0.93959 l 4.11042,2.28542 c 0.13022,-0.33721 0.30959,-0.64598 0.52708,-0.92917 L 5.731255,8.79583 C 5.811555,8.54273 5.866665,8.27876 5.866665,8 c 0,-0.27876 -0.055,-0.54273 -0.13541,-0.79583 z M 4.800005,8 c 0,0.88997 -0.71003,1.6 -1.6,1.6 -0.88997,0 -1.6,-0.71003 -1.6,-1.6 0,-0.88997 0.71003,-1.6 1.6,-1.6 0.88997,0 1.6,0.71003 1.6,1.6 z"/>
</svg>
