<svg xmlns="http://www.w3.org/2000/svg" width="16" height="16" version="1.1">
 <path fill="#ececec" fill-rule="evenodd" d="M4 8C1.79086 8 0 6.20915 0 4C0 1.79086 1.79086 0 4 0C6.20915 0 8 1.79086 8 4C8 1.79086 9.79084 0 12 0C14.2092 0 16 1.79086 16 4C16 6.20915 14.2092 8 12 8C14.2092 8 16 9.79084 16 12C16 14.2092 14.2092 16 12 16C9.79084 16 8 14.2092 8 12C8 14.2092 6.20915 16 4 16C1.79086 16 0 14.2092 0 12C0 9.79084 1.79086 8 4 8ZM11.1428 8C11.1428 9.73571 9.73571 11.1428 8 11.1428C6.26429 11.1428 4.85709 9.73571 4.85709 8C4.85709 6.26429 6.26429 4.85714 8 4.85714C9.73571 4.85714 11.1428 6.26429 11.1428 8Z" clip-rule="evenodd"/>
</svg>
