<svg xmlns="http://www.w3.org/2000/svg" width="16" height="16" version="1.1">
 <path fill="#ececec" d="M 8,0 C 3.58172,0 0,3.58172 0,8 c 0,4.41828 3.58172,8 8,8 4.41828,0 8,-3.58172 8,-8 C 16,3.58172 12.41828,0 8,0 Z m 0,1.23077 c 3.73855,0 6.76923,3.03068 6.76923,6.76923 0,3.73855 -3.03068,6.76923 -6.76923,6.76923 C 4.26145,14.76923 1.23077,11.73855 1.23077,8 1.23077,4.26145 4.26145,1.23077 8,1.23077 Z M 7.38462,3.69231 V 7.38462 H 4.61538 V 8.61538 H 7.38462 8.61538 V 7.38462 3.69231 Z"/>
</svg>
