<svg xmlns="http://www.w3.org/2000/svg" width="16" height="16" version="1.1">
 <path d="M 5.5,0 C 4.95833,9.9905785e-6 4.51609,0.06359999 4.14062,0.23046999 3.76518,0.39733999 3.47246,0.68790999 3.30273,1.02734 2.9633,1.70622 3.00005,2.50001 3,3.5 v 9 c 0,1 -0.0367,1.79572 0.30273,2.47461 0.16973,0.33944 0.46244,0.62805 0.83789,0.79492 C 4.51608,15.9364 4.95833,16 5.5,16 h 5 c 0.54164,4e-5 0.98392,-0.0636 1.35938,-0.23047 0.37545,-0.16686 0.66815,-0.45548 0.83789,-0.79492 C 13.0367,14.29573 12.99995,13.50001 13,12.5 v -9 C 13,2.5 13.0367,1.70623 12.69727,1.02734 12.52754,0.68789999 12.23483,0.39733999 11.85938,0.23046999 11.48392,0.06359999 11.04167,0 10.5,0 Z M 4.07031,2 h 7.85938 c 0.0509,0.37338 0.0703,0.8701 0.0703,1.5 v 9 c -3e-5,0.62989 -0.0194,1.12605 -0.0703,1.5 H 4.07031 c -0.0509,-0.37395 -0.0703,-0.8701 -0.0703,-1.5 v -9 c 3e-5,-0.6299 0.0194,-1.12663 0.0703,-1.5 z" style="solid-color:#ececec;fill:#ececec"/>
</svg>
