<svg xmlns="http://www.w3.org/2000/svg" width="16" height="16" version="1.1">
 <path fill="#ececec" d="M 8,0 C 3.588802,0 0,3.5888023 0,8 c 0,4.411197 3.588802,8 8,8 4.411197,0 8,-3.588803 8,-8 C 16,3.5888023 12.411197,0 8,0 Z M 7.2922794,1.3694853 C 7.0542942,5.1552118 5.0784964,8.5781096 1.9246324,10.683823 1.5546978,9.8483946 1.2371323,8.9745444 1.2371323,8 c 0,-3.4927809 2.6620738,-6.2640285 6.0551471,-6.6305147 z m 1.4154412,0 C 12.100793,1.7359715 14.762868,4.5072191 14.762868,8 c 0,0.9745445 -0.317565,1.8483947 -0.6875,2.683823 C 10.921504,8.5781096 8.9457059,5.1552119 8.7077206,1.3694853 Z M 8,4.4834559 c 0.5973023,1.9737024 1.6349672,3.7700668 3.045956,5.273897 -2.0080586,-0.4697389 -4.0838533,-0.4697389 -6.0919119,0 C 6.3650328,8.2535227 7.4026978,6.4571583 8,4.4834559 Z m 0,6.1121321 c 1.8406674,0 3.660408,0.484043 5.354779,1.319853 C 12.125217,13.590182 10.241022,14.762868 8,14.762868 c -2.2410228,0 -4.1252175,-1.172686 -5.3547794,-2.847427 C 4.339593,11.079631 6.1593325,10.595588 8,10.595588 Z"/>
</svg>
