<svg xmlns="http://www.w3.org/2000/svg" width="16" height="16" version="1.1">
 <path fill="#ececec" d="M 3.9941406 0 C 2.7359406 0.01546667 1.81525 -0.0329051 1.0625 0.41015625 C 0.68613 0.63166025 0.38926937 1.0067054 0.22460938 1.4746094 C 0.059939375 1.9425241 1.8503717e-17 2.4977681 0 3.1992188 L 0 9.5996094 C 0 10.30106 0.059899375 10.856315 0.22460938 11.324219 C 0.38927937 11.792123 0.68613 12.167178 1.0625 12.388672 C 1.81525 12.83168 2.7359506 12.78524 3.9941406 12.800781 L 3.9980469 12.800781 L 6 12.800781 L 6 13.333984 C 6 14.933984 5.5 14.933594 4.5 14.933594 L 4 14.933594 L 4 16 L 12 16 L 12 14.933594 L 11.5 14.933594 C 10.5 14.933594 10 14.933984 10 13.333984 L 10 12.800781 L 12.001953 12.800781 L 12.005859 12.800781 C 13.264049 12.785311 14.18475 12.831733 14.9375 12.388672 C 15.31387 12.167168 15.610721 11.792123 15.775391 11.324219 C 15.939881 10.856304 16 10.30106 16 9.5996094 L 16 3.1992188 C 16 2.497768 15.940101 1.9425241 15.775391 1.4746094 C 15.610731 1.0067054 15.31387 0.63166025 14.9375 0.41015625 C 14.18475 -0.0328731 13.264059 0.015488 12.005859 0 L 12.001953 0 L 3.9980469 0 L 3.9941406 0 z M 4 1.0664062 L 12 1.0664062 C 13.25852 1.0820862 14.087175 1.1303221 14.453125 1.3457031 C 14.636535 1.4536497 14.742284 1.5723614 14.839844 1.8496094 C 14.937274 2.1268468 15 2.5673361 15 3.1992188 L 15 9.5996094 C 15 10.231492 14.937404 10.671992 14.839844 10.949219 C 14.742244 11.226456 14.636535 11.347142 14.453125 11.455078 C 14.087175 11.670449 13.25852 11.716732 12 11.732422 L 10 11.732422 L 6 11.732422 L 4.0058594 11.732422 L 4 11.732422 C 2.74147 11.716742 1.9108819 11.67046 1.5449219 11.455078 C 1.3615119 11.347142 1.2577162 11.226456 1.1601562 10.949219 C 1.0625862 10.671992 1 10.231492 1 9.5996094 L 1 3.1992188 C 1 2.5673361 1.0625963 2.1268361 1.1601562 1.8496094 C 1.2577562 1.5723721 1.3615119 1.4536391 1.5449219 1.3457031 C 1.9108819 1.1303324 2.74147 1.0820969 4 1.0664062 z"/>
</svg>
