<svg xmlns="http://www.w3.org/2000/svg" width="16" height="16" version="1.1">
 <path fill="#ececec" d="M 4.174,2.609 C 3.523,2.609 2.291,3.329 0.109,6.757 0.001,6.928 -0.026,7.137 0.034,7.33 0.012,7.376 0,7.427 0,7.478 v 5.218 c 0,0.372 0.3,0.695 0.681,0.695 H 6.258 C 6.647,13.391 7,13.159 7.167,12.808 7.171,12.8 7.175,12.792 7.178,12.783 L 7.834,11.069 C 7.878,10.979 7.935,10.957 8,10.957 c 0.065,0 0.122,0.022 0.166,0.112 l 0.656,1.714 c 0.003,0.009 0.007,0.017 0.011,0.025 0.167,0.351 0.52,0.583 0.909,0.583 h 5.577 C 15.7,13.391 16,13.068 16,12.696 V 7.478 c 0,-0.05 -0.011,-0.1 -0.033,-0.145 0.056,-0.178 0.037,-0.372 -0.053,-0.535 -1.042,-1.911 -2.537,-4.189 -3.74,-4.189 -1.739,0 -1.739,1.833 -1.739,2.434 v 0.029 c 0.023,0.547 0.413,1.363 1.391,1.363 0.173,0 0.339,-0.052 0.483,-0.147 0.069,0.28 0.134,0.565 0.195,0.842 H 9.332 C 9.046,7.13 8.849,7.254 8.675,7.341 8.503,7.428 8.351,7.478 8.331,7.478 H 7.667 C 7.65,7.478 7.497,7.428 7.325,7.341 7.151,7.254 6.954,7.13 6.669,7.13 H 3.521 C 3.632,6.804 3.749,6.469 3.87,6.147 4.022,6.326 4.231,6.435 4.522,6.435 5.5,6.435 5.89,5.619 5.913,5.072 V 5.043 c 0,-0.601 0,-2.434 -1.739,-2.434 z m 0,0.695 c 1.043,0 1.043,1.072 1.043,1.739 0,0 -0.028,0.696 -0.695,0.696 C 4.174,5.739 4.174,4.55 4.174,4 3.827,4 2.783,7.13 2.783,7.13 H 0.696 c 0,0 2.434,-3.826 3.478,-3.826 z m 8,0 c 1.043,0 3.13,3.826 3.13,3.826 h -2.087 c 0,0 -0.667,-3.13 -1.043,-3.13 0,0.55 0.028,1.739 -0.348,1.739 -0.667,0 -0.696,-0.696 -0.696,-0.696 0,-0.667 0,-1.739 1.044,-1.739 z M 0.696,7.826 h 5.973 c 0.019,0 0.169,0.051 0.343,0.137 0.174,0.087 0.371,0.211 0.655,0.211 H 8.331 C 8.617,8.174 8.814,8.05 8.988,7.963 9.16,7.877 9.312,7.826 9.331,7.826 h 5.973 v 4.87 H 9.742 c -0.114,0 -0.222,-0.067 -0.28,-0.186 L 8.806,10.795 C 8.665,10.474 8.35,10.265 8,10.261 7.65,10.265 7.335,10.474 7.194,10.795 L 6.538,12.51 C 6.48,12.629 6.372,12.696 6.258,12.696 H 0.696 Z M 9.73,8.533 c -0.443,0 -0.495,0.235 -0.427,0.44 0.344,1.19 0.435,1.976 0.758,2.683 0.068,0.131 0.185,0.348 0.362,0.348 h 3.826 c 0.181,0 0.358,-0.172 0.358,-0.348 V 8.87 c 0,-0.187 -0.159,-0.337 -0.352,-0.337 z"/>
 <path fill="#ececec" opacity="0.6" d="m 1.731,8.533 c -0.193,0 -0.35,0.15 -0.35,0.337 v 2.786 c 0,0.176 0.177,0.348 0.358,0.348 h 3.826 c 0.177,0 0.292,-0.217 0.36,-0.348 C 6.249,10.949 6.341,10.163 6.685,8.973 6.751,8.768 6.7,8.533 6.257,8.533 Z"/>
</svg>
