<svg xmlns="http://www.w3.org/2000/svg" width="16" height="16" version="1.1">
 <path fill="#ececec" d="m 6.9999987,3.5e-5 a 7,7 0 0 0 -6.99999995,7 7,7 0 0 0 6.99999995,7 7,7 0 0 0 7.0000003,-7 7,7 0 0 0 -7.0000003,-7 z m 0,0.875 a 6.125,6.125 0 0 1 6.1250003,6.125 6.125,6.125 0 0 1 -6.1250003,6.125 6.125,6.125 0 0 1 -6.12499995,-6.125 6.125,6.125 0 0 1 6.12499995,-6.125 z"/>
 <path fill="#ececec" d="M 9 2 C 5.134005 2 2 5.134005 2 9 C 2 12.865995 5.134005 16 9 16 C 12.865995 16 16 12.865995 16 9 C 16 5.134005 12.865995 2 9 2 z M 8.9609375 7.6875 A 1.3125 1.3125 0 0 1 9 7.6875 A 1.3125 1.3125 0 0 1 10.3125 9 A 1.3125 1.3125 0 0 1 9 10.3125 A 1.3125 1.3125 0 0 1 7.6875 9 A 1.3125 1.3125 0 0 1 8.9609375 7.6875 z"/>
</svg>
