<svg xmlns="http://www.w3.org/2000/svg" width="16" height="16" version="1.1">
 <path fill="#ececec" d="M 8 0 A 8 8 0 0 0 0 8 A 8 8 0 0 0 8 16 A 8 8 0 0 0 9.4921875 15.855469 L 9.4921875 14.830078 A 7 7 0 0 1 8 15 A 7 7 0 0 1 1 8 A 7 7 0 0 1 8 1 A 7 7 0 0 1 15 8 A 7 7 0 0 1 14.355469 10.916016 L 15.449219 10.916016 A 8 8 0 0 0 16 8 A 8 8 0 0 0 8 0 z M 8 5 A 3 3 0 0 0 5 8 A 3 3 0 0 0 8 11 A 3 3 0 0 0 11 8 A 3 3 0 0 0 8 5 z M 8 6.5 A 1.5 1.5 0 0 1 9.5 8 A 1.5 1.5 0 0 1 8 9.5 A 1.5 1.5 0 0 1 6.5 8 A 1.5 1.5 0 0 1 8 6.5 z"/>
 <path fill="#ececec" d="m 12.500001,11.000032 v 2 H 10.5 v 1 h 2.000001 v 2 h 1 v -2 h 2 v -1 h -2 v -2 z"/>
</svg>
