<svg xmlns="http://www.w3.org/2000/svg" width="16" height="16" version="1.1">
 <path fill="#ececec" opacity="0.6" fill-rule="evenodd" d="m 4.883,1.57 c -0.326,0 -0.59,0.258 -0.59,0.577 0,2.617 -0.494,4.522 -1.001,5.287 C 3.004,7.867 2.785,8.096 2.439,8.258 2.094,8.421 1.483,8.521 0.59,8.521 0.264,8.521 0,8.78 0,9.098 v 4.722 c 0,0.318 0.264,0.577 0.59,0.577 3.216,0 6.134,-1.393 7.734,-3.805 1.571,-2.369 1.983,-5.242 1.983,-8.445 0,-0.319 -0.264,-0.577 -0.59,-0.577 z"/>
 <path fill="#ececec" d="M 4.834 1.603 C 4.63 1.603 4.441 1.709 4.332 1.882 C 4.224 2.055 4.213 2.271 4.302 2.455 L 9.941 14.096 C 10.04 14.3 10.247 14.43 10.474 14.43 L 15.408 14.43 C 15.612 14.43 15.801 14.325 15.91 14.152 C 16.018 13.979 16.03 13.763 15.941 13.579 L 10.302 1.937 C 10.203 1.733 9.996 1.603 9.769 1.603 L 4.834 1.603 Z"/>
</svg>
