<svg xmlns="http://www.w3.org/2000/svg" width="16" height="16" version="1.1">
 <path fill="#ececec" d="M 3.9960938 1 C 2.7374643 1.015 1.8178298 0.96976562 1.0644531 1.3847656 A 1.8809406 1.88 0 0 0 0.22460938 2.3828125 C 0.059526825 2.8208125 1.8503717e-17 3.343 0 4 L 0 10 C 0 10.658 0.059526825 11.179188 0.22460938 11.617188 C 0.38969192 12.056188 0.68726453 12.407234 1.0644531 12.615234 C 1.8178298 13.031234 2.7374644 12.985 3.9960938 13 L 4.203125 13 L 7.0039062 15 L 9.8046875 13 L 12.003906 13 C 13.262536 12.985 14.185124 13.030234 14.9375 12.615234 A 1.8809406 1.88 0 0 0 15.775391 11.617188 C 15.939473 11.179187 16 10.657 16 10 L 16 4 C 16 3.342 15.939473 2.8208125 15.775391 2.3828125 A 1.8809406 1.88 0 0 0 14.9375 1.3847656 C 14.184124 0.96876562 13.262536 1.015 12.003906 1 L 3.9960938 1 z M 4.0019531 2 L 4.0058594 2 L 12.009766 2 C 13.269395 2.015 14.098661 2.0597188 14.464844 2.2617188 C 14.647936 2.3617188 14.754514 2.474375 14.851562 2.734375 C 14.948612 2.994375 15.011719 3.408 15.011719 4 L 15.011719 10 C 15.011719 10.592 14.948613 11.005625 14.851562 11.265625 C 14.753512 11.525625 14.648936 11.637281 14.464844 11.738281 C 14.098661 11.940281 13.269395 11.985 12.009766 12 L 10.005859 12 L 4.0019531 12 C 2.7433237 11.985 1.911105 11.940281 1.5449219 11.738281 C 1.3618303 11.638281 1.2582053 11.525625 1.1601562 11.265625 C 1.0621072 11.005625 1 10.592 1 10 L 1 4 C 1 3.408 1.0631072 2.994375 1.1601562 2.734375 C 1.2582054 2.474375 1.3618303 2.3627188 1.5449219 2.2617188 C 1.911105 2.0597188 2.7433237 2.015 4.0019531 2 z"/>
 <path fill="#ececec" d="M 4.4086504,3.9738232 2.9254261,7.4838099 3.8440022,8.1389364 4.5457207,6.4771521 6.5690432,9.9738233 7.8558681,7.2601082 8.5494033,8.4664997 8.976981,7.9178978 c 0,0 0.1551564,-0.1995722 0.3211948,-0.3941412 0.079385,-0.093025 0.1609405,-0.1807919 0.2189034,-0.2396805 0.3432256,4.445e-4 3.4063008,0.00799 3.4063008,0.00799 l 0.002,-1.3635153 c 0,0 -3.4139202,-0.00799 -3.547463,-0.00799 -0.2471021,0 -0.2767081,0.087451 -0.3355155,0.1331554 -0.058761,0.045706 -0.106962,0.0899 -0.1554368,0.1384824 C 8.8182422,6.2610724 8.7504299,6.3409253 8.682382,6.4185635 L 7.774035,4.8393358 6.4831185,7.558377 Z"/>
</svg>
