<svg xmlns="http://www.w3.org/2000/svg" width="16" height="16" version="1.1">
 <path fill="#ececec" d="M 7.7355892,5.2813791 7.6154389,6.6929829 A 4.2825184,4.2108868 0 0 0 6.3638456,7.404769 L 5.0590121,6.8006515 3.6963926,9.1214173 4.8810758,9.9304052 A 4.2825184,4.2108868 0 0 0 4.81567,10.64069 4.2825184,4.2108868 0 0 0 4.878024,11.353968 l -1.1816527,0.805994 1.3626195,2.320766 1.3017921,-0.602617 a 4.2825184,4.2108868 0 0 0 1.2546347,0.707292 L 7.7355674,16 h 2.7252386 l 0.12014,-1.411604 A 4.2825184,4.2108868 0 0 0 11.83255,13.87661 l 1.304823,0.604118 1.362619,-2.320766 -1.184683,-0.808988 a 4.2825184,4.2108868 0 0 0 0.06541,-0.710284 4.2825184,4.2108868 0 0 0 -0.06235,-0.7132785 L 14.500003,9.1214173 13.137384,6.8006515 11.835591,7.4032684 A 4.2825184,4.2108868 0 0 0 10.580957,6.6959766 L 10.460828,5.2813791 Z M 9.0982087,9.1094585 A 1.5572794,1.5312315 0 0 1 10.655487,10.64069 1.5572794,1.5312315 0 0 1 9.0982087,12.171921 1.5572794,1.5312315 0 0 1 7.5409308,10.64069 1.5572794,1.5312315 0 0 1 9.0982087,9.1094585 Z"/>
 <path fill="#ececec" d="M 7.1135043,5.5698762 6.7452265,4.8009652 A 2.569511,2.526532 0 0 0 7.1784086,4.0619184 L 8.0407397,3.9909611 8.040707,2.3831026 7.1782996,2.3122525 A 2.569511,2.526532 0 0 0 6.9955778,1.9238847 2.569511,2.526532 0 0 0 6.7455753,1.5716387 L 7.1137006,0.80428937 5.6975792,3.27413e-4 5.2050304,0.69747831 a 2.569511,2.526532 0 0 0 -0.8677161,0.002144 L 3.8433157,4.950625e-7 2.4272488,0.80389707 2.7955158,1.5728145 A 2.569511,2.526532 0 0 0 2.3623336,2.3118677 l -0.862331,0.070957 4.36e-5,1.6078499 0.8624073,0.07085 A 2.569511,2.526532 0 0 0 2.5451862,4.4498928 2.569511,2.526532 0 0 0 2.7951887,4.8021389 L 2.4270635,5.5694881 3.8431848,6.3734512 4.3357336,5.6762992 a 2.569511,2.526532 0 0 0 0.8677161,-0.00214 L 5.6974484,6.3737824 7.1135262,5.5698858 Z M 5.2375152,3.9827078 A 0.93436764,0.91873892 0 0 1 3.9611441,3.6464207 0.93436764,0.91873892 0 0 1 4.3031398,2.3913988 0.93436764,0.91873892 0 0 1 5.5795109,2.7276848 0.93436764,0.91873892 0 0 1 5.2375152,3.9827078 Z"/>
</svg>
