<svg xmlns="http://www.w3.org/2000/svg" width="16" height="16" version="1.1">
 <path fill="#ececec"  d="M 2.6308594 0 C 2.6308594 0 1.9952948 -0.0074130428 1.34375 0.31835938 C 0.69220517 0.64413179 -2.9605947e-16 1.4033631 0 2.6308594 L 0 8.109375 L 7.890625 16 L 16 7.890625 L 8.109375 0 L 2.6308594 0 z M 2.6308594 1.0527344 L 7.6738281 1.0527344 L 14.511719 7.890625 L 7.890625 14.511719 L 1.0527344 7.6738281 L 1.0527344 2.6308594 C 1.0527344 1.7540764 1.4119052 1.460063 1.8125 1.2597656 C 2.2130948 1.0594682 2.6308594 1.0527344 2.6308594 1.0527344 z M 3.6816406 2.1035156 C 2.8162502 2.1035156 2.1035156 2.8162501 2.1035156 3.6816406 C 2.1035156 4.5470311 2.8162501 5.2597656 3.6816406 5.2597656 C 4.5470311 5.2597656 5.2597656 4.5470311 5.2597656 3.6816406 C 5.2597656 2.8162502 4.5470311 2.1035156 3.6816406 2.1035156 z M 3.6816406 3.15625 C 3.9784016 3.15625 4.2089844 3.3848797 4.2089844 3.6816406 C 4.2089844 3.9784016 3.9784015 4.2089844 3.6816406 4.2089844 C 3.3848797 4.2089844 3.15625 3.9784015 3.15625 3.6816406 C 3.15625 3.3848797 3.3848797 3.15625 3.6816406 3.15625 z"/>
</svg>