<svg xmlns="http://www.w3.org/2000/svg" width="16" height="16" version="1.1">
 <path fill="#ececec"  d="M 6.1567617,0.00740863 C 5.5194491,0.03198241 4.8738833,0.11720999 4.2251303,0.26575827 3.4412413,0.4452492 3.1393159,0.58794949 2.885293,0.89704809 2.6123425,1.2291785 2.5323492,1.5010644 2.2056087,3.2055271 1.9001931,4.7987478 1.9116482,4.7736655 1.3188943,5.2014863 1.014354,5.4212887 0.68349913,5.9174995 0.57280411,6.3244738 0.46004274,6.7390449 0.48074546,7.4543273 0.61772578,7.8912393 0.70765845,8.1780882 0.83632667,8.3779213 1.1372546,8.6996236 1.4849798,9.0713526 1.6013321,9.1496484 2.0122503,9.2829938 2.8371387,9.5506747 3.6268964,9.3435587 4.2290365,8.7037905 4.6655503,8.2399982 4.8419005,7.766193 4.8423149,7.051603 4.8426389,6.4954077 4.7476493,6.1124933 4.4946602,5.724436 5.4725231,6.9380011 5.8793536,8.3387722 5.7212169,9.9851217 5.5758526,11.498501 5.2076875,12.412029 4.3638015,13.362418 l -0.3339827,0.377107 0.2382801,0.04375 c 0.1314964,0.02356 0.26656,0.05219 0.3007799,0.06459 0.1485123,0.05382 1.3273999,0.0268 1.537102,-0.03542 0.1267778,-0.03762 0.2912729,-0.148652 0.3652325,-0.247933 0.1250794,-0.167921 0.1313794,-0.229991 0.09375,-0.866721 -0.036685,-0.620639 -0.028169,-0.701767 0.085937,-0.872971 0.1102794,-0.165458 0.1143425,-0.198911 0.033202,-0.270852 C 6.550629,11.435617 6.5712014,11.20325 6.7231642,11.101857 6.8294137,11.030967 6.8453605,10.970403 6.8149607,10.78517 6.7943907,10.659821 6.761782,10.452237 6.740742,10.322641 6.6893783,10.006146 6.8136297,9.8688927 7.3188643,9.6892677 7.5397902,9.6107177 7.7362991,9.5063437 7.754409,9.4559194 7.7917621,9.3519244 7.7410495,9.2574295 7.0825385,8.2162598 6.561176,7.3919369 6.3426609,6.9708131 6.3442608,6.7890865 6.3448839,6.7236477 6.4277643,6.5374484 6.5298068,6.3765604 6.7655737,6.0049615 6.7667298,5.7861782 6.5317599,5.0368925 6.0394779,3.467079 5.1206332,2.1225952 4.1802087,1.5950088 L 3.8657571,1.4179143 c 0.00675,-0.1448309 0.00505,-0.59949931 0.013672,-0.60837171 0.1102109,-0.1133651 0.8621481,-0.2193463 1.8398351,-0.2562662 1.9585696,-0.07396 3.6714214,0.3829765 5.3105208,1.41258911 1.726759,1.0846761 2.834435,2.5969945 3.312485,4.5273689 0.230131,0.9292709 0.242651,2.2721057 0.0293,3.1210303 -0.2666,1.0607973 -0.755204,2.0062433 -1.470696,2.8418463 -0.800307,0.934654 -2.504946,2.088904 -3.7558419,2.54391 -1.5435009,0.56144 -3.4724079,0.667504 -5.1152128,0.283352 -0.2322516,-0.05431 -0.5833952,-0.134923 -0.7812462,-0.181262 -0.3493902,-0.08183 -0.7128873,-0.04789 -0.7128873,0.06667 0,0.07183 1.1786162,0.464632 1.8183506,0.606288 0.267983,0.05934 0.7219594,0.132439 1.0078077,0.16251 2.9876235,0.314317 5.7622469,-0.566233 7.7655879,-2.464739 2.370752,-2.246691 3.027712,-5.5076002 1.685536,-8.3588592 C 14.196657,3.8047138 12.839585,2.3105838 11.447753,1.4116639 9.8980707,0.41079551 8.0686998,-0.06631269 6.1567617,0.00740863 Z"/>
</svg>
