<svg xmlns="http://www.w3.org/2000/svg" width="16" height="16" version="1.1">
 <path fill="#ececec" d="M 3.99414,1 C 2.73594,1.0145 1.81525,0.9694 1.0625,1.38477 0.68613,1.59243 0.38927,1.94415 0.22461,2.38281 0.05994,2.82148 0,3.34239 0,4 v 8 c 0,0.65761 0.0599,1.17853 0.22461,1.61719 0.16467,0.43866 0.46152,0.79039 0.83789,0.99804 0.75275,0.41532 1.67345,0.3702 2.93164,0.38477 h 0.004 8.0039 0.004 c 1.25819,-0.0145 2.17889,0.0306 2.93164,-0.38477 0.37637,-0.20766 0.67322,-0.55938 0.83789,-0.99804 C 15.94006,13.17852 16,12.65761 16,12 V 4 C 16,3.34239 15.9401,2.82148 15.77539,2.38281 15.61073,1.94415 15.31387,1.59243 14.9375,1.38477 14.18475,0.96943 13.26406,1.01452 12.00586,1 h -0.004 -8.0039 z m 0.006,1 h 8 c 1.25852,0.0147 2.08717,0.0598 2.45312,0.26172 0.18341,0.1012 0.28916,0.21274 0.38672,0.47266 C 14.93741,2.99429 15,3.40761 15,4 v 8 c 0,0.59239 -0.0626,1.00572 -0.16016,1.26562 -0.0976,0.25991 -0.20331,0.37147 -0.38672,0.47266 C 14.08717,13.94019 13.25852,13.98529 12,14 H 4.00586 4 C 2.74147,13.9853 1.91088,13.9402 1.54492,13.73828 1.36151,13.63709 1.25772,13.52553 1.16016,13.26562 1.06259,13.00572 1,12.59239 1,12 V 4 C 1,3.40761 1.0626,2.99428 1.16016,2.73438 1.25776,2.47447 1.36151,2.36291 1.54492,2.26172 1.91088,2.05981 2.74147,2.01471 4,2 Z"/>
 <path fill="#ececec" d="m 3.1583544,3.6210738 a 0.50005,0.50005 0 0 0 -0.27344,0.9043 l 1.4668,1.09961 -1.4668,1.09961 a 0.50078015,0.50078015 0 1 0 0.60156,0.80078 l 2,-1.5 a 0.50005,0.50005 0 0 0 0,-0.80078 l -2,-1.5 a 0.50005,0.50005 0 0 0 -0.32812,-0.10352 z"/>
 <path fill="#ececec" d="M 6.5637877,6.626 H 8.8222123 C 9.0276287,6.626 9.193,6.7913713 9.193,6.9967877 V 7.2552123 C 9.193,7.4606287 9.0276287,7.626 8.8222123,7.626 H 6.5637877 C 6.3583713,7.626 6.193,7.4606287 6.193,7.2552123 V 6.9967877 C 6.193,6.7913713 6.3583713,6.626 6.5637877,6.626 Z"/>
</svg>
