<svg xmlns="http://www.w3.org/2000/svg" width="16" height="16" version="1.1">
   <rect fill="#ececec" width="5.333" height="5.333" x="0" y=".05" transform="matrix(1,0,0,1,0,0)"/>
   <rect fill="#ececec" width="5.333" height="5.333" x="0" y="5.38" transform="matrix(1,0,0,1,0,0)"/>
   <rect fill="#ececec" width="5.333" height="5.333" x="5.33" y="5.38" transform="matrix(1,0,0,1,0,0)"/>
   <rect fill="#ececec" width="5.333" height="5.333" x="10.67" y="5.38" transform="matrix(1,0,0,1,0,0)"/>
   <rect fill="#ececec" width="5.333" height="5.333" x="0" y="10.72" transform="matrix(1,0,0,1,0,0)"/>
   <rect fill="#ececec" width="5.333" height="5.333" x="5.33" y="10.72" transform="matrix(1,0,0,1,0,0)"/>
   <rect fill="#ececec" width="5.333" height="5.333" x="10.67" y="10.72" transform="matrix(1,0,0,1,0,0)"/>
</svg>
