<svg xmlns="http://www.w3.org/2000/svg" width="16" height="16" version="1.1">
 <path id="Tinder Logotype" fill="#ececec" d="M 8.4198372,3.1633271e-5 C 8.5595599,0.1078917 8.6807955,0.24057852 8.8143533,0.35672679 10.02051,1.505588 11.125982,2.774715 12.015701,4.191092 c 0.860953,1.3707502 1.522612,2.8866573 1.816425,4.4876036 0.162309,0.8771938 0.215753,1.7771824 0.121214,2.6647644 -0.04313,0.371228 -0.106829,0.74241 -0.223951,1.09702 -0.164383,0.514285 -0.380135,1.014059 -0.676023,1.466148 -0.254789,0.389863 -0.573283,0.738244 -0.941088,1.020277 -0.404792,0.308972 -0.86712,0.535031 -1.347937,0.690569 -0.597962,0.192862 -1.2246704,0.288233 -1.849298,0.340081 -0.7459081,0.05597 -1.4959037,0.06634 -2.2397118,-0.02914 -0.8424616,-0.10578 -1.6787544,-0.331794 -2.42875,-0.740326 -0.694515,-0.377435 -1.304784,-0.93109 -1.697249,-1.6279 C 2.0952295,12.763871 1.9452281,11.820308 2.0171445,10.909942 2.0911308,9.945639 2.3952247,9.0103748 2.7979607,8.1373326 3.1472677,7.3866379 3.5746671,6.6753328 4.0493006,5.9992848 4.4540916,5.4269301 4.8897072,4.8773924 5.3664334,4.3630967 c 0.00825,-0.00606 0.024749,-0.020815 0.034874,-0.02687 -0.00825,0.4334196 0.032999,0.8689056 0.1561475,1.2857261 0.125323,0.4251201 0.3369697,0.8253529 0.6184889,1.1675267 0.0165,0.020815 0.028874,0.049767 0.059587,0.05393 C 6.8457998,6.3809657 7.4231931,5.862522 7.8731896,5.2383263 8.3396221,4.5933685 8.6519322,3.8385258 8.7711278,3.0484261 8.9293378,2.0260677 8.7936274,0.96222297 8.4197584,1.3532705e-6 Z"/>
</svg>
