<svg xmlns="http://www.w3.org/2000/svg" width="16" height="16" version="1.1">
 <path fill="#ececec" d="m 2,0.00150015 c 0,0 -2,-0.0034 -2,1.99999995 V 14.0015 c 0,1.996643 2,2 2,2 h 12 c 0.0948,-0.0034 2,-0.0034 2,-2 V 2.0015001 c 0,0 0,-1.99999995 -2,-1.99999995 z M 4.90625,3.0015001 h 6.1875 c 1.05606,0 1.90625,0.85019 1.90625,1.90625 v 0.1875 c 0,1.05606 -0.85019,1.90625 -1.90625,1.90625 H 4.90625 C 3.85019,7.0015001 3,6.1513101 3,5.0952501 v -0.1875 c 0,-1.05606 0.85019,-1.90625 1.90625,-1.90625 z m 0.0937,1 c -0.55228,0 -1,0.447715 -1,1 0,0.552285 0.44772,1 1,1 0.55228,0 1,-0.447715 1,-1 0,-0.552285 -0.44772,-1 -1,-1 z m -0.0566,5 h 6.11328 c 1.07668,0 1.94336,0.86668 1.94336,1.9433599 v 0.11328 c 0,1.07668 -0.86668,1.94336 -1.94336,1.94336 H 4.94335 c -1.07668,0 -1.94336,-0.86668 -1.94336,-1.94336 V 10.94486 C 3,9.8681801 3.86668,9.0015001 4.94335,9.0015001 Z M 10.99999,10.0015 c -0.55228,0 -1,0.447715 -1,1 0,0.552285 0.44772,1 1,1 0.55228,0 1,-0.447715 1,-1 0,-0.552285 -0.44772,-1 -1,-1 z"/>
</svg>
