<svg xmlns="http://www.w3.org/2000/svg" width="16" height="16" version="1.1">
 <path fill="#ececec" opacity="0.2" d="m 8,-1.2e-7 c 0,0 -0.7994875,0 -0.7994875,0.79948752 C 7.2005125,1.5999999 6.4,1.5999999 6.4,1.5999999 c 0,0 -0.8005125,0.00103 -0.8005125,-0.8005125 V 11.999488 H 10.400513 V 0.7994874 C 10.400513,1.5999999 9.6,1.5999999 9.6,1.5999999 c 0,0 -0.8005125,0 -0.8005125,-0.8005125 C 8.7994875,-1.2e-7 8,-1.2e-7 8,-1.2e-7 Z"/>
 <path fill="#ececec" opacity="0.5" d="m 6.4,3.1999999 c 0,0 -0.8005125,-0.00102 -0.8005125,0.7994875 V 8.7994875 H 10.400513 V 3.9994874 C 10.400513,3.1999999 9.6,3.1999999 9.6,3.1999999 c 0,0 -0.8005125,0 -0.8005125,0.7994875 C 8.7994875,4.8 8,4.8 8,4.8 8,4.8 7.2005125,4.8 7.2005125,3.9994874 7.2005125,3.1999999 6.4,3.1999999 6.4,3.1999999 Z"/>
 <path fill="#ececec" opacity="1.0" d="M 2.4005124,9.6 8,16 13.599488,9.6 10.400513,9.601025 V 7.1994875 C 10.400513,8 9.6,8 9.6,8 9.6,8 8.7994875,8 8.7994875,7.1994875 8.7994875,6.4 8,6.4 8,6.4 8,6.4 7.2005125,6.4 7.2005125,7.1994875 7.2005125,8 6.4,8 6.4,8 6.4,8 5.5994875,8 5.5994875,7.1994875 V 9.6 Z"/>
</svg>
