<svg xmlns="http://www.w3.org/2000/svg" width="16" height="16" version="1.1">
 <path fill="#ececec" d="m 9.8516741,1.6789246 c -1.1980114,0.36364 -2.3508298,1.98148 -1.9891804,3.81178 -3.9761275,-0.23947 -5.732082,-2.37012 -6.7879993,-3.38981 -1.07619989,1.89989 0.027414,3.74643 0.9914416,4.34414 -0.5087547,0.0282 -1.12411824,-0.1919 -1.42954436,-0.38339 -0.11606677,1.75269 1.31211086,2.9677 2.52714736,3.2826 -0.3884346,0.11571 -0.7544703,0.13143 -1.3802149,0.0403 0.532867,1.7627704 1.9644594,2.2345804 3.0308667,2.3122204 C 3.4413171,12.888115 1.792653,13.147825 -1.65e-7,13.060215 4.64794,15.903875 9.3416334,14.154365 11.626153,11.922735 c 1.918372,-1.87404 2.775983,-4.6802504 2.805659,-7.1911004 0.439086,-0.35679 1.326914,-1.11322 1.568188,-1.70521 -0.350176,0.13466 -1.0429,0.45516 -1.765759,0.48399 0.595331,-0.39025 1.277569,-1.17184 1.349027,-1.78297 -0.659174,0.3592 -1.421965,0.67011 -2.07529,0.76929 -1.231618,-1.18893 -2.43089,-1.18792 -3.6563039,-0.81598 z"/>
</svg>
