<svg xmlns="http://www.w3.org/2000/svg" width="16" height="16" version="1.1">
   <path fill="#ececec" d="M 8 0 C 4.891 0 1.5 2.906 1.5 7.111 C 1.5 11.317 4.497 16 8 16 C 11.503 16 14.5 11.317 14.5 7.111 C 14.5 2.906 11.109 0 8 0 Z M 4.241 4.913 C 4.767 4.906 5.338 5.009 5.861 5.337 C 7.38 6.291 7.423 8.242 7.423 8.242 C 7.423 8.242 5.566 8.632 4.004 7.851 C 2.443 7.071 2.401 5.337 2.401 5.337 C 2.401 5.337 3.237 4.926 4.241 4.913 Z M 11.759 4.913 C 12.763 4.926 13.599 5.337 13.599 5.337 C 13.599 5.337 13.557 7.071 11.996 7.851 C 10.434 8.632 8.577 8.242 8.577 8.242 C 8.577 8.242 8.619 6.291 10.138 5.337 C 10.661 5.009 11.233 4.906 11.759 4.913 Z"/>
</svg>
