<svg xmlns="http://www.w3.org/2000/svg" width="16" height="16" version="1.1">
 <path fill="#ececec" d="M 7.9726562 0.40820312 L 3.9863281 4.5839844 L 0.9921875 4.5839844 C 0.9921875 4.5839844 2.9605947e-16 5.6009652 0 8.0019531 C 0 10.402998 0.9921875 11.416016 0.9921875 11.416016 L 3.9863281 11.416016 L 7.9726562 15.591797 L 7.9726562 0.40820312 z M 13.261719 2.0839844 L 12.457031 2.8886719 L 12.859375 3.2910156 C 14.140954 4.5726054 14.861328 6.3106159 14.861328 8.1230469 C 14.861328 9.9354779 14.140954 11.671535 12.859375 12.953125 L 12.457031 13.355469 L 13.261719 14.162109 L 13.664062 13.759766 C 15.158909 12.264919 16 10.237073 16 8.1230469 C 16 6.0090205 15.158908 3.9811745 13.664062 2.4863281 L 13.261719 2.0839844 z M 6.8320312 3.2480469 L 6.8320312 12.751953 L 4.4726562 10.277344 L 1.6113281 10.277344 C 1.5748857 10.210267 1.5869728 10.260338 1.5351562 10.144531 C 1.3500627 9.7310346 1.1386719 9.0457673 1.1386719 8.0019531 C 1.1386719 6.9581731 1.3498351 6.2700585 1.5351562 5.8554688 C 1.5868593 5.7397982 1.5747721 5.7899493 1.6113281 5.7226562 L 4.4726562 5.7226562 L 6.8320312 3.2480469 z M 10.845703 4.5 L 10.041016 5.3046875 L 10.443359 5.7070312 C 11.084234 6.3478945 11.445313 7.2167232 11.445312 8.1230469 C 11.445312 9.0293706 11.084234 9.8981994 10.443359 10.539062 L 10.041016 10.941406 L 10.845703 11.746094 L 11.248047 11.34375 C 12.102178 10.48963 12.583984 9.330966 12.583984 8.1230469 C 12.583984 6.9151278 12.102178 5.7564635 11.248047 4.9023438 L 10.845703 4.5 z"/>
</svg>
