<svg xmlns="http://www.w3.org/2000/svg" width="16" height="16" version="1.1">
 <path fill="#ececec" d="M 7.5 0 L 7.5 2 L 8.5 2 L 8.5 0 L 7.5 0 z M 2.6972656 1.9902344 L 1.9902344 2.6972656 L 3.4042969 4.1113281 L 4.1113281 3.4042969 L 2.6972656 1.9902344 z M 13.302734 1.9902344 L 11.888672 3.4042969 L 12.595703 4.1113281 L 14.009766 2.6972656 L 13.302734 1.9902344 z M 8 3 C 5.2384965 3 3 5.23858 3 8 C 3 10.76142 5.2384965 13 8 13 C 10.761503 13 13 10.76142 13 8 C 13 5.23858 10.761503 3 8 3 z M 8 4 L 8 12 C 5.7908172 12 4 10.20914 4 8 C 4 5.79086 5.7908172 4 8 4 z M 0 7.5 L 0 8.5 L 2 8.5 L 2 7.5 L 0 7.5 z M 14 7.5 L 14 8.5 L 16 8.5 L 16 7.5 L 14 7.5 z M 3.4042969 11.888672 L 1.9902344 13.302734 L 2.6972656 14.009766 L 4.1113281 12.595703 L 3.4042969 11.888672 z M 12.595703 11.888672 L 11.888672 12.595703 L 13.302734 14.009766 L 14.009766 13.302734 L 12.595703 11.888672 z M 7.5 14 L 7.5 16 L 8.5 16 L 8.5 14 L 7.5 14 z"/>
</svg>
