<svg xmlns="http://www.w3.org/2000/svg" width="16" height="16" version="1.1">
 <path fill="#ececec" opacity="0.6" fill-rule="evenodd" d="m 11.128,14.4 c 0.325,0 0.588,-0.258 0.588,-0.576 0,-2.611 0.493,-4.513 0.999,-5.276 0.287,-0.432 0.506,-0.66 0.851,-0.823 C 13.911,7.563 14.52,7.463 15.411,7.463 15.736,7.463 16,7.205 16,6.887 V 2.176 C 16,1.858 15.736,1.6 15.411,1.6 12.202,1.6 9.29,2.99 7.693,5.397 6.125,7.761 5.714,10.628 5.714,13.824 c 0,0.318 0.264,0.576 0.589,0.576 z"/>
 <path fill="#ececec" d="M 11.143 14.4 C 11.346 14.4 11.535 14.295 11.643 14.122 C 11.751 13.95 11.763 13.734 11.674 13.55 L 6.047 1.933 C 5.948 1.729 5.741 1.6 5.514 1.6 L 0.59 1.6 C 0.387 1.6 0.198 1.705 0.09 1.877 C -0.018 2.05 -0.03 2.266 0.059 2.449 L 5.687 14.067 C 5.785 14.271 5.992 14.4 6.218 14.4 L 11.143 14.4 Z"/>
</svg>
