<svg xmlns="http://www.w3.org/2000/svg" width="16" height="16" version="1.1">
 <path fill="#ececec" d="m 12.877539,8.0000002 c -1.153774,0 -2.082624,0.9484791 -2.082624,2.1151648 v 1.008771 H 9.7536026 v 4.165249 h 6.2478724 v -4.165249 h -1.041312 v -1.008771 c 0,-1.166165 -0.92885,-2.1151648 -2.082624,-2.1151648 z m 0,1.0413121 c 0.576887,0 1.041312,0.4606765 1.041312,1.0413117 v 1.041312 h -2.082624 v -1.041312 c 0,-0.5806352 0.464425,-1.0413117 1.041312,-1.0413117 z"/>
 <path fill="#ececec" d="m 7.6709784,0.7108155 c -2.7771169,0 -5.5537652,1.0570047 -7.66950316,3.172753 l 0.76673893,0.7687799 c 3.81696073,-3.81696073 9.98856783,-3.81696073 13.80552883,0 L 15.340481,3.8835685 C 13.224744,1.7678202 10.448106,0.7108155 7.6709784,0.7108155 Z m 0,3.10563 c -1.9998399,0 -3.9990967,0.7612825 -5.5217969,2.2839723 l 0.7667389,0.7667494 c 2.630875,-2.630875 6.8792513,-2.630875 9.5101156,0 L 13.192775,6.1004178 C 11.670085,4.577728 9.6708287,3.8164455 7.6709784,3.8164455 Z m 0,3.1219058 c -1.2225629,0 -2.4444385,0.4635088 -3.3740907,1.393161 L 5.0636266,9.1002922 C 6.4275059,7.7364129 8.5662569,7.677662 10.018002,8.8887809 10.160672,8.550115 10.365571,8.2451042 10.609842,7.9776328 9.7479066,7.2986765 8.7159975,6.9383513 7.6709784,6.9383513 Z m 0,3.1442727 a 2.0826242,2.0826241 0 0 0 -2.0826242,2.082625 2.0826242,2.0826241 0 0 0 2.0826242,2.082624 2.0826242,2.0826241 0 0 0 1.0413121,-0.280665 V 10.36532 A 2.0826242,2.0826241 0 0 0 7.6709784,10.082624 Z"/>
</svg>