<svg xmlns="http://www.w3.org/2000/svg" width="16" height="16" version="1.1">
 <path   fill="#ececec" id="squircle_with_inverse_fillet" opacity=".6" d="M 2.227517,1.9879511 C 0.99353239,1.9879511 2.7559669e-8,2.9814835 2.7559669e-8,4.2154681 V 13.460728 C 2.7559669e-8,14.694713 0.99353239,15.688246 2.227517,15.688246 H 9.4223532 A 3.9121341,3.715331 0 0 1 8.6015682,13.411194 3.9121341,3.715331 0 0 1 12.513519,9.6958424 3.9121341,3.715331 0 0 1 14.800836,10.396769 V 4.2154681 c 0,-1.2339846 -0.993276,-2.227517 -2.227261,-2.227517 z"/>
 <path   fill="#ececec" id="arrow" d="m 3.3045415,15.20611 c 0,0 -2.0566029,-10.0721542 6.7120015,-13.0604692 l 0.03524,-1.4996418 c 0.0063,-0.26897536 0.299256,-0.43221509 0.531325,-0.29608429 L 15.825996,3.425374 c 0.217885,0.1278098 0.234346,0.4366655 0.03128,0.5869118 L 10.9486,7.6442074 c -0.244034,0.1805594 -0.589069,0.00212 -0.582761,-0.3013839 l 0.03016,-1.4515968 C 5.1567065,6.2588862 3.3045415,15.20611 3.3045415,15.20611 Z"/>
 <circle fill="#ececec" id="ellipse" cx="12.514" cy="13.411" r="2.288"/>
</svg>
