<svg xmlns="http://www.w3.org/2000/svg" xmlns:xlink="http://www.w3.org/1999/xlink" width="16" height="16" version="1.1">
   <path opacity="0.6" id="squircle_with_inverse_fillet" d="m 20.502767,19.9483 c -2.856803,0 -5.156934,2.300131 -5.156934,5.156934 v 21.40374 c 0,2.856805 2.300131,5.156936 5.156934,5.156936 h 16.656796 a 9.0569984,8.6013785 0 0 1 -1.900203,-5.271611 9.0569984,8.6013785 0 0 1 9.056573,-8.601427 9.0569984,8.6013785 0 0 1 5.295379,1.622718 V 25.105234 c 0,-2.856803 -2.299539,-5.156934 -5.156341,-5.156934 z"/>
   <path opacity="1.0" id="arrow" d="m 22.996191,50.549715 c 0,0 -4.76125,-23.318086 15.538983,-30.236347 l 0.08159,-3.471827 c 0.01463,-0.622706 0.692809,-1.000623 1.230073,-0.685466 l 12.137827,7.120009 c 0.504425,0.295893 0.542536,1.010926 0.07242,1.358762 l -11.364097,8.408277 c -0.564963,0.418014 -1.363755,0.0049 -1.349152,-0.697735 l 0.06983,-3.360598 C 27.284146,29.83596 22.996191,50.549715 22.996191,50.549715 Z"/>
   <circle opacity="1.0" id="ellipse" cx="44.316" cy="46.395" r="5.296"/>
</svg>
