<svg xmlns="http://www.w3.org/2000/svg" width="16" height="16" version="1.1">
 <path fill="#ececec" d="M 7.9976313,1e-7 A 6.857143,6.857143 0 0 0 5.0802205,13.060269 c -0.6146411,0.220032 -1.1421434,0.485265 -1.5401785,0.763392 -0.8,0.64 -1.1428572,1.350447 -1.1428572,1.350447 A 0.57142858,0.57142858 0 0 0 2.8547741,16 H 13.140489 a 0.57142858,0.57142858 0 0 0 0.45759,-0.825892 c 0,0 -0.342857,-0.71159 -1.142858,-1.350447 -0.397862,-0.278503 -0.925899,-0.541263 -1.540179,-0.76116 A 6.857143,6.857143 0 0 0 7.9976313,1e-7 Z m -0.055803,4.5714286 a 2.2857143,2.2857143 0 0 1 0.055803,0 A 2.2857143,2.2857143 0 0 1 10.283346,6.8571431 2.2857143,2.2857143 0 0 1 7.9976313,9.1428569 2.2857143,2.2857143 0 0 1 5.711917,6.8571431 2.2857143,2.2857143 0 0 1 7.9418283,4.5714287 Z m 0.055803,1.1428572 A 1.1428572,1.1428572 0 0 0 6.8547742,6.8571431 1.1428572,1.1428572 0 0 0 7.9976313,8.0000002 1.1428572,1.1428572 0 0 0 9.1404885,6.8571431 1.1428572,1.1428572 0 0 0 7.9976313,5.7142859 Z m 2.8437497,3.428571 a 0.57142858,0.57142858 0 0 1 0.01339,0 0.57142858,0.57142858 0 0 1 0.571428,0.571429 0.57142858,0.57142858 0 0 1 -0.571428,0.5714281 0.57142858,0.57142858 0 0 1 -0.571429,-0.5714281 0.57142858,0.57142858 0 0 1 0.558035,-0.571429 z"/>
</svg>
