<svg xmlns="http://www.w3.org/2000/svg" width="16" height="16" version="1.1">
 <path fill="#ececec" d="M 5.2776623,13.658302 H 5.9753955 L 8.304971,9.1390952 10.221406,13.658302 h 0.671741 L 14.874624,4.4977444 C 15.097816,3.9838376 15.532899,3.6752345 15.995291,3.6053613 V 3.0597755 H 12.775867 V 3.605549 c 0.427173,0.095019 0.880619,0.2551129 1.082248,0.7059392 L 10.934584,11.054885 C 10.40608,9.9309256 9.8642052,8.7026999 9.3470033,7.4770343 9.8808272,6.3428989 10.316804,5.2894682 10.971689,4.254223 11.354561,3.6451096 11.975862,3.6307982 12.296054,3.6008504 V 3.0598256 H 8.8737803 v 0.5410248 c 0.426984,0 1.3155127,0.038389 0.9193239,0.8710081 L 8.8006069,6.5586432 7.7493457,4.2373697 C 7.5856815,3.8759174 7.903603,3.635116 8.4225946,3.606428 L 8.4187546,3.0602843 H 4.5672378 V 3.6013144 C 5.026127,3.6163434 5.6731199,3.6139434 5.9119437,4.003012 6.6473463,5.3539376 7.139028,6.7572142 7.8094503,8.1346032 L 6.0745818,11.378789 3.1585863,4.6756871 C 2.8299981,3.920326 3.6101048,3.6769817 4.1169012,3.6138787 L 4.1112479,3.0602064 H 0.00470884 V 3.6012322 C 0.57172825,3.7887045 1.3031758,4.6322406 1.5073446,5.0591276 3.0413403,8.2676274 3.8137541,10.418745 5.2779663,13.658889 Z"/>
</svg>