<svg xmlns="http://www.w3.org/2000/svg" width="16" height="16" version="1.1">
 <path fill="#ececec" opacity="0.6" d="M 0,3.2 V 8 8.4 10.8 11.429 H 5.429 V 16 H 8 8.4 13.155 c 0,0 0.784,-0.054 1.2,-0.471 L 14.4,15.484 V 13.2 L 9.143,12.857 v -2 L 8.8,11.2 V 8.4 L 4,8.057 v -5.2 z"/>
 <path fill="#ececec" fill-rule="evenodd" d="M 13.905 10.857 L 11.619 13.143 L 11.619 13.143 L 14.111 15.711 C 14.199 15.659 14.283 15.601 14.355 15.529 L 15.476 14.409 C 16.003 14.006 16 13.2 16 13.156 L 16 12.8 L 13.905 10.857 Z M 8.571 13.143 L 8.571 13.143 L 8.571 10.857 L 10.857 8.571 L 10.857 8.571 L 10.857 8.571 L 10.857 10.857 L 10.857 10.857 L 13.905 10.857 L 11.619 13.143 L 11.619 13.143 L 8.571 13.143 L 8.571 13.143 Z M 6.476 8.571 L 8.571 10.857 L 10.857 8.571 L 10.857 8.571 L 8.762 6.286 L 8.762 6.286 L 5.714 6.286 L 5.714 6.286 L 5.714 4 L 1.889 0.289 C 1.801 0.341 1.717 0.399 1.645 0.471 L 0.524 1.591 C -0.003 1.994 0 2.8 0 2.845 L 0 3.2 L 3.429 6.286 L 3.429 8.571 L 3.429 8.571 L 6.476 8.571 L 6.476 8.571 L 6.476 8.571 Z"/>
</svg>
