<svg xmlns="http://www.w3.org/2000/svg" width="16" height="16" version="1.1">
 <path fill="#ececec" d="m 12.023438,3.2597649 a 0.50005,0.50005 0 0 0 -0.0059,0.00195 C 8.1763435,3.3223254 5.9918263,5.6100043 4.8632812,7.8164055 3.9247499,9.6513138 3.7097344,11.180917 3.6445312,11.740233 H 0 v 1 h 4.0664062 a 0.50005,0.50005 0 0 0 0.5,-0.460937 c 0,0 0.1624301,-2.003714 1.1875,-4.0078123 C 6.6955338,6.430522 8.3504026,4.7015204 11.285156,4.3789055 9.5509572,8.1704448 11.423828,12.449218 11.423828,12.449218 a 0.50005,0.50005 0 0 0 0.453125,0.291015 H 16 v -1 h -3.748047 c -0.18996,-0.44651 -1.864435,-4.4904445 0.193359,-7.7109368 A 0.50005,0.50005 0 0 0 12.023438,3.2597649 Z"/>
</svg>