<svg xmlns="http://www.w3.org/2000/svg" width="16" height="16" version="1.1">
 <path fill="#ececec" opacity="0.6" fill-rule="evenodd" d="m 8.222,6.667 h 6 c 0.736,0 1.334,0.597 1.334,1.333 v 0 c 0,0.736 -0.598,1.333 -1.334,1.333 h -6 C 7.486,9.333 6.889,8.736 6.889,8 v 0 c 0,-0.736 0.597,-1.333 1.333,-1.333 z m -6,5.333 h 12 c 0.736,0 1.334,0.597 1.334,1.333 v 0 c 0,0.736 -0.598,1.334 -1.334,1.334 h -12 c -0.736,0 -1.333,-0.598 -1.333,-1.334 v 0 C 0.889,12.597 1.486,12 2.222,12 Z m 0,-10.667 h 12 c 0.736,0 1.334,0.598 1.334,1.334 v 0 C 15.556,3.403 14.958,4 14.222,4 h -12 C 1.486,4 0.889,3.403 0.889,2.667 v 0 c 0,-0.736 0.597,-1.334 1.333,-1.334 z"/>
 <path fill="#ececec" fill-rule="evenodd" d="M 0.444 2.667 C 0.444 1.195 1.639 0 3.111 0 C 4.583 0 5.778 1.195 5.778 2.667 C 5.778 4.138 4.583 5.333 3.111 5.333 C 1.639 5.333 0.444 4.138 0.444 2.667 L 0.444 2.667 Z M 0.444 13.333 C 0.444 11.862 1.639 10.667 3.111 10.667 C 4.583 10.667 5.778 11.862 5.778 13.333 C 5.778 14.805 4.583 16 3.111 16 C 1.639 16 0.444 14.805 0.444 13.333 L 0.444 13.333 Z M 4.444 8 C 4.444 6.528 5.639 5.333 7.111 5.333 C 8.583 5.333 9.778 6.528 9.778 8 C 9.778 9.472 8.583 10.667 7.111 10.667 C 5.639 10.667 4.444 9.472 4.444 8 Z"/>
</svg>
