<svg xmlns="http://www.w3.org/2000/svg" width="16" height="16" version="1.1">
 <path fill="#ececec" d="m 9.1071399,2.2776148 a 0.25716852,0.25716852 0 0 0 -0.2321415,0.24391 v 0.0282 L 8.3511894,10.912775 7.6904749,6.2103948 a 0.25716852,0.25716852 0 0 0 -0.5119051,-0.0121 l -0.4940469,2.68453 -0.3095261,-0.94047 a 0.25716852,0.25716852 0 0 0 -0.4999997,0.0415 L 5.3988074,11.204095 4.4345217,4.7041148 a 0.25716852,0.25716852 0 0 0 -0.5059531,-0.004 l -0.6428559,3.73815 H -6.65e-7 v 0.51784 H 3.4999993 a 0.25716852,0.25716852 0 0 0 0.2559516,-0.21447 l 0.4047613,-2.375 0.9821428,6.6250002 a 0.25716852,0.25716852 0 0 0 0.505953,0 L 6.2261883,9.1344648 6.5119004,10.003535 a 0.25716852,0.25716852 0 0 0 0.494048,-0.0282 l 0.3928571,-2.13097 0.7976181,5.6547802 a 0.25716852,0.25716852 0 0 0 0.5119051,-0.0242 v -0.0476 l 0.4226184,-6.7857002 0.1011946,1.5714 a 0.25716852,0.25716852 0 0 0 0.5059518,0.0415 l 0.4642865,-2.0357 0.517856,3.6964 a 0.25716852,0.25716852 0 0 0 0.505952,0.0161 l 0.333332,-1.49403 0.03572,0.29148 a 0.25716852,0.25716852 0 0 0 0.255952,0.22617 h 4.148809 v -0.51785 h -3.922623 l -0.196427,-1.52382 a 0.25716852,0.25716852 0 0 0 -0.505952,-0.0161 l -0.345237,1.54168 -0.511903,-3.67261 a 0.25716852,0.25716852 0 0 0 -0.505953,-0.0242 l -0.3809527,1.66666 -0.2440465,-3.85713 v -0.0282 a 0.25716852,0.25716852 0 0 0 -0.2797616,-0.24391 z"/>
</svg>
