<svg xmlns="http://www.w3.org/2000/svg" width="16" height="16" version="1.1">
 <path fill="#ececec" fill-rule="evenodd" d="M 15.517 14.737 C 15.727 15.326 15.307 16 14.633 16 L 1.382 16 C 0.709 16 0.246 15.368 0.498 14.737 L 4.714 4.211 L 4.714 0.842 L 11.286 0.842 L 11.286 4.211 L 15.517 14.737 Z M 14.86 14.98 C 14.87 15 14.87 15.03 14.87 15.05 C 14.87 15.12 14.85 15.18 14.8 15.23 C 14.76 15.27 14.7 15.3 14.63 15.3 L 1.38 15.3 C 1.38 15.3 1.37 15.3 1.37 15.3 C 1.31 15.3 1.25 15.28 1.2 15.24 C 1.16 15.2 1.13 15.14 1.13 15.08 C 1.13 15.06 1.14 15.03 1.15 15 C 1.15 15 1.15 15 1.15 15 L 5.41 4.35 L 5.41 1.54 L 10.59 1.54 L 10.59 4.35 L 14.86 14.98 Z"/>
 <path fill="#ececec" d="M 11.543 1.714 L 4.457 1.714 C 3.97 1.714 3.571 1.329 3.571 0.857 C 3.571 0.386 3.97 0 4.457 0 L 11.543 0 C 12.03 0 12.429 0.386 12.429 0.857 C 12.429 1.329 12.03 1.714 11.543 1.714 Z"/>
 <path fill="#ececec" d="M 6.494,9.337 C 5.234,8.643 4.429,7.489 4.429,7.489 c 0,0 1.829,-1.484 3.809,-1.156 1.955,0.325 3.3,2.216 3.325,2.252 0.008,10e-4 0.008,10e-4 0.008,10e-4 0,0 0,0 0,0.011 0,-0.011 0,-0.011 0,0 0,0.031 -0.026,1.683 -1.615,2.796 1.678,0.582 2.987,1.617 2.987,1.617 0,0 -1.545,1.692 -4.012,1.553 v 0 C 6.533,14.428 4.27,12.637 4.175,12.561 4.144,12.559 4.143,12.559 4.143,12.559 c 0,0 -0.054,-1.942 2.022,-3.058 C 6.272,9.443 6.382,9.389 6.494,9.337 Z"/>
</svg>
