<svg width="1024" height="1024" viewBox="0 0 1024 1024" fill="none" xmlns="http://www.w3.org/2000/svg">
<g filter="url(#filter0_d)">
<path d="M662.74 55.32C958.965 55.32 1001.3 97.549 1001.3 393.498V630.503C1001.3 926.45 958.965 968.68 662.74 968.68H361.26C65.0349 968.68 22.7 926.45 22.7 630.503V393.498C22.7 97.549 65.0349 55.32 361.26 55.32H662.74Z" fill="url(#paint0_linear)"/>
</g>
<path d="M183.792 410.274H161.836C156.082 393.844 153.155 385.68 153.054 385.781H123.375C122.063 389.006 120.65 392.685 119.136 396.818C117.722 400.85 116.158 405.335 114.442 410.274H94C96.2208 405.335 100.309 394.953 106.265 379.129C112.322 363.203 120.297 341.684 130.189 314.57H147.3C150.429 323.138 153.356 331.151 156.082 338.61C158.909 345.967 161.483 352.821 163.804 359.171C175.211 389.712 181.874 406.746 183.792 410.274ZM148.057 367.638C146.543 363.304 145.028 359.02 143.514 354.787C142 350.554 140.486 346.32 138.972 342.087C132.713 359.524 129.533 368.041 129.432 367.638H148.057Z" fill="#ECECEC"/>
<path d="M262.491 366.882C260.876 366.58 258.352 366.277 254.92 365.975C251.589 365.572 247.248 365.169 241.898 364.765C246.441 369.301 248.712 374.442 248.712 380.187C248.712 389.258 245.885 396.717 240.232 402.563C234.579 408.208 227.614 411.03 219.336 411.03C210.857 411.03 203.993 407.855 198.743 401.505C193.797 395.659 191.324 388.502 191.324 380.036C191.324 372.779 193.746 366.328 198.592 360.683C204.043 354.737 211.008 351.662 219.488 351.461C228.27 351.36 236.194 351.41 243.261 351.612C250.327 351.713 256.737 351.864 262.491 352.065V366.882ZM234.327 380.489C234.327 376.558 232.863 373.031 229.936 369.906C227.008 366.882 223.576 365.37 219.639 365.37C215.904 365.37 212.623 366.882 209.797 369.906C206.97 372.728 205.557 376.206 205.557 380.338C205.557 385.176 206.819 389.208 209.343 392.433C211.866 395.659 215.248 397.271 219.488 397.271C223.728 397.271 227.261 395.81 230.087 392.887C232.914 389.863 234.327 385.731 234.327 380.489Z" fill="#ECECEC"/>
<path d="M366.005 351.007L365.854 365.521C358.687 365.219 351.62 365.068 344.655 365.068C344.453 366.58 344.251 368.948 344.049 372.174C343.848 375.399 343.646 379.532 343.444 384.571C343.141 393.34 343.595 397.725 344.807 397.725C345.715 397.725 347.431 396.919 349.955 395.306C350.157 395.709 350.51 396.868 351.015 398.783C351.519 400.598 352.176 403.269 352.983 406.796C347.431 410.627 341.677 412.542 335.721 412.542C335.116 412.542 334.51 412.491 333.904 412.39C333.299 412.39 332.693 412.34 332.087 412.239C329.665 411.836 328.453 406.897 328.453 397.423C328.453 395.004 328.605 390.619 328.907 384.269C329.008 382.052 329.16 379.33 329.362 376.105C329.564 372.779 329.766 368.948 329.967 364.614C321.791 364.816 313.765 364.816 305.892 364.614V410.274H290.447C290.649 407.452 290.851 402.261 291.053 394.701C291.254 387.142 291.456 377.113 291.658 364.614H282.724C280.403 364.816 278.283 365.169 276.365 365.673C271.519 367.084 268.592 368.293 267.583 369.301V361.288C267.683 360.079 267.734 358.869 267.734 357.66C267.734 356.45 267.734 355.19 267.734 353.88C267.633 353.88 268.441 353.577 270.157 352.973C271.974 352.368 274.245 351.965 276.971 351.763C279.494 351.562 286.258 351.461 297.261 351.461C308.365 351.461 323.81 351.511 343.595 351.612C347.431 351.612 351.166 351.562 354.8 351.461C358.535 351.36 362.27 351.209 366.005 351.007Z" fill="#ECECEC"/>
<path d="M432.871 380.943C432.871 390.115 430.045 397.624 424.392 403.47C418.739 409.215 411.572 412.038 402.89 411.937C395.521 411.836 390.726 409.971 388.505 406.343C388.505 409.266 388.505 412.39 388.505 415.717C388.505 419.144 388.556 422.823 388.657 426.754V437.942H374.423C374.726 426.653 374.878 407.704 374.878 381.094C374.878 371.922 377.3 364.665 382.146 359.323C387.092 353.88 394.007 351.158 402.89 351.158C411.975 351.158 419.243 353.93 424.695 359.474C430.146 364.917 432.871 372.073 432.871 380.943ZM418.335 381.245C418.335 376.609 416.922 372.779 414.095 369.755C411.269 366.731 407.534 365.219 402.89 365.219C393.401 365.219 388.657 370.561 388.657 381.245C388.657 387.394 389.515 391.728 391.231 394.248C393.048 396.566 396.985 397.725 403.042 397.725C407.584 397.725 411.269 396.263 414.095 393.34C416.922 390.417 418.335 386.386 418.335 381.245Z" fill="#ECECEC"/>
<path d="M500.304 380.64C500.304 389.813 497.376 397.171 491.521 402.714C485.566 408.359 478.348 411.181 469.868 411.181C460.581 411.181 453.01 408.157 447.156 402.11C441.503 396.364 438.777 389.107 438.979 380.338C439.08 371.771 441.957 364.665 447.61 359.02C453.364 353.275 460.783 350.402 469.868 350.402C479.055 350.402 486.424 353.174 491.976 358.718C497.528 364.262 500.304 371.569 500.304 380.64ZM485.465 379.885C485.465 375.046 484.001 371.065 481.074 367.94C478.146 364.816 474.361 363.254 469.717 363.254C464.872 363.254 460.884 364.816 457.755 367.94C454.727 371.065 453.212 375.046 453.212 379.885C453.111 384.319 454.676 388.25 457.906 391.677C461.137 394.903 465.074 396.515 469.717 396.515C474.26 396.515 477.995 395.054 480.922 392.131C483.85 389.107 485.364 385.025 485.465 379.885ZM484.556 316.536L475.017 341.785L463.963 338.761L471.383 312L484.556 316.536Z" fill="#ECECEC"/>
<path d="M580.906 406.04L565.916 412.693C564.805 411.483 562.635 407.3 559.405 400.144C558.496 402.865 556.831 405.285 554.408 407.401C551.178 410.123 547.493 411.483 543.354 411.483C539.216 411.483 535.581 410.677 532.452 409.064C528.818 407.149 526.597 404.579 525.79 401.354C525.689 403.873 525.588 405.94 525.487 407.552C525.487 409.064 525.487 410.173 525.487 410.879C525.487 422.47 527.455 430.584 531.392 435.22L514.887 439C512.566 435.573 511.203 430.281 510.799 423.125C510.597 421.008 510.597 414.658 510.799 404.075C511.001 399.539 511.455 381.951 512.162 351.31H528.364L527.304 380.338C527.708 382.959 529.323 385.831 532.149 388.956C535.682 392.786 539.367 394.701 543.203 394.701C547.241 394.701 550.471 392.534 552.894 388.2C554.812 384.773 555.619 382.102 555.316 380.187C555.115 378.675 554.963 377.062 554.862 375.349C554.761 373.535 554.711 371.619 554.711 369.604C554.711 368.092 554.761 365.824 554.862 362.8C555.064 359.776 555.367 355.946 555.771 351.31L572.73 351.461C572.326 355.291 572.023 359.02 571.821 362.649C571.619 366.277 571.518 369.856 571.518 373.383C571.518 376.407 571.569 379.179 571.67 381.699C571.872 384.118 572.174 386.285 572.578 388.2C573.689 394.147 576.465 400.094 580.906 406.04Z" fill="#ECECEC"/>
<path d="M661.277 396.969L658.4 411.786C654.564 411.786 650.93 410.727 647.498 408.611C643.46 406.393 641.29 403.269 640.987 399.237C637.454 407.401 630.236 411.483 619.334 411.483C609.845 411.483 602.476 408.409 597.227 402.261C592.381 396.717 589.958 389.46 589.958 380.489C589.958 372.728 592.482 365.874 597.529 359.927C603.081 353.477 610.35 350.251 619.334 350.251C624.987 350.251 629.529 351.36 632.962 353.577C635.788 355.492 638.514 358.768 641.138 363.405C641.441 358.97 643.712 355.24 647.952 352.217C651.384 349.697 654.968 348.437 658.703 348.437L660.066 362.044C652.293 365.068 648.406 371.267 648.406 380.64C648.406 383.967 649.063 386.89 650.375 389.41C652.495 393.844 656.129 396.364 661.277 396.969ZM635.233 380.64C635.233 376.206 633.668 372.426 630.539 369.301C627.41 366.076 623.674 364.513 619.334 364.614C615.498 364.816 612.116 366.429 609.189 369.452C606.261 372.678 604.798 376.407 604.798 380.64C604.798 385.579 606.16 389.611 608.886 392.736C611.611 395.76 615.145 397.271 619.485 397.271C623.826 397.271 627.51 395.76 630.539 392.736C633.668 389.611 635.233 385.579 635.233 380.64Z" fill="#ECECEC"/>
<path d="M737.522 364.614C735.2 364.312 733.988 364.614 733.888 365.521C733.686 372.879 732.777 382.203 731.162 393.492C729.749 397.927 727.175 401.706 723.44 404.831C718.089 409.266 711.528 411.483 703.755 411.483C695.78 411.483 689.32 409.316 684.373 404.982C680.537 401.555 678.014 397.725 676.802 393.492C676.298 391.476 675.843 389.057 675.44 386.235C675.137 383.312 674.935 379.935 674.834 376.105C674.632 369.352 674.38 365.824 674.077 365.521C673.572 365.421 673.017 365.32 672.411 365.219C671.906 365.118 671.301 364.967 670.594 364.765V351.612L689.824 351.763L689.673 357.66C689.37 369.654 689.572 377.566 690.279 381.396C691.894 391.98 696.335 397.271 703.604 397.271C708.954 397.271 712.84 394.651 715.263 389.41C716.878 385.68 717.938 380.036 718.443 372.476C718.544 369.956 718.645 367.437 718.746 364.917C718.846 362.397 718.947 359.827 719.048 357.206C719.351 354.283 720.361 352.569 722.077 352.065C723.692 351.662 728.84 351.511 737.522 351.612V364.614Z" fill="#ECECEC"/>
<path d="M805.949 380.943C805.949 390.115 803.123 397.624 797.47 403.47C791.817 409.215 784.649 412.038 775.968 411.937C768.599 411.836 763.804 409.971 761.583 406.343C761.583 409.266 761.583 412.39 761.583 415.717C761.583 419.144 761.634 422.823 761.735 426.754V437.942H747.501C747.804 426.653 747.955 407.704 747.955 381.094C747.955 371.922 750.378 364.665 755.224 359.323C760.17 353.88 767.085 351.158 775.968 351.158C785.053 351.158 792.321 353.93 797.772 359.474C803.224 364.917 805.949 372.073 805.949 380.943ZM791.413 381.245C791.413 376.609 790 372.779 787.173 369.755C784.346 366.731 780.611 365.219 775.968 365.219C766.479 365.219 761.735 370.561 761.735 381.245C761.735 387.394 762.593 391.728 764.309 394.248C766.126 396.566 770.063 397.725 776.119 397.725C780.662 397.725 784.346 396.263 787.173 393.34C790 390.417 791.413 386.386 791.413 381.245Z" fill="#ECECEC"/>
<path d="M873.382 380.64C873.382 389.813 870.454 397.171 864.599 402.714C858.643 408.359 851.426 411.181 842.946 411.181C833.659 411.181 826.088 408.157 820.233 402.11C814.58 396.364 811.855 389.107 812.057 380.338C812.158 371.771 815.035 364.665 820.688 359.02C826.442 353.275 833.861 350.402 842.946 350.402C852.132 350.402 859.502 353.174 865.054 358.718C870.606 364.262 873.382 371.569 873.382 380.64ZM858.543 379.885C858.543 375.046 857.079 371.065 854.151 367.94C851.224 364.816 847.438 363.254 842.795 363.254C837.949 363.254 833.962 364.816 830.833 367.94C827.804 371.065 826.29 375.046 826.29 379.885C826.189 384.319 827.754 388.25 830.984 391.677C834.214 394.903 838.151 396.515 842.795 396.515C847.337 396.515 851.073 395.054 854 392.131C856.927 389.107 858.442 385.025 858.543 379.885Z" fill="#ECECEC"/>
<path d="M929 351.158L925.063 366.58C917.896 365.068 913.05 364.312 910.527 364.312C906.792 364.312 903.763 364.967 901.442 366.277C898.413 367.991 896.899 370.511 896.899 373.837C896.899 374.643 896.949 375.298 897.05 375.802C897.555 378.221 900.079 381.447 904.621 385.479C906.337 386.89 907.902 388.2 909.315 389.41C910.83 390.619 912.293 391.627 913.707 392.433C917.643 394.752 920.42 397.927 922.035 401.958C923.65 405.587 924.255 409.266 923.852 412.995C922.842 422.974 917.088 429.122 906.59 431.44C904.571 431.844 902.653 432.146 900.836 432.348C899.019 432.549 897.252 432.65 895.536 432.65C893.013 432.65 890.035 432.348 886.602 431.743V417.985C892.054 419.093 895.536 419.547 897.05 419.345C902.905 419.043 906.035 416.725 906.438 412.39C906.842 409.266 905.833 406.544 903.41 404.226C903.107 403.924 900.685 402.16 896.142 398.935C893.315 396.919 890.943 395.205 889.025 393.794C887.208 392.282 885.896 391.073 885.088 390.165C881.555 386.638 879.486 382.908 878.88 378.977C878.779 378.171 878.678 377.415 878.577 376.71C878.577 375.903 878.577 375.097 878.577 374.29C878.577 367.84 880.697 362.498 884.937 358.264C888.369 354.837 892.508 352.67 897.353 351.763C907.044 349.949 917.593 349.747 929 351.158Z" fill="#ECECEC"/>
<path fill-rule="evenodd" clip-rule="evenodd" d="M707.054 193.916H673.546V227.996H651.27V193.916H617.571V172.401H651.27V138.512H673.546V172.401H707.054V193.916ZM588.061 248.557H565.785V239.229C559.693 246.971 551.189 250.842 540.273 250.842C530.119 250.842 521.805 247.637 515.332 241.227C508.859 234.818 505.622 224.695 505.622 210.86V151.268H527.897V206.862C527.897 221.966 533.99 229.518 546.175 229.518C559.248 229.518 565.785 222.093 565.785 207.243V151.268H588.061V248.557ZM247.263 250.842C235.078 250.842 224.575 247.764 215.753 241.608C206.932 235.452 200.681 227.044 197 216.382L218.134 208.576C220.926 214.795 224.925 219.777 230.129 223.521C235.332 227.265 241.297 229.137 248.025 229.137C255.006 229.137 260.558 227.551 264.683 224.378C268.809 221.205 270.872 216.635 270.872 210.67C270.872 208.258 270.3 206.005 269.158 203.911C268.016 201.817 266.715 200.071 265.255 198.675C263.795 197.279 261.606 195.883 258.686 194.487C255.767 193.091 253.292 191.98 251.261 191.154C249.231 190.33 246.248 189.283 242.313 188.013C237.236 186.236 233.333 184.84 230.604 183.825C227.875 182.81 224.384 181.128 220.132 178.78C215.881 176.432 212.644 174.052 210.423 171.64C208.202 169.229 206.234 166.024 204.52 162.025C202.807 158.027 201.95 153.617 201.95 148.794C201.95 138.64 205.885 130.135 213.755 123.281C221.624 116.427 232.286 113 245.74 113C256.909 113 266.175 115.634 273.537 120.901C280.898 126.169 285.849 133.054 288.387 141.558L267.826 148.413C263.764 139.274 255.894 134.704 244.217 134.704C238.251 134.704 233.587 135.942 230.224 138.417C226.86 140.892 225.178 144.414 225.178 148.984C225.178 152.03 226.479 154.758 229.081 157.17C231.683 159.582 234.476 161.39 237.459 162.597C240.441 163.802 244.851 165.357 250.69 167.261C254.498 168.657 257.386 169.704 259.353 170.403C261.32 171.101 264.081 172.275 267.635 173.925C271.189 175.574 273.981 177.066 276.011 178.399C278.043 179.731 280.36 181.54 282.962 183.825C285.564 186.109 287.563 188.489 288.958 190.965C290.355 193.44 291.561 196.359 292.576 199.722C293.591 203.086 294.099 206.735 294.099 210.67C294.099 223.108 289.688 232.914 280.867 240.086C272.046 247.257 260.844 250.842 247.263 250.842ZM400.337 248.557H378.061V239.229C371.968 246.971 363.464 250.842 352.548 250.842C342.394 250.842 334.081 247.637 327.608 241.227C321.134 234.818 317.897 224.695 317.897 210.86V151.268H340.174V206.862C340.174 221.966 346.266 229.518 358.451 229.518C371.524 229.518 378.061 222.093 378.061 207.243V151.268H400.337V248.557ZM451.17 248.557H428.895V151.268H451.17V161.359C455.105 153.109 461.769 148.984 471.161 148.984C478.016 148.984 484.045 151.205 489.248 155.648L486.011 176.018C481.188 172.592 475.667 170.879 469.448 170.879C464.371 170.879 460.056 172.655 456.501 176.209C452.947 179.763 451.17 185.729 451.17 194.106V248.557ZM827 193.916H793.492V227.996H771.215V193.916H737.516V172.401H771.215V138.512H793.492V172.401H827V193.916Z" fill="#ECECEC"/>
<mask id="mask0" mask-type="alpha" maskUnits="userSpaceOnUse" x="22" y="55" width="979" height="914">
<path d="M662.04 55C958.265 55 1000.6 97.229 1000.6 393.178V630.183C1000.6 926.13 958.265 968.36 662.04 968.36H360.56C64.335 968.36 22 926.13 22 630.183V393.178C22 97.229 64.335 55 360.56 55H662.04Z" fill="#ECECEC"/>
</mask>
<g mask="url(#mask0)">
<path d="M327.957 977.295H94.1306V963.682C138.173 963.682 173.415 933.894 183.017 905.225C202.235 847.844 147.783 830.753 124.56 846.768C94.7898 867.299 110.947 916.435 128.564 901.221C143.779 878.798 164.599 880.401 158.193 905.225C146.181 932.451 103.719 917.565 101.338 905.225C94.3122 904.488 86.9557 861.804 106.943 837.159C185.97 769.591 265.497 943.662 327.957 963.682V977.295Z" fill="#ECECEC"/>
<path d="M552.305 977.295H318.478V963.682C362.521 963.682 397.762 933.894 407.364 905.225C426.583 847.844 372.13 830.753 348.908 846.768C319.137 867.299 335.295 916.435 352.912 901.221C368.126 878.798 388.946 880.401 382.54 905.225C370.529 932.451 328.066 917.565 325.685 905.225C318.66 904.488 311.303 861.804 331.291 837.159C410.318 769.591 489.844 943.662 552.305 963.682V977.295Z" fill="#ECECEC"/>
<path d="M776.652 977.295H542.826V963.682C586.869 963.682 622.11 933.894 631.712 905.225C650.931 847.844 596.478 830.753 573.255 846.768C543.485 867.299 559.642 916.435 577.259 901.221C592.474 878.798 613.294 880.401 606.888 905.225C594.876 932.451 552.414 917.565 550.033 905.225C543.008 904.488 535.651 861.804 555.638 837.159C634.666 769.591 714.192 943.662 776.652 963.682V977.295Z" fill="#ECECEC"/>
<path d="M1001 977.295H767.174V963.682C811.216 963.682 846.458 933.894 856.06 905.225C875.278 847.844 820.826 830.753 797.603 846.768C767.833 867.299 783.99 916.435 801.607 901.221C816.822 878.798 837.642 880.401 831.236 905.225C819.224 932.451 776.762 917.565 774.381 905.225C767.355 904.488 759.999 861.804 779.986 837.159C859.013 769.591 938.54 943.662 1001 963.682V977.295Z" fill="#ECECEC"/>
<path d="M84.9484 759.84C95.4484 759.84 101.748 754.45 101.748 740.8V710H96.8484V740.8C96.8484 752.49 91.2484 755.43 84.9484 755.43C78.6484 755.43 73.0484 752.49 73.0484 740.8V710H68.1484V740.8C68.1484 754.45 74.4484 759.84 84.9484 759.84ZM129.727 759.84C138.337 759.84 144.497 753.05 144.497 741.08C144.497 729.81 138.897 722.39 129.727 722.39C124.897 722.39 122.237 724.35 119.927 726.45V723.23H115.027V773.21L119.927 770.76V755.36C121.957 757.74 124.687 759.84 129.727 759.84ZM129.167 755.43C125.317 755.43 122.377 753.05 119.927 749.9V732.33C121.887 728.83 125.317 726.8 129.167 726.8C135.537 726.8 139.387 732.4 139.387 741.08C139.387 750.32 135.677 755.43 129.167 755.43ZM164.755 759.84C172.175 759.84 176.795 755.99 176.795 750.04C176.795 742.83 170.705 740.38 165.385 738.28C161.185 736.6 157.195 735.06 157.195 731.42C157.195 728.55 159.855 726.73 163.985 726.73C167.905 726.73 170.705 728.76 172.525 730.58L175.745 727.85C172.875 724.42 168.955 722.39 164.125 722.39C157.405 722.39 152.575 726.03 152.575 731.49C152.575 737.51 157.615 740.03 163.285 742.34C167.625 744.09 172.175 745.98 172.175 750.32C172.175 753.68 169.095 755.5 165.175 755.5C161.465 755.5 158.035 753.19 155.865 750.6L152.435 753.61C155.445 757.18 159.925 759.84 164.755 759.84ZM196.037 759.84C198.767 759.84 200.727 759.21 202.547 758.23L203.107 753.12C201.777 754.03 200.097 755.22 197.717 755.22C194.287 755.22 193.867 752.63 193.867 749.55V727.64H202.967V723.23H193.867V708.46L188.967 710.91V723.23H182.877V727.64H188.967V751.65C188.967 756.34 190.927 759.84 196.037 759.84ZM212.917 759H217.817V738.77C217.817 729.95 222.927 727.29 226.497 727.29C228.807 727.29 230.207 728.06 231.117 728.62L231.887 723.86C230.907 723.16 229.087 722.39 226.847 722.39C222.437 722.39 219.427 724.84 217.817 728.27V723.23H212.917V759ZM252.667 759.84C256.797 759.84 260.787 758.09 263.587 755.78L260.927 752.49C258.197 754.52 255.467 755.29 252.877 755.29C246.787 755.29 243.147 750.39 242.307 743.11H266.667C266.807 741.57 266.807 740.45 266.807 739.68C266.807 727.64 260.297 722.39 252.667 722.39C243.497 722.39 237.127 729.18 237.127 741.08C237.127 751.16 243.007 759.84 252.667 759.84ZM242.167 738.7C242.587 730.58 246.927 726.8 252.667 726.8C256.447 726.8 261.767 729.04 261.837 738.7H242.167ZM297.208 759H301.758V734.78C301.758 724.63 294.968 722.39 289.858 722.39C284.958 722.39 280.198 724.49 277.328 726.31L278.728 730.51C281.388 728.69 285.798 726.66 289.368 726.66C293.358 726.66 297.208 728.2 297.208 735.41V738.42C293.708 736.53 290.558 735.9 287.548 735.9C280.758 735.9 274.528 739.47 274.528 747.73C274.528 755.78 279.498 759.84 286.708 759.84C290.558 759.84 294.338 758.09 297.208 755.5V759ZM287.198 755.57C282.018 755.57 279.078 752.42 279.078 747.73C279.078 742.55 283.208 740.17 288.038 740.17C291.118 740.17 294.898 741.57 297.208 743.11V750.04C295.038 752.7 291.538 755.57 287.198 755.57ZM354.787 759H359.687V735.2C359.687 727.36 354.367 722.39 347.437 722.39C342.817 722.39 339.177 724.84 337.217 727.85C335.187 724.42 331.337 722.39 327.557 722.39C323.637 722.39 320.207 723.93 317.827 726.73V723.23H312.927V759H317.827V736.53C317.827 731 320.557 726.8 326.087 726.8C332.807 726.8 333.857 732.61 333.857 737.09V759H338.757V737.09C338.757 731.56 341.627 726.8 347.017 726.8C353.737 726.8 354.787 732.61 354.787 737.09V759ZM385.011 759.84C389.141 759.84 393.131 758.09 395.931 755.78L393.271 752.49C390.541 754.52 387.811 755.29 385.221 755.29C379.131 755.29 375.491 750.39 374.651 743.11H399.011C399.151 741.57 399.151 740.45 399.151 739.68C399.151 727.64 392.641 722.39 385.011 722.39C375.841 722.39 369.471 729.18 369.471 741.08C369.471 751.16 375.351 759.84 385.011 759.84ZM374.511 738.7C374.931 730.58 379.271 726.8 385.011 726.8C388.791 726.8 394.111 729.04 394.181 738.7H374.511ZM421.292 759.84C425.772 759.84 428.642 758.09 430.812 755.92V759H435.712V708.46L430.812 710.91V725.75C428.642 724 425.702 722.39 421.292 722.39C412.192 722.39 406.522 729.32 406.522 741.08C406.522 752.49 412.122 759.84 421.292 759.84ZM421.852 755.43C415.552 755.43 411.632 749.06 411.632 741.08C411.632 731.91 415.272 726.8 421.852 726.8C426.402 726.8 429.342 729.6 430.812 731.98V749.83C428.852 753.4 425.422 755.43 421.852 755.43ZM470.851 727.64H479.461V723.23H470.851V717.91C470.851 715.95 470.921 713.71 474.351 713.71C476.381 713.71 477.991 714.34 479.461 715.11V710.84C477.921 710 476.031 709.16 473.371 709.16C469.661 709.16 465.951 711.26 465.951 717.14V723.23H460.211V727.64H465.951V759H470.851V727.64ZM487.517 759H492.417V738.77C492.417 729.95 497.527 727.29 501.097 727.29C503.407 727.29 504.807 728.06 505.717 728.62L506.487 723.86C505.507 723.16 503.687 722.39 501.447 722.39C497.037 722.39 494.027 724.84 492.417 728.27V723.23H487.517V759ZM527.057 759.84C536.227 759.84 542.387 752.84 542.387 741.08C542.387 729.18 536.227 722.39 527.057 722.39C517.887 722.39 511.727 729.39 511.727 741.15C511.727 753.05 517.887 759.84 527.057 759.84ZM527.057 755.43C520.407 755.43 516.837 750.04 516.837 741.15C516.837 731.84 520.407 726.8 527.057 726.8C533.707 726.8 537.277 732.19 537.277 741.08C537.277 750.04 533.567 755.43 527.057 755.43ZM594.387 759H599.287V735.2C599.287 727.36 593.967 722.39 587.037 722.39C582.417 722.39 578.777 724.84 576.817 727.85C574.787 724.42 570.937 722.39 567.157 722.39C563.237 722.39 559.807 723.93 557.427 726.73V723.23H552.527V759H557.427V736.53C557.427 731 560.157 726.8 565.687 726.8C572.407 726.8 573.457 732.61 573.457 737.09V759H578.357V737.09C578.357 731.56 581.227 726.8 586.617 726.8C593.337 726.8 594.387 732.61 594.387 737.09V759ZM642.214 759.84C651.244 759.84 657.684 754.94 657.684 746.26C657.684 737.09 650.194 732.89 643.544 730.3C637.734 728.06 632.274 725.68 632.274 720.5C632.274 716.3 635.704 713.57 641.444 713.57C646.344 713.57 649.564 715.88 650.754 718.47L655.304 716.93C653.974 712.45 648.864 709.16 641.654 709.16C632.554 709.16 627.234 714.34 627.234 720.57C627.234 728.69 634.724 732.4 641.584 734.99C647.324 737.16 652.644 740.38 652.644 746.4C652.644 752.28 648.654 755.43 642.284 755.43C636.684 755.43 632.484 752.49 630.524 748.22L625.904 749.9C627.864 755.22 633.954 759.84 642.214 759.84ZM690.916 759H695.816V723.23H690.916V745.21C690.916 752.98 687.066 755.43 682.026 755.43C677.266 755.43 673.766 752.56 673.766 745.07V723.23H668.866V743.18C668.866 754.94 672.786 759.84 682.026 759.84C685.736 759.84 688.396 758.86 690.916 755.57V759ZM708.386 759H713.286V738.77C713.286 729.95 718.396 727.29 721.966 727.29C724.276 727.29 725.676 728.06 726.586 728.62L727.356 723.86C726.376 723.16 724.556 722.39 722.316 722.39C717.906 722.39 714.896 724.84 713.286 728.27V723.23H708.386V759ZM756.063 759H760.963V723.23H756.063V745.21C756.063 752.98 752.213 755.43 747.173 755.43C742.413 755.43 738.913 752.56 738.913 745.07V723.23H734.013V743.18C734.013 754.94 737.933 759.84 747.173 759.84C750.883 759.84 753.543 758.86 756.063 755.57V759ZM792.782 737.44H806.782V732.68H792.782V718.54H787.742V732.68H773.882V737.44H787.742V751.44H792.782V737.44ZM838.993 737.44H852.993V732.68H838.993V718.54H833.953V732.68H820.093V737.44H833.953V751.44H838.993V737.44ZM895.877 759.84C904.837 759.84 912.537 753.75 912.537 745.56C912.537 739.12 909.387 734.43 904.277 732.4C908.127 730.3 910.507 726.03 910.507 721.69C910.507 714.13 904.277 709.16 896.157 709.16C887.897 709.16 882.997 714.34 880.967 719.52L885.517 721.27C886.987 717.91 890.137 713.71 896.367 713.71C901.057 713.71 905.397 716.93 905.397 722.39C905.397 727.78 901.547 731.28 895.737 731.28H893.147V735.76H896.437C903.507 735.76 907.357 739.68 907.357 745.7C907.357 752.21 902.107 755.29 895.877 755.29C890.137 755.29 886.567 752.49 884.187 746.47L879.637 748.36C882.017 754.8 886.357 759.84 895.877 759.84ZM939.81 759.84C953.32 759.84 956.61 744.86 956.61 734.5C956.61 722.53 952.62 709.16 939.81 709.16C926.16 709.16 923.01 724.28 923.01 734.5C923.01 746.75 927 759.84 939.81 759.84ZM939.81 755.43C930.43 755.43 928.12 744.79 928.12 734.5C928.12 725.61 930.01 713.57 939.81 713.57C949.05 713.57 951.36 724.35 951.36 734.5C951.36 743.53 949.61 755.43 939.81 755.43Z" fill="#ECECEC"/>
</g>
<path d="M175.564 649.854C173.494 648.124 166.804 642.435 160.696 637.211C154.588 631.988 147.983 626.393 146.019 624.78C141.458 621.033 141.698 620.78 158.13 612.037C175.006 603.059 178.691 601.9 184.55 603.725C190.857 605.688 217.375 619.58 217.375 620.919C217.375 621.521 213.412 625.215 208.568 629.124C203.724 633.036 196.879 638.87 193.357 642.094C185.273 649.492 180.996 653 180.059 653C179.656 653 177.633 651.586 175.564 649.856L175.564 649.854ZM129.124 606.963C123.887 601.811 120.297 594.919 120.258 589.942C120.244 588.29 121.436 583.514 122.903 579.336C124.371 575.157 125.572 570.806 125.572 569.667C125.572 568.481 118.479 560.362 108.988 550.683C99.8661 541.382 91.7209 532.359 90.8872 530.631C88.6934 526.088 90.4137 520.678 97.783 508.959C105.632 496.477 118.957 478.011 120.586 477.359C121.274 477.068 128.131 478.064 135.825 479.541L149.813 482.224L164.913 477.612L180.013 473L195.061 477.592L210.108 482.185L224.499 479.454C236.259 477.218 239.189 476.99 240.528 478.176C242.849 480.241 262.34 508.275 266.399 515.389C268.622 519.287 269.851 522.996 269.969 526.171C270.15 531.007 270.132 531.031 252.289 549.398C242.466 559.51 234.434 568.436 234.441 569.234C234.447 570.031 235.655 574.368 237.122 578.87C240.326 588.697 240.443 592.24 237.746 597.904C234.902 603.876 226.628 611.818 223.249 611.818C221.758 611.818 215.636 609.184 209.645 605.962C201.61 601.641 196.855 598.142 191.518 592.62C187.538 588.504 184.282 584.278 184.282 583.229C184.282 582.179 189.566 576.048 196.025 569.601C203.25 562.389 207.767 557.018 207.767 555.64C207.767 554.405 206.085 548.735 204.03 543.033C199.651 530.882 199.38 526.902 202.696 523.378C204.017 521.973 213.143 517.494 222.976 513.422C232.809 509.349 240.855 505.664 240.856 505.23C240.859 504.011 231.767 502.835 222.245 502.825C215.008 502.816 212.128 503.432 204.157 506.703C198.787 508.909 194.098 511.586 193.341 512.881C192.227 514.791 192.637 518.266 195.815 533.842C200.128 554.982 200.432 553.677 190.687 555.921C183.419 557.593 176.925 557.583 169.318 555.875C159.599 553.698 159.896 554.981 164.209 533.838C167.381 518.292 167.796 514.783 166.689 512.878C165.904 511.527 161.031 508.84 154.805 506.324C145.269 502.471 143.532 502.116 136.78 502.645C124.209 503.637 119.139 504.473 119.711 505.464C120.01 505.984 128.419 509.838 138.394 514.029C157.059 521.868 159.719 523.788 159.743 529.433C159.748 531.023 158.005 537.294 155.865 543.368C153.399 550.37 152.211 555.392 152.617 557.093C152.971 558.57 158.317 564.565 164.5 570.419C171.127 576.693 175.742 581.93 175.742 583.174C175.742 584.335 172.134 588.896 167.723 593.309C159.233 601.804 142.555 611.817 136.894 611.817C135.05 611.817 132.34 610.121 129.123 606.956L129.124 606.963Z" fill="#ECECEC"/>
<path d="M435 483C428.434 483 421.932 484.379 415.866 487.06C409.799 489.74 404.287 493.668 399.644 498.62C395.001 503.572 391.319 509.451 388.806 515.922C386.293 522.392 385 529.327 385 536.33C385 550.474 390.268 564.038 399.645 574.04C409.022 584.041 421.739 589.659 435 589.659C448.261 589.659 460.978 584.041 470.355 574.04C479.732 564.038 485 550.474 485 536.33C485 529.327 483.707 522.392 481.194 515.922C478.681 509.451 474.998 503.572 470.356 498.62C465.713 493.668 460.201 489.74 454.134 487.06C448.068 484.379 441.566 483 435 483ZM435 525.664C438.978 525.664 442.793 527.35 445.606 530.35C448.419 533.35 450 537.42 450 541.663C450 543.764 449.612 545.844 448.858 547.785C448.105 549.727 447 551.49 445.607 552.976C444.214 554.462 442.56 555.64 440.74 556.444C438.92 557.248 436.97 557.662 435 557.662C433.03 557.662 431.079 557.248 429.26 556.444C427.44 555.64 425.786 554.462 424.393 552.976C423 551.49 421.895 549.727 421.142 547.785C420.388 545.844 420 543.764 420 541.663C420 537.42 421.58 533.35 424.393 530.35C427.207 527.35 431.022 525.664 435 525.664Z" fill="#ECECEC"/>
<path d="M355 483C348.434 483 341.932 484.379 335.866 487.06C329.799 489.74 324.287 493.668 319.644 498.62C315.001 503.572 311.318 509.451 308.806 515.922C306.293 522.392 305 529.327 305 536.33C305 550.474 310.268 564.038 319.645 574.04C329.022 584.041 341.739 589.659 355 589.659C368.261 589.659 380.978 584.041 390.355 574.04C399.732 564.038 405 550.474 405 536.33C405 529.327 403.707 522.392 401.194 515.922C398.681 509.451 394.998 503.572 390.356 498.62C385.713 493.668 380.201 489.74 374.134 487.06C368.068 484.379 361.566 483 355 483ZM355 525.664C358.978 525.664 362.793 527.35 365.606 530.35C368.419 533.35 370 537.42 370 541.663C370 543.764 369.612 545.844 368.858 547.785C368.105 549.727 367 551.49 365.607 552.976C364.214 554.462 362.56 555.64 360.74 556.444C358.921 557.248 356.97 557.662 355 557.662C353.03 557.662 351.079 557.248 349.26 556.444C347.44 555.64 345.786 554.462 344.393 552.976C343 551.49 341.895 549.727 341.142 547.785C340.388 545.844 340 543.764 340 541.663C340 537.42 341.58 533.35 344.393 530.35C347.207 527.35 351.022 525.664 355 525.664Z" fill="#ECECEC"/>
<path d="M394.935 536.331C392.48 536.331 389.981 537.291 387.945 539.698L347.862 575.332C347.629 575.596 347.443 575.896 347.239 576.184C347.185 576.304 347.12 576.34 347.068 576.424C346.524 577.24 346.14 578.097 345.809 578.981C345.682 579.329 345.604 579.677 345.503 580.037C345.307 580.733 345.116 581.429 345.039 582.146C344.973 582.674 345.003 583.202 345.003 583.736C345.007 584.264 344.979 584.804 345.039 585.326C345.116 586.046 345.307 586.732 345.503 587.434C345.603 587.794 345.681 588.154 345.809 588.49C346.14 589.378 346.524 590.236 347.068 591.047C347.115 591.167 347.184 591.191 347.239 591.275C347.442 591.551 347.63 591.863 347.862 592.151L387.945 639.634C389.981 642.043 392.48 642.995 394.935 643C394.953 643 394.965 643 394.983 643C395.001 643 395.013 643 395.03 643C397.486 642.996 399.984 642.04 402.02 639.634L442.128 592.151C442.361 591.887 442.548 591.575 442.751 591.275C442.805 591.155 442.872 591.131 442.922 591.047C443.466 590.231 443.849 589.375 444.181 588.489C444.308 588.141 444.386 587.793 444.487 587.433C444.682 586.737 444.861 586.04 444.939 585.324C445.002 584.796 444.986 584.268 444.986 583.734C444.986 583.194 444.998 582.666 444.939 582.144C444.861 581.424 444.682 580.738 444.487 580.036C444.386 579.676 444.309 579.316 444.181 578.98C443.85 578.092 443.466 577.233 442.922 576.422C442.869 576.302 442.807 576.278 442.751 576.194C442.547 575.906 442.361 575.618 442.128 575.342L402.02 539.709C399.983 537.3 397.486 536.367 395.03 536.342C395.012 536.342 395 536.342 394.982 536.342C394.965 536.342 394.953 536.342 394.935 536.342L394.935 536.331Z" fill="#ECECEC"/>
<path d="M592.397 492C589.746 492.011 567.815 492.634 544.679 509.824C544.679 509.824 520 554.212 520 608.881C520 608.881 534.396 633.562 572.271 634.761C572.271 634.761 578.612 627.221 583.753 620.708C561.988 614.195 553.762 600.657 553.762 600.657C553.762 600.657 555.476 601.856 558.561 603.57C558.732 603.57 558.903 603.771 559.246 603.922C559.76 604.275 560.274 604.436 560.788 604.778C565.073 607.177 569.357 609.062 573.299 610.605C580.325 613.523 588.723 616.09 598.492 617.975C611.345 620.374 626.426 621.23 642.879 618.176C650.934 616.634 659.16 614.407 667.729 610.807C673.728 608.58 680.411 605.324 687.438 600.697C687.438 600.697 678.869 614.579 656.418 620.92C661.56 627.261 667.729 634.629 667.729 634.629C705.604 633.43 720 608.75 720 608.921C720 554.251 695.321 509.864 695.321 509.864C670.814 491.527 647.335 492.04 647.335 492.04L644.936 494.782C674.07 503.522 687.609 516.376 687.609 516.376C669.786 506.779 652.305 501.979 636.024 500.094C623.685 498.723 611.859 499.067 601.405 500.448C600.377 500.448 599.52 500.649 598.492 500.8C592.493 501.485 577.926 503.542 559.589 511.597C553.248 514.339 549.477 516.394 549.477 516.394C549.477 516.394 563.53 502.854 594.378 494.115L592.665 492.058C592.665 492.058 592.574 492.058 592.397 492.058L592.397 492ZM588.038 555.24C597.806 555.24 605.69 563.639 605.518 574.093C605.518 584.547 597.806 592.944 588.038 592.944C578.44 592.944 570.557 584.547 570.557 574.093C570.557 563.639 578.269 555.24 588.038 555.24ZM650.591 555.24C660.188 555.24 668.072 563.639 668.072 574.093C668.072 584.547 660.36 592.944 650.591 592.944C640.994 592.944 633.11 584.547 633.11 574.093C633.11 563.639 640.822 555.24 650.591 555.24Z" fill="#ECECEC"/>
<path d="M838.401 652.294C801.653 648.833 769.324 622.549 759.679 588.293C758.534 584.225 756.771 572.608 756.481 567.217C756.435 566.364 756.164 566.493 755.61 567.631C754.18 570.569 755.479 558.153 757.294 551.537C758.226 548.14 758.849 545.225 758.678 545.058C758.507 544.892 757.749 545.812 756.994 547.102C755.704 549.307 755.654 549.324 756.162 547.382C757.541 542.11 762.673 531.209 766.219 526.023C768.74 522.336 770.133 519.396 770.133 517.764C770.133 510.65 774.455 499.312 779.305 493.704L781.768 490.856L782.352 494.944C782.734 497.625 784.022 500.595 786.095 503.577L789.256 508.123L798.605 508.621C803.747 508.894 808.585 509.385 809.357 509.711C810.299 510.108 812.064 509.336 814.724 507.361C819.728 503.647 826.77 501.568 831.842 502.308L835.594 502.855L831.489 506.009C827.226 509.286 821.977 516.324 821.977 518.762C821.977 520.854 824.484 524.179 826.991 525.411C828.207 526.009 831.588 526.752 834.505 527.062C837.422 527.372 840.989 528.026 842.432 528.515C844.702 529.285 844.985 529.698 844.527 531.575C843.536 535.641 840.969 537.874 832.533 542.009L824.102 546.142L823.94 551.424C823.742 557.887 822.892 558.945 819.799 556.579C816.858 554.33 815.056 554.356 812.894 556.68C807.87 562.078 810.97 569.004 821.459 575.815C825.36 578.349 831.187 578.676 837.778 576.731C840.073 576.054 843.977 575.496 846.455 575.491C853.486 575.478 860.224 579.545 860.224 583.803C860.224 586.28 858.8 587.185 856.017 586.477C854.825 586.174 851.378 587.392 846.038 590.004C838.548 593.668 837.28 594.022 830.551 594.335C826.521 594.522 821.721 594.272 819.886 593.78C818.05 593.287 816.409 593.02 816.238 593.186C815.321 594.077 825.53 602.473 829.999 604.504C852.523 614.737 880.094 602.902 887.413 579.858C889.482 573.343 889.687 562.683 887.855 556.811C887.159 554.58 886.585 552.462 886.58 552.105C886.549 549.906 896.763 558.65 900.758 564.243C904.31 569.214 903.794 567.019 899.954 560.821C896.789 555.712 892.568 551.555 881.095 542.251C863.956 528.352 858.191 514.195 862.665 496.992C865.054 487.805 872.89 472.987 875.353 473C875.68 473.002 876.68 474.736 877.576 476.854C878.724 479.569 881.731 483.102 887.773 488.835C892.485 493.307 896.573 496.965 896.857 496.965C897.142 496.965 897.935 495.013 898.621 492.626L899.868 488.287L901.208 492.496C903.147 498.586 905.365 502.464 910.382 508.536C917.151 516.729 922.954 525.384 925.771 531.491C928.721 537.884 931.617 547.532 931.617 550.966C931.617 552.656 931.958 553.216 932.798 552.903C935.484 551.901 935.772 563.965 933.335 575.448C932.224 580.688 930.361 585.864 927.686 591.151C924.669 597.113 923.648 600.113 923.501 603.444C923.227 609.696 918.429 618.858 912.894 623.697C910.558 625.739 905.688 629.103 902.071 631.173C898.454 633.242 893.197 637.11 890.387 639.768C882.471 647.258 873.48 650.699 857.566 652.329C848.766 653.23 848.336 653.229 838.401 652.293L838.401 652.294Z" fill="#ECECEC"/>
<defs>
<filter id="filter0_d" x="12.7" y="49.32" width="998.6" height="933.36" filterUnits="userSpaceOnUse" color-interpolation-filters="sRGB">
<feFlood flood-opacity="0" result="BackgroundImageFix"/>
<feColorMatrix in="SourceAlpha" type="matrix" values="0 0 0 0 0 0 0 0 0 0 0 0 0 0 0 0 0 0 127 0"/>
<feOffset dy="4"/>
<feGaussianBlur stdDeviation="5"/>
<feColorMatrix type="matrix" values="0 0 0 0 0 0 0 0 0 0 0 0 0 0 0 0 0 0 0.4 0"/>
<feBlend mode="normal" in2="BackgroundImageFix" result="effect1_dropShadow"/>
<feBlend mode="normal" in="SourceGraphic" in2="effect1_dropShadow" result="shape"/>
</filter>
<linearGradient id="paint0_linear" x1="22.7" y1="55.32" x2="22.7" y2="968.68" gradientUnits="userSpaceOnUse">
<stop offset="1e-07" stop-color="#4C5561"/>
<stop offset="1" stop-color="#2E3842"/>
</linearGradient>
</defs>
</svg>
