<svg xmlns="http://www.w3.org/2000/svg" xmlns:osb="http://www.openswatchbook.org/uri/2009/osb" xmlns:xlink="http://www.w3.org/1999/xlink" width="1024" height="1024" version="1.1" viewBox="0 0 1024 1024" style="isolation:isolate">
 <defs>
  <linearGradient id="fitdance" x1=".5" x2=".5" y1="0" y2="1" gradientTransform="matrix(857.143,0,0,800,83.429,112)" gradientUnits="userSpaceOnUse" osb:paint="gradient">
   <stop offset="0%" style="stop-color:rgb(26,214,171)"/>
   <stop offset="100%" style="stop-color:rgb(50,157,182)"/>
  </linearGradient>
  <clipPath id="_clipPath_92ZGwQC6alWgDfARPaWVEt6AEGsUAaYL">
   <rect width="1024" height="1024"/>
  </clipPath>
  <linearGradient id="linearGradient957" x1=".5" x2=".5" y1="0" y2="1" gradientTransform="matrix(857.143,0,0,800,83.429,112)" gradientUnits="userSpaceOnUse" xlink:href="#nightpunk"/>
  <linearGradient id="linearGradient974" x1="505.949" x2="508.081" y1="54.971" y2="971.696" gradientUnits="userSpaceOnUse" xlink:href="#fitdance"/>
 </defs>
 <g clip-path="url(#_clipPath_92ZGwQC6alWgDfARPaWVEt6AEGsUAaYL)">
  <defs>
   <filter id="alILMEncSvKTWB9kTZfK8Se0OalSQxPY" width="4" height="4" x="-2" y="-2" color-interpolation-filters="sRGB" filterUnits="objectBoundingBox">
    <feGaussianBlur in="SourceGraphic" stdDeviation="4.294"/>
    <feOffset dx="0" dy="16" result="pf_100_offsetBlur"/>
    <feFlood flood-opacity=".4"/>
    <feComposite in2="pf_100_offsetBlur" operator="in" result="pf_100_dropShadow"/>
    <feBlend in="SourceGraphic" in2="pf_100_dropShadow" mode="normal"/>
   </filter>
  </defs>
  <g filter="url(#alILMEncSvKTWB9kTZfK8Se0OalSQxPY)">
   <path style="fill:url(#linearGradient974)" d="m 662.74,55.32 c 296.225,0 338.56,42.229 338.56,338.178 v 237.005 c 0,295.947 -42.335,338.177 -338.56,338.177 H 361.26 C 65.035,968.68 22.7,926.45 22.7,630.503 V 393.498 C 22.7,97.549 65.035,55.32 361.26,55.32 Z"/>
  </g>
  <linearGradient id="nightpunk" x1=".5" x2=".5" y1="0" y2="1" gradientTransform="matrix(857.143,0,0,800,83.429,112)" gradientUnits="userSpaceOnUse" osb:paint="gradient">
   <stop style="stop-color:#49535e" offset="0%"/>
   <stop style="stop-color:#2f3943" offset="100%"/>
  </linearGradient>
  <path style="fill:url(#linearGradient957)" d="m 644.031,112 c 259.46,0 296.54,36.988 296.54,296.205 v 207.59 C 940.571,875.011 903.491,912 644.031,912 H 379.969 C 120.509,912 83.429,875.011 83.429,615.795 V 408.205 C 83.429,148.988 120.509,112 379.969,112 Z"/>
  <path fill="#FFFFFF" fill-rule="evenodd" d="m 685.95429,258.379 h -29.559 v 30.063 h -19.65 v -30.063 h -29.727 v -18.979 h 29.727 v -29.895 h 19.65 v 29.895 h 29.559 z m -104.968,48.201 h -19.651 v -8.229 0 c -5.374,6.83 -12.87567,10.245 -22.505,10.245 v 0 0 c -8.95733,0 -16.291,-2.82733 -22.001,-8.482 v 0 0 c -5.71067,-5.654 -8.566,-14.58333 -8.566,-26.788 v 0 -52.568 h 19.65 v 49.041 0 c 0,13.324 5.37467,19.986 16.124,19.986 v 0 0 c 11.532,0 17.298,-6.55 17.298,-19.65 v 0 -49.377 h 19.651 z m -300.631,2.016 v 0 0 c -10.74867,0 -20.014,-2.71533 -27.796,-8.146 v 0 0 c -7.78133,-5.43 -13.29567,-12.84767 -16.543,-22.253 v 0 l 18.643,-6.886 v 0 c 2.46333,5.486 5.99033,9.88067 10.581,13.184 v 0 0 c 4.59,3.30267 9.85233,4.954 15.787,4.954 v 0 0 c 6.158,0 11.05633,-1.39933 14.695,-4.198 v 0 0 c 3.63933,-2.79933 5.459,-6.83033 5.459,-12.093 v 0 0 c 0,-2.12733 -0.504,-4.11467 -1.512,-5.962 v 0 0 c -1.00733,-1.84733 -2.155,-3.387 -3.443,-4.619 v 0 0 c -1.28733,-1.23133 -3.21867,-2.46267 -5.794,-3.694 v 0 0 c -2.57533,-1.232 -4.75867,-2.212 -6.55,-2.94 v 0 0 c -1.79133,-0.72733 -4.42267,-1.651 -7.894,-2.771 v 0 0 c -4.47867,-1.56733 -7.92167,-2.799 -10.329,-3.695 v 0 0 c -2.40733,-0.89533 -5.48633,-2.37867 -9.237,-4.45 v 0 0 c -3.75067,-2.07133 -6.60567,-4.17067 -8.565,-6.298 v 0 0 c -1.95933,-2.12733 -3.695,-4.95467 -5.207,-8.482 v 0 0 c -1.51133,-3.52667 -2.267,-7.41733 -2.267,-11.672 v 0 0 c 0,-8.95733 3.471,-16.45933 10.413,-22.506 v 0 0 c 6.942,-6.046 16.347,-9.069 28.215,-9.069 v 0 0 c 9.85333,0 18.027,2.32333 24.521,6.97 v 0 0 c 6.494,4.64667 10.86067,10.72067 13.1,18.222 v 0 l -18.138,6.047 v 0 c -3.58333,-8.062 -10.52533,-12.093 -20.826,-12.093 v 0 0 c -5.26267,0 -9.37733,1.09167 -12.344,3.275 v 0 0 c -2.96733,2.18333 -4.451,5.29067 -4.451,9.322 v 0 0 c 0,2.68667 1.14767,5.09367 3.443,7.221 v 0 0 c 2.29533,2.12733 4.75867,3.723 7.39,4.787 v 0 0 c 2.63067,1.06333 6.52133,2.435 11.672,4.115 v 0 0 c 3.35933,1.23133 5.90667,2.155 7.642,2.771 v 0 0 c 1.73533,0.616 4.17067,1.65167 7.306,3.107 v 0 0 c 3.13467,1.45533 5.59767,2.771 7.389,3.947 v 0 0 c 1.792,1.17533 3.83567,2.77067 6.131,4.786 v 0 0 c 2.29533,2.01533 4.05867,4.115 5.29,6.299 v 0 0 c 1.232,2.18333 2.29567,4.75833 3.191,7.725 v 0 0 c 0.896,2.96733 1.344,6.18633 1.344,9.657 v 0 0 c 0,10.97267 -3.891,19.62233 -11.673,25.949 v 0 0 c -7.78133,6.326 -17.66233,9.489 -29.643,9.489 z m 135.032,-2.016 h -19.65 v -8.229 0 c -5.37467,6.83 -12.87667,10.245 -22.506,10.245 v 0 0 c -8.95733,0 -16.291,-2.82733 -22.001,-8.482 v 0 0 c -5.71067,-5.654 -8.566,-14.58333 -8.566,-26.788 v 0 -52.568 h 19.651 v 49.041 0 c 0,13.324 5.37433,19.986 16.123,19.986 v 0 0 c 11.53267,0 17.299,-6.55 17.299,-19.65 v 0 -49.377 h 19.65 z m 44.842,0 h -19.65 v -85.822 h 19.65 v 8.901 0 c 3.47133,-7.27733 9.34967,-10.916 17.635,-10.916 v 0 0 c 6.04667,0 11.365,1.95933 15.955,5.878 v 0 l -2.855,17.97 v 0 c -4.25467,-3.02267 -9.125,-4.534 -14.611,-4.534 v 0 0 c -4.47867,0 -8.28567,1.56733 -11.421,4.702 v 0 0 c -3.13533,3.13533 -4.703,8.398 -4.703,15.788 v 0 z m 331.534,-48.201 h -29.559 v 30.063 h -19.651 v -30.063 h -29.727 v -18.979 h 29.727 v -29.895 h 19.651 v 29.895 h 29.559 z"/>
  <g style="font-size:423.884px;line-height:1.25;font-family:Grandfather;letter-spacing:0px;word-spacing:0px;fill:#ffffff">
   <path d="m 420.67161,667.64013 -1.27165,-10.17322 c -0.42389,-1.69554 -0.42389,-3.81496 -1.27166,-5.93438 -0.84776,-1.69553 -2.11942,-2.96718 -2.96718,-4.66272 -1.27166,-2.96719 -2.54331,-5.93438 -4.23884,-8.90156 l -1.27166,-3.39108 c -1.27165,-2.11942 -1.69553,-2.11942 -3.39107,-3.39107 -5.51049,-4.23884 -8.90156,-12.29263 -14.83594,-14.83594 -3.39107,-1.69553 -6.35826,-3.81495 -9.74933,-5.51049 -1.27165,-0.84777 -2.5433,-1.69554 -3.81496,-2.11942 -2.11942,-0.84777 -4.23884,-0.42388 -6.35826,-0.84777 -1.69553,-0.84777 -2.5433,-1.69553 -4.23884,-2.5433 -2.11942,-0.42389 -4.23884,0 -6.35826,-0.42389 -2.96718,-0.42388 -5.0866,-0.84776 -8.05379,-0.84776 -8.47768,0.42388 -18.22701,0 -26.70469,2.5433 -2.54331,0.84777 -4.66273,2.5433 -7.20603,3.39107 -3.81496,0.84777 -8.0538,0.84777 -12.29264,1.69554 -2.11942,0.84777 -3.39107,2.11942 -5.08661,2.5433 -1.69553,0.84777 -3.39107,0.42389 -5.08661,1.27165 -2.96718,1.27166 -5.93437,2.11942 -8.90156,3.39108 -5.51049,2.11942 -10.17322,5.0866 -15.68371,7.62991 -5.08661,2.5433 -11.44487,4.66272 -15.68371,8.47768 -2.96718,2.11942 -5.93437,4.23884 -8.47768,6.35826 -0.42388,0.42388 0,1.27165 -0.42388,1.69553 -0.42388,0 -1.27165,-0.42388 -1.27165,-0.42388 l -3.39107,1.27165 c -4.66273,2.96719 -9.32545,7.20603 -13.98818,10.5971 -10.5971,8.0538 -20.77031,16.53148 -30.51964,26.28081 -4.66273,5.08661 -10.5971,10.5971 -14.41206,16.53148 -3.39107,5.93437 2.96719,11.86875 8.0538,14.83594 0.84776,0.84776 2.5433,1.69553 3.81495,2.11942 2.11942,0 1.27165,0 3.39107,-1.27166 2.11942,-1.69553 4.23884,-2.5433 5.93438,-4.23884 2.96719,-2.11942 5.51049,-5.0866 8.47768,-7.62991 1.27165,-1.69553 2.5433,-2.96719 4.66272,-4.23884 0.84777,-0.42388 2.11942,-0.84777 2.96719,-1.69553 0.84777,-0.42389 0.84777,-1.27166 1.69554,-2.11942 0.84777,-0.84777 2.5433,-1.69554 3.81495,-2.54331 2.54331,-2.11942 4.66273,-5.08661 7.20603,-6.78214 2.54331,-1.27165 3.39107,-2.54331 5.08661,-3.81496 2.5433,-2.11942 5.51049,-3.39107 8.47768,-5.51049 2.5433,-1.27165 4.66272,-3.81496 7.62991,-5.51049 2.54331,-1.27165 4.66273,-2.54331 6.78215,-4.23884 2.5433,-1.69554 5.0866,-3.39107 8.05379,-4.66273 2.11942,-1.27165 3.81496,-3.39107 5.93438,-4.23884 2.96719,-1.27165 5.93437,-2.11942 8.90156,-3.81495 2.96719,-1.27165 4.66273,-2.96719 7.62991,-4.66273 1.69554,-0.84776 3.39108,-0.42388 5.5105,-1.27165 l 3.39107,-2.11942 c 2.11942,-0.84777 3.81495,-2.11942 5.93437,-2.96719 5.5105,-2.96718 11.86876,-4.23884 17.80313,-6.35826 3.39108,-1.27165 6.35826,-2.11942 9.74934,-2.96718 3.39107,-0.84777 6.78214,-1.69554 6.78214,2.96718 0,3.39108 2.5433,-0.42388 3.39107,1.27166 0,0.42388 -0.84777,4.66272 -1.27165,5.0866 -3.81496,3.39108 -2.5433,-4.66272 -2.5433,-4.66272 -0.42389,0 -12.29264,11.44487 -13.56429,13.1404 -0.84777,1.69554 -1.69554,3.81496 -2.96719,5.5105 -1.27165,1.69553 -2.96719,2.11942 -4.23884,3.39107 -1.27165,1.27165 -2.11942,3.81495 -3.39107,5.51049 -1.27165,2.11942 -2.96719,3.81496 -4.23884,5.93438 -1.27165,1.27165 -1.69554,3.39107 -2.96719,5.0866 -1.27165,1.69554 -3.39107,2.54331 -4.66273,4.66273 -1.69553,2.11942 -3.39107,3.81495 -5.0866,6.35826 -0.42389,0 -0.42389,1.27165 -0.84777,1.27165 -0.84777,0.84777 -2.11942,1.27165 -2.96719,2.11942 -0.42388,0.84777 -0.84777,2.5433 -1.69554,3.81496 -0.84776,1.69553 -2.5433,3.39107 -4.23884,5.0866 -2.11942,3.39108 -4.66272,5.5105 -6.78214,8.90157 -2.11942,3.39107 -3.81496,6.78214 -6.78214,10.17321 -2.54331,2.96719 -4.66273,6.78215 -7.20603,10.17322 -0.42389,0.42388 -0.42389,1.27165 -0.84777,1.69554 0,0.42388 -1.27165,0 -1.27165,0.42388 l -1.69554,2.11942 c -0.42388,0.84777 -0.84777,0.42388 -1.27165,1.69554 -0.42388,1.69553 0,2.11942 -0.84777,3.39107 l -1.27165,0.84777 c -2.11942,1.69553 -4.23884,3.81495 -5.93438,5.93437 -2.11942,2.96719 -3.81495,6.78215 -6.35826,9.74933 -2.5433,3.39108 -5.0866,6.78215 -7.20602,10.17322 -1.69554,1.69554 -5.08661,5.93438 -4.66273,8.0538 0.42389,0.84776 2.11942,-0.42389 1.69554,1.27165 0,0.42388 -1.69554,0.42388 -1.69554,0.84777 -2.11942,1.69553 -2.96719,1.69553 -2.11942,4.66272 0.42389,2.96719 3.39107,5.93438 5.51049,8.0538 2.54331,2.96719 7.20603,8.90156 10.5971,10.5971 1.69554,0.84777 3.39108,1.27165 5.08661,0.84777 3.39107,-0.42389 0.84777,-0.84777 2.54331,-2.11942 1.69553,-1.27166 1.69553,2.5433 1.27165,2.5433 0.84777,0.84777 2.11942,1.69554 3.39107,2.5433 2.11942,1.27166 3.39107,2.11942 5.93438,2.54331 3.39107,0.84777 6.35826,1.69553 9.32544,2.5433 l 5.08661,1.27165 c 1.69554,0 2.96719,1.69554 4.66273,1.69554 1.69553,0.42388 5.93437,-1.27165 7.62991,-2.5433 1.69553,-0.84777 1.27165,-0.42389 1.27165,-2.11942 0,-0.84777 -1.69554,-2.96719 0.42388,-2.96719 1.27166,0.42388 1.27166,1.69553 2.11942,2.5433 0.42389,0.42389 2.54331,1.27165 2.96719,1.27165 1.69554,0 2.54331,-2.11942 4.23884,-2.5433 1.27165,-0.42388 2.54331,0.84777 3.81496,0.42388 2.96719,-0.84776 5.93438,-5.51049 9.32545,-5.93437 1.27165,0 2.11942,1.27165 3.81495,0.84777 1.27166,0 2.96719,-1.27166 4.23884,-2.11942 5.5105,-3.39108 11.86876,-5.08661 17.37925,-8.47768 2.11942,-1.27166 3.39107,-2.11942 5.08661,-3.81496 0,-0.42388 1.27165,-2.96719 1.69553,-2.96719 0.84777,-0.42388 2.11942,0.42388 2.96719,0.42388 1.27165,0 1.69554,-0.84776 2.5433,-1.27165 1.27166,-0.42388 2.11942,0.42389 3.39108,-0.42388 0.84776,-0.42389 1.27165,-2.96719 2.11942,-3.39107 0.84776,-0.84777 1.69553,-0.84777 2.11942,-1.69554 l 0.84776,-1.69554 c 0.84777,-0.42388 1.69554,0 2.54331,-0.84776 3.81495,-1.69554 5.08661,-5.5105 8.05379,-8.0538 1.69554,-1.27165 2.96719,-1.27165 4.23884,-2.96719 0.84777,-1.69553 1.69554,-3.39107 2.54331,-4.66272 0.42388,-0.42389 0.42388,-1.27165 0.84777,-1.69554 0.42388,-0.42388 2.11942,-0.84777 2.5433,-1.27165 0.84777,-2.11942 -1.69554,-2.5433 -2.11942,-3.81496 0,-0.84776 0,-2.96718 1.27165,-2.96718 1.27165,0 0.84777,1.69553 1.27165,2.96718 1.69554,3.81496 2.96719,2.11942 4.66273,-0.42388 1.69553,-2.96719 3.39107,-3.81496 5.93437,-5.93438 2.96719,-2.11942 3.81496,-4.23884 4.66273,-7.62991 0.84777,-3.81495 1.27165,-5.51049 4.23884,-7.62991 4.66272,-4.23884 5.93437,-12.29264 8.05379,-18.22701 l 2.54331,-7.20603 c 0.84777,-2.5433 0.42388,-2.5433 0,-5.08661 0,-2.11942 0.84777,-2.5433 1.27165,-4.66272 2.11942,-7.62991 1.27165,-16.95536 0.84777,-24.58527 z m -97.06944,-56.37658 c 0.42389,0 1.27165,0.42389 0.84777,0.42389 -0.42388,0.84777 -1.27165,0.42388 -0.84777,-0.42389 z m 20.77032,3.81496 c -1.27165,2.11942 -3.81496,-1.27165 -3.81496,-2.96719 0,-1.69553 5.08661,1.27165 3.81496,2.96719 z m -13.98817,2.11942 c -0.42389,0 -3.39108,-0.84777 -2.96719,-2.11942 0.84777,-1.27165 7.62991,2.11942 2.96719,2.11942 z m -22.88974,-0.84777 c -0.42389,0.42389 -0.84777,0 -0.84777,-0.42388 -0.42388,-0.42389 1.69554,-0.42389 0.84777,0.42388 z m 33.06295,0 c -0.42388,0.42389 -0.84777,0 -1.27165,0 0,-0.84777 1.69554,-0.42388 1.27165,0 z m 13.14041,0 c 2.11942,-0.84777 1.69553,1.69554 0.84776,2.54331 -1.27165,1.69553 -2.5433,-2.11942 -0.84776,-2.54331 z m -12.29264,10.17322 c -2.5433,0 -5.51049,-3.39107 -1.69554,-3.81496 1.69554,0 1.27166,0.84777 2.54331,0.42389 0.42388,0 2.11942,-1.27166 2.96719,-1.69554 0.42388,-0.42388 1.27165,-0.42388 2.11942,-0.84777 0.42388,-0.84777 0.42388,-2.11942 0.84776,-2.5433 2.54331,-2.96719 2.54331,2.5433 1.27166,4.23884 -1.27166,1.69553 -1.69554,0.84777 -3.81496,1.69553 -1.27165,0.42389 -2.96719,2.11942 -4.23884,2.54331 z m -4.66272,-4.66273 c -1.27166,0 -5.93438,-3.39107 -2.54331,-3.39107 0.84777,-0.42388 5.93438,2.96719 2.54331,3.39107 z m -11.02099,3.81496 c -2.5433,0.42388 -5.08661,4.66272 -5.51049,0.42388 0,-1.27165 -1.69554,-3.39107 -0.84777,-4.23884 0.84777,-1.69553 2.54331,0.42389 3.81496,0.42389 2.5433,0 3.81495,-1.69554 5.08661,2.11942 0.84776,3.39107 -0.42389,1.27165 -2.54331,1.27165 z m 26.28081,-1.69554 c 0,-5.0866 8.47768,-0.42388 2.11942,-0.42388 -0.42388,0 -2.96719,1.27165 -3.39107,0.84777 0,-0.42389 1.27165,-0.84777 1.27165,-0.42389 z m -58.07211,0.84777 c -1.27165,1.27165 -2.96719,-1.69553 -2.96719,-2.11942 1.27165,-1.69553 4.23884,0.84777 2.96719,2.11942 z m 66.54979,-0.42388 c 0,1.69553 -2.5433,1.69553 -2.5433,0.42388 0,-1.69553 2.5433,-1.69553 2.5433,-0.42388 z m -71.21251,2.5433 c -0.42389,2.54331 -2.96719,3.39107 -2.96719,0.42389 0,-2.11942 3.81495,-4.23884 2.96719,-0.42389 z m 13.56428,-0.84777 c 0,0.42389 -0.42388,0.42389 -0.84776,0 -0.42389,-0.42388 1.69553,-0.42388 0.84776,0 z m 98.34109,26.7047 c -0.84776,6.78214 0.42389,13.1404 -1.69553,19.49866 -1.69554,4.66272 -1.69554,9.74933 -3.81496,13.98817 -1.69553,4.23884 -2.96719,8.47768 -5.51049,12.29264 -2.11942,3.81495 -2.5433,8.90156 -5.51049,11.86875 -0.42389,0.84777 -1.69554,0.84777 -2.54331,1.69554 v 1.27165 c -0.42388,0.42388 -0.84776,1.69553 -1.27165,2.11942 -0.84777,0.84777 -1.69553,0.84777 -2.11942,1.69553 -0.84777,0.84777 -0.84777,1.69554 -1.27165,2.54331 -2.11942,2.96719 -5.08661,3.81495 -7.20603,6.78214 -1.69553,2.11942 -2.11942,2.54331 -4.23884,3.81496 -2.11942,1.27165 -5.08661,3.39107 -6.78214,5.08661 -1.27165,1.27165 -1.69554,2.96718 -3.39107,4.23884 -4.23884,2.96718 -8.0538,6.35826 -12.29264,9.32544 -5.08661,2.96719 -9.32545,6.35826 -13.98817,9.32545 -3.39107,2.11942 -7.62991,5.08661 -11.44487,6.35826 -3.81496,1.27165 -7.20603,2.96719 -10.5971,5.51049 -0.84777,0.84777 -3.39107,1.69554 -3.39107,2.96719 -0.42389,2.11942 0,-0.42388 0.42388,0.84777 0.84777,1.69554 3.39107,3.39107 0.42388,5.08661 -0.42388,0 -1.69553,-0.84777 -2.11942,-0.84777 -1.27165,0.42388 -2.11942,1.69554 -3.39107,0.84777 -2.11942,-1.27165 0.42389,-3.39107 -2.96719,-3.39107 -2.11942,0 -5.0866,2.11942 -5.93437,3.81495 -0.42389,0.42389 -1.27165,3.81496 -2.11942,3.81496 -0.42389,0 -0.84777,4.23884 -0.42389,4.66272 0.84777,0.84777 2.96719,0 3.81496,0.84777 0.84777,1.27165 -0.42388,1.69554 -0.42388,2.96719 0.42388,1.27165 -0.84777,0.84777 0,2.11942 0.42388,0.42388 1.27165,-1.27165 1.69553,-0.84777 0.42389,0.42389 0.42389,1.27165 0.84777,2.11942 0,0 0.42388,0.42389 0.42388,0.42389 h -0.42388 c 0,0.42388 0,0.84776 0.42388,0.84776 -0.84776,-0.42388 -0.84776,-0.42388 -0.84776,-0.84776 -1.69554,0.42388 -2.96719,1.27165 -5.08661,1.27165 -1.27165,0 -5.08661,-0.42389 -4.23884,1.69553 0,1.27166 1.69553,0.42389 2.11942,2.11942 0,0.84777 -1.27165,2.96719 -2.11942,3.39108 -3.81496,1.69553 -2.11942,-3.81496 -2.96719,-5.5105 -0.84777,-2.96718 -1.27165,0 -3.39107,-0.42388 -3.39107,-0.84777 0,-3.39107 -4.66273,-2.5433 -5.51049,1.27165 -9.32544,-5.08661 -6.78214,-10.17322 1.27165,-2.96719 2.96719,-3.81496 0,-6.78215 -1.69554,-1.69553 -0.42388,-0.84776 -2.5433,-0.42388 -1.27166,0.42388 -2.11942,1.27165 -3.81496,1.27165 -2.96719,-0.42388 -6.35826,-3.81495 -8.90156,-1.27165 -1.27166,1.69554 0,5.51049 -1.27166,5.93438 -1.69553,0.42388 -2.5433,-2.54331 -3.39107,-3.39108 -1.27165,-1.69553 -0.42388,-0.84776 -2.5433,-2.11942 -2.54331,-1.69553 -2.96719,-4.23884 0.42388,-5.0866 1.27165,-0.42389 2.11942,-0.84777 2.96719,0.84776 0,0.42389 -1.27165,1.27166 -0.84777,1.69554 1.69554,3.39107 1.69554,-0.42388 2.54331,-0.84777 1.69553,-1.27165 4.23884,0 5.93437,0 1.69554,0.42389 1.69554,0.42389 3.39107,0 -0.42388,0 2.11942,-1.69553 1.69554,-1.27165 0.42388,-0.42388 1.27165,0.42388 0.84777,-2.11942 -0.42389,-2.5433 -2.96719,-3.39107 -2.11942,-6.35826 0,-1.27165 1.27165,-2.5433 1.69553,-3.81496 0.42389,-1.69553 0,-2.96718 1.69554,-3.81495 0.42388,0 0.84777,1.27165 1.27165,1.27165 0.42389,0 0.84777,-0.42388 0.84777,-0.42388 1.27165,0 1.69554,-2.54331 2.96719,-0.84777 0.84777,1.27165 -0.42389,2.11942 0,2.96719 0.42388,1.69553 0,0.42388 1.27165,0.84776 0.84777,0.42389 2.5433,0 3.81496,0.84777 0.84776,0.84777 1.27165,0.84777 1.69553,1.69554 0.84777,1.69553 0.42389,5.08661 3.39107,2.96719 2.11942,-0.84777 4.23884,-5.5105 5.5105,-7.20603 l 4.66272,-5.93438 c 1.69554,-2.11942 2.11942,-3.81495 3.39107,-5.93437 0.84777,-1.27166 2.54331,-1.69554 3.39107,-2.96719 l 1.27166,-1.69554 c 2.96718,-3.81495 5.0866,-8.47768 8.47768,-12.29263 2.5433,-3.39108 4.66272,-7.20603 7.62991,-11.02099 3.39107,-5.08661 7.62991,-9.32545 11.02098,-13.98817 2.96719,-4.66272 4.66273,-10.17322 8.47768,-13.98817 1.27166,-1.69554 2.54331,-2.11942 3.39108,-3.81496 l 2.5433,-6.35826 c 1.27165,-2.5433 4.23884,-4.66272 5.51049,-6.78214 1.69554,-2.11942 2.54331,-3.81496 3.81496,-5.93438 0.84777,-2.11942 2.5433,-4.66272 3.81495,-6.35826 1.69554,-2.96719 2.96719,-4.66272 4.23884,-7.62991 0.42389,-1.69554 1.69554,-2.5433 2.54331,-3.81496 0.84777,-1.27165 1.27165,-2.5433 1.69553,-3.81495 1.27166,-1.69554 2.54331,-2.54331 2.96719,-5.08661 0.42389,-2.11942 -0.42388,-6.78214 -2.11942,-8.47768 -1.27165,-1.69554 -4.23884,-2.11942 -4.23884,-4.66272 -0.84777,-6.35826 26.28081,-0.84777 30.51965,0.84776 5.08661,1.69554 8.90156,2.54331 11.44487,6.78215 3.39107,4.66272 4.23884,10.17321 3.81495,15.68371 z m -106.39488,-24.58528 v -0.42388 c -0.42389,1.69554 -1.27165,5.08661 -2.54331,5.08661 -1.69553,0 -1.69553,-4.66273 0.84777,-4.66273 0.42389,0 0.84777,0 1.69554,-0.42388 0,0 0,-0.42388 0.42388,-0.42388 l -0.42388,0.42388 c 0.42388,0 1.27165,-0.42388 1.27165,-0.42388 -0.42388,0.42388 -0.84777,0.84776 -1.27165,0.84776 z m 0,-0.42388 c 0,0 0,0 0,0 z m 31.7913,2.96719 c -0.84777,0 -0.84777,-0.42389 -0.84777,-0.84777 0.42389,-1.69554 2.96719,0.84777 0.84777,0.84777 z m -48.74666,5.51049 c -1.69554,0.42388 -1.27165,0 -2.54331,1.69554 -0.42388,0.84776 -0.84776,3.81495 -1.27165,3.81495 -1.69553,1.27165 -2.11942,-1.27165 -2.5433,-2.5433 l -0.42389,-4.23884 c 1.27166,-2.11942 0.84777,0 2.96719,0 1.69554,0 2.11942,-2.54331 3.81496,-2.54331 1.27165,0 2.11942,-1.69553 3.39107,0.42389 1.27165,2.11942 -1.69554,2.5433 -3.39107,3.39107 z m 8.47768,-0.42388 c -2.11942,-1.69554 0.84777,-4.23884 2.5433,-2.11942 0,0.42388 -0.84777,3.39107 -2.5433,2.11942 z m 11.44487,0.42388 c 0,0 0,-0.84777 0.42388,-0.84777 0.84777,0.42389 0,1.69554 -0.42388,0.84777 z m 50.86608,1.69554 c -0.42389,0 0.42388,2.5433 -1.27165,0.84776 -2.11942,-2.11942 1.27165,-1.27165 1.27165,-0.84776 z m -79.26631,1.27165 c -0.42389,1.27165 -1.27165,0.42388 -0.84777,0 0.42388,-0.42389 1.27165,0 0.84777,0 z m -10.5971,5.08661 c -0.84777,0 -0.84777,-1.27166 0,-1.69554 0.84777,0 0.84777,1.27165 0,1.69554 z m 12.29263,6.78214 c -0.42388,0 -0.84776,-0.42388 -0.84776,-0.84777 0.42388,-1.69553 3.39107,0.42389 0.84776,0.84777 z m -22.46585,5.08661 c 0,0 2.11942,-1.69554 2.11942,0.42388 0,2.11942 -2.11942,-0.42388 -2.11942,-0.42388 z m -2.96719,0.42388 c 0,-0.84777 1.27166,-0.84777 1.27166,0 0,0.84777 -1.27166,0.84777 -1.27166,0 z m -8.05379,0.42389 c 0.84777,-0.42389 0.84777,1.27165 0.42388,1.27165 -0.42388,-0.42389 -0.84777,-0.84777 -0.42388,-1.27165 z m -0.42389,5.93437 c -1.69553,0 -3.39107,-3.39107 -0.84776,-3.39107 1.69553,0 3.39107,3.81496 0.84776,3.39107 z m -6.78214,2.96719 c -0.42388,-0.84777 1.27165,-0.84777 1.27165,0 0,0.84777 -1.27165,0.84777 -1.27165,0 z m 100.03663,10.5971 c -0.42389,0.42388 -0.84777,0.42388 -1.27166,0.42388 -0.42388,0 -2.11942,-1.27165 -2.11942,-2.11942 0.84777,-1.27165 3.81496,0.84777 3.39108,1.69554 z m -22.88974,7.62991 c 0.84777,0.84777 -1.27165,0.84777 -1.69554,0.84777 -0.84777,-0.42388 0.84777,-1.69554 1.69554,-0.84777 z m 8.90156,1.69554 c -0.84776,0 -1.27165,0 -1.27165,-0.84777 0.84777,-1.27165 3.39107,0.84777 1.27165,0.84777 z m -14.41205,14.41205 c 0.42388,1.27166 -2.54331,1.27166 -2.96719,0.42389 -0.84777,-0.84777 2.11942,-2.11942 2.96719,-0.42389 z m -5.93438,0 c 0,0.42389 -1.27165,0.84777 -1.27165,0 0,-0.84776 1.27165,-0.84776 1.27165,0 z m 12.29264,1.69554 c 2.96719,0 0,4.23884 -0.84777,3.39107 -0.84777,-0.42388 -0.42389,-3.39107 0.84777,-3.39107 z m -4.66273,1.69554 c 1.27165,0 1.27165,2.11942 0,2.11942 -1.69553,0 -1.69553,-2.54331 0,-2.11942 z m -3.39107,6.78214 c -0.84777,-0.84777 -1.69554,-5.08661 0.42388,-5.51049 1.27166,0 0.84777,6.78214 -0.42388,5.51049 z m 99.18886,-2.11942 c -1.27165,-0.42388 0.84777,-1.69554 1.27165,-0.84777 1.27165,0.84777 -0.84777,1.27165 -1.27165,0.84777 z m -94.52614,1.69554 c -1.27165,1.69553 -3.39107,-0.42389 -1.27165,-1.69554 1.69554,-0.84777 2.54331,0.42388 1.27165,1.69554 z m -6.35826,-1.27166 c 0,0.42389 0,1.27166 -0.42388,0.84777 -0.84777,-0.42388 0,-1.27165 0.42388,-0.84777 z m -3.39107,3.81496 c 0,0 0,1.27165 -0.42388,0.84777 -0.84777,-0.42389 0,-1.27165 0.42388,-0.84777 z m 2.54331,0.84777 c 0.84776,0 0.84776,1.27165 0,1.27165 -0.84777,0 -0.84777,-1.27165 0,-1.27165 z m 91.55894,1.69553 c -0.84777,0 -0.84777,-1.27165 0,-1.27165 0.84777,0 0.84777,1.27165 0,1.27165 z m 7.20603,0.42389 c -0.42388,0.84777 -1.27165,0 -0.84777,-0.42389 0.42389,0 1.27165,0 0.84777,0.42389 z m -102.57993,1.69553 c 2.11942,-2.5433 5.93438,-0.42388 3.39107,2.11942 -2.11942,1.69554 -6.35826,0.84777 -3.39107,-2.11942 z m -3.81496,4.66273 c 0.84777,1.27165 -4.66272,2.96719 -5.0866,2.96719 -1.69554,-1.27166 2.5433,-5.5105 5.0866,-2.96719 z m 90.71118,-0.84777 c -0.42388,0.42388 -0.84777,0.42388 -0.84777,0 -0.42388,-0.42388 1.69554,-0.42388 0.84777,0 z m -2.5433,5.51049 c -0.84777,-0.42388 -0.42389,-1.69553 0.42388,-0.84777 0,0 0,0.84777 -0.42388,0.84777 z m -97.49332,-0.42388 c 2.5433,0 4.66272,-0.84777 4.66272,1.27165 0,0.84777 -1.69554,3.81496 -2.96719,3.81496 -2.96719,0 -7.62991,-4.66273 -1.69553,-5.08661 z m 103.42769,1.27165 c 0.42389,-0.42388 0.42389,1.69554 0,0.84777 -0.42388,0 -0.42388,-0.42389 0,-0.84777 z m -91.98283,1.27165 -0.42388,0.84777 c -0.84777,-0.42388 -0.42388,-1.69554 0.42388,-0.84777 z m -11.44486,5.08661 c -0.42389,-0.42388 -0.42389,-0.84777 0,-1.27165 0.42388,-0.84777 0.42388,1.27165 0,1.27165 z m 112.32926,0.42388 c -0.42389,-0.42388 -0.42389,-0.84776 0,-0.84776 0.42388,-0.42389 0.42388,1.69553 0,0.84776 z m -114.0248,0 c 2.11942,1.27166 0.42388,1.69554 -0.84777,2.11942 -2.11942,0 -1.69553,-3.39107 0.84777,-2.11942 z m 105.971,1.69554 c -0.42388,0 -1.27165,-0.42388 -0.84777,-0.42388 0.42389,-0.84777 1.27166,-0.42389 0.84777,0.42388 z m -21.1942,2.11942 c -1.27165,-1.27165 2.11942,-2.5433 2.96719,-2.5433 2.96719,0 -0.42388,4.23884 -2.96719,2.5433 z m 15.68371,-0.42388 c 0.42388,0 0.84777,-0.42389 1.27165,-0.42389 1.27165,0 0.42389,1.69554 0.42389,2.11942 0,0 -2.11942,-0.84777 -1.69554,-1.69553 z m -101.73216,2.11942 c 1.27165,0 1.27165,-0.84777 1.69553,-0.84777 0.84777,-0.42389 2.11942,0.42388 2.11942,0.42388 0.84777,0 2.54331,-2.11942 3.39108,-0.84777 1.69553,1.69554 -4.23884,4.23884 -4.23884,4.66273 0,-0.84777 0.84776,-1.27165 0.84776,-0.84777 0.42389,-0.84777 0,-2.5433 -1.27165,-2.5433 -1.69553,-0.42389 -0.42388,1.69553 -1.27165,1.69553 -1.69554,0.42389 -4.66272,-1.27165 -1.27165,-1.69553 z m 95.3739,1.69553 c -2.96719,0 -2.11942,-2.5433 0,-2.5433 2.11942,0 2.96719,2.11942 0,2.5433 z m -5.51049,-0.42388 c -0.42389,0 0.84777,-2.11942 1.27165,-1.69554 0.42388,0.42389 0.84777,0.84777 0.42388,1.27165 0.42389,1.27166 -1.27165,0.42389 -1.69553,0.42389 z m -100.46051,0 c 1.69553,-0.42389 1.27165,2.11942 0.42388,2.96719 -2.11942,2.11942 -2.96719,-2.54331 -0.42388,-2.96719 z m 113.60091,1.69553 c 0.42389,0 2.11942,-1.27165 2.11942,0 0,1.69554 -2.5433,0 -2.11942,0 z m -21.61808,19.49867 c -1.27165,0.84777 -0.84777,3.81495 -2.96719,2.5433 -2.11942,-1.27165 0,-2.11942 -0.42388,-3.39107 0,-0.42388 0,-0.84777 0,-0.84777 h -1.27166 c -1.27165,0 -2.96718,1.69554 -4.23884,1.69554 -0.84776,0 -4.66272,-2.11942 -5.51049,-2.54331 -0.42388,-0.84776 -1.69553,-0.84776 -1.27165,-2.11942 0.84777,-1.69553 2.11942,0.42389 2.96719,0.42389 3.39107,-0.84777 -1.27165,-0.84777 0.42388,-2.96719 1.27165,-1.27165 1.27165,-2.96719 2.54331,-4.23884 2.96718,-1.69554 2.96718,0.84777 2.96718,-2.96719 0.42389,-1.69553 -0.42388,-3.81495 2.11942,-2.96719 3.39108,0.84777 2.54331,3.39108 2.11942,5.08661 -0.42388,0.84777 -0.84776,1.69554 -0.84776,2.54331 0,0.84776 1.69553,0 1.69553,0.42388 0,2.5433 -2.96719,1.69554 -4.23884,2.96719 -1.69553,2.11942 0.42389,3.39107 2.11942,2.5433 0.42389,0 0,-1.27165 0.84777,-1.69553 l 2.11942,0.84776 c 1.27165,0.84777 1.69554,1.27166 2.5433,2.11942 0.42389,0 1.69554,-0.84776 1.69554,-0.42388 1.27165,2.11942 -2.5433,2.11942 -3.39107,2.96719 z m 23.31362,-15.68371 c 0,0 0.42388,-2.11942 1.27165,-1.69554 0.42388,0.42389 0.84777,0.84777 0.42388,1.27166 0.42389,1.27165 -1.27165,0.42388 -1.69553,0.42388 z m -108.09042,-0.42388 c 0.42388,-0.42389 0.84776,0 1.27165,0.42388 1.27165,2.11942 -4.23884,-0.42388 -1.27165,-0.42388 z m 86.89622,0.42388 c 0.84777,0 0.84777,1.27165 0,1.27165 -0.84777,0 -0.84777,-1.27165 0,-1.27165 z m -83.08127,0.42388 c 0,0.84777 -1.27165,0.84777 -1.27165,0.42389 0,-0.84777 1.27165,-0.84777 1.27165,-0.42389 z m -16.10759,5.08661 -0.42388,-2.11942 c 1.69553,-1.27165 1.69553,0 3.39107,1.27165 0.42388,0.84777 3.81495,4.23884 4.66272,1.69554 0.42389,-0.42388 -2.5433,-0.84777 -2.11942,-1.27165 1.27165,-1.69554 5.08661,-0.84777 4.66273,1.69553 0,1.27166 -3.39108,3.39108 -4.66273,2.11942 -2.11942,-1.69553 -4.66272,1.27166 -6.35826,0 -1.27165,-1.27165 0.84777,-2.5433 0.84777,-3.39107 z m 13.98817,1.27165 c 0,0.84777 -0.42388,0.84777 -0.84777,1.27166 -1.69553,-0.84777 0.84777,-3.39108 0.84777,-1.27166 z m 83.50515,2.96719 c -1.69553,-1.69553 2.11942,-3.81495 2.96719,-1.27165 1.27165,2.96719 -1.69554,2.11942 -2.96719,1.27165 z m 12.71652,5.51049 c 0,0 -0.84777,0 -0.84777,-0.42388 0.42389,-0.84777 1.69554,0 0.84777,0.42388 z m -29.24799,2.54331 c -0.42389,0.42388 -0.42389,-1.69554 0,-0.84777 0.42388,0 0.42388,0.42388 0,0.84777 z m -91.55895,-0.42389 c 1.27165,0.84777 0,2.96719 0.84777,4.23884 0.42388,1.27166 4.66272,1.69554 0,2.11942 -0.42389,0 -4.66273,-2.5433 -5.08661,-2.96718 0,-1.27166 2.5433,-4.23884 4.23884,-3.39108 z m 82.65738,2.54331 c 0.42389,-1.69554 3.39107,0.42388 0.84777,0.42388 -0.42388,0.42389 -0.84777,0 -0.84777,-0.42388 z m -79.69019,0.42388 -0.42389,0.84777 c -0.84776,-0.42388 -0.42388,-1.69554 0.42389,-0.84777 z m -9.74933,0.84777 c 1.69553,0 1.69553,2.5433 0,2.5433 -1.27166,0 -1.27166,-2.5433 0,-2.5433 z m 77.99465,0.42388 c -0.42388,0.42389 -0.84776,0.42389 -0.84776,0 -0.42389,-0.42388 1.69553,-0.42388 0.84776,0 z m -2.5433,1.69554 c 0,0 -0.42388,0 -0.84777,-0.42388 -0.42388,-0.42389 1.69554,-0.42389 0.84777,0.42388 z m 12.29264,2.96719 c -0.84777,1.27165 -3.39108,1.69553 -4.66273,1.69553 -1.69553,0 -3.39107,-1.69553 -2.11942,-3.39107 l 4.66273,-0.84777 c 1.27165,0 1.27165,-1.27165 2.11942,0.42389 0.42388,0.84777 0.42388,1.69553 0,2.11942 z m 2.5433,-2.11942 c 0,-0.84777 1.27165,-0.84777 1.27165,0 0.42389,0.84777 -1.27165,0.84777 -1.27165,0 z m 2.5433,2.5433 c 0,-2.11942 2.11942,0.42389 2.11942,0.42389 0,0 -2.11942,1.69553 -2.11942,-0.42389 z m -12.71652,8.0538 c -2.11942,-0.84777 1.69554,-2.54331 -0.84776,-2.96719 -2.54331,0 -2.96719,3.81496 -4.66273,4.66273 -0.84777,0.42388 -1.27165,-0.84777 -1.69553,-0.84777 -0.42389,0.42388 0,0.84777 -0.42389,1.27165 -2.11942,1.27165 -2.5433,3.81496 -5.08661,1.69554 -2.11942,-1.27166 -0.84776,-5.08661 0.42389,-6.78215 1.69553,-2.5433 1.69553,-1.27165 4.23884,-0.84777 1.27165,0 2.5433,0 3.81495,-0.84777 0.84777,-0.42388 0,-1.69553 1.69554,-1.69553 1.27165,0 0.84777,-2.54331 1.69554,-2.54331 1.27165,0.84777 -0.42389,2.11942 -0.42389,2.96719 0.42389,4.66273 4.23884,-1.27165 6.35826,0.84777 0.42389,0 -3.81495,5.51049 -5.08661,5.08661 z m -13.98817,-4.66273 c 0.84777,0.84777 -1.27165,1.27166 -1.69554,0.84777 -1.27165,-0.42388 0.84777,-1.69553 1.69554,-0.84777 z m 22.46585,2.54331 c 0,-0.42389 0,-0.84777 0.42389,-0.84777 0.42388,-0.42388 0.42388,1.27165 -0.42389,0.84777 z m -38.99733,1.27165 c 0,-0.42388 0,-0.84777 0.42389,-0.84777 0.42388,-0.42388 0.42388,1.69554 -0.42389,0.84777 z m 4.23884,5.51049 c 0,-0.84776 1.69554,-0.42388 1.69554,-0.84776 0,-0.84777 -0.84777,-2.11942 -0.84777,-2.11942 0.42389,-0.84777 -0.42388,-1.27166 1.27165,-1.27166 4.66273,-0.42388 -2.5433,9.32545 -2.11942,4.23884 z m -0.84776,-2.96718 c 0.42388,1.69553 -2.11942,1.69553 -2.11942,0 -0.42389,-1.27166 2.11942,-1.27166 2.11942,0 z m 10.5971,5.93437 c -2.96719,0 -1.69554,-2.5433 0.42388,-2.5433 3.81496,-0.42389 1.69554,2.5433 -0.42388,2.5433 z m 10.5971,-0.84777 c -0.84777,-2.5433 0.84777,-1.69553 2.11942,-0.42388 1.27165,1.69554 -1.27165,2.11942 -2.11942,0.42388 z m -22.88974,-1.27165 c 1.69554,0 0,2.54331 0,2.11942 0,0 -1.27165,-1.69553 0,-2.11942 z m -2.5433,4.66273 c -1.27166,-0.42389 0.84776,-3.39108 0.84776,-0.84777 0.42389,0.42388 0,0.84777 -0.84776,0.84777 z m 27.55246,2.5433 c -0.84777,2.11942 -5.93438,-0.42388 -2.96719,-2.5433 0.84777,-1.27166 0.84777,1.27165 1.27165,1.69553 0,0 2.11942,0 1.69554,0.84777 z m -19.07478,-1.69554 c 0,0 0,-0.84776 0.42388,-0.84776 0.84777,0.42388 0.42388,1.69553 -0.42388,0.84776 z m 11.44487,1.27166 c -0.84777,-0.42389 0,-1.69554 0.42388,-0.84777 0,0 0,0.84777 -0.42388,0.84777 z m -4.23885,0 c 0,-2.11942 2.11943,0.42388 2.11943,0.42388 0,0 -2.11943,1.69554 -2.11943,-0.42388 z m -13.98817,0.42388 c -0.84777,-0.84777 4.66273,-1.27165 4.66273,-1.27165 1.27165,0.84777 -2.54331,3.39107 -4.66273,1.27165 z m -1.69553,1.69554 c 0,0 0.42388,0 0.42388,0 v -0.42389 c -0.42388,0 -0.42388,0 -0.42388,0 z m -1.69554,3.39107 c -0.42388,-0.42389 -0.84777,-0.84777 -0.42388,-0.84777 0.84776,-0.84777 0.84776,1.27165 0.42388,0.84777 z"/>
   <path d="m 578.78396,700.27919 c -1.27165,1.27166 -2.11942,2.54331 -3.39107,3.39108 -0.84777,0.42388 -2.5433,1.27165 -2.96719,1.69553 -2.5433,2.11942 -5.0866,5.08661 -6.78214,7.20603 -2.11942,2.96719 -4.23884,4.66272 -7.20603,6.35826 -2.5433,2.11942 -4.66272,5.08661 -6.78214,7.20603 -2.54331,2.5433 -5.51049,3.81495 -8.0538,6.78214 -2.5433,2.11942 -4.66272,5.51049 -7.62991,7.62991 -0.42388,0.42389 -1.69554,0.42389 -2.5433,0.84777 -0.84777,0.84777 -1.69554,2.11942 -2.11942,2.96719 -2.96719,3.39107 -5.5105,8.0538 -8.90157,10.17322 -3.81495,2.11942 -6.78214,3.81495 -10.17321,7.20602 -0.84777,0.84777 -1.69554,2.11942 -2.96719,2.96719 -0.84777,0.42389 -1.69554,-0.42388 -1.69554,0 -1.27165,0 -3.39107,0.42389 -4.23884,0.84777 -1.69553,0.42388 -3.39107,1.69554 -4.66272,2.5433 -2.54331,1.27166 -4.23884,0.84777 -5.51049,3.81496 -2.11942,-1.69554 -2.54331,-3.81496 -1.27166,-6.35826 0,0 0,-0.84777 0.42389,-0.84777 l 1.69553,-1.27165 c 1.69554,-2.11942 1.27166,-3.81496 1.69554,-6.35826 0.42388,-1.69554 2.96719,-5.93438 4.23884,-7.20603 0,0 2.11942,-1.69553 2.11942,-1.27165 0.42388,-2.11942 -1.69554,-2.5433 -0.84777,-4.66272 0,-0.42389 2.11942,-1.27166 2.54331,-1.69554 0,-0.42388 -0.42389,-1.27165 0,-1.69554 1.27165,-1.27165 2.11942,-1.27165 3.39107,-2.11942 1.69553,-1.27165 3.39107,-2.96718 4.23884,-4.66272 0.42388,-0.84777 -1.27165,-1.27165 -1.27165,-1.69554 0.42388,-0.84776 1.27165,-1.27165 1.69553,-1.69553 1.27165,-0.84777 0.84777,-1.27165 -0.42388,-2.11942 0.84777,-1.27165 2.11942,-2.96719 3.39107,-4.23884 0.84777,-1.69554 1.69554,-2.54331 2.5433,-3.81496 0.42389,-1.27165 1.27166,-2.11942 1.69554,-2.96719 0.84777,-1.69553 0,-1.27165 0.84777,-2.11942 1.27165,-1.27165 2.5433,-0.84776 3.39107,-2.11942 1.27165,-1.27165 0.84777,-2.5433 1.27165,-3.81495 0.42389,-1.27165 2.11942,-2.11942 2.11942,-3.39107 0.42389,-0.42389 0.42389,-1.69554 0,-2.54331 -0.42388,-2.5433 0,-0.42388 -0.84777,-2.5433 0,0.42388 -1.27165,-1.69554 -1.27165,-1.69554 -0.42388,-0.84777 -0.84777,-2.11942 -1.27165,-2.5433 -2.11942,-3.39107 -3.81496,-3.81496 -7.20603,-5.51049 -3.39107,-1.69554 -3.81495,-4.23884 -5.93437,-7.62992 -0.84777,-1.27165 -2.54331,-2.5433 -2.96719,-4.23884 -0.42389,-1.69553 0,-3.81495 -1.27165,-5.0866 -0.84777,-1.27166 -3.81496,-2.54331 -4.66273,-2.96719 l -4.66272,-2.54331 c -2.96719,-1.27165 -6.78215,-2.96718 -9.74933,-2.96718 -0.42389,0 -3.39108,1.27165 -3.39108,1.27165 h -0.84776 c -0.84777,-0.42389 -1.69554,0 -2.11942,1.27165 -0.84777,0 -1.69554,-0.42388 -2.54331,0 -0.84777,0.42388 -1.27165,1.27165 -1.69553,1.69554 -1.69554,0.84776 -2.96719,2.11942 -4.66273,2.96718 -0.42388,0.42389 -2.11942,0 -2.5433,0 -0.42389,0.42389 -2.11942,1.27166 -2.54331,1.27166 -1.69553,0.84776 -2.5433,1.27165 -3.81495,2.5433 -1.27165,1.69554 -1.27165,1.69554 -2.96719,2.5433 -3.39107,2.11942 -7.20603,3.39108 -10.17322,6.35826 -3.39107,3.39108 -7.20602,6.35826 -10.17321,8.90157 -2.11942,2.11942 -3.81496,5.08661 -5.51049,7.20603 -0.42389,0.84776 -1.27166,1.27165 -1.69554,2.11942 -0.42388,0.42388 -0.42388,1.27165 -0.84777,1.69553 -0.84777,0.84777 -2.96719,1.27165 -4.23884,2.96719 -1.27165,1.69554 -0.84777,2.96719 -2.11942,4.66272 -1.27165,1.69554 -2.5433,2.54331 -3.39107,4.23884 0,0.84777 -0.42388,2.11942 -0.42388,2.54331 -0.42389,0.84777 -1.27166,1.27165 -1.69554,2.11942 -0.42388,1.27165 -1.69554,3.39107 -2.11942,4.66272 -0.42388,0.84777 0,1.69554 0,2.54331 -0.42388,0.84776 -1.27165,1.27165 -1.27165,2.11942 -0.84777,2.11942 -0.84777,3.81495 -1.69554,5.93437 0,0.84777 -0.84777,1.27165 -1.27165,2.11942 0,0.84777 0.42388,1.69554 0,2.54331 0,0.42388 -1.27165,0.84776 -1.27165,1.27165 0,1.27165 0.84777,1.27165 0.84777,2.11942 0.42388,1.27165 0,2.11942 0,2.96719 0,0.84776 -0.84777,0.84776 -0.84777,1.69553 0,1.27165 0.84777,1.69554 1.27165,2.96719 0,0.84777 -0.42388,1.69554 0,2.5433 0,1.27166 1.69554,2.96719 2.11942,4.23884 0.84777,1.27166 1.27165,2.96719 2.11942,4.23884 2.5433,5.5105 5.93438,10.17322 10.5971,14.41206 0.84777,0.84777 2.11942,1.27165 3.39107,2.11942 1.69554,1.27165 3.39107,3.39107 4.66273,5.08661 0,-0.42388 1.27165,0.42388 1.69553,0.42388 0,0.42389 -0.42388,1.27166 0,1.69554 1.69554,1.27165 3.81496,1.69554 5.51049,1.69554 4.66273,0 6.78215,-1.27166 9.32545,-4.66273 2.54331,-2.96719 5.51049,-5.93438 7.20603,-9.74933 0.42388,-1.27165 0.84777,-2.96719 1.69554,-3.81496 0.42388,-0.42388 1.27165,-0.84777 1.69553,-1.69553 0,-0.42389 0,-0.84777 0,-1.69554 l 1.27165,-1.27165 c 0.42389,-1.27165 1.27166,-2.96719 2.11942,-4.23884 0,-0.84777 0.42389,-1.69554 0.84777,-2.11942 0.84777,-0.84777 1.27165,0 2.11942,-1.69554 0.84777,-1.27165 0,-3.39107 2.11942,-3.39107 2.11942,0 2.54331,2.11942 2.96719,2.96719 0.42388,0.84777 0,0.84777 1.27165,2.5433 0.42389,0.42389 2.11942,1.27165 2.11942,2.11942 v 1.69554 c -1.27165,0.42388 -1.27165,1.27165 -0.42388,1.69553 0.42388,0.84777 1.27165,1.27166 2.11942,2.11942 2.5433,2.54331 3.81495,6.35826 6.35826,8.90157 l 3.39107,3.39107 c 1.27165,1.27165 2.5433,1.27165 3.39107,3.81496 0.84777,-0.42389 1.69554,1.27165 2.54331,1.27165 0.84776,0.42388 3.39107,-0.42388 4.23884,-0.42388 1.27165,-0.42389 1.69553,-1.27166 2.96718,-1.27166 1.27166,0 1.69554,1.27166 3.39108,0.84777 0.42388,0 2.11942,-1.69553 2.96718,-1.69553 0.84777,0 1.27166,0.84776 2.11942,0.84776 1.69554,-0.42388 3.39108,-1.69553 5.08661,-2.5433 2.11942,-2.11942 3.39107,-2.54331 5.93438,-4.23884 0.84777,-0.42389 3.39107,-2.11942 4.66272,-3.81496 3.39107,-4.23884 7.62991,-7.62991 11.44487,-11.86875 2.5433,-2.96719 3.81496,-5.93438 6.78214,-8.90156 2.54331,-2.11942 4.66273,-5.08661 6.78215,-7.62992 4.23884,-5.93437 9.74933,-11.02098 13.98817,-16.53147 0.42388,-1.27165 0.84777,-2.54331 2.11942,-3.39107 1.27165,-0.84777 2.11942,-0.84777 3.39107,-2.11942 1.27165,-1.27166 0.42389,-2.11942 0.84777,-4.23884 0.42388,-2.11942 0.42388,-2.11942 2.5433,-3.81496 2.11942,-2.5433 3.81496,-5.08661 5.08661,-7.62991 -0.42388,-1.27165 0,-2.11942 0.84777,-2.54331 l -0.84777,-1.27165 c 0,-0.84777 1.69554,-3.39107 2.11942,-3.81495 0.42389,-3.39108 -2.11942,-0.42389 -2.96719,0.84776 z m -89.8634,15.25983 c -0.42389,1.69553 -0.84777,1.69553 -1.69554,2.96719 -0.42388,0.42388 -0.42388,1.69553 -0.84777,2.11942 -1.27165,1.27165 -1.69553,1.27165 -2.5433,2.5433 0,0.84777 0,1.27165 0,2.11942 l -1.27165,1.27165 c -0.42389,0.84777 -0.42389,1.69554 -1.27166,2.54331 -0.84776,1.27165 -1.27165,1.27165 -2.11942,1.69553 -0.84776,0.84777 -1.27165,-0.42388 -1.69553,1.69554 0,0.84777 1.27165,1.69553 0.84777,2.96719 0,0.84776 -2.11942,2.11942 -2.96719,2.96718 -0.84777,0.84777 -0.84777,1.69554 -1.69554,2.96719 -0.42388,0.42389 -1.27165,0.42389 -1.27165,0.84777 -0.84777,0.84777 0,1.27165 -1.27165,2.5433 -1.27165,1.69554 -3.39107,0 -5.08661,1.27166 -0.42388,0.42388 -0.84777,2.11942 -0.84777,2.5433 -0.84777,1.27165 -2.5433,2.11942 -3.39107,2.96719 -3.81496,4.23884 -7.20603,9.32545 -11.44487,13.1404 -3.39107,3.39107 -4.66272,8.47768 -8.90156,11.44487 -1.69554,1.27165 -2.96719,1.69554 -4.66273,0.42388 -0.42388,-0.42388 -0.84776,-2.11942 -1.27165,-2.96718 -0.42388,-0.84777 -1.69553,-2.11942 -2.11942,-3.39108 -0.42388,-1.27165 -2.11942,-4.23884 -1.69553,-5.93437 0,-1.27165 2.96718,-5.08661 -0.42389,-2.96719 -1.69553,-0.42388 1.27165,-5.93438 1.69554,-7.20603 l 1.27165,-4.23884 c 0,-1.27165 0.42388,-2.11942 1.27165,-2.5433 1.27165,-0.42389 1.69554,-1.27165 1.27165,-2.11942 v -1.69554 c -1.27165,-0.84777 -1.27165,-1.69553 0,-2.5433 1.27166,-3.39107 2.54331,-0.42389 4.66273,-2.11942 0.84777,-0.42389 0.84777,-1.69554 1.27165,-2.11942 0.84777,-0.42389 1.27165,-1.27165 0.84777,-2.54331 -0.42389,-1.69553 0,-2.5433 1.27165,-3.39107 0.84777,-2.11942 1.69554,-4.66272 2.96719,-6.78214 -0.42389,0.84777 2.96719,-1.69554 2.11942,-1.27165 0,-0.42389 0.42388,-0.84777 0.84777,-1.27166 h 2.11942 c 0.84776,-0.42388 0.84776,-1.27165 1.27165,-2.11942 h 0.84777 c 1.27165,-1.69553 1.69553,-2.96718 2.5433,-4.66272 1.27165,-2.5433 3.39107,-4.23884 5.93438,-5.51049 0.42388,-1.27165 1.27165,-1.69554 2.5433,-1.27165 0.42388,0.42388 1.27165,0.42388 1.27165,-0.42389 0.84777,-0.42388 2.54331,-3.39107 3.39107,-4.23884 2.96719,-2.96719 6.78215,-7.62991 10.5971,-8.90156 0.42389,-1.27165 1.27166,-1.69554 1.69554,-0.42389 0.84777,0.42389 1.27165,0.42389 1.27165,-0.42388 v -0.84777 c 1.27165,-0.84777 2.11942,-2.11942 2.96719,-2.96719 2.11942,-1.27165 3.39107,-2.11942 5.93438,-2.5433 h 2.5433 c 0.84777,0 1.27165,0 1.69554,-0.84777 2.96718,0 5.0866,3.39107 5.0866,5.93438 0,2.96719 -1.69553,5.51049 -3.39107,8.05379 -2.96719,5.5105 -6.78214,10.17322 -10.17321,15.25983 z m -52.13774,-4.23884 c -0.42388,-0.84777 -0.42388,-1.27165 -0.42388,-1.69554 0.84777,-2.11942 1.69554,2.11942 0.42388,1.69554 z m -11.44486,18.65089 c -3.81496,0 -3.39108,-1.69553 -1.27166,-3.81495 1.27166,1.27165 2.54331,2.11942 1.27166,3.81495 z m 46.20335,11.02099 c -2.11942,-0.84777 -2.11942,1.27165 -1.27165,2.11942 0.42388,-0.84777 1.27165,-1.27165 2.11942,-0.84777 0,-0.84777 -0.42388,-1.27165 -0.84777,-1.27165 z m 13.98817,14.83594 -3.39107,1.27165 c 0,-0.84777 -4.23884,-2.11942 -5.08661,-2.96719 2.11942,-2.11942 2.54331,-2.11942 5.08661,-1.27165 1.27165,0.42388 4.23884,0.42388 3.39107,2.96719 z m -3.81495,2.5433 c -0.42389,0 -0.84777,0 -0.84777,-0.42388 0,0 0,-0.42389 0.42388,-0.42389 0.84777,-0.42388 0.84777,-0.42388 0.84777,0.42389 -0.42388,-0.42389 -0.42388,-0.42389 -0.84777,-0.42389 0.42389,0 0.42389,0.42389 0.42389,0.84777 z"/>
   <path d="m 686.87427,715.11513 c 0,-3.39107 -2.11942,-0.42388 -3.39107,0.42389 -0.84777,1.27165 -1.69554,2.5433 -2.96719,3.39107 -0.84777,0.42388 -2.11942,0.84777 -2.96719,1.69554 -2.11942,1.69553 -5.08661,4.23884 -6.35826,6.35826 0,0.84776 0,1.69553 -0.84777,2.11942 -0.84776,0.42388 -1.69553,1.27165 -2.11942,2.11942 l -3.39107,2.11942 c -2.5433,2.11942 -5.08661,4.66272 -7.20603,7.20602 -2.5433,2.54331 -5.0866,3.39108 -7.20602,5.93438 -2.54331,2.11942 -4.66273,5.51049 -7.62992,7.20603 -1.69553,1.69553 -2.96718,1.69553 -4.66272,4.23884 -2.96719,3.39107 -5.08661,8.05379 -8.90156,10.17321 -2.96719,2.11942 -5.5105,2.96719 -8.47768,5.93438 -2.11942,2.11942 -3.81496,3.39107 -5.93438,4.23884 -0.84777,0 -2.11942,0.42388 -3.39107,0.42388 -1.69554,0.84777 -2.54331,1.69554 -4.23884,2.96719 -2.54331,0.84777 -4.66273,-0.42388 -5.93438,2.96719 0,-1.27165 -2.96719,-0.42388 -3.39107,-0.42388 0,-2.11942 0,-3.81496 0.84777,-5.93438 l 1.27165,-2.11942 c 1.27165,-2.96719 3.39107,-5.51049 1.27165,-7.62991 3.81496,-1.69554 5.51049,-6.35826 7.20603,-9.74933 l 3.39107,-5.93438 c 1.27165,-1.69554 1.69554,-4.66272 2.96719,-6.35826 0.42388,-0.42388 1.69554,-0.42388 1.69554,-0.84777 0.42388,-0.42388 0.42388,-0.84777 0.84776,-1.69553 0.84777,-1.69554 2.54331,-3.81496 3.39108,-5.93438 0,-0.84777 0,-1.69554 0.42388,-2.5433 0.42388,-0.84777 1.27165,0 1.69554,-0.42389 1.27165,-2.5433 0.84776,-3.81495 1.69553,-6.78214 0.42389,-1.69554 1.69554,-2.11942 1.27165,-4.66273 -0.42388,-1.27165 -0.84776,-1.27165 -1.27165,-2.96718 -0.84777,-2.11942 0,-2.54331 -1.27165,-4.66273 0,-0.42388 -0.84777,-1.69553 -1.27165,-2.11942 -0.84777,-1.27165 -2.54331,-2.11942 -3.39107,-3.81495 -0.42389,-0.42389 -1.27166,-2.11942 -1.69554,-2.11942 l -4.66272,-4.23884 c -1.69554,-2.11942 -2.96719,-4.23884 -3.81496,-6.78215 0,-0.42388 0,-0.84777 0,-1.69553 l -2.11942,-2.11942 c -0.42388,-2.11942 0.42388,-0.42389 0.84777,-2.54331 0.42388,-0.42388 0.84777,-0.84777 1.27165,-1.27165 v -3.81496 c 0.42388,-1.27165 1.27165,-0.42388 1.27165,-2.5433 v -0.84777 c -1.27165,-0.84777 -1.27165,-1.69553 0.42389,-2.96719 0,-1.69553 0,-1.69553 0.84776,-3.39107 1.27166,-2.11942 2.96719,-3.39107 3.81496,-5.93437 0.42388,-1.27166 0,-2.11942 0.42388,-2.96719 0.42389,-0.84777 1.27166,-1.69554 1.69554,-2.11942 1.27165,-1.69554 2.96719,-4.23884 3.81496,-5.93438 1.27165,-2.5433 3.39107,-4.23884 3.81495,-7.20603 0,-2.11942 0.42389,-6.78214 -0.42388,-8.90156 -0.42389,-1.69554 -3.39107,-3.39107 -5.08661,-4.23884 -0.84777,-0.42388 -1.69554,-0.84777 -2.5433,-0.84777 h -0.84777 c -0.84777,0 -1.69554,-1.27165 -2.54331,-1.27165 -1.27165,0 -3.39107,1.27165 -3.39107,1.27165 -0.42388,0 -2.11942,0.84777 -2.5433,1.27165 -4.66273,3.39108 -8.90157,8.47768 -11.86875,12.71652 -2.11942,2.11942 -2.54331,3.39108 -3.81496,5.93438 -0.84777,2.5433 -1.27165,5.51049 -2.5433,8.0538 -1.69554,4.66272 -1.27166,10.17321 -2.96719,14.83594 -1.69554,3.81495 -4.23884,5.93437 -6.35826,8.90156 -3.39107,4.23884 -5.51049,8.47768 -8.0538,12.71652 -1.69553,2.5433 -2.96719,4.23884 -4.23884,6.78214 -0.84777,1.69554 -1.27165,2.11942 -2.5433,3.81496 -1.27165,0.84777 -1.69554,2.5433 -2.54331,3.39107 -1.69553,2.54331 -4.23884,4.66273 -5.93437,7.20603 -0.42389,0.84777 -0.84777,2.5433 -1.27165,2.96719 -0.84777,1.69553 -2.54331,2.96719 -3.81496,4.23884 -2.5433,2.5433 -2.96719,5.08661 -5.08661,8.05379 -0.42388,0.84777 -2.11942,1.69554 -2.5433,2.54331 -1.27165,1.69553 -0.42389,2.96719 -2.11942,4.23884 2.11942,1.69553 4.23884,4.23884 7.20603,2.5433 0.42388,0 0,-0.84777 0.42388,-1.27165 0.42388,-0.42388 1.27165,-0.42388 1.27165,-0.42388 2.11942,-1.69554 3.81496,-3.81496 5.51049,-5.5105 2.11942,-2.11942 3.81496,-5.0866 5.93438,-7.20602 1.69554,-2.11942 3.81496,-3.81496 5.51049,-5.93438 0.84777,-1.27165 2.11942,-2.11942 2.96719,-3.39107 0.84777,-1.27165 0.84777,-3.39107 1.69554,-4.23884 1.27165,-1.69554 2.96718,-2.54331 3.81495,-4.23884 0.84777,-1.69554 1.69554,-3.39107 2.96719,-5.08661 1.27165,-1.69554 1.69554,-4.23884 2.96719,-6.35826 1.27165,-1.69554 2.96719,-2.96719 3.81495,-4.66272 0.84777,-1.27166 1.27166,-2.96719 2.54331,-4.66273 2.5433,-4.66272 3.81495,-0.84777 6.35826,1.69554 1.27165,1.69553 3.81495,3.39107 5.08661,5.08661 l 1.69553,5.51049 c 0.42389,2.11942 -0.42388,3.81495 -1.27165,5.51049 -0.42388,0.84777 -0.42388,1.69554 -1.27165,2.96719 -0.84777,1.69553 -2.11942,2.5433 -3.39107,3.81495 -1.27166,1.69554 -1.69554,2.96719 -2.96719,4.66273 -5.08661,5.08661 -7.62991,10.5971 -10.5971,16.53147 -2.11942,4.66273 -5.08661,10.17322 -5.93438,16.1076 -0.42388,0.84776 0,1.69553 0,2.11942 0,0.84776 0,1.69553 -0.42388,2.5433 0,0.42388 -0.42389,0.84777 -0.84777,0.84777 0,0.42388 0.84777,1.69553 1.27165,2.5433 v 1.69554 c -0.42388,0.84777 0,1.69553 1.27165,2.11942 1.27166,2.5433 1.69554,5.51049 2.96719,8.05379 0.42389,0.84777 1.27165,1.27166 1.69554,2.11942 0,0.42389 0.42388,2.11942 0.84777,2.54331 0.42388,1.69554 0.84776,3.39107 1.69553,5.08661 0.42389,0.84777 0,1.27165 0.42389,2.11942 0.84776,1.27165 1.69553,1.69553 2.5433,2.5433 1.27165,1.27165 2.11942,2.11942 1.69554,3.81496 2.5433,0 5.51049,2.5433 7.20602,3.81495 2.54331,1.69554 1.27166,1.69554 4.23884,2.11942 2.11942,0.42389 5.08661,0.42389 6.78215,0 2.96719,-0.42388 5.08661,-2.96718 8.05379,-4.23884 0,-0.42388 0.42389,-0.84776 1.27166,-0.84776 0,0 0.42388,0.42388 0.84776,0.84776 l 2.96719,-0.84776 c 2.11942,-1.27166 3.39107,-2.96719 5.08661,-4.23884 2.11942,-1.27166 3.81496,-1.27166 5.51049,-2.54331 1.69554,-1.27165 2.96719,-3.39107 3.81496,-5.08661 2.5433,-2.96719 5.51049,-4.23884 8.05379,-7.20603 2.11942,-2.11942 2.96719,-4.66272 4.66273,-6.78214 2.5433,-2.96719 5.51049,-5.51049 7.62991,-8.47768 2.5433,-3.39107 5.08661,-6.35826 8.0538,-9.32545 2.5433,-2.5433 4.23884,-5.08661 6.35826,-7.62991 2.11942,-2.5433 2.96718,-3.81496 5.51049,-5.93438 2.96719,-2.11942 1.27165,-5.0866 3.39107,-7.62991 0.84777,-0.84777 1.69554,-1.69553 2.11942,-2.5433 1.27165,-0.42389 1.69554,-1.27165 1.27165,-2.54331 1.27165,-1.27165 2.11942,-2.11942 2.54331,-3.81495 0,-0.42389 0,-1.27165 0.84776,-1.69554 0.84777,-0.42388 0.42389,-1.27165 -0.84776,-1.69553 0.42388,-0.84777 1.69553,-2.96719 2.5433,-3.39108 z"/>
   <path d="m 839.89869,706.21357 c -2.96719,2.96719 -5.93437,4.66272 -8.90156,7.62991 -1.69554,1.69554 -2.11942,2.96719 -3.39107,4.66273 -1.27166,1.69553 -2.96719,2.5433 -4.66273,3.39107 -3.81495,2.96719 -6.35826,7.62991 -10.17321,10.17321 -1.69554,1.27166 -3.39108,2.11942 -5.08661,3.81496 l -4.66273,4.66272 c -2.5433,2.96719 -5.0866,3.39108 -7.20602,6.78215 l -5.93438,7.20603 c -1.69554,2.11942 -2.96719,2.5433 -5.51049,3.81495 -2.11942,1.27165 -4.23884,2.96719 -6.35826,5.08661 -2.54331,2.5433 -3.39107,3.39107 -6.35826,3.81496 -2.54331,0 -3.39107,1.27165 -5.51049,2.11942 -2.54331,1.69553 -5.5105,2.11942 -8.47768,2.11942 -3.39108,0 -9.32545,0.84776 -12.29264,-0.84777 -2.96719,-2.11942 -8.47768,-7.62991 -5.08661,-11.02099 0.84777,-0.84776 2.54331,-0.84776 4.23884,-1.27165 1.27165,-0.84777 2.96719,-1.27165 4.23884,-2.11942 1.27165,-0.84777 2.54331,-1.69553 3.81496,-2.11942 2.11942,-0.84777 3.81495,-0.84777 5.51049,-1.69553 2.96719,-1.69554 5.08661,-5.08661 8.0538,-6.35826 1.27165,-0.84777 2.5433,-0.42389 3.81495,-1.27166 1.27165,-0.84776 2.54331,-2.11942 3.81496,-3.39107 1.27165,-1.27165 2.11942,-0.84777 3.81495,-1.69553 l 1.69554,-0.84777 c 0.42388,-0.84777 0.84777,-2.54331 0.84777,-2.54331 0.84777,-0.84776 2.11942,-0.42388 2.96719,-1.69553 0.84776,-0.84777 0.42388,-0.84777 0.84776,-1.69554 0.42389,-0.84777 0.84777,-1.69553 1.27166,-2.11942 l 2.11942,-2.5433 c 1.27165,-0.84777 1.69553,0 2.96718,-0.84777 2.11942,-2.11942 3.81496,-5.51049 5.08661,-8.47768 l 2.54331,-5.08661 c 1.27165,-3.39107 2.11942,-6.35826 2.5433,-10.17321 0.42388,-1.69554 0.84777,-2.96719 1.69554,-4.66273 0.84776,-1.69553 0.84776,-2.5433 0.84776,-4.66272 0,-3.81496 0.42389,-8.0538 -0.84776,-11.44487 -0.84777,-2.11942 -2.11942,-5.08661 -3.39108,-6.78214 -2.5433,-3.39108 -5.93437,-5.5105 -8.90156,-7.62992 -1.27165,-0.84776 -2.11942,-1.69553 -3.39107,-2.5433 h -2.54331 c -2.96718,0 -1.27165,0.84777 -3.39107,0.84777 -2.11942,0.84777 -2.96719,0 -5.08661,1.69553 -1.27165,0.84777 -2.11942,2.11942 -3.81495,2.54331 -2.96719,1.69553 -5.51049,1.69553 -8.0538,4.23884 -2.5433,2.5433 -4.66272,3.39107 -7.20603,4.66272 -2.11942,1.27165 -3.39107,2.11942 -4.66272,3.39107 -1.69554,1.69554 -2.96719,2.11942 -4.66272,3.39108 -4.23884,2.5433 -5.93438,7.20602 -8.90157,10.17321 -3.39107,3.39107 -5.08661,5.93438 -7.62991,9.32545 -0.84777,0.84777 -1.69554,2.96719 -2.96719,4.23884 -1.27165,0.84777 -2.5433,0.42388 -3.81495,2.11942 -0.42389,0.42388 -3.39108,4.23884 -3.39108,4.66272 0,0.84777 1.27166,0.84777 1.27166,1.27166 0.42388,2.11942 1.27165,0.42388 0,2.5433 -0.84777,1.27165 -0.42389,2.96719 -2.96719,2.11942 -1.27165,-0.42388 -0.42389,-1.69554 -1.27165,-2.5433 -1.69554,-0.42389 -5.08661,0 -5.93438,0.42388 -0.84777,0.42388 -1.27165,1.69554 -2.11942,2.11942 -1.27165,0.84777 -1.69554,0.42388 -3.39107,1.27165 -1.27165,0.84777 -2.54331,2.96719 -4.66273,2.54331 -2.96718,-0.42389 2.11942,-3.39108 -1.27165,-3.81496 -0.42388,0.84777 -2.11942,2.11942 -2.5433,0.84777 -0.42389,-0.84777 2.96719,-1.27165 2.5433,-0.84777 0.42389,-0.42388 0.42389,-2.11942 1.69554,-2.5433 0.84777,-0.42389 2.11942,2.5433 4.23884,0.84776 0.84777,-0.84776 0,-2.11942 0.42388,-2.96718 0.84777,-2.11942 0.84777,-0.84777 2.11942,-1.69554 0.84777,-0.42388 1.27165,-1.69554 1.69554,-1.69554 0.42388,-0.42388 2.11942,-1.27165 2.11942,-1.69553 0.84777,-1.27165 -0.42389,-2.11942 1.27165,-3.39107 0.42388,-0.42389 0.42388,-0.84777 0.84777,-0.84777 0.84777,1.69553 2.11942,1.27165 2.96719,-0.42389 0.84776,-0.42388 2.11942,-2.11942 2.5433,-2.96718 0.84777,-0.84777 0.42388,-1.27166 1.27165,-2.11942 0.84777,-1.27166 2.11942,-0.84777 2.96719,-2.11942 1.69554,-1.27166 2.5433,-4.66273 2.96719,-6.35826 0.42388,0 0.84777,0 1.27165,-0.42389 0.84777,-0.42388 1.27165,-1.27165 0.42388,-2.11942 0,0 -1.69553,-0.84777 -0.42388,-1.27165 0.84777,-0.42388 0,1.27165 0.84777,1.27165 0.84777,-0.42388 2.11942,-1.69553 2.5433,-2.11942 0.42389,-0.84777 1.69554,-1.27165 1.27165,-2.5433 -0.42388,-1.27165 -2.11942,0 -2.5433,-1.27165 0.84777,-0.84777 1.69554,-1.69554 2.11942,-2.54331 0.42388,-0.42388 0.42388,-1.27165 0.84777,-1.69553 h 0.84777 c 1.27165,-1.69554 0.42388,-2.96719 1.27165,-4.66273 0.42388,-1.69553 2.5433,-1.27165 3.39107,-2.5433 2.5433,-2.11942 2.11942,-4.66273 3.39107,-7.20603 0.84777,-1.27165 2.54331,-2.11942 3.39107,-3.39107 0.84777,-1.69554 1.69554,-3.39107 2.54331,-4.66273 0.42388,-1.27165 2.11942,-4.66272 2.11942,-5.93437 0,-2.96719 -1.27165,-2.11942 1.27165,-4.66273 0.42388,-0.42388 1.27165,-0.42388 1.69554,-0.84776 0,-0.42389 -0.42389,-1.27166 0,-2.11942 0,-0.42389 1.27165,-1.27166 1.27165,-1.69554 0,-1.27165 -0.42389,-2.11942 0,-2.96719 0.42388,-2.11942 1.69553,-4.66272 2.96719,-6.35826 0.42388,-0.84777 0.84776,-1.69553 1.27165,-2.5433 l 0.84777,-3.39107 c 0.42388,-1.69554 1.69553,-1.69554 1.27165,-3.81496 -0.42389,-1.27165 -2.11942,-3.39107 -2.54331,-4.66272 -0.42388,-0.84777 -0.42388,-1.69554 -0.84776,-2.54331 -0.42389,-1.27165 -1.27166,-2.5433 -2.11942,-3.39107 -2.11942,-2.5433 -4.66273,-3.81496 -6.78215,-5.51049 -1.27165,-0.84777 -1.69553,-2.54331 -3.39107,-2.54331 -2.5433,0 -1.69554,0.84777 -2.11942,2.54331 l -1.27165,4.66272 c -0.42389,0.84777 -1.27165,1.27165 -1.27165,1.69554 -0.42389,0.84777 -0.42389,1.69553 -0.84777,2.5433 -0.42389,1.27165 -1.27165,2.11942 -2.11942,2.96719 l -1.27165,2.96719 c -1.27166,2.5433 -2.54331,5.08661 -3.39108,7.62991 -0.84776,1.27165 -1.69553,2.11942 -2.5433,3.81496 -1.27165,1.27165 -0.42388,2.11942 -1.27165,3.81495 -0.84777,1.27165 -2.96719,2.54331 -4.23884,3.81496 -0.84777,1.27165 -1.27165,2.5433 -2.11942,3.81495 l -2.54331,5.5105 c -0.42388,0 0,0.84776 0,1.27165 -0.42388,0.84777 -1.69553,0.84777 -2.11942,1.69553 l -1.69553,2.54331 c -0.84777,2.11942 -1.69554,4.66272 -2.54331,6.35826 -0.84776,1.27165 -2.11942,2.5433 -2.5433,3.81495 -0.84777,0.42389 -0.84777,2.54331 -1.69554,2.96719 -0.84776,1.27165 -2.5433,2.54331 -3.39107,3.81496 -0.84777,0.84777 -0.84777,2.96719 -1.27165,3.81495 -1.27165,2.54331 -3.81496,4.66273 -4.66272,7.20603 -0.84777,2.96719 -1.69554,4.66273 -3.81496,7.62991 -1.27165,1.69554 -2.96719,4.23884 -4.23884,6.78215 -0.84777,2.11942 -1.69554,4.66272 -2.96719,6.35826 -0.42388,0.84777 -1.69553,1.69553 -2.11942,2.5433 -0.84777,1.69554 -0.84777,2.54331 -1.27165,4.23884 l -2.5433,5.51049 c -0.84777,0.84777 -2.11942,2.54331 -2.96719,3.81496 -0.42389,1.27165 0,2.11942 -0.84777,3.39107 -1.27165,1.69554 -2.96719,2.54331 -3.81496,4.66273 -0.42388,0.42388 0,1.27165 0,1.69553 -0.42388,0.84777 -1.27165,1.69554 -1.69553,2.11942 -0.42389,1.27165 -0.84777,3.39107 -1.69554,4.66273 -0.84777,1.69553 -2.11942,2.5433 -2.96719,4.23884 -0.84776,0.84776 -0.84776,2.96718 -1.69553,3.81495 -0.84777,0.84777 -1.69554,0.84777 -2.96719,1.69554 -0.84777,1.27165 -0.42388,2.5433 -1.27165,3.81495 -0.42389,2.11942 -2.54331,4.23884 -2.96719,6.78215 -0.42388,0.42388 0,1.27165 -0.42388,1.69553 -0.42389,1.27166 -1.69554,1.69554 -2.54331,2.54331 -0.84777,1.69553 -1.69553,2.96719 -2.5433,5.08661 -1.27165,4.66272 4.66272,12.71652 7.20603,16.10759 1.69553,2.5433 2.96718,4.23884 5.51049,5.93438 1.69553,0.84776 2.11942,1.69553 3.81495,2.11942 1.27166,0.42388 -0.42388,0.42388 1.27166,0.42388 0,0 2.5433,-1.69554 2.5433,-1.27165 0,-0.42389 -1.27165,-1.69554 -1.27165,-2.54331 0.42388,-1.27165 0.84777,0 1.27165,-0.84776 l 2.5433,-1.69554 c 0.42389,-0.42388 1.27166,-2.11942 1.27166,-2.5433 1.69553,-2.54331 4.66272,-4.23885 6.35826,-6.35827 0,-0.42388 0,-0.84776 0,-1.27165 l 2.5433,-2.5433 c 2.5433,-3.39107 0,0 1.69554,-2.96719 1.69553,-4.23884 4.23884,-8.47768 7.62991,-12.29264 1.27165,-1.69553 2.5433,-2.11942 3.81495,-2.96718 0.84777,-0.84777 1.69554,-0.42389 2.54331,-1.27166 0.42388,-0.42388 0.84777,-2.96718 1.27165,-3.81495 0,0 0.84777,-2.11942 1.27165,-2.11942 0.84777,-0.84777 0.84777,0 1.69554,-0.84777 2.11942,-1.69554 0.84777,-2.5433 2.11942,-4.23884 0.84777,-1.27165 2.96719,-1.69554 3.81495,-2.96719 0.42389,-0.42388 0.84777,-0.84777 1.27166,-0.84777 l -1.27166,-1.27165 c 0.42389,-0.84777 2.11942,-3.39107 2.96719,-3.39107 1.69554,-0.84777 2.11942,0 3.81496,-1.27165 l 2.11942,-2.11942 c 0.84777,-1.27165 1.27165,-3.39107 2.5433,-4.66273 0.84777,-1.27165 2.54331,-2.11942 4.23884,-3.39107 0.42389,-0.42388 1.27165,0 2.11942,-0.84777 v -1.27165 c -0.42388,-1.27165 0,-2.11942 1.27165,-2.5433 2.11942,-2.54331 5.08661,-5.08661 7.20603,-7.20603 1.27165,-1.27165 2.54331,-2.96719 3.81496,-3.81496 l 2.5433,-1.27165 c 5.51049,-3.81495 9.32545,-10.17321 14.83594,-14.83594 2.11942,-1.69553 0.84777,-0.84777 2.54331,-1.27165 h 0.42388 c 0.84777,1.27165 1.69554,1.27165 2.11942,-0.42388 2.11942,-0.42389 4.23884,-2.11942 5.93438,-2.96719 3.39107,-2.11942 6.78214,-7.20603 10.5971,-6.78215 0.84776,0 1.69553,-0.42388 2.11942,0.42389 1.27165,1.27165 -1.27166,2.96719 -1.27166,3.81495 -0.42388,1.27166 0.42389,2.54331 0,3.81496 0,0.42388 -1.27165,2.5433 -1.69553,2.96719 -2.54331,5.08661 -6.78215,8.05379 -9.74933,12.29263 -2.54331,3.39108 -5.5105,6.78215 -9.32545,9.32545 l -5.08661,3.81496 c -0.42388,0.42388 -1.27165,0 -1.27165,0.42388 -0.84777,0.84777 -1.69554,1.69554 -2.54331,2.54331 h -1.69553 c -2.11942,0.84776 -3.81496,2.5433 -5.93438,3.81495 l -5.51049,2.54331 c -1.27165,0.42388 -2.11942,1.27165 -3.39107,2.11942 0,0 -3.39107,2.11942 -2.96719,1.69553 l -0.84777,0.84777 c -1.27165,0.84777 -1.27165,1.69554 0.42389,2.5433 0,0.84777 0.42388,2.11942 -0.84777,2.96719 -1.69554,0.84777 -0.42389,-3.39107 -2.54331,-3.81495 -1.27165,-0.42389 -1.27165,0.42388 -1.69553,0.42388 -0.84777,0 -3.39107,0.42388 -3.81496,0.84777 -5.93437,2.11942 6.35826,6.35826 1.69554,8.90156 -1.27165,-0.84777 -6.78215,-6.35826 -8.0538,-2.96719 1.69554,1.69554 1.69554,3.81496 2.54331,6.35826 l 1.27165,2.54331 c 0,1.27165 -0.42389,2.5433 0,3.81495 0.42388,1.27166 1.69553,3.39108 2.5433,4.66273 0.84777,2.11942 1.27165,3.81495 2.54331,5.51049 0.42388,1.69554 1.27165,2.96719 2.11942,4.66272 0.84776,1.69554 1.69553,2.54331 2.96718,4.23884 0.84777,1.27166 0.84777,2.54331 1.69554,4.23884 0.42388,0.84777 2.5433,2.11942 3.39107,2.54331 2.96719,2.5433 6.35826,4.66272 10.17322,5.93438 2.96719,0.84776 5.51049,1.27165 8.47768,1.27165 0.42388,0 1.69553,-0.84777 2.11942,-0.84777 0.42388,0.42388 0.84777,1.69554 1.27165,2.11942 1.27165,0 4.23884,-0.84777 5.51049,-1.27165 0.42389,0 0.42389,-0.84777 1.27165,-0.84777 0.84777,0 1.27166,0.42388 1.69554,0.42388 2.11942,0.42389 1.27165,0.42389 2.96719,-0.42388 2.96719,-1.27165 3.81495,0.42388 6.78214,-1.27165 1.27165,-0.42389 2.11942,-1.27165 2.96719,-2.11942 1.69554,-1.27166 1.69554,-0.84777 2.96719,-1.69554 2.96719,-1.27165 3.39107,-1.69554 5.51049,-4.23884 2.5433,-2.11942 4.23884,-5.08661 6.78214,-7.20603 2.54331,-1.69553 5.08661,-3.81495 6.78215,-6.78214 2.11942,-3.81496 5.93437,-6.35826 8.47768,-10.17322 l 3.81495,-4.23884 c 1.27166,-2.11942 2.11942,-3.81495 3.81496,-5.51049 3.81496,-3.39107 6.35826,-6.78214 9.32545,-10.5971 1.27165,-1.69554 1.69553,-2.96719 3.39107,-4.23884 2.11942,-1.27165 2.5433,-0.84777 2.96719,-3.39107 0.42388,-2.96719 0,-3.39107 2.5433,-5.93438 1.27165,-1.27165 2.54331,-2.96719 3.39107,-4.66272 0.84777,-1.27165 0.84777,-1.69554 1.27166,-2.54331 0.42388,-0.84776 0.42388,-2.5433 0.84776,-2.96718 0,-0.84777 0,-3.39108 1.69554,-4.23884 0.42388,-4.23884 -4.23884,1.69553 -5.08661,2.5433 z m -139.88172,16.95536 c 0,0 0,0 0,0 z m -4.23884,18.22701 c -1.27165,2.54331 -2.96719,4.66273 -5.08661,6.78215 -0.84776,0.84776 -5.51049,6.78214 -6.35826,2.96718 0,-0.84776 0.42389,-1.69553 1.27166,-2.11942 v -1.69553 c 0.42388,-1.27165 0.84776,-3.39107 1.69553,-4.66273 0.42389,-0.84776 1.69554,-1.69553 2.11942,-2.5433 0,-0.42388 -0.84777,-1.27165 -0.84777,-2.11942 0,-1.69554 0.42389,-2.96719 2.11942,-3.81496 0.84777,-0.84776 1.69554,0 2.54331,-0.42388 0.42388,-0.42388 0.42388,1.27165 1.27165,0 0.42388,-0.42388 0,-1.69554 0.42388,-2.5433 0,-0.42389 0.84777,-0.84777 0.84777,-1.27166 0,-0.84776 -1.69553,-0.42388 -2.11942,-0.84776 -0.84777,-1.27166 2.54331,-2.11942 2.96719,-2.11942 2.11942,0 0.84777,0 2.11942,1.27165 1.27165,2.11942 2.11942,4.23884 2.11942,6.78214 -1.69554,2.11942 -3.81496,3.81496 -5.08661,6.35826 z m -2.5433,-9.74933 c 0,0 -0.42389,0 -0.42389,0.42388 0,-0.42388 -0.42388,-0.84776 -0.42388,-0.84776 0.42388,-0.84777 0.84777,-0.84777 0.84777,0.42388 z m 52.56161,4.66272 c 0.42389,-0.42388 0.84777,-0.42388 1.27166,-0.42388 0.42388,-1.27165 0.84776,-1.69554 2.11942,-1.27165 1.69553,0.42388 -1.69554,0.84777 -2.11942,1.27165 0,1.27165 -1.69554,0.84777 -1.27166,0.42388 z m -2.96718,1.69554 -0.42389,0.42388 c 0,-0.42388 0,-0.84776 -0.42388,-0.84776 0,-0.42389 1.69553,-1.27166 0.84777,0.42388 z m 7.20602,0 c -0.42388,0 -0.42388,0 -0.42388,-0.42388 0.42388,0 0.42388,0 0.84777,-0.42389 0,0.42389 1.69553,2.54331 -0.42389,0.84777 z m -13.98817,4.23884 c -1.69553,1.69554 -0.84777,2.5433 -1.69553,4.66272 -0.84777,1.27166 -0.84777,2.11942 -2.54331,1.27166 -0.84777,-0.42389 -3.39107,-4.66273 -2.5433,-5.5105 1.69553,-2.11942 2.11942,2.11942 3.81495,1.27166 0.42389,-0.42389 -0.42388,-2.54331 1.27166,-2.96719 1.69553,-1.27165 3.81495,0.84777 5.0866,2.11942 -1.27165,0.84777 -2.5433,0.42388 -3.39107,-0.84777 z m -27.12857,-0.84777 c 0,-0.42388 0.42388,-0.42388 0.42388,-0.42388 0,0 0.42388,0.42388 0.42388,0.84777 -0.42388,0 -2.11942,1.27165 -0.84776,-0.42389 z m -26.7047,4.23884 c 0,0 -1.27165,-1.69553 0.42389,-0.84777 l 0.42388,0.42389 c 0,0.42388 -0.42388,0.42388 -0.84777,0.42388 z m -6.78214,13.98817 -0.42388,0.42389 c 0,-0.42389 -0.42389,-0.42389 -0.42389,-0.84777 -0.42388,0 2.11942,-2.11942 0.84777,0.42388 z m 5.08661,0 c -0.84777,1.27166 -2.11942,-0.42388 -2.11942,-0.42388 0,0 2.96719,-0.84777 2.11942,0.42388 z m -3.81496,3.39108 c 0,0.42388 -0.42388,0.42388 -0.84777,0.42388 -0.84776,-0.42388 0.42389,-0.84777 0.84777,-0.42388 z m -5.93437,8.05379 c -0.42389,-0.42388 -0.42389,-1.27165 -0.42389,-1.69553 0,-0.84777 -0.42388,-0.84777 -1.27165,-0.42389 -0.84777,-0.42388 -1.69554,0.42389 -2.11942,-0.42388 -0.84777,-0.84777 -0.42388,-2.96719 0.42388,-3.39107 -0.84776,0.42388 4.66273,1.27165 4.66273,1.27165 2.96719,0.42388 3.39107,0.84777 3.39107,4.23884 -2.11942,1.69553 -2.5433,2.96719 -4.66272,0.42388 z m 5.93437,-3.81495 c -0.42388,0.42388 -0.84777,0.42388 -1.27165,0.42388 0,-3.39107 2.11942,-2.11942 1.27165,-0.42388 z"/>
  </g>
  <g transform="translate(0,16)" style="font-weight:600;font-size:184.983px;line-height:1.25;font-family:Overpass;letter-spacing:0px;word-spacing:0px;fill:#ffffff">
   <path d="m 412.9803,520.54974 h 89.34679 v -18.86826 h -65.85395 c 3.14471,-13.68874 14.24369,-23.67783 31.26213,-32.74199 19.42321,-10.35905 33.48192,-19.79319 33.48192,-41.80616 0,-22.19796 -16.09352,-38.29148 -42.36111,-38.29148 -21.08806,0 -37.55154,11.28396 -43.84097,27.74745 l 17.57339,7.95427 c 4.06962,-10.54404 12.02389,-17.20342 26.0826,-17.20342 13.31878,0 22.56793,8.50921 22.56793,19.23823 0,12.57884 -10.54403,19.6082 -21.64301,25.34267 -24.04779,12.39386 -46.61572,33.11196 -46.61572,68.62869 z"/>
   <path d="m 565.22384,522.76954 c 28.85735,0 49.57544,-17.94335 49.57544,-45.6908 0,-21.08806 -13.50375,-41.62118 -41.06622,-41.62118 -10.54403,0 -19.42322,3.14471 -24.78772,7.02936 l 2.77474,-32.92698 h 54.75497 v -18.4983 h -72.69832 l -4.43959,64.00412 20.90308,7.76929 c 4.99454,-5.54949 11.83891,-8.87919 20.71809,-8.87919 14.24369,0 23.86281,8.13926 23.86281,23.67783 0,15.72355 -11.83891,26.63755 -29.59728,26.63755 -14.61366,0 -22.01298,-4.62458 -28.11742,-8.6942 l -11.46894,15.35359 c 6.10444,5.3645 18.68328,11.83891 39.58636,11.83891 z"/>
  </g>
 </g>
</svg>
