<svg xmlns="http://www.w3.org/2000/svg" width="24" height="24" version="1.1">
 <defs>
   <style id="current-color-scheme" type="text/css">
   .ColorScheme-Text { color: #ececec; } .ColorScheme-Highlight { color: #4285f4; }
  </style>
  <linearGradient id="arrongin" x1="0%" x2="0%" y1="0%" y2="100%">
   <stop offset="0%" style="stop-color:#dd9b44; stop-opacity:1"/>
   <stop offset="100%" style="stop-color:#ad6c16; stop-opacity:1"/>
  </linearGradient>
  <linearGradient id="aurora" x1="0%" x2="0%" y1="0%" y2="100%">
   <stop offset="0%" style="stop-color:#09D4DF; stop-opacity:1"/>
   <stop offset="100%" style="stop-color:#9269F4; stop-opacity:1"/>
  </linearGradient>
  <linearGradient id="cyberneon" x1="0%" x2="0%" y1="0%" y2="100%">
    <stop offset="0" style="stop-color:#0abdc6; stop-opacity:1"/>
    <stop offset="1" style="stop-color:#ea00d9; stop-opacity:1"/>
  </linearGradient>
  <linearGradient id="fitdance" x1="0%" x2="0%" y1="0%" y2="100%">
   <stop offset="0%" style="stop-color:#1AD6AB; stop-opacity:1"/>
   <stop offset="100%" style="stop-color:#329DB6; stop-opacity:1"/>
  </linearGradient>
  <linearGradient id="oomox" x1="0%" x2="0%" y1="0%" y2="100%">
   <stop offset="0%" style="stop-color:#efefe7; stop-opacity:1"/>
   <stop offset="100%" style="stop-color:#8f8f8b; stop-opacity:1"/>
  </linearGradient>
  <linearGradient id="rainblue" x1="0%" x2="0%" y1="0%" y2="100%">
   <stop offset="0%" style="stop-color:#00F260; stop-opacity:1"/>
   <stop offset="100%" style="stop-color:#0575E6; stop-opacity:1"/>
  </linearGradient>
  <linearGradient id="sunrise" x1="0%" x2="0%" y1="0%" y2="100%">
   <stop offset="0%" style="stop-color: #FF8501; stop-opacity:1"/>
   <stop offset="100%" style="stop-color: #FFCB01; stop-opacity:1"/>
  </linearGradient>
  <linearGradient id="telinkrin" x1="0%" x2="0%" y1="0%" y2="100%">
   <stop offset="0%" style="stop-color: #b2ced6; stop-opacity:1"/>
   <stop offset="100%" style="stop-color: #6da5b7; stop-opacity:1"/>
  </linearGradient>
  <linearGradient id="60spsycho" x1="0%" x2="0%" y1="0%" y2="100%">
   <stop offset="0%" style="stop-color: #df5940; stop-opacity:1"/>
   <stop offset="25%" style="stop-color: #d8d15f; stop-opacity:1"/>
   <stop offset="50%" style="stop-color: #e9882a; stop-opacity:1"/>
   <stop offset="100%" style="stop-color: #279362; stop-opacity:1"/>
  </linearGradient>
  <linearGradient id="90ssummer" x1="0%" x2="0%" y1="0%" y2="100%">
   <stop offset="0%" style="stop-color: #f618c7; stop-opacity:1"/>
   <stop offset="20%" style="stop-color: #94ffab; stop-opacity:1"/>
   <stop offset="50%" style="stop-color: #fbfd54; stop-opacity:1"/>
   <stop offset="100%" style="stop-color: #0f83ae; stop-opacity:1"/>
  </linearGradient>
 </defs>
 <path fill="currentColor" class="ColorScheme-Text" d="M 8.0019531 1 C 5.4759123 1 3.4277344 3.0410149 3.4277344 5.5605469 C 3.4277344 6.0037897 3.4927534 6.4327286 3.6113281 6.8378906 C 3.0353304 7.2992882 0.80097202 9.298031 1.7207031 11.890625 C 1.7207031 11.890625 2.4976588 11.824775 3.1367188 10.646484 C 3.3307905 11.400573 3.6925959 12.08371 4.1855469 12.65625 C 3.4634403 12.868351 2.9726562 13.279928 2.9726562 13.751953 C 2.9726562 14.44095 4.0170649 15 5.3027344 15 C 6.1753909 15 6.9336736 14.743204 7.3320312 14.363281 C 7.5514167 14.392063 7.7730649 14.410156 8 14.410156 C 8.2273792 14.410156 8.4494716 14.392063 8.6679688 14.363281 C 9.0672147 14.743204 9.8265623 15 10.699219 15 C 11.985332 15 13.029297 14.440507 13.029297 13.751953 C 13.029297 13.280371 12.538513 12.868351 11.816406 12.65625 C 12.308913 12.08371 12.671163 11.400573 12.865234 10.646484 C 13.50385 11.824332 14.28125 11.890625 14.28125 11.890625 C 15.202313 9.2975882 12.966179 7.2988454 12.390625 6.8378906 C 12.509644 6.4327286 12.576172 6.0037897 12.576172 5.5605469 C 12.576172 3.0414577 10.528882 1 8.0019531 1 z" transform="translate(4 4)"/>
</svg>
