<?xml version="1.0" standalone="no"?><!-- Generator: Gravit.io --><svg xmlns="http://www.w3.org/2000/svg" xmlns:xlink="http://www.w3.org/1999/xlink" style="isolation:isolate" viewBox="0 0 16 16" width="16" height="16"><defs><clipPath id="_clipPath_SINWYHTEN4lAZqjYteg5IEl1XVImK3vV"><rect width="16" height="16"/></clipPath></defs><g clip-path="url(#_clipPath_SINWYHTEN4lAZqjYteg5IEl1XVImK3vV)"><rect width="16" height="16" style="fill:rgb(0,0,0)" fill-opacity="0"/><clipPath id="_clipPath_4XWokLwp8xwsfY37DlxaQZ51Qdky0xLr"><rect x="0" y="0" width="16" height="16" transform="matrix(1,0,0,1,0,0)" id="kmplot-symbolic" fill="rgb(255,255,255)"/></clipPath><g clip-path="url(#_clipPath_4XWokLwp8xwsfY37DlxaQZ51Qdky0xLr)"><path d=" M -0.8 -0.8 L 16.8 -0.8 L 16.8 16.8 L -0.8 16.8 L -0.8 -0.8 Z  M 0.8 0.8 L 15.2 0.8 L 15.2 15.2 L 0.8 15.2 L 0.8 0.8 Z " fill-rule="evenodd" id="Compound Path" fill="rgb(247,247,247)"/><path d=" M 15.25 0.43 L 15.25 0.18 L 15.75 0.18 L 15.75 0.43 C 15.75 1.61 15.43 2.78 14.82 3.8 C 14.28 4.68 13.56 5.45 12.72 6.05 C 11.98 6.59 11.18 7.04 10.34 7.4 C 9.74 7.65 9.14 7.87 8.53 8.06 C 8.44 8.09 8.34 8.12 8.25 8.16 C 6.74 8.58 5.31 9.23 4 10.09 C 3.11 10.68 2.35 11.43 1.75 12.31 C 1.11 13.28 0.76 14.41 0.75 15.57 L 0.75 15.82 L 0.25 15.82 L 0.25 15.57 C 0.26 14.31 0.64 13.08 1.33 12.03 C 1.97 11.09 2.78 10.29 3.72 9.67 C 5.07 8.79 6.55 8.11 8.1 7.68 C 8.19 7.65 8.29 7.62 8.38 7.59 C 8.98 7.4 9.56 7.18 10.14 6.94 C 10.95 6.59 11.72 6.16 12.43 5.64 C 13.22 5.08 13.88 4.36 14.4 3.54 C 14.95 2.6 15.25 1.52 15.25 0.43 Z " id="Path" fill="rgb(247,247,247)"/><path d=" M 8.37 15.53 L 8.37 15.68 L 8.07 15.68 L 8.07 15.53 L 8.04 0.31 L 8.04 0.16 L 8.34 0.16 L 8.34 0.31 L 8.37 15.53 Z " id="Path" fill="rgb(247,247,247)"/><path d=" M 0.59 8.09 L 0.44 8.09 L 0.44 7.79 L 0.59 7.79 L 15.81 7.76 L 15.96 7.76 L 15.96 8.06 L 15.81 8.06 L 0.59 8.09 Z " id="Path" fill="rgb(247,247,247)"/></g></g></svg>